<svg width="18" height="19" viewBox="0 0 18 19" fill="none" xmlns="http://www.w3.org/2000/svg">
<path d="M7.98933 17.9603C7.72172 17.9283 7.44103 17.8871 7.3658 17.8686C7.25508 17.8423 7.14372 17.8189 7.03181 17.7983C6.90401 17.7735 6.77722 17.7438 6.6517 17.7093C6.06881 17.5422 6.02705 17.5286 5.58759 17.3488C5.1833 17.184 4.43841 16.799 4.18359 16.6238C4.11384 16.5754 4.04859 16.5364 4.03861 16.5364C4.02863 16.5364 3.86564 16.4217 3.67608 16.2815C2.47092 15.3895 1.56614 14.3067 0.912375 12.973C0.799875 12.7439 0.708047 12.5407 0.708047 12.5216C0.708047 12.5028 0.687797 12.4506 0.663047 12.4067C0.612 12.3154 0.539297 12.1188 0.480656 11.9156C0.455453 11.8293 0.426122 11.7442 0.392766 11.6607C0.365344 11.596 0.343266 11.5173 0.343266 11.4855C0.343266 11.4536 0.315844 11.3498 0.282375 11.2541C0.248906 11.1592 0.221906 11.0471 0.221906 11.0052C0.221906 10.9636 0.195609 10.8196 0.163125 10.6852C0.0840938 10.3533 0 9.49366 0 9.01188C0 8.53066 0.0840938 7.67102 0.163125 7.33929C0.195469 7.20471 0.221906 7.05804 0.221906 7.01304C0.221906 6.9679 0.242297 6.87944 0.266906 6.81616C0.292219 6.75316 0.324563 6.63996 0.339469 6.56473C0.354938 6.48949 0.390094 6.35984 0.418641 6.27574L0.501609 6.03302C0.5625 5.85119 0.619031 5.69735 0.646031 5.63744C0.6615 5.60398 0.721828 5.46729 0.780609 5.33369C0.875672 5.11784 1.07944 4.71073 1.19855 4.49768C1.242 4.41963 1.25845 4.39376 1.49358 4.0263C1.86609 3.44299 2.5027 2.71723 3.0953 2.19987C3.30413 2.01748 4.00177 1.48788 4.03313 1.48788C4.04184 1.48788 4.10766 1.44837 4.1798 1.39999C4.36922 1.27315 4.55498 1.16543 4.79714 1.04407C4.88407 1.00108 4.97015 0.956402 5.05533 0.910055C5.09541 0.886992 5.17064 0.852398 5.55694 0.67943C5.64202 0.641461 5.7337 0.606867 5.99794 0.514477C6.05616 0.494227 6.17316 0.451336 6.25669 0.419977C6.34078 0.388758 6.43964 0.362883 6.47649 0.362883C6.51277 0.362883 6.60825 0.33757 6.68855 0.306352C6.7687 0.274992 6.91425 0.239273 7.01255 0.22718C7.11042 0.215648 7.2405 0.188227 7.30153 0.166711C7.362 0.145898 7.52794 0.118898 7.67011 0.106945C7.8554 0.0901745 8.04021 0.0683696 8.22431 0.0415547C8.60231 -0.0138516 9.42413 -0.0138516 9.79819 0.0415547C9.97487 0.0669097 10.1522 0.0877758 10.3299 0.104133C10.4639 0.115242 10.6348 0.143227 10.71 0.166289C10.7852 0.188789 10.9155 0.216914 10.999 0.22718C11.0825 0.238289 11.2231 0.272883 11.3115 0.304664C11.4 0.337008 11.5005 0.362883 11.535 0.362883C11.5696 0.362883 11.6411 0.382148 11.6933 0.406336C11.746 0.429961 11.8575 0.469476 11.9416 0.494226C12.0251 0.519539 12.1684 0.569461 12.2608 0.606305C12.3525 0.643008 12.4755 0.691383 12.5343 0.71332C12.6426 0.754101 13.4428 1.15446 13.5516 1.22266C14.4349 1.77349 14.8892 2.13335 15.5001 2.76448C16.2367 3.52582 16.7257 4.25088 17.2233 5.31823C17.2585 5.3936 17.3122 5.50512 17.343 5.56544C17.3732 5.62648 17.3985 5.69791 17.3985 5.72435C17.3985 5.75107 17.4239 5.83123 17.4551 5.9028C17.5397 6.09729 17.6122 6.31863 17.6463 6.4878C17.6632 6.57077 17.6946 6.67343 17.7159 6.71576C17.7375 6.75794 17.7626 6.86524 17.7726 6.95313C17.7825 7.04088 17.8116 7.18488 17.8363 7.27221C17.9798 7.76876 18.051 9.23168 17.9643 9.87869C17.9385 10.0709 17.9094 10.3034 17.8996 10.3951C17.883 10.5521 17.8 10.9581 17.7292 11.2311L17.656 11.5201C17.5182 12.0765 17.1776 12.8692 16.7618 13.6026C16.597 13.8937 16.0445 14.6809 15.9401 14.7731C15.9307 14.7813 15.884 14.8364 15.8368 14.8945C15.7895 14.9533 15.6379 15.1175 15.5007 15.2593C14.8958 15.8838 14.408 16.27 13.5516 16.8018C13.4501 16.8649 12.5888 17.2857 12.4277 17.3511C12.3442 17.3846 12.2047 17.4411 12.1179 17.4762C12.0317 17.511 11.9355 17.5401 11.9053 17.5406C11.8751 17.5411 11.7955 17.5681 11.7284 17.6004C11.6615 17.6328 11.5763 17.6598 11.5384 17.6603C11.501 17.6609 11.3918 17.6873 11.2956 17.7191C11.1995 17.7514 11.0659 17.7862 10.9988 17.7964C10.9319 17.807 10.7886 17.8355 10.6798 17.8597C10.5711 17.8839 10.2424 17.9312 9.95035 17.9646C9.2988 18.0407 8.64053 18.0392 7.98933 17.9603ZM8.65069 16.2025C8.69288 16.1696 8.73633 16.104 8.74786 16.058C8.77317 15.9564 12.8589 7.76538 12.9358 7.66273C13.0006 7.57596 13.0067 7.43702 12.9473 7.38808C12.9161 7.36179 12.5249 7.35349 11.4806 7.35518C10.6973 7.35687 10.0388 7.35743 10.0173 7.35687C9.9855 7.35574 9.97889 6.83234 9.98213 4.59049C9.98438 3.06935 9.9772 1.8109 9.96624 1.79346C9.95527 1.77574 9.91238 1.76154 9.87061 1.76154C9.81183 1.76154 9.78441 1.78685 9.74827 1.87516C9.68006 2.03941 9.49163 2.41235 8.57433 4.19337C8.38379 4.56297 8.19371 4.93282 8.00409 5.3029C7.84153 5.62099 7.58503 6.12035 7.43498 6.41243C7.03111 7.19757 6.62808 7.98315 6.22589 8.76916C5.53219 10.1242 5.44823 10.2858 5.41842 10.3215C5.36077 10.3913 5.32941 10.5521 5.36189 10.6126C5.39142 10.668 5.45034 10.6703 6.91481 10.668C7.75195 10.667 8.44242 10.6714 8.44959 10.6779C8.46886 10.6977 8.46169 15.9246 8.44186 16.0492C8.42878 16.131 8.4375 16.1743 8.47491 16.2117C8.53959 16.2766 8.55731 16.276 8.65069 16.2025Z" fill="white"/>
</svg>
