<svg width="18" height="18" viewBox="0 0 18 18" fill="none" xmlns="http://www.w3.org/2000/svg">
<path fill-rule="evenodd" clip-rule="evenodd" d="M4.37786 0.450422C4.98105 0.238128 5.60514 0.0907244 6.23957 0.0107072C6.28373 0.00539679 6.32851 0.00957478 6.37092 0.0229619C6.41333 0.0363489 6.4524 0.0586365 6.4855 0.0883344C6.51861 0.118032 6.54499 0.154456 6.56289 0.19517C6.58079 0.235884 6.58979 0.27995 6.58929 0.324422V4.61871C6.58929 4.77299 6.47872 4.90285 6.32957 4.94271C5.83072 5.07642 5.391 5.31428 5.03486 5.66914C4.44471 6.25928 4.17857 7.08471 4.17857 8.02585C4.17857 8.96828 4.44471 9.79371 5.03486 10.3839C5.625 10.974 6.45171 11.2401 7.39286 11.2401C7.60114 11.2401 7.80386 11.2273 8.001 11.2016C8.05168 11.1944 8.10332 11.1985 8.15222 11.2136C8.20112 11.2287 8.24607 11.2545 8.28386 11.289C9.22114 12.1607 10.629 12.9926 12.3493 13.4927C12.4506 13.5223 12.5567 13.5316 12.6616 13.5201C12.7665 13.5086 12.8681 13.4766 12.9607 13.4259C13.0532 13.3751 13.1348 13.3067 13.2009 13.2244C13.267 13.1421 13.3162 13.0476 13.3457 12.9463C13.3753 12.845 13.3846 12.7388 13.3731 12.6339C13.3616 12.529 13.3296 12.4274 13.2789 12.3349C13.2281 12.2424 13.1597 12.1607 13.0774 12.0947C12.9951 12.0286 12.9006 11.9794 12.7993 11.9499C11.5264 11.5796 10.4863 11.0113 9.75214 10.4314C9.74866 10.4286 9.74581 10.4251 9.74377 10.4211C9.74173 10.4171 9.74055 10.4127 9.74031 10.4082C9.74007 10.4037 9.74077 10.3992 9.74236 10.395C9.74396 10.3909 9.74641 10.387 9.74957 10.3839C10.341 9.79371 10.6071 8.96828 10.6071 8.02585C10.6071 7.08471 10.3397 6.25928 9.74957 5.66914C9.39074 5.31623 8.94424 5.06547 8.45614 4.94271C8.3831 4.92462 8.31806 4.88293 8.2711 4.82413C8.22415 4.76532 8.1979 4.69266 8.19643 4.61742V0.316707C8.19643 0.128993 8.35586 -0.0175785 8.54229 0.00170724C9.17365 0.0711193 9.79755 0.196761 10.4066 0.377136C10.7841 0.489057 11.1539 0.625636 11.5136 0.785993L11.5804 0.81685L11.5997 0.827136H11.601C13.3149 1.67314 14.5646 3.20699 14.895 5.58556C14.922 5.78228 15.0583 6.08185 15.3231 6.49842C15.5121 6.79542 15.732 7.10014 15.9634 7.42028L16.2167 7.76999C16.5214 8.19814 16.8403 8.66614 17.0331 9.10328C17.2106 9.50571 17.388 10.1229 17.0126 10.6577C16.8592 10.8771 16.6553 11.0564 16.4181 11.1806C16.1809 11.3048 15.9174 11.3702 15.6497 11.3713L15.588 11.3726C15.5041 11.3746 15.4243 11.4093 15.3657 11.4694C15.3071 11.5295 15.2743 11.6101 15.2743 11.694V12.5336C15.2743 13.2155 15.0034 13.8696 14.5211 14.3518C14.0389 14.8341 13.3848 15.105 12.7029 15.105H12.069C11.7771 15.105 11.5933 15.2798 11.5534 15.4676V17.0169C11.5534 17.1873 11.4857 17.3509 11.3651 17.4714C11.2446 17.592 11.0811 17.6597 10.9106 17.6597H3.17057C3.00008 17.6597 2.83656 17.592 2.716 17.4714C2.59544 17.3509 2.52771 17.1873 2.52771 17.0169L2.53029 15.9523C2.53286 15.0291 2.32843 14.1433 1.86943 13.4014L1.66114 13.0671C1.26257 12.4281 0.864 11.793 0.565714 11.0177C0.208286 10.0881 0 8.97985 0 7.38428C0 4.36799 1.08771 2.16685 3.20529 0.977564L3.22071 0.968564L3.28629 0.931279C3.342 0.899564 3.42043 0.85885 3.52157 0.809136C3.72343 0.70885 4.01271 0.580279 4.37786 0.450422Z" fill="white"/>
</svg>
