<svg id="Layer_1" data-name="Layer 1" xmlns="http://www.w3.org/2000/svg" viewBox="0 0 480 457"><defs><style>.cls-1{fill:#fff;}</style></defs><path class="cls-1" d="M238.47,148.71c42.83,0,85.68.69,128.48-.35,17-.41,29.25,6.36,40.82,17.25,7.16,6.74,8.92,14.13,6.6,23.45-5.9,23.77-20.63,41.13-39.72,55.21-29.44,21.72-63.16,32.48-99,37-38.89,4.9-77.18,1.77-114.44-10.67-30.74-10.25-57.87-26.22-78.61-51.77A83.19,83.19,0,0,1,64.68,180.3c-1.07-6.12.36-11.36,4.79-15.48a124.94,124.94,0,0,1,13.2-10.65c5.57-3.91,11.84-5.53,18.82-5.5,45.66.16,91.32.08,137,.08Z"/><path class="cls-1" d="M418.82,234.6c2.27,1.64,4.17,2.44,5.1,3.87a9.73,9.73,0,0,1,1,5.11q.1,42,0,84c0,7.13.18,14.41-1.1,21.37-4.08,22-21.22,36-43.78,36q-99.7.12-199.41,0c-25.32,0-50.68-.85-75.95.24-26,1.12-49.89-24.73-49.72-48.09.24-32.81,0-65.63,0-98.45a50.3,50.3,0,0,1,.67-5.32c2.66,2.47,4.88,4.12,6.6,6.18,24,28.61,55.31,45.38,90.2,56.41,39.18,12.39,79.31,15.46,120,10.78s78.95-16.39,112.42-40.59c11-7.92,20.21-18.21,30.21-27.45C416.61,237.2,418,235.53,418.82,234.6Z"/><path class="cls-1" d="M322.83,133.93c-11.14,0-21.65.47-32.06-.33-2.59-.2-5.94-4-7.12-6.93-4.57-11.27-10.43-15.86-22.56-16q-19-.15-38,0c-12.74.1-22.42,7-26.18,19.22-1.06,3.45-2.64,4.27-6,4.18-8.49-.25-17-.12-25.49-.16a8.08,8.08,0,0,1-8-9.44c4.24-28.39,28-50.86,56.83-52.21a408.7,408.7,0,0,1,53.42.79c26.24,2.24,53.1,30.92,55.13,57.09C322.89,131.15,322.83,132.12,322.83,133.93Z"/></svg>