<svg width="19" height="19" viewBox="0 0 19 19" fill="none" xmlns="http://www.w3.org/2000/svg">
<path d="M1.83333 16.5H12.8333V18.3333H1.83333C0.825 18.3333 0 17.5083 0 16.5V4.58333H1.83333M18.3333 1.83333V12.8333C18.3333 13.8417 17.5083 14.6667 16.5 14.6667H5.5C4.49167 14.6667 3.66667 13.8417 3.66667 12.8333V1.83333C3.66667 0.825 4.49167 0 5.5 0H16.5C17.5083 0 18.3333 0.825 18.3333 1.83333ZM9.16667 5.5H7.33333V11H9.16667M11.9167 3.66667H10.0833V11H11.9167M14.6667 8.25H12.8333V11H14.6667V8.25Z" fill="white"/>
</svg>
