<svg width="19" height="17" viewBox="0 0 19 17" fill="none" xmlns="http://www.w3.org/2000/svg">
<path d="M3.92 0H13.58C14.115 0 14.56 -2.79397e-08 14.925 0.03C16.334 0.145 17.293 1.15 17.405 2.574C17.47 3.385 17.49 4.522 17.497 5.192C17.499 5.37733 17.5 5.563 17.5 5.749C17.5001 5.94791 17.4212 6.13873 17.2807 6.27948C17.1401 6.42022 16.9494 6.49937 16.7505 6.4995C16.5516 6.49963 16.3608 6.42074 16.22 6.28018C16.0793 6.13963 16.0001 5.94891 16 5.75C15.999 5.3333 15.9943 4.91662 15.986 4.5H1.5V12.55C1.5 13.122 1.5 13.507 1.525 13.802C1.548 14.09 1.59 14.227 1.636 14.317C1.756 14.553 1.947 14.744 2.183 14.864C2.273 14.91 2.41 14.952 2.697 14.975C2.993 14.999 3.377 15 3.95 15H13.55C14.122 15 14.507 15 14.802 14.975C15.09 14.952 15.227 14.91 15.317 14.864C15.405 14.8164 15.5016 14.7869 15.6012 14.7772C15.7007 14.7675 15.8012 14.7778 15.8967 14.8076C15.9923 14.8373 16.0809 14.8858 16.1573 14.9503C16.2338 15.0148 16.2966 15.094 16.342 15.1831C16.3875 15.2722 16.4146 15.3695 16.4219 15.4693C16.4291 15.5691 16.4163 15.6693 16.3843 15.764C16.3522 15.8588 16.3015 15.9462 16.2352 16.021C16.1689 16.0959 16.0882 16.1568 15.998 16.2C15.661 16.372 15.305 16.44 14.925 16.47C14.561 16.5 14.115 16.5 13.581 16.5H3.919C3.385 16.5 2.939 16.5 2.575 16.47C2.195 16.44 1.839 16.372 1.502 16.2C0.984751 15.9369 0.56401 15.5168 0.3 15C0.128 14.662 0.06 14.306 0.03 13.926C-2.79397e-08 13.561 0 13.116 0 12.582V3.92C0 3.387 -2.79397e-08 2.94 0.03 2.575C0.143 1.194 1.164 0.145 2.575 0.03C2.94 -2.79397e-08 3.385 0 3.92 0Z" fill="white"/>
<path d="M3 6.25C3 6.05109 3.07902 5.86032 3.21967 5.71967C3.36032 5.57902 3.55109 5.5 3.75 5.5H9.75C9.94891 5.5 10.1397 5.57902 10.2803 5.71967C10.421 5.86032 10.5 6.05109 10.5 6.25C10.5 6.44891 10.421 6.63968 10.2803 6.78033C10.1397 6.92098 9.94891 7 9.75 7H3.75C3.55109 7 3.36032 6.92098 3.21967 6.78033C3.07902 6.63968 3 6.44891 3 6.25Z" fill="white"/>
<path fill-rule="evenodd" clip-rule="evenodd" d="M14.25 6.5C13.7476 6.50019 13.2521 6.61685 12.8024 6.8408C12.3527 7.06476 11.9611 7.38991 11.6582 7.79074C11.3553 8.19156 11.1495 8.65714 11.0569 9.15091C10.9643 9.64468 10.9874 10.1532 11.1245 10.6365C11.2615 11.1199 11.5087 11.5648 11.8467 11.9365C12.1847 12.3082 12.6043 12.5965 13.0724 12.7787C13.5406 12.9609 14.0446 13.0321 14.545 12.9867C15.0453 12.9413 15.5283 12.7805 15.956 12.517L17.22 13.78C17.2886 13.8537 17.3714 13.9128 17.4634 13.9538C17.5554 13.9948 17.6548 14.0168 17.7555 14.0186C17.8562 14.0204 17.9562 14.0018 18.0496 13.9641C18.143 13.9264 18.2278 13.8703 18.299 13.799C18.3702 13.7278 18.4264 13.643 18.4641 13.5496C18.5018 13.4562 18.5203 13.3562 18.5186 13.2555C18.5168 13.1548 18.4948 13.0555 18.4538 12.9635C18.4128 12.8715 18.3537 12.7887 18.28 12.72L17.017 11.456C17.3207 10.9636 17.4874 10.399 17.5 9.82055C17.5125 9.24213 17.3705 8.67084 17.0884 8.16568C16.8064 7.66053 16.3946 7.23981 15.8956 6.94699C15.3966 6.65417 14.8285 6.49986 14.25 6.5ZM12.5 9.75C12.5 9.28587 12.6844 8.84075 13.0125 8.51256C13.3407 8.18437 13.7859 8 14.25 8C14.7141 8 15.1592 8.18437 15.4874 8.51256C15.8156 8.84075 16 9.28587 16 9.75C16 10.2141 15.8156 10.6592 15.4874 10.9874C15.1592 11.3156 14.7141 11.5 14.25 11.5C13.7859 11.5 13.3407 11.3156 13.0125 10.9874C12.6844 10.6592 12.5 10.2141 12.5 9.75Z" fill="white"/>
<path d="M3 8.25C3 8.05109 3.07902 7.86032 3.21967 7.71967C3.36032 7.57902 3.55109 7.5 3.75 7.5H6.75C6.94891 7.5 7.13968 7.57902 7.28033 7.71967C7.42098 7.86032 7.5 8.05109 7.5 8.25C7.5 8.44891 7.42098 8.63968 7.28033 8.78033C7.13968 8.92098 6.94891 9 6.75 9H3.75C3.55109 9 3.36032 8.92098 3.21967 8.78033C3.07902 8.63968 3 8.44891 3 8.25ZM3.75 10.5C3.55109 10.5 3.36032 10.579 3.21967 10.7197C3.07902 10.8603 3 11.0511 3 11.25C3 11.4489 3.07902 11.6397 3.21967 11.7803C3.36032 11.921 3.55109 12 3.75 12H8.75C8.94891 12 9.13968 11.921 9.28033 11.7803C9.42098 11.6397 9.5 11.4489 9.5 11.25C9.5 11.0511 9.42098 10.8603 9.28033 10.7197C9.13968 10.579 8.94891 10.5 8.75 10.5H3.75ZM3 13.25C3 13.0511 3.07902 12.8603 3.21967 12.7197C3.36032 12.579 3.55109 12.5 3.75 12.5H6.75C6.94891 12.5 7.13968 12.579 7.28033 12.7197C7.42098 12.8603 7.5 13.0511 7.5 13.25C7.5 13.4489 7.42098 13.6397 7.28033 13.7803C7.13968 13.921 6.94891 14 6.75 14H3.75C3.55109 14 3.36032 13.921 3.21967 13.7803C3.07902 13.6397 3 13.4489 3 13.25Z" fill="white"/>
</svg>
