<svg width="19" height="18" viewBox="0 0 19 18" fill="none" xmlns="http://www.w3.org/2000/svg">
<path d="M18.205 13.9607L14.9783 1.824C14.8054 1.19081 14.3906 0.650916 13.8233 0.320671C13.2675 0.00269374 12.6087 -0.0829612 11.99 0.0823376L8.53418 0.999004C8.34912 1.04766 8.17282 1.12498 8.01168 1.22817C7.7831 0.921587 7.48562 0.673064 7.14326 0.50268C6.8009 0.332295 6.42326 0.244826 6.04085 0.247338H2.46585C1.81187 0.247338 1.18468 0.50713 0.722243 0.969564C0.259809 1.432 1.70399e-05 2.05919 1.70399e-05 2.71317V15.2073C-0.00118962 15.5319 0.0617006 15.8536 0.18508 16.1538C0.308459 16.454 0.4899 16.7269 0.718994 16.9569C0.948088 17.1868 1.22033 17.3693 1.52009 17.4938C1.81986 17.6183 2.14126 17.6823 2.46585 17.6823H6.04085C6.36587 17.6823 6.68771 17.6183 6.98799 17.4939C7.28827 17.3696 7.56111 17.1873 7.79094 16.9574C8.02076 16.7276 8.20307 16.4548 8.32745 16.1545C8.45183 15.8542 8.51585 15.5324 8.51585 15.2073V10.514L10.0192 16.1423C10.1012 16.4563 10.2458 16.7505 10.4443 17.0072C10.6428 17.264 10.891 17.478 11.1742 17.6365C11.5473 17.8528 11.9717 17.9665 12.4025 17.9665C12.6195 17.9689 12.8334 17.9445 13.0442 17.8932L16.5 16.9765C16.8145 16.8947 17.1095 16.7511 17.3678 16.5541C17.6262 16.3571 17.8428 16.1106 18.0049 15.8291C18.167 15.5475 18.2714 15.2364 18.3121 14.9141C18.3527 14.5917 18.3288 14.2645 18.2417 13.9515L18.205 13.9607ZM4.21668 14.199C3.88815 14.2008 3.56647 14.1051 3.29242 13.9239C3.01836 13.7426 2.80428 13.4842 2.67729 13.1811C2.55031 12.8781 2.51614 12.5443 2.57912 12.2218C2.6421 11.8994 2.79939 11.6029 3.03106 11.3699C3.26273 11.137 3.55835 10.978 3.88044 10.9133C4.20254 10.8485 4.53661 10.8808 4.84032 11.0061C5.14402 11.1314 5.40369 11.3441 5.58641 11.6171C5.76913 11.8902 5.86668 12.2113 5.86668 12.5398C5.8595 12.9735 5.68278 13.3871 5.37438 13.6921C5.06598 13.9971 4.65041 14.1692 4.21668 14.1715V14.199ZM13.3833 14.0982C13.0498 14.0982 12.7237 13.9992 12.4463 13.8139C12.1689 13.6286 11.9527 13.3652 11.8251 13.057C11.6974 12.7488 11.664 12.4096 11.7291 12.0825C11.7942 11.7553 11.9548 11.4547 12.1907 11.2188C12.4266 10.983 12.7271 10.8223 13.0543 10.7572C13.3815 10.6922 13.7206 10.7256 14.0288 10.8532C14.337 10.9809 14.6004 11.1971 14.7858 11.4744C14.9711 11.7518 15.07 12.0779 15.07 12.4115C15.0629 12.8509 14.8845 13.2702 14.5729 13.58C14.2613 13.8899 13.8411 14.066 13.4017 14.0707L13.3833 14.0982Z" fill="white"/>
</svg>
