<svg width="27" height="27" viewBox="0 0 27 27" fill="none" xmlns="http://www.w3.org/2000/svg">
<path d="M21.3333 21.3333C19.8533 21.3333 18.6667 22.52 18.6667 24C18.6667 24.7072 18.9476 25.3855 19.4477 25.8856C19.9478 26.3857 20.6261 26.6667 21.3333 26.6667C22.0406 26.6667 22.7189 26.3857 23.2189 25.8856C23.719 25.3855 24 24.7072 24 24C24 23.2928 23.719 22.6145 23.2189 22.1144C22.7189 21.6143 22.0406 21.3333 21.3333 21.3333ZM0 0V2.66667H2.66667L7.46667 12.7867L5.65333 16.0533C5.45333 16.4267 5.33333 16.8667 5.33333 17.3333C5.33333 18.0406 5.61428 18.7189 6.11438 19.2189C6.61448 19.719 7.29276 20 8 20H24V17.3333H8.56C8.47159 17.3333 8.38681 17.2982 8.3243 17.2357C8.26178 17.1732 8.22667 17.0884 8.22667 17C8.22667 16.9333 8.24 16.88 8.26667 16.84L9.46667 14.6667H19.4C20.4 14.6667 21.28 14.1067 21.7333 13.2933L26.5067 4.66667C26.6 4.45333 26.6667 4.22667 26.6667 4C26.6667 3.64638 26.5262 3.30724 26.2761 3.05719C26.0261 2.80714 25.687 2.66667 25.3333 2.66667H5.61333L4.36 0M8 21.3333C6.52 21.3333 5.33333 22.52 5.33333 24C5.33333 24.7072 5.61428 25.3855 6.11438 25.8856C6.61448 26.3857 7.29276 26.6667 8 26.6667C8.70724 26.6667 9.38552 26.3857 9.88562 25.8856C10.3857 25.3855 10.6667 24.7072 10.6667 24C10.6667 23.2928 10.3857 22.6145 9.88562 22.1144C9.38552 21.6143 8.70724 21.3333 8 21.3333Z" fill="white"/>
</svg>
