<svg width="26" height="27" viewBox="0 0 26 27" fill="none" xmlns="http://www.w3.org/2000/svg">
<path fill-rule="evenodd" clip-rule="evenodd" d="M11.0869 0.566988C11.6998 0.196081 12.4024 0 13.1188 0C13.8351 0 14.5378 0.196081 15.1506 0.566988L16.5935 1.44957C18.6179 2.68703 20.9235 2.96257 23.2398 3.24024C23.9885 3.3302 24.7379 3.41945 25.4795 3.54199C25.4795 3.54199 25.4958 4.84107 25.4788 5.43041L25.3308 10.4957C25.2033 14.8399 23.2717 18.9589 19.9581 21.9523C18.3948 23.364 16.7777 24.6397 14.9197 25.6994C14.3721 26.0088 13.7582 26.1824 13.1296 26.2054C12.501 26.2285 11.876 26.1004 11.3072 25.8318C9.16166 24.8118 7.26191 23.5184 5.5272 21.9523C2.21362 18.9589 0.281995 14.8399 0.155204 10.4957L0.00787037 5.4467C-0.00983796 4.84886 0.00787037 3.54199 0.00787037 3.54199C0.609954 3.47115 1.22337 3.41236 1.84175 3.35357C4.57095 3.09432 7.39083 2.82657 9.70425 1.41274L11.0869 0.566988ZM11.32 11.3337V6.37532H14.1533V11.3337H19.1116V14.167H14.1533V19.1253H11.32V14.167H6.36162V11.3337H11.32Z" fill="white"/>
</svg>
