<svg width="85" height="85" viewBox="0 0 85 85" fill="none" xmlns="http://www.w3.org/2000/svg">
<circle cx="42.75" cy="42.75" r="40.5" fill="#0D0D0D" stroke="url(#paint0_linear_3353_1427)" stroke-width="3.5"/>
<path d="M34.6841 41.5907V38.0782H32.9223C32.7703 38.0837 32.6199 38.0462 32.4884 37.9699C32.3568 37.8936 32.2496 37.7817 32.1789 37.6471C32.1036 37.5235 32.0601 37.3831 32.0525 37.2385C32.0449 37.094 32.0733 36.9498 32.1353 36.8189C32.1972 36.6881 32.2907 36.5747 32.4073 36.4889C32.5239 36.4032 32.66 36.3477 32.8033 36.3276C33.2902 36.2755 33.7809 36.3053 34.2901 36.2979C34.4239 36.2979 34.5577 36.2979 34.7287 36.2979C34.7287 35.7552 34.7621 35.2385 34.7287 34.7256C34.7079 34.58 34.7215 34.4317 34.7683 34.2923C34.8151 34.1529 34.8937 34.0263 34.9981 33.9227C35.1024 33.8191 35.2295 33.7413 35.3692 33.6955C35.5089 33.6497 35.6574 33.6372 35.8028 33.6589C36.2414 33.6998 36.6874 33.6589 37.1297 33.6589C37.3156 33.6589 37.3825 33.6031 37.3788 33.4136C37.3788 32.9044 37.3788 32.3951 37.3788 31.8859C37.374 31.701 37.4295 31.5194 37.5367 31.3686C37.6439 31.2178 37.7972 31.1059 37.9735 31.0496C38.1381 30.9792 38.3215 30.9659 38.4946 31.0117C38.6677 31.0575 38.8205 31.1598 38.9287 31.3024C39.0677 31.505 39.1498 31.7412 39.1666 31.9863C39.2 32.5215 39.1666 33.0605 39.1666 33.6291H42.6567C42.6567 33.2166 42.6567 32.8077 42.6567 32.3951C42.6512 32.1744 42.6586 31.9535 42.679 31.7335C42.7135 31.5183 42.8264 31.3234 42.9958 31.1862C43.1652 31.049 43.3793 30.9792 43.5971 30.9902C43.8213 30.996 44.0343 31.0889 44.1912 31.2492C44.348 31.4094 44.4362 31.6245 44.4371 31.8488C44.4371 32.3654 44.4371 32.8858 44.4371 33.4024C44.4371 33.5883 44.4854 33.6589 44.6787 33.6552C45.6897 33.6552 46.6982 33.6552 47.7042 33.6552C47.8975 33.6552 47.957 33.592 47.9532 33.4061C47.9532 32.9081 47.9532 32.4063 47.9532 31.9194C47.9466 31.7401 47.995 31.5632 48.0921 31.4123C48.1891 31.2614 48.33 31.1439 48.4959 31.0757C48.6476 30.9984 48.8202 30.9719 48.9881 31C49.156 31.0281 49.3105 31.1093 49.4288 31.2318C49.5916 31.4023 49.6935 31.6218 49.7188 31.8562C49.7485 32.3637 49.7485 32.8726 49.7188 33.3801C49.7188 33.618 49.7968 33.6775 50.0198 33.67C50.4881 33.67 50.9602 33.67 51.4322 33.67C51.5598 33.6583 51.6884 33.6746 51.8091 33.7176C51.9297 33.7607 52.0395 33.8296 52.1308 33.9195C52.2221 34.0094 52.2927 34.1181 52.3377 34.2381C52.3826 34.358 52.4009 34.4864 52.3912 34.6141C52.3912 35.1605 52.3912 35.7069 52.3912 36.2718C52.4699 36.2848 52.5493 36.2935 52.6291 36.2979C53.5137 36.2979 54.3983 36.2979 55.2829 36.2979C55.4034 36.2992 55.5201 36.2554 55.61 36.1752C56.5206 35.1865 57.4201 34.1904 58.3233 33.2017C58.3339 33.1815 58.3426 33.1603 58.3493 33.1385C57.894 32.504 57.6519 31.7414 57.658 30.9604C57.6756 30.0892 58.0141 29.2551 58.6086 28.618C59.2031 27.9809 60.0118 27.5856 60.8797 27.5078C61.7476 27.43 62.6137 27.6752 63.3121 28.1964C64.0104 28.7176 64.4919 29.4781 64.6643 30.3323C64.7876 30.9409 64.7484 31.5712 64.5507 32.1599C64.3529 32.7485 64.0036 33.2747 63.5379 33.6854C63.0721 34.0962 62.5064 34.3769 61.8977 34.4995C61.2889 34.6221 60.6586 34.5821 60.0702 34.3837C59.987 34.3433 59.8923 34.3335 59.8026 34.3559C59.7129 34.3783 59.634 34.4316 59.5796 34.5063C58.6169 35.5768 57.6394 36.6324 56.6767 37.7028C56.5722 37.8251 56.4413 37.9222 56.2939 37.9865C56.1464 38.0509 55.9863 38.081 55.8256 38.0745C54.8146 38.0745 53.8073 38.0745 52.7963 38.0745H52.4246V41.5758H52.7108C55.4861 41.5758 58.2626 41.5758 61.0403 41.5758C61.124 41.5899 61.2099 41.5705 61.2794 41.5218C61.349 41.4732 61.3966 41.3991 61.412 41.3156C61.6075 40.7529 61.9413 40.2484 62.3828 39.8484C62.8243 39.4485 63.3592 39.1659 63.9384 39.0268C64.5176 38.8876 65.1225 38.8963 65.6975 39.0521C66.2725 39.2078 66.7991 39.5056 67.2289 39.9181C67.8283 40.5223 68.1959 41.3183 68.2673 42.1664C68.3386 43.0146 68.1092 43.8608 67.6192 44.5567C67.2398 45.0758 66.7263 45.4817 66.1336 45.7309C65.541 45.9801 64.8916 46.063 64.2553 45.9709C63.6191 45.8788 63.0199 45.6151 62.5222 45.2082C62.0245 44.8012 61.6472 44.2663 61.4306 43.661C61.4107 43.5615 61.3532 43.4736 61.2702 43.4154C61.1871 43.3573 61.0848 43.3334 60.9846 43.3487C58.2452 43.3487 55.5059 43.3487 52.7703 43.3487H52.4358V46.8612H55.781C55.9433 46.8551 56.1049 46.8854 56.2541 46.9497C56.4032 47.014 56.5362 47.1107 56.6433 47.2329C57.6394 48.3479 58.6467 49.4332 59.6465 50.5334C59.6841 50.587 59.7401 50.6249 59.8038 50.6399C59.8675 50.655 59.9345 50.6462 59.9922 50.6152C60.6675 50.3672 61.4024 50.3306 62.099 50.5105C62.7956 50.6904 63.4209 51.0781 63.8917 51.6221C64.3625 52.1661 64.6565 52.8405 64.7346 53.5557C64.8127 54.2709 64.6712 54.993 64.3288 55.6257C63.9865 56.2585 63.4595 56.772 62.8182 57.098C62.1768 57.4239 61.4514 57.5468 60.7384 57.4504C60.0255 57.3539 59.3588 57.0426 58.8271 56.558C58.2954 56.0733 57.9239 55.4382 57.762 54.7372C57.6552 54.282 57.6416 53.8099 57.7221 53.3494C57.8026 52.8888 57.9755 52.4493 58.2304 52.0573L58.3679 51.838C58.3679 51.838 58.3679 51.8195 58.3679 51.7823L56.3682 49.5894C56.1489 49.3478 55.9185 49.1173 55.7141 48.8646C55.6612 48.792 55.591 48.7338 55.5098 48.6955C55.4286 48.6572 55.3391 48.6399 55.2494 48.6453C54.3165 48.6453 53.391 48.6453 52.4135 48.6453V49.5782C52.4135 49.8384 52.4135 50.0986 52.4135 50.3587C52.4226 50.4872 52.4037 50.616 52.3582 50.7364C52.3126 50.8568 52.2413 50.9659 52.1494 51.0561C52.0575 51.1462 51.9471 51.2153 51.8258 51.2585C51.7045 51.3018 51.5753 51.3182 51.4471 51.3065C50.9751 51.3065 50.5067 51.3065 50.0347 51.3065C49.8042 51.3065 49.7373 51.3772 49.7448 51.6039C49.7448 52.0722 49.7448 52.5443 49.7448 53.0163C49.754 53.1363 49.7383 53.257 49.6985 53.3706C49.6587 53.4842 49.5958 53.5883 49.5137 53.6764C49.4316 53.7644 49.3321 53.8345 49.2215 53.8821C49.1109 53.9297 48.9917 53.9538 48.8713 53.9529C48.7486 53.9557 48.6266 53.933 48.5131 53.8863C48.3996 53.8396 48.297 53.7699 48.2118 53.6815C48.1266 53.5931 48.0606 53.4881 48.018 53.373C47.9754 53.2578 47.9572 53.1351 47.9644 53.0126C47.9644 52.5703 47.9644 52.128 47.9644 51.6857V51.314H44.452C44.452 51.8864 44.452 52.429 44.452 52.9977C44.4617 53.1174 44.4466 53.2378 44.4075 53.3514C44.3684 53.4649 44.3062 53.5692 44.2249 53.6575C44.1435 53.7459 44.0447 53.8164 43.9348 53.8647C43.8248 53.913 43.706 53.938 43.5859 53.9381C43.4652 53.9422 43.345 53.9215 43.2326 53.8772C43.1202 53.8329 43.0182 53.766 42.9328 53.6806C42.8474 53.5952 42.7805 53.4931 42.7362 53.3808C42.6919 53.2684 42.6712 53.1481 42.6753 53.0274C42.6753 52.5554 42.6753 52.0871 42.6753 51.615C42.6753 51.5221 42.6753 51.4292 42.6753 51.3177H39.1443C39.1443 51.7897 39.1443 52.2469 39.1443 52.7041C39.1486 52.8668 39.1399 53.0296 39.1183 53.191C39.0792 53.4082 38.9613 53.6033 38.7872 53.739C38.6132 53.8746 38.3951 53.9412 38.175 53.926C37.9548 53.9108 37.748 53.8149 37.5942 53.6566C37.4404 53.4983 37.3505 53.2888 37.3416 53.0683C37.3416 52.5703 37.3416 52.0685 37.3416 51.5816C37.3416 51.3623 37.2784 51.2991 37.0628 51.3028C36.6131 51.3028 36.1596 51.3028 35.7099 51.3028C35.5758 51.3171 35.4403 51.302 35.3126 51.2586C35.185 51.2152 35.0683 51.1445 34.9707 51.0515C34.8731 50.9585 34.7969 50.8454 34.7474 50.72C34.6979 50.5946 34.6763 50.4599 34.6841 50.3253C34.7101 49.8086 34.6841 49.2883 34.6841 48.7679C34.6841 48.7679 34.6841 48.7345 34.6506 48.675C34.0819 48.675 33.4984 48.675 32.9185 48.675C32.7389 48.6827 32.5616 48.6317 32.4134 48.5298C32.2652 48.4279 32.1542 48.2806 32.0971 48.11C32.0439 47.9757 32.0243 47.8303 32.0399 47.6866C32.0556 47.543 32.1061 47.4053 32.187 47.2855C32.268 47.1658 32.3769 47.0676 32.5044 46.9995C32.6318 46.9313 32.774 46.8954 32.9185 46.8946C33.4872 46.8946 34.0336 46.8946 34.6171 46.8946C34.6171 46.8946 34.6171 46.8946 34.6655 46.876V43.4045C34.5837 43.4045 34.4908 43.4045 34.4016 43.4045H32.9594C32.839 43.4123 32.7183 43.3949 32.605 43.3535C32.4917 43.3121 32.3882 43.2476 32.3012 43.164C32.2141 43.0805 32.1454 42.9797 32.0994 42.8682C32.0534 42.7567 32.0311 42.6368 32.0339 42.5162C32.0349 42.396 32.0598 42.2771 32.1072 42.1667C32.1547 42.0563 32.2237 41.9564 32.3103 41.873C32.3968 41.7895 32.4991 41.7242 32.6112 41.6809C32.7233 41.6375 32.843 41.6169 32.9631 41.6204C33.4315 41.6204 33.9035 41.6204 34.3756 41.6204L34.6841 41.5907ZM44.3479 46.8909C44.5002 46.8985 44.6519 46.8672 44.7887 46.7998C44.9255 46.7324 45.0429 46.6311 45.1296 46.5057C45.2163 46.3802 45.2696 46.2347 45.2843 46.083C45.2991 45.9312 45.2749 45.7781 45.2139 45.6383C44.3367 43.345 43.4819 41.0443 42.6121 38.7435C42.5574 38.5586 42.4448 38.396 42.291 38.2796C42.1372 38.1633 41.9501 38.0992 41.7572 38.0968C41.5692 38.1057 41.3885 38.1727 41.24 38.2885C41.0916 38.4043 40.9827 38.5633 40.9284 38.7435C40.0661 41.043 39.1988 43.3425 38.3266 45.642C38.2751 45.7505 38.2467 45.8684 38.243 45.9883C38.2394 46.1083 38.2606 46.2277 38.3053 46.3391C38.35 46.4505 38.4173 46.5514 38.503 46.6355C38.5886 46.7195 38.6907 46.785 38.8029 46.8277C38.9151 46.8704 39.0348 46.8894 39.1547 46.8836C39.2746 46.8777 39.392 46.8471 39.4994 46.7937C39.6069 46.7403 39.7022 46.6652 39.7792 46.5732C39.8563 46.4812 39.9134 46.3742 39.9471 46.259C40.0698 45.958 40.185 45.6532 40.2854 45.3447C40.2972 45.2794 40.3342 45.2213 40.3884 45.1831C40.4427 45.1448 40.5098 45.1294 40.5753 45.1403C41.3633 45.1403 42.1512 45.1403 42.9392 45.1403C43.0042 45.1294 43.0708 45.1442 43.1249 45.1817C43.1791 45.2192 43.2165 45.2763 43.2291 45.341C43.3406 45.6718 43.4633 45.9951 43.6008 46.3148C43.6552 46.4686 43.7516 46.604 43.879 46.7059C44.0065 46.8077 44.1599 46.8718 44.3219 46.8909H44.3479ZM47.9347 42.505C47.9347 41.3305 47.9347 40.1597 47.9347 38.9851C47.9391 38.8718 47.9209 38.7587 47.8811 38.6526C47.8412 38.5464 47.7806 38.4493 47.7027 38.3668C47.6248 38.2844 47.5312 38.2184 47.4274 38.1727C47.3236 38.127 47.2118 38.1024 47.0984 38.1005C46.9823 38.097 46.8668 38.117 46.7586 38.1592C46.6505 38.2014 46.552 38.2651 46.469 38.3463C46.3861 38.4275 46.3204 38.5246 46.2759 38.6319C46.2314 38.7391 46.209 38.8542 46.21 38.9703C46.21 41.3243 46.21 43.6783 46.21 46.0323C46.2074 46.2028 46.2574 46.3699 46.3531 46.5109C46.4489 46.6519 46.5859 46.7599 46.7453 46.8203C46.8811 46.8775 47.0293 46.8988 47.1757 46.8822C47.3221 46.8655 47.4618 46.8115 47.5813 46.7252C47.7007 46.639 47.796 46.5235 47.8579 46.3897C47.9198 46.256 47.9462 46.1086 47.9347 45.9617C47.9161 44.8095 47.9086 43.6572 47.9086 42.505H47.9347Z" fill="url(#paint1_linear_3353_1427)"/>
<path d="M44.396 21.7577C44.396 23.3411 44.396 24.9282 44.396 26.5115C44.4134 26.6463 44.3998 26.7833 44.3562 26.912C44.3126 27.0408 44.2402 27.1578 44.1444 27.2543C44.0487 27.3507 43.9322 27.4241 43.8038 27.4686C43.6754 27.5132 43.5385 27.5278 43.4036 27.5114C39.6151 27.5526 35.9827 29.0269 33.2371 31.6377C30.4915 34.2486 28.8364 37.8022 28.6047 41.5839C28.373 45.3655 29.5819 49.0947 31.9882 52.0212C34.3945 54.9476 37.8197 56.8544 41.5749 57.3578C42.2105 57.447 42.8572 57.4656 43.4965 57.4916C43.6165 57.4857 43.7364 57.5051 43.8485 57.5484C43.9605 57.5918 44.0622 57.6582 44.147 57.7433C44.2318 57.8284 44.2977 57.9304 44.3406 58.0426C44.3835 58.1548 44.4024 58.2748 44.396 58.3948V67.9917C44.4147 68.1243 44.403 68.2594 44.3618 68.3868C44.3206 68.5143 44.2511 68.6307 44.1584 68.7273C44.0657 68.8239 43.9523 68.8983 43.8267 68.9447C43.7011 68.9911 43.5666 69.0084 43.4333 68.9953C41.9466 68.9953 40.4598 68.9953 38.9731 68.9953C38.8526 69.0076 38.7309 68.9958 38.6151 68.9607C38.4992 68.9255 38.3914 68.8677 38.2981 68.7906C38.2047 68.7135 38.1276 68.6186 38.0712 68.5115C38.0148 68.4043 37.9802 68.287 37.9695 68.1664C37.5979 66.6128 37.189 65.0591 36.8062 63.5055C36.7917 63.4274 36.7559 63.3548 36.7027 63.2958C36.6496 63.2368 36.5812 63.1936 36.5051 63.171C35.6465 62.8327 34.7953 62.4871 33.9479 62.1228C33.856 62.0705 33.7512 62.0449 33.6455 62.0488C33.5398 62.0527 33.4373 62.0861 33.3495 62.1451C32.0151 62.9628 30.6696 63.7619 29.3241 64.5648C28.7592 64.903 28.3875 64.8473 27.9117 64.3715L22.1766 58.6401C21.9759 58.4357 21.7677 58.235 21.567 58.0268C21.3847 57.8726 21.2674 57.6552 21.2384 57.4181C21.2095 57.181 21.2711 56.9418 21.4109 56.7482C22.2398 55.3655 23.0687 53.9792 23.9049 52.6002C23.9494 52.5351 23.975 52.459 23.979 52.3803C23.9829 52.3016 23.965 52.2234 23.9272 52.1542C23.5556 51.2621 23.1839 50.3701 22.8122 49.4669C22.7341 49.2699 22.6003 49.2402 22.4405 49.1993L17.8056 48.047C17.6849 48.0353 17.568 47.9991 17.4618 47.9406C17.3556 47.8822 17.2625 47.8027 17.188 47.707C17.1136 47.6114 17.0595 47.5016 17.0289 47.3843C16.9983 47.267 16.9919 47.1447 17.0102 47.0249C17.0102 44.0118 17.0102 40.9949 17.0102 37.9744C16.9925 37.8496 17.0006 37.7225 17.0338 37.6009C17.067 37.4793 17.1247 37.3658 17.2034 37.2673C17.282 37.1688 17.38 37.0874 17.4912 37.0281C17.6024 36.9688 17.7246 36.9329 17.8502 36.9225C19.4063 36.5409 20.9612 36.1531 22.5148 35.7591C22.6327 35.7204 22.7312 35.6379 22.7899 35.5287C23.1839 34.6118 23.5642 33.69 23.931 32.7633C23.9485 32.7082 23.9546 32.6501 23.9488 32.5926C23.9431 32.5351 23.9256 32.4793 23.8975 32.4288C23.1207 31.1167 22.3327 29.8084 21.5485 28.5001C21.489 28.3997 21.4295 28.3031 21.3738 28.2027C21.2458 28.0186 21.1906 27.7937 21.2188 27.5713C21.2469 27.349 21.3564 27.1449 21.5262 26.9985C23.5704 24.9542 25.6147 22.9099 27.6553 20.8582C28.4544 20.0442 28.748 20.0702 29.6326 20.6203C30.8741 21.3897 32.1341 22.1294 33.3829 22.8802C33.441 22.9275 33.5111 22.9575 33.5854 22.9667C33.6597 22.9759 33.7351 22.964 33.8029 22.9322C34.6913 22.5605 35.587 22.1888 36.4865 21.8172C36.5624 21.7952 36.6306 21.7527 36.6838 21.6943C36.7369 21.6359 36.7729 21.5639 36.7876 21.4864C37.1692 19.9228 37.557 18.358 37.951 16.792C37.9638 16.6743 38 16.5603 38.0575 16.4569C38.115 16.3534 38.1926 16.2624 38.2858 16.1894C38.3789 16.1163 38.4858 16.0626 38.6 16.0314C38.7142 16.0002 38.8334 15.9921 38.9508 16.0077H43.4482C43.5733 15.9969 43.6992 16.0136 43.8171 16.0567C43.935 16.0998 44.0421 16.1682 44.1307 16.2572C44.2193 16.3461 44.2873 16.4534 44.3299 16.5715C44.3725 16.6896 44.3888 16.8156 44.3774 16.9406L44.396 21.7577ZM23.2805 27.8496C24.1094 29.2286 24.9382 30.6224 25.7782 32.0088C25.8907 32.1718 25.9533 32.364 25.9586 32.5619C25.9639 32.7599 25.9116 32.9551 25.808 33.1238C25.2101 34.2305 24.7293 35.3965 24.3733 36.6028C24.3254 36.7939 24.2241 36.9673 24.0813 37.1029C23.9385 37.2385 23.76 37.3306 23.5667 37.3685C22.08 37.7402 20.5932 38.1119 19.1065 38.4836C18.8909 38.5356 18.8203 38.6174 18.8203 38.8553C18.8203 41.2786 18.8203 43.7008 18.8203 46.1217C18.8203 46.393 18.8909 46.4934 19.1585 46.5603C20.5784 46.8985 21.987 47.2739 23.4106 47.5973C23.659 47.6423 23.889 47.7582 24.073 47.931C24.257 48.1037 24.3871 48.3261 24.4476 48.5711C24.7663 49.5654 25.1589 50.5345 25.6221 51.4703C25.8155 51.7684 25.9112 52.1194 25.8959 52.4745C25.8806 52.8295 25.755 53.171 25.5366 53.4514C24.7375 54.6593 24.0499 55.9268 23.2842 57.1682C23.3046 57.2049 23.3283 57.2398 23.3548 57.2723C25.1439 59.0613 26.9292 60.8492 28.7108 62.6357C28.8409 62.7658 28.9264 62.7286 29.0528 62.6357C30.3686 61.8403 31.6881 61.0561 33.0038 60.2607C33.1681 60.1432 33.3626 60.0754 33.5643 60.0656C33.766 60.0557 33.9662 60.1041 34.1412 60.2049C35.2481 60.8021 36.414 61.2829 37.6202 61.6396C37.8122 61.6849 37.9871 61.7848 38.1236 61.9273C38.2601 62.0697 38.3525 62.2486 38.3896 62.4425C38.7612 63.9515 39.1404 65.4581 39.5269 66.9622C39.5492 67.0514 39.6496 67.1815 39.7128 67.1815C40.6717 67.1815 41.6307 67.1815 42.6082 67.1815V59.2608C38.453 59.044 34.5312 57.2728 31.6211 54.2988C28.6506 51.3736 26.9123 47.4224 26.7632 43.256C26.5467 39.5969 27.5866 35.9736 29.7107 32.9863C32.8514 28.5261 37.1964 26.151 42.6045 25.7161V17.7881H40.0027C39.5641 17.7881 39.5641 17.7881 39.46 18.2044C39.0883 19.6168 38.7389 21.0292 38.4044 22.449C38.3651 22.6805 38.2573 22.8948 38.095 23.0644C37.9327 23.234 37.7233 23.3511 37.4938 23.4005C36.323 23.742 35.1927 24.2093 34.1226 24.7944C33.9574 24.8927 33.7678 24.9421 33.5756 24.9369C33.3835 24.9316 33.1968 24.8719 33.0373 24.7646L30.5953 23.2965L28.8632 22.2632L23.2805 27.8496Z" fill="url(#paint2_linear_3353_1427)"/>
<path d="M41.021 43.3633L41.7644 41.438L42.5077 43.3633H41.021Z" fill="url(#paint3_linear_3353_1427)"/>
<defs>
<linearGradient id="paint0_linear_3353_1427" x1="42.75" y1="4" x2="42.75" y2="81.5" gradientUnits="userSpaceOnUse">
<stop stop-color="#38E4AE"/>
<stop offset="1" stop-color="#0798AD"/>
</linearGradient>
<linearGradient id="paint1_linear_3353_1427" x1="32.0337" y1="32.5861" x2="64.713" y2="33.3453" gradientUnits="userSpaceOnUse">
<stop stop-color="#42F8BF"/>
<stop offset="1" stop-color="#2FADC3"/>
</linearGradient>
<linearGradient id="paint2_linear_3353_1427" x1="17" y1="25" x2="41.7186" y2="25.2457" gradientUnits="userSpaceOnUse">
<stop stop-color="#42F8BF"/>
<stop offset="1" stop-color="#2FADC3"/>
</linearGradient>
<linearGradient id="paint3_linear_3353_1427" x1="41.021" y1="41.7649" x2="42.3619" y2="41.7848" gradientUnits="userSpaceOnUse">
<stop stop-color="#42F8BF"/>
<stop offset="1" stop-color="#2FADC3"/>
</linearGradient>
</defs>
</svg>
