<svg width="85" height="85" viewBox="0 0 85 85" fill="none" xmlns="http://www.w3.org/2000/svg">
<circle cx="42.75" cy="42.75" r="40.5" fill="#0D0D0D" stroke="url(#paint0_linear_3353_1420)" stroke-width="3.5"/>
<path d="M50.6703 46.7868C50.6703 43.1052 50.6703 39.4278 50.6703 35.7503C50.6703 34.2533 51.0771 33.8424 52.5294 33.8139C54.3682 33.7854 56.1906 33.8139 58.0456 33.8139C59.2213 33.8139 59.8233 34.3631 59.8193 35.5835C59.8193 43.0767 59.8193 50.5714 59.8193 58.0673C59.8193 59.3528 59.1969 59.8857 57.9439 59.8654C56.1499 59.8369 54.3559 59.8654 52.566 59.8654C51.1016 59.8654 50.6744 59.4301 50.6703 57.9737C50.6622 54.2353 50.6744 50.509 50.6703 46.7868Z" fill="url(#paint1_linear_3353_1420)"/>
<path d="M38.324 49.8665C38.324 47.2996 38.3036 44.7287 38.324 42.1577C38.324 40.3881 38.7918 39.961 40.5288 39.9528C42.2659 39.9447 43.9215 39.9528 45.6179 39.9528C47.0458 39.9528 47.5665 40.4207 47.5746 41.8404C47.6071 47.2549 47.599 52.6694 47.5746 58.0839C47.5746 59.2189 47.0092 59.8738 45.7888 59.8616C43.9093 59.8616 42.0259 59.8413 40.1464 59.8616C38.8447 59.8616 38.324 59.1782 38.3199 57.9822C38.3199 55.2729 38.3199 52.5677 38.3199 49.8462L38.324 49.8665Z" fill="url(#paint2_linear_3353_1420)"/>
<path d="M51.8784 25.9995C51.2845 25.3568 50.9428 25.0436 50.658 24.6815C49.9868 23.7906 50.1902 22.6841 51.2276 22.2977C53.4161 21.4841 55.6291 20.7193 57.8747 20.0806C59.1764 19.7104 60.1121 20.6623 59.7378 21.9722C59.0869 24.2137 58.314 26.4226 57.5126 28.6153C57.1628 29.5672 56.0603 29.7991 55.2101 29.197C54.7735 28.8445 54.3566 28.4683 53.9613 28.0702C52.1957 29.8194 50.3001 31.4181 48.7379 33.3179C46.4721 36.1044 43.8238 37.573 40.1952 36.8936C38.2791 36.5316 36.9408 37.2475 35.8668 38.9276C34.7595 40.5628 33.5215 42.1056 32.1649 43.5407C31.6493 44.0856 30.9547 44.4264 30.2082 44.5008C27.4583 44.6147 24.6961 44.5699 21.9421 44.5618C20.9413 44.5618 20.0423 44.277 20.0016 43.0851C19.9569 41.8078 20.8396 41.4579 21.9258 41.4579C24.269 41.4579 26.6121 41.4905 28.9512 41.405C29.5545 41.3618 30.1194 41.0931 30.5337 40.6525C32.1609 38.773 33.6864 36.8245 35.1997 34.8637C35.4426 34.5024 35.7779 34.2126 36.1706 34.0245C36.5633 33.8364 36.9991 33.7567 37.433 33.7938C38.5313 33.8467 39.6541 33.6677 40.7321 33.8304C43.0753 34.1884 44.6822 33.2162 46.1995 31.5239C47.9366 29.5834 49.9217 27.8993 51.8784 25.9995Z" fill="url(#paint3_linear_3353_1420)"/>
<path d="M42.9529 65.9997C36.0157 65.9997 29.0811 65.9997 22.1492 65.9997C21.0468 65.9997 20.0095 65.8899 20.0054 64.5027C20.0013 63.1155 20.9817 62.8999 22.1045 62.8999H63.8502C65.2578 62.8999 66.0185 63.4857 65.9452 64.5271C65.8435 65.9021 64.851 66.0038 63.7567 65.9997C56.8194 65.9943 49.8848 65.9943 42.9529 65.9997Z" fill="url(#paint4_linear_3353_1420)"/>
<path d="M35.2565 53.7517C35.2565 55.2243 35.2565 56.6929 35.2565 58.1614C35.2565 59.3045 34.6951 59.8496 33.5683 59.8496C31.6401 59.8496 29.7118 59.8496 27.7795 59.8496C26.6324 59.8496 26.1035 59.2598 26.1035 58.1452C26.1035 55.204 26.1035 52.2628 26.1035 49.3257C26.1035 48.1664 26.6934 47.6375 27.7958 47.6294C29.724 47.6294 31.6523 47.6294 33.5805 47.6294C34.7073 47.6294 35.2606 48.203 35.2524 49.338C35.2484 50.8146 35.2565 52.2832 35.2565 53.7517Z" fill="url(#paint5_linear_3353_1420)"/>
<defs>
<linearGradient id="paint0_linear_3353_1420" x1="42.75" y1="4" x2="42.75" y2="81.5" gradientUnits="userSpaceOnUse">
<stop stop-color="#38E4AE"/>
<stop offset="1" stop-color="#0798AD"/>
</linearGradient>
<linearGradient id="paint1_linear_3353_1420" x1="50.6675" y1="38.2273" x2="58.9227" y2="38.2831" gradientUnits="userSpaceOnUse">
<stop stop-color="#42F8BF"/>
<stop offset="1" stop-color="#2FADC3"/>
</linearGradient>
<linearGradient id="paint2_linear_3353_1420" x1="38.3149" y1="43.3306" x2="46.6865" y2="43.4056" gradientUnits="userSpaceOnUse">
<stop stop-color="#42F8BF"/>
<stop offset="1" stop-color="#2FADC3"/>
</linearGradient>
<linearGradient id="paint3_linear_3353_1420" x1="20" y1="24.1735" x2="55.8867" y2="25.2912" gradientUnits="userSpaceOnUse">
<stop stop-color="#42F8BF"/>
<stop offset="1" stop-color="#2FADC3"/>
</linearGradient>
<linearGradient id="paint4_linear_3353_1420" x1="20.0054" y1="63.4263" x2="58.3395" y2="74.3476" gradientUnits="userSpaceOnUse">
<stop stop-color="#42F8BF"/>
<stop offset="1" stop-color="#2FADC3"/>
</linearGradient>
<linearGradient id="paint5_linear_3353_1420" x1="26.1035" y1="49.7045" x2="34.3585" y2="49.8234" gradientUnits="userSpaceOnUse">
<stop stop-color="#42F8BF"/>
<stop offset="1" stop-color="#2FADC3"/>
</linearGradient>
</defs>
</svg>
