<svg width="85" height="85" viewBox="0 0 85 85" fill="none" xmlns="http://www.w3.org/2000/svg">
<circle cx="42.75" cy="42.75" r="40.5" fill="#0D0D0D" stroke="url(#paint0_linear_3353_1386)" stroke-width="3.5"/>
<path d="M63.9877 46.0992C64.3243 46.1287 64.6591 46.177 64.9903 46.2441C65.3472 46.3293 65.666 46.53 65.8971 46.8151C66.1281 47.1002 66.2584 47.4537 66.2677 47.8205C66.2919 48.7265 66.2677 49.6143 66.2677 50.5112C66.2677 51.1756 65.9114 51.4806 65.2681 51.4837H21.4194C20.1933 51.4837 19.997 51.2843 20 50.0522C20 49.4482 20 48.8443 20 48.2403C20 46.9689 20.4258 46.4284 21.661 46.1717L22.0173 46.0781V30.2992C20.4711 29.7133 20.3654 29.4324 20.2688 27.7715C20.148 25.2982 20.9785 24.809 23.1649 24.8513C26.6528 24.9238 30.1468 24.8724 33.6378 24.8724H34.4804V21.4298C32.8829 20.7835 32.7349 20.557 32.7289 18.7692C32.7289 18.5518 32.7289 18.3344 32.7289 18.1139C32.753 16.6493 33.4113 16 34.879 16H51.0263C52.5544 16 53.1916 16.6312 53.1946 18.1471C53.1946 18.4491 53.1946 18.73 53.1946 19.0199C53.1946 20.5298 52.9319 20.9103 51.4672 21.4177V24.8694H63.5468C65.0054 24.8694 65.6758 25.5398 65.6788 26.9833C65.6788 27.394 65.6788 27.8078 65.6788 28.2185C65.6788 29.2513 65.3013 29.7284 64.338 30.1391C64.2337 30.1895 64.1425 30.2635 64.0717 30.3552C64.001 30.4469 63.9526 30.5539 63.9303 30.6676C63.9122 35.7319 63.9303 40.7993 63.9303 45.8667C63.9383 45.9465 63.9576 46.0248 63.9877 46.0992ZM38.062 46.1294V45.2868C38.062 42.8709 38.062 40.4399 38.062 38.018C38.062 36.4446 38.9679 35.5387 40.5353 35.5236C42.0452 35.5236 43.54 35.5236 45.0409 35.5236C47.1035 35.5236 47.8947 36.3329 47.8857 38.3864C47.8857 40.7147 47.8857 43.04 47.8857 45.3654C47.8857 45.6221 47.9098 45.8757 47.9219 46.1234H49.61V21.4026H36.3708V46.1294H38.062ZM23.8685 30.2569V46.0901H34.4864V30.2569H23.8685ZM51.4763 30.2569V46.1022H62.0459V30.2508L51.4763 30.2569ZM21.7818 49.6627H64.4709V48.0198H21.7818V49.6627ZM46.0707 46.1143C46.0707 43.3964 46.0465 40.7933 46.0888 38.178C46.0888 37.4382 45.7868 37.2721 45.1376 37.2721C43.685 37.2993 42.2294 37.3083 40.7768 37.2721C40.0793 37.254 39.8316 37.5106 39.8407 38.2022C39.8679 40.6181 39.8407 43.0491 39.8407 45.4711C39.8407 45.6794 39.8739 45.8848 39.895 46.1083L46.0707 46.1143ZM51.4038 17.8602H34.5589V19.5121H51.4008L51.4038 17.8602ZM51.4703 28.3966C51.7209 28.3966 51.9353 28.4298 52.1497 28.4298C55.831 28.4298 59.5092 28.4117 63.1874 28.448C63.9273 28.448 63.9424 28.1128 63.9243 27.5692C63.9062 27.0256 63.9998 26.6058 63.1784 26.6179C59.4971 26.6632 55.8189 26.636 52.1377 26.6391C51.9263 26.6391 51.7179 26.6662 51.4703 26.6844V28.3966ZM34.5347 28.3966C34.5162 28.105 34.5162 27.8125 34.5347 27.5209C34.6374 26.8263 34.3717 26.6149 33.668 26.6149C30.2797 26.6511 26.8914 26.6149 23.5031 26.6149C21.8844 26.6149 21.8844 26.6149 22.0868 28.2607C22.1015 28.2986 22.1197 28.335 22.1411 28.3695L34.5347 28.3966Z" fill="url(#paint1_linear_3353_1386)"/>
<path d="M25.5926 57.9852C27.0753 56.6776 28.5611 55.3972 30.0107 54.0775C30.3691 53.7347 30.7921 53.4667 31.2551 53.2888C31.718 53.111 32.2117 53.027 32.7074 53.0417C34.8395 53.0719 36.9715 53.0085 39.1036 53.0719C39.9688 53.0901 40.8255 53.2481 41.6403 53.54C42.8971 54.0522 44.2494 54.2881 45.6054 54.2315C46.3543 54.1862 47.1153 54.2617 47.8582 54.2134C49.4195 54.1137 50.5761 54.606 51.023 56.2639C51.7237 56.2639 52.4031 56.3001 53.0735 56.2458C53.3449 56.1938 53.5896 56.0485 53.7651 55.8351C54.3177 55.1949 54.81 54.5063 55.3566 53.8571C55.5749 53.5949 55.8503 53.3862 56.1618 53.2469C56.4732 53.1077 56.8125 53.0416 57.1534 53.0538C58.3161 53.0538 59.4787 53.0356 60.6414 53.0538C61.804 53.0719 62.408 53.9295 61.9399 55.0257C61.2151 56.7139 60.4964 58.411 59.669 60.0508C59.3358 60.6672 58.8594 61.1943 58.2798 61.588C56.1146 63.0979 53.8919 64.5172 51.6995 65.9849C50.9525 66.488 50.0694 66.7504 49.1688 66.7369C45.1463 66.7369 41.1239 66.761 37.0893 66.7127C36.1501 66.7127 35.7575 67.3801 35.1868 67.8542C35.1113 67.9207 35.1868 68.2106 35.2411 68.3827C35.4177 68.8903 35.4429 69.4383 35.3137 69.96C35.1845 70.4817 34.9064 70.9545 34.5133 71.3211C34.0754 71.771 33.6376 72.227 33.1876 72.6649C32.7859 73.0575 32.3239 73.1571 31.9041 72.7404C31.4844 72.3237 31.5236 71.8344 31.9494 71.3965C32.3752 70.9587 32.798 70.5329 33.2118 70.0889C33.7282 69.5272 33.7614 69.0954 33.2571 68.579C30.4224 65.5953 27.5777 62.6177 24.7229 59.6462C24.288 59.1962 23.8169 59.1177 23.3367 59.6069C23.1134 59.8292 22.8709 60.0313 22.612 60.2109C22.5254 60.2885 22.4239 60.3476 22.3136 60.3843C22.2033 60.4211 22.0866 60.4348 21.9708 60.4246C21.855 60.4144 21.7425 60.3806 21.6403 60.3251C21.5381 60.2696 21.4485 60.1937 21.3768 60.1022C21.2933 60.02 21.2285 59.9208 21.1871 59.8112C21.1456 59.7016 21.1285 59.5843 21.1368 59.4674C21.1451 59.3505 21.1787 59.2369 21.2353 59.1342C21.2919 59.0316 21.37 58.9425 21.4644 58.8731C21.8747 58.4848 22.315 58.1293 22.7811 57.8101C23.7293 57.1789 24.6685 57.487 25.5926 57.9852ZM33.861 66.5979C34.18 66.3522 34.4827 66.0859 34.767 65.8007C35.371 65.1061 36.1078 64.8947 37.0259 64.9159C41.0725 64.9541 45.1192 64.9541 49.1658 64.9159C49.7376 64.898 50.2947 64.7304 50.7814 64.4297C52.4877 63.3667 54.1033 62.1557 55.8337 61.141C57.3044 60.2803 58.3432 59.169 58.8868 57.5443C59.1888 56.6384 59.6478 55.7928 60.0495 54.8899C56.9028 54.5879 56.9028 54.5879 55.1482 57.0038C55.0855 57.0783 55.028 57.157 54.9761 57.2393C54.8374 57.524 54.6115 57.7569 54.3312 57.9041C54.0509 58.0513 53.7308 58.1051 53.4178 58.0577C52.6296 58.0003 51.8354 58.0577 51.0532 58.0577C50.7784 60.2713 50.0839 61.0444 48.3142 61.0595C45.551 61.0806 42.7878 61.0595 40.0246 61.0595C39.8313 61.0595 39.5837 61.1018 39.4569 61.0021C39.1941 60.7967 38.8227 60.5068 38.8197 60.2532C38.8808 59.882 39.0859 59.5499 39.3904 59.3291C39.5565 59.1902 39.8978 59.2324 40.1605 59.2324C42.8271 59.2324 45.4906 59.2324 48.1572 59.2324C49.1235 59.2324 49.2292 59.1177 49.2322 58.1332C49.2322 57.6953 49.2322 57.2605 49.2322 56.8256C49.2322 56.2458 48.9635 55.9891 48.3867 55.9951C47.0307 55.9951 45.6688 56.0284 44.3159 55.9951C43.6641 56.0207 43.0136 55.9181 42.4013 55.6931C40.695 54.8929 38.9193 54.7721 37.0863 54.8476C36.1675 54.917 35.2448 54.917 34.3261 54.8476C33.539 54.7242 32.7335 54.8053 31.9868 55.0829C31.2401 55.3605 30.5773 55.8254 30.062 56.433C29.1107 57.4749 27.9481 58.3325 26.8549 59.3019L33.861 66.5979Z" fill="url(#paint2_linear_3353_1386)"/>
<path d="M42.9118 29.3296C42.1175 29.3296 41.3203 29.3296 40.523 29.3296C39.919 29.3296 39.4751 29.0941 39.4208 28.4236C39.3755 27.8921 39.8013 27.5177 40.4989 27.5177C42.1658 27.4996 43.8207 27.4965 45.4968 27.5177C46.0464 27.5177 46.4964 27.7442 46.5054 28.4055C46.5145 29.0669 46.0796 29.3115 45.5179 29.3115C44.6512 29.3387 43.7815 29.3115 42.9118 29.3115V29.3296Z" fill="url(#paint3_linear_3353_1386)"/>
<path d="M42.9392 25.7542H40.4025C39.7985 25.7542 39.415 25.4522 39.427 24.8482C39.4391 24.2442 39.8287 23.9966 40.3994 23.9966C42.1147 23.9966 43.827 23.9966 45.5332 23.9966C46.1372 23.9966 46.5147 24.2774 46.4966 24.9025C46.4785 25.5277 46.104 25.7421 45.5363 25.7421L42.9392 25.7542Z" fill="url(#paint4_linear_3353_1386)"/>
<path d="M43.0145 31.0934C43.8359 31.0934 44.6573 31.0934 45.4757 31.0934C46.0615 31.0934 46.4783 31.2987 46.4903 31.951C46.5024 32.6033 46.1068 32.857 45.5149 32.857C43.8026 32.857 42.0874 32.857 40.3811 32.857C39.8013 32.857 39.4329 32.555 39.4268 31.9963C39.4208 31.4376 39.7953 31.0903 40.4174 31.0903C41.2841 31.0903 42.1538 31.0903 43.0235 31.0903L43.0145 31.0934Z" fill="url(#paint5_linear_3353_1386)"/>
<path d="M31.3881 33.7299C31.1948 33.7299 30.9653 33.7963 30.8173 33.7299C30.5576 33.591 30.1831 33.3796 30.159 33.1652C30.1227 32.8421 30.3039 32.22 30.461 32.1958C31.1041 32.0985 31.7593 32.1149 32.3967 32.2441C32.5386 32.2743 32.741 33.0353 32.599 33.2256C32.3544 33.5517 31.8622 33.6967 31.4726 33.9171L31.3881 33.7299Z" fill="url(#paint6_linear_3353_1386)"/>
<path d="M31.412 38.9448C31.8257 39.1109 32.2394 39.1683 32.4931 39.4008C32.575 39.4746 32.6401 39.5651 32.684 39.6663C32.728 39.7674 32.7496 39.8767 32.7476 39.987C32.7456 40.0972 32.72 40.2057 32.6724 40.3052C32.6249 40.4046 32.5565 40.4927 32.472 40.5635C32.0975 40.9651 30.7627 40.9863 30.358 40.5997C29.9534 40.2132 29.89 39.7844 30.2644 39.4431C30.5574 39.1925 31.0134 39.12 31.412 38.9448Z" fill="url(#paint7_linear_3353_1386)"/>
<path d="M26.9037 33.7389C26.3631 33.7752 25.8014 33.7389 25.6957 33.1078C25.6474 32.8058 25.8346 32.232 25.9977 32.2018C26.5928 32.0677 27.2083 32.0513 27.8096 32.1535C28.009 32.1867 28.2808 32.7575 28.2415 33.0202C28.1358 33.7631 27.5016 33.7812 26.9037 33.7389Z" fill="url(#paint8_linear_3353_1386)"/>
<path d="M31.5391 35.3394C31.9076 35.584 32.3696 35.7621 32.6112 36.1004C32.7441 36.2846 32.5568 37.0063 32.421 37.0245C31.7838 37.1591 31.1289 37.1887 30.4822 37.112C30.3131 37.0909 30.0594 36.5081 30.1107 36.2061C30.2376 35.5175 30.8416 35.4632 31.4274 35.4934L31.5391 35.3394Z" fill="url(#paint9_linear_3353_1386)"/>
<path d="M26.9367 44.3627C26.7437 44.3778 26.5498 44.3778 26.3568 44.3627C26.2121 44.343 26.0747 44.2868 25.9576 44.1996C25.8404 44.1123 25.7473 43.9967 25.687 43.8637C25.6266 43.7306 25.601 43.5844 25.6126 43.4388C25.6241 43.2932 25.6724 43.1528 25.7529 43.0309C26.1575 42.427 27.743 42.427 28.1356 43.0642C28.2107 43.1814 28.2558 43.3154 28.2669 43.4542C28.278 43.593 28.2548 43.7325 28.1993 43.8602C28.1438 43.9879 28.0577 44.1 27.9486 44.1866C27.8396 44.2732 27.7109 44.3316 27.5739 44.3567C27.3569 44.3763 27.1386 44.3763 26.9216 44.3567L26.9367 44.3627Z" fill="url(#paint10_linear_3353_1386)"/>
<path d="M27.0091 37.4351C26.5591 37.2539 26.1031 37.1935 25.8524 36.9459C25.5052 36.6137 25.5505 36.1426 25.9098 35.7772C26.2692 35.4118 27.5526 35.3816 27.9603 35.7349C28.368 36.0882 28.4677 36.5231 28.1204 36.8794C27.8395 37.1512 27.3896 37.2449 27.0091 37.4351Z" fill="url(#paint11_linear_3353_1386)"/>
<path d="M26.8095 41.0227C26.4381 40.7811 25.973 40.609 25.7284 40.2768C25.5955 40.0956 25.7827 39.3859 25.9337 39.3497C26.5453 39.1961 27.1794 39.1531 27.8061 39.2228C27.9963 39.247 28.2862 39.8087 28.247 40.0865C28.1473 40.8203 27.5403 40.9019 26.9122 40.8536L26.8095 41.0227Z" fill="url(#paint12_linear_3353_1386)"/>
<path d="M31.3639 44.3629C31.1706 44.3629 30.9169 44.4414 30.7961 44.3478C30.5183 44.1303 30.1771 43.8616 30.1046 43.5535C30.0502 43.3301 30.3522 42.8016 30.5485 42.7744C31.1517 42.6903 31.765 42.7128 32.3604 42.8409C32.5235 42.8741 32.7017 43.4116 32.6624 43.6925C32.5628 44.4595 31.9226 44.381 31.3639 44.3629Z" fill="url(#paint13_linear_3353_1386)"/>
<path d="M54.4536 33.9594C54.0157 33.6574 53.5476 33.4913 53.3241 33.15C53.2003 32.9538 53.4479 32.2169 53.5929 32.1988C54.2604 32.1147 54.9369 32.135 55.5981 32.2592C55.7159 32.2803 55.9001 33.0685 55.737 33.2557C55.4743 33.5728 54.973 33.6936 54.4536 33.9594Z" fill="url(#paint14_linear_3353_1386)"/>
<path d="M54.5444 40.9111C54.2317 40.8876 53.9254 40.811 53.6384 40.6846C53.4117 40.5148 53.2574 40.2657 53.2066 39.987C53.1281 39.4616 53.581 39.1112 54.2696 39.081C55.396 39.0418 55.8309 39.2622 55.8701 39.8904C55.9094 40.4702 55.4594 40.8356 54.6863 40.8477H54.5414L54.5444 40.9111Z" fill="url(#paint15_linear_3353_1386)"/>
<path d="M54.5323 44.4923C54.1307 44.3413 53.7079 44.296 53.4542 44.0635C53.0526 43.7011 53.1311 43.2239 53.5176 42.8555C53.9042 42.4871 55.2299 42.5052 55.5802 42.8555C55.9305 43.2058 56.0483 43.7162 55.6436 44.0635C55.3719 44.3051 54.9219 44.3503 54.5323 44.4923Z" fill="url(#paint16_linear_3353_1386)"/>
<path d="M58.9444 33.7446C58.0686 33.7446 57.6277 33.4426 57.6881 32.8386C57.7485 32.2347 58.1471 32.0021 58.739 31.9961C59.8352 31.9961 60.2278 32.1531 60.3063 32.742C60.3999 33.4336 59.9772 33.7476 58.9444 33.7446Z" fill="url(#paint17_linear_3353_1386)"/>
<path d="M58.9988 44.4169C58.6968 44.3655 58.3043 44.4169 58.1442 44.2478C57.8848 43.9924 57.7361 43.6453 57.7305 43.2814C57.815 42.6502 58.3767 42.608 58.9143 42.611C59.4518 42.614 60.1222 42.5566 60.2581 43.2633C60.2656 43.4432 60.2347 43.6227 60.1675 43.7898C60.1003 43.9569 59.9984 44.1079 59.8685 44.2327C59.6874 44.4108 59.2857 44.3806 58.9988 44.4169Z" fill="url(#paint18_linear_3353_1386)"/>
<path d="M54.4901 37.4746C54.0673 37.2299 53.569 37.1001 53.3727 36.78C53.2308 36.5535 53.3938 35.9948 53.6052 35.726C53.9072 35.3425 55.2933 35.3697 55.5621 35.7623C55.7554 36.0462 55.8641 36.626 55.7222 36.8404C55.4866 37.1484 54.9732 37.242 54.4901 37.4746Z" fill="url(#paint19_linear_3353_1386)"/>
<path d="M58.8541 40.8748C58.7121 40.8446 58.2984 40.8748 58.1353 40.6966C57.9028 40.4308 57.6612 39.9386 57.7609 39.6638C58.0628 38.8061 58.8782 39.1172 59.5184 39.1112C59.6222 39.1048 59.7261 39.1202 59.8236 39.1563C59.9211 39.1925 60.0099 39.2486 60.0844 39.3211C60.1589 39.3936 60.2174 39.4809 60.2562 39.5774C60.295 39.6738 60.3132 39.7773 60.3096 39.8812C60.339 40.1004 60.2811 40.3223 60.1484 40.4992C60.0156 40.676 59.8186 40.7935 59.6 40.8264C59.353 40.8626 59.1036 40.8787 58.8541 40.8748Z" fill="url(#paint20_linear_3353_1386)"/>
<path d="M58.9657 37.2993C58.8057 37.2993 58.5399 37.3446 58.3859 37.2389C58.1141 37.0517 57.7578 36.7859 57.7246 36.5171C57.6913 36.2484 57.9511 35.7259 58.1745 35.6655C58.7003 35.5268 59.2523 35.5205 59.7811 35.6474C60.0197 35.7108 60.2794 36.2514 60.2613 36.5534C60.2462 36.804 59.8596 37.0637 59.5909 37.251C59.455 37.3385 59.2164 37.2812 58.9657 37.2993Z" fill="url(#paint21_linear_3353_1386)"/>
<defs>
<linearGradient id="paint0_linear_3353_1386" x1="42.75" y1="4" x2="42.75" y2="81.5" gradientUnits="userSpaceOnUse">
<stop stop-color="#38E4AE"/>
<stop offset="1" stop-color="#0798AD"/>
</linearGradient>
<linearGradient id="paint1_linear_3353_1386" x1="20" y1="22.0255" x2="61.7204" y2="23.0715" gradientUnits="userSpaceOnUse">
<stop stop-color="#42F8BF"/>
<stop offset="1" stop-color="#2FADC3"/>
</linearGradient>
<linearGradient id="paint2_linear_3353_1386" x1="21.1348" y1="56.4311" x2="58.0303" y2="57.8859" gradientUnits="userSpaceOnUse">
<stop stop-color="#42F8BF"/>
<stop offset="1" stop-color="#2FADC3"/>
</linearGradient>
<linearGradient id="paint3_linear_3353_1386" x1="39.4175" y1="27.8131" x2="45.7761" y2="28.2874" gradientUnits="userSpaceOnUse">
<stop stop-color="#42F8BF"/>
<stop offset="1" stop-color="#2FADC3"/>
</linearGradient>
<linearGradient id="paint4_linear_3353_1386" x1="39.4268" y1="24.295" x2="45.7669" y2="24.7853" gradientUnits="userSpaceOnUse">
<stop stop-color="#42F8BF"/>
<stop offset="1" stop-color="#2FADC3"/>
</linearGradient>
<linearGradient id="paint5_linear_3353_1386" x1="39.4268" y1="31.3903" x2="45.7615" y2="31.8772" gradientUnits="userSpaceOnUse">
<stop stop-color="#42F8BF"/>
<stop offset="1" stop-color="#2FADC3"/>
</linearGradient>
<linearGradient id="paint6_linear_3353_1386" x1="30.1543" y1="32.4362" x2="32.4016" y2="32.4966" gradientUnits="userSpaceOnUse">
<stop stop-color="#42F8BF"/>
<stop offset="1" stop-color="#2FADC3"/>
</linearGradient>
<linearGradient id="paint7_linear_3353_1386" x1="30.0161" y1="39.273" x2="32.4785" y2="39.3399" gradientUnits="userSpaceOnUse">
<stop stop-color="#42F8BF"/>
<stop offset="1" stop-color="#2FADC3"/>
</linearGradient>
<linearGradient id="paint8_linear_3353_1386" x1="25.688" y1="32.3701" x2="27.9929" y2="32.4381" gradientUnits="userSpaceOnUse">
<stop stop-color="#42F8BF"/>
<stop offset="1" stop-color="#2FADC3"/>
</linearGradient>
<linearGradient id="paint9_linear_3353_1386" x1="30.104" y1="35.6474" x2="32.405" y2="35.7097" gradientUnits="userSpaceOnUse">
<stop stop-color="#42F8BF"/>
<stop offset="1" stop-color="#2FADC3"/>
</linearGradient>
<linearGradient id="paint10_linear_3353_1386" x1="25.6099" y1="42.8863" x2="28.0072" y2="42.9547" gradientUnits="userSpaceOnUse">
<stop stop-color="#42F8BF"/>
<stop offset="1" stop-color="#2FADC3"/>
</linearGradient>
<linearGradient id="paint11_linear_3353_1386" x1="25.6147" y1="35.8168" x2="28.0639" y2="35.8825" gradientUnits="userSpaceOnUse">
<stop stop-color="#42F8BF"/>
<stop offset="1" stop-color="#2FADC3"/>
</linearGradient>
<linearGradient id="paint12_linear_3353_1386" x1="25.6831" y1="39.5016" x2="27.9975" y2="39.5639" gradientUnits="userSpaceOnUse">
<stop stop-color="#42F8BF"/>
<stop offset="1" stop-color="#2FADC3"/>
</linearGradient>
<linearGradient id="paint13_linear_3353_1386" x1="30.0981" y1="43.008" x2="32.4143" y2="43.0766" gradientUnits="userSpaceOnUse">
<stop stop-color="#42F8BF"/>
<stop offset="1" stop-color="#2FADC3"/>
</linearGradient>
<linearGradient id="paint14_linear_3353_1386" x1="53.2905" y1="32.4555" x2="55.5539" y2="32.5159" gradientUnits="userSpaceOnUse">
<stop stop-color="#42F8BF"/>
<stop offset="1" stop-color="#2FADC3"/>
</linearGradient>
<linearGradient id="paint15_linear_3353_1386" x1="53.1978" y1="39.3882" x2="55.6087" y2="39.4557" gradientUnits="userSpaceOnUse">
<stop stop-color="#42F8BF"/>
<stop offset="1" stop-color="#2FADC3"/>
</linearGradient>
<linearGradient id="paint16_linear_3353_1386" x1="53.188" y1="42.9097" x2="55.6318" y2="42.9765" gradientUnits="userSpaceOnUse">
<stop stop-color="#42F8BF"/>
<stop offset="1" stop-color="#2FADC3"/>
</linearGradient>
<linearGradient id="paint17_linear_3353_1386" x1="57.6826" y1="32.293" x2="60.0588" y2="32.3619" gradientUnits="userSpaceOnUse">
<stop stop-color="#42F8BF"/>
<stop offset="1" stop-color="#2FADC3"/>
</linearGradient>
<linearGradient id="paint18_linear_3353_1386" x1="57.7305" y1="42.9175" x2="60.0099" y2="42.9789" gradientUnits="userSpaceOnUse">
<stop stop-color="#42F8BF"/>
<stop offset="1" stop-color="#2FADC3"/>
</linearGradient>
<linearGradient id="paint19_linear_3353_1386" x1="53.3193" y1="35.796" x2="55.544" y2="35.8482" gradientUnits="userSpaceOnUse">
<stop stop-color="#42F8BF"/>
<stop offset="1" stop-color="#2FADC3"/>
</linearGradient>
<linearGradient id="paint20_linear_3353_1386" x1="57.7378" y1="39.3691" x2="60.0628" y2="39.4327" gradientUnits="userSpaceOnUse">
<stop stop-color="#42F8BF"/>
<stop offset="1" stop-color="#2FADC3"/>
</linearGradient>
<linearGradient id="paint21_linear_3353_1386" x1="57.7217" y1="35.8542" x2="60.0116" y2="35.918" gradientUnits="userSpaceOnUse">
<stop stop-color="#42F8BF"/>
<stop offset="1" stop-color="#2FADC3"/>
</linearGradient>
</defs>
</svg>
