<svg width="85" height="85" viewBox="0 0 85 85" fill="none" xmlns="http://www.w3.org/2000/svg">
<circle cx="42.75" cy="42.75" r="40.5" fill="#0D0D0D" stroke="url(#paint0_linear_3353_1454)" stroke-width="3.5"/>
<path d="M42.9624 10.3136C44.1132 11.4249 45.2393 12.5609 46.4343 13.6231C46.7723 13.9096 47.2064 14.0572 47.649 14.0362C49.2079 13.8838 50.752 13.6231 52.3011 13.4019C54.1993 13.1265 54.5681 13.5592 53.9731 15.3689C53.4813 16.8836 52.9896 18.3982 52.4437 19.9965C59.4956 23.1929 64.3297 28.3909 66.641 35.733C68.3137 40.9778 68.1402 46.6371 66.1493 51.7695C64.2664 56.8059 60.8085 61.1001 56.2897 64.014C51.771 66.9279 46.4325 68.3057 41.068 67.9428C35.7035 67.5799 30.5993 65.4955 26.5142 61.9995C22.429 58.5036 19.5811 53.7827 18.3937 48.5386C17.1249 42.8092 17.898 36.8165 20.5793 31.5966C23.2606 26.3768 27.6816 22.2579 33.0779 19.9522C32.5566 18.3638 32.0304 16.7606 31.4993 15.1575C30.9682 13.5543 31.3813 13.1412 33.0189 13.3674C34.6565 13.5936 36.2498 13.8592 37.8726 14.0215C38.3147 14.0459 38.7498 13.9037 39.0922 13.6231C40.2823 12.556 41.4085 11.4151 42.5346 10.3037L42.9624 10.3136ZM25.5686 35.3691V50.6139H59.9628V35.3691H25.5686ZM65.6968 42.0276C65.8296 38.0591 63.538 31.7448 60.9906 28.9958C60.8459 28.8154 60.6421 28.6917 60.4153 28.6466C58.4482 28.6171 56.4811 28.6466 54.4649 28.6466C54.9566 30.2006 55.414 31.6218 55.9402 33.0184C56.0226 33.1445 56.1328 33.25 56.2624 33.3267C56.392 33.4035 56.5375 33.4494 56.6877 33.461C58.0154 33.5053 59.3481 33.5053 60.6808 33.461C61.6643 33.4365 62.0332 33.9184 62.0283 34.8331C62.0283 36.3084 62.0283 37.7837 62.0283 39.2344V42.0375L65.6968 42.0276ZM54.6616 57.4396C56.5057 57.4396 58.2466 57.4839 59.9825 57.4101C60.2191 57.3957 60.4501 57.3323 60.6608 57.2239C60.8716 57.1156 61.0576 56.9646 61.207 56.7806C62.2103 55.2811 63.1138 53.7172 63.9117 52.099C65.0791 49.5826 65.6993 46.8472 65.7313 44.0734H62.0086V50.8204C62.0086 52.458 61.7775 52.6793 60.1005 52.6842C58.9744 52.6842 57.8482 52.6547 56.7221 52.6842C56.5698 52.6912 56.4212 52.7335 56.2881 52.8077C56.1549 52.882 56.0409 52.9862 55.9549 53.1121C55.4927 54.5136 55.1091 55.9151 54.6616 57.4396ZM30.86 57.4396C30.4125 55.925 30.029 54.5234 29.5667 53.1465C29.4818 53.0203 29.3687 52.9156 29.2365 52.8405C29.1042 52.7654 28.9563 52.722 28.8045 52.7137C27.6095 52.6646 26.4145 52.6842 25.2244 52.6842C23.7983 52.6842 23.513 52.399 23.513 50.9384V44.0537H19.9035C19.8568 44.1352 19.822 44.223 19.8002 44.3143C19.9971 48.9682 21.6617 53.4404 24.5556 57.0905C24.7327 57.2818 24.9786 57.395 25.2392 57.4052C27.0784 57.4495 28.9176 57.4396 30.86 57.4396ZM23.513 42.0227V40.8621C23.513 38.9197 23.513 36.9723 23.513 35.0298C23.513 33.7217 23.7737 33.4561 25.0474 33.4512C26.2423 33.4512 27.4324 33.4512 28.6274 33.4512C28.8782 33.4512 29.2766 33.2742 29.3356 33.0922C29.8273 31.6513 30.2158 30.1908 30.6732 28.622C28.7897 28.622 26.9898 28.6221 25.1949 28.6466C25.0352 28.6736 24.883 28.734 24.7483 28.8238C24.6136 28.9136 24.4993 29.0309 24.413 29.1679C23.3016 31.1104 22.1017 33.0234 21.1919 35.0691C20.2524 37.2698 19.7737 39.6397 19.7854 42.0325L23.513 42.0227ZM42.751 12.6101C41.8707 13.5199 41.0446 14.2428 40.3757 15.0689C39.584 16.0771 38.6693 16.2098 37.494 15.9541C36.3187 15.6984 35.0007 15.6001 33.609 15.4132L34.9024 19.3178C37.4363 18.4609 40.0958 18.0337 42.7707 18.054C45.4377 18.052 48.0877 18.4787 50.6193 19.3178L51.8929 15.4132C50.3832 15.6345 49.0112 15.8115 47.649 16.0476C47.2405 16.1634 46.8071 16.1577 46.4018 16.0311C45.9965 15.9044 45.637 15.6623 45.3672 15.3345C44.6049 14.4247 43.7345 13.6084 42.751 12.6101ZM31.1207 33.402H41.674V28.6122C38.8562 28.6122 36.1072 28.6122 33.3582 28.6122C33.2194 28.6385 33.0885 28.6966 32.9759 28.7819C32.8633 28.8672 32.772 28.9774 32.7091 29.104C32.178 30.4908 31.6911 31.8874 31.1354 33.402H31.1207ZM54.0961 33.4315C53.5699 32.0103 53.0781 30.7022 52.5863 29.3695C52.5265 29.1245 52.3775 28.9105 52.1683 28.7696C51.9591 28.6286 51.7049 28.5707 51.4553 28.6073C49.5472 28.6417 47.6391 28.6073 45.736 28.6073H43.8476V33.4315H54.0961ZM31.4403 52.7236C31.76 53.7514 32.0157 54.6611 32.3354 55.5512C33.014 57.4494 33.0287 57.4445 34.9958 57.4396H41.6986V52.7236H31.4403ZM54.16 52.758H43.8329V57.4396C46.5868 57.4396 49.2767 57.4396 51.9618 57.4396C52.0997 57.4241 52.2319 57.3759 52.3474 57.2989C52.4629 57.2219 52.5583 57.1184 52.6257 56.997C53.1518 55.6152 53.619 54.248 54.1452 52.758H54.16ZM41.6937 65.9964V59.4214H34.0221C35.8908 62.5835 37.9759 65.1751 41.6789 65.9964H41.6937ZM43.8181 59.3477V66.0111C47.5457 65.1751 49.6357 62.5687 51.4848 59.4559C51.2442 59.4082 51.0012 59.3738 50.7569 59.3526C48.4653 59.3428 46.1934 59.3477 43.8034 59.3477H43.8181ZM35.1286 21.3341C37.7595 23.3946 48.7063 23.2421 50.2849 21.2898C45.3744 19.5526 40.0141 19.5682 35.1138 21.3341H35.1286ZM35.3105 64.7473C34.2582 63.149 33.1812 61.5016 32.0895 59.8689C31.9518 59.6624 31.7157 59.3772 31.519 59.3772C29.9699 59.3329 28.416 59.3772 26.7636 59.3772C28.1012 61.3393 33.2205 64.467 35.2958 64.7473H35.3105ZM58.9891 59.3378C57.1401 59.3378 55.591 59.3378 54.0469 59.3378C53.9367 59.3649 53.833 59.4136 53.7418 59.4812C53.6506 59.5487 53.5738 59.6337 53.5158 59.7312C52.3945 61.418 51.293 63.1146 50.1767 64.826C53.5 63.7156 56.5154 61.8389 58.9793 59.3477L58.9891 59.3378ZM51.229 23.2569C51.8831 24.2404 52.5076 25.2239 53.1519 26.2075C53.2797 26.3943 53.4666 26.6697 53.6436 26.6746C55.3501 26.7091 57.0614 26.6746 58.7678 26.6746L58.9154 26.2911L52.5617 21.9684L51.229 23.2569ZM26.6407 26.3206L26.8423 26.6992C28.3176 26.6992 29.7683 26.6992 31.2338 26.6992C31.3608 26.6977 31.4863 26.6709 31.6029 26.6202C31.7194 26.5695 31.8247 26.4961 31.9124 26.4042C32.6993 25.3469 33.4369 24.2551 34.1991 23.1683L33.0435 21.9389L26.6407 26.3206ZM33.9533 26.6402H41.733V24.9387C39.9774 24.6387 38.2907 24.3388 36.5793 24.0683C36.4819 24.0528 36.3824 24.0584 36.2873 24.0847C36.1923 24.111 36.104 24.1574 36.0285 24.2207C35.3351 24.9682 34.7007 25.7403 33.9287 26.6501L33.9533 26.6402ZM43.8378 24.9436V26.6255H51.2143C50.5897 25.7895 50.0832 25.0715 49.5374 24.3879C49.469 24.2983 49.3824 24.2243 49.2831 24.1709C49.1839 24.1175 49.0744 24.0858 48.962 24.0781C47.2556 24.3486 45.559 24.6338 43.8132 24.9535L43.8378 24.9436Z" fill="url(#paint1_linear_3353_1454)"/>
<path d="M39.3085 40.9603C40.9067 40.9603 40.9018 40.9603 41.369 39.4506C41.444 39.0507 41.5748 38.6634 41.7575 38.2999C42.0132 37.9261 42.4656 37.3458 42.741 37.395C43.2051 37.5717 43.5801 37.9255 43.7836 38.3786C44.0885 38.9736 44.1475 39.6916 44.4327 40.3014C44.5205 40.4596 44.6409 40.5976 44.7858 40.7061C44.9307 40.8145 45.097 40.8911 45.2736 40.9308C46.0113 41.0243 46.7735 40.8964 47.5111 40.9947C47.8505 41.039 48.357 41.3488 48.416 41.6193C48.4494 41.8241 48.4319 42.0339 48.365 42.2303C48.2981 42.4267 48.1839 42.6036 48.0324 42.7454C45.9277 43.8322 45.4408 45.3174 46.5571 47.4172C46.5939 47.6337 46.5778 47.8559 46.5101 48.0649C46.4425 48.2738 46.3253 48.4633 46.1686 48.6171C45.9834 48.6995 45.78 48.7324 45.5783 48.7126C45.3766 48.6928 45.1835 48.6209 45.0179 48.504C43.4491 46.7189 41.9837 46.8222 40.4346 48.5286C40.2626 48.6358 40.0658 48.6966 39.8633 48.7052C39.6608 48.7138 39.4595 48.6699 39.279 48.5778C39.1286 48.437 39.0167 48.26 38.9539 48.0638C38.891 47.8676 38.8794 47.6586 38.92 47.4566C39.992 45.3567 39.6527 43.788 37.4447 42.7061C37.3022 42.5773 37.1943 42.4148 37.1308 42.2336C37.0672 42.0523 37.05 41.8581 37.0808 41.6685C37.1734 41.5004 37.3006 41.3539 37.4541 41.2386C37.6075 41.1233 37.7836 41.0419 37.9709 40.9997C38.4131 40.928 38.8628 40.9148 39.3085 40.9603ZM43.5426 44.7912L44.2016 43.0454L42.7508 42.1406L41.3641 42.9864L41.9296 44.7912H43.5426Z" fill="url(#paint2_linear_3353_1454)"/>
<defs>
<linearGradient id="paint0_linear_3353_1454" x1="42.75" y1="4" x2="42.75" y2="81.5" gradientUnits="userSpaceOnUse">
<stop stop-color="#38E4AE"/>
<stop offset="1" stop-color="#0798AD"/>
</linearGradient>
<linearGradient id="paint1_linear_3353_1454" x1="17.7983" y1="20.1012" x2="62.8734" y2="20.8518" gradientUnits="userSpaceOnUse">
<stop stop-color="#42F8BF"/>
<stop offset="1" stop-color="#2FADC3"/>
</linearGradient>
<linearGradient id="paint2_linear_3353_1454" x1="37.0659" y1="39.3154" x2="47.3156" y2="39.5131" gradientUnits="userSpaceOnUse">
<stop stop-color="#42F8BF"/>
<stop offset="1" stop-color="#2FADC3"/>
</linearGradient>
</defs>
</svg>
