<svg width="85" height="85" viewBox="0 0 85 85" fill="none" xmlns="http://www.w3.org/2000/svg">
<circle cx="42.75" cy="42.75" r="40.5" fill="#0D0D0D" stroke="url(#paint0_linear_3353_1453)" stroke-width="3.5"/>
<path d="M30.8808 65.033C30.517 65.6595 30.1987 66.2406 29.8702 66.8065C29.3649 67.62 28.7839 67.6352 28.2937 66.8065C27.6318 65.7151 26.98 64.6186 26.3787 63.4918C26.2851 63.2689 26.1217 63.0824 25.913 62.9603C25.7044 62.8382 25.4617 62.7871 25.2216 62.8147C23.1347 62.8501 21.0479 62.8147 18.961 62.8147C17.0813 62.8147 16.0051 61.7283 16 59.8436V51.8701C16 49.753 17.0106 48.7474 19.148 48.7323H19.9918C18.774 40.4607 20.7194 33.1542 26.4696 27.1058C32.2198 21.0575 39.3596 18.7433 47.5655 19.5265C48.4346 17.3689 48.9652 17 51.3097 17H63.9167C64.2603 17 64.609 17 64.9576 17C66.7565 17.0657 67.7974 18.1319 67.8024 19.9206C67.8024 22.5279 67.8024 25.1352 67.8024 27.7475C67.8024 29.6626 67.383 30.3397 65.7408 31.0926C71.5567 42.977 70.4249 53.7801 60.4959 62.9714C53.8766 69.1359 41.6789 71.7786 30.8808 65.033ZM29.0517 65.1593C29.4601 64.5411 29.8296 63.8981 30.1583 63.2341C30.7393 61.8698 31.563 61.1119 33.19 61.3443C34.1349 61.4808 34.6048 60.8845 34.6048 59.9042C34.6048 57.179 34.6048 54.4555 34.6048 51.7337C34.6048 50.6524 34.15 50.2178 33.0485 50.2178H19.244C17.8342 50.2178 17.4401 50.6018 17.435 52.0167C17.435 54.5094 17.435 57.0005 17.435 59.4899C17.435 60.9451 17.8544 61.3544 19.2945 61.3544C21.4976 61.3544 23.7006 61.3797 25.8987 61.3544C26.1984 61.3201 26.5013 61.3824 26.7631 61.5324C27.0249 61.6824 27.2319 61.9122 27.3539 62.1882C27.8491 63.1684 28.4302 64.083 29.0517 65.1593ZM54.7407 33.4523C55.3268 32.4417 55.8927 31.608 56.3172 30.7035C56.7416 29.799 57.2873 29.6272 58.1716 29.6474C60.3746 29.698 62.5727 29.6777 64.7757 29.6474C65.8823 29.6474 66.2916 29.2129 66.2916 28.1316C66.2916 25.4097 66.2916 22.6879 66.2916 19.9661C66.2916 19.0009 65.8217 18.5058 64.8566 18.5007C60.1068 18.5007 55.3571 18.5007 50.6074 18.5007C50.4109 18.4755 50.2114 18.496 50.0241 18.5604C49.8369 18.6249 49.667 18.7317 49.5277 18.8724C49.3884 19.0132 49.2834 19.1842 49.2209 19.3721C49.1584 19.56 49.1401 19.7598 49.1673 19.956C49.1673 22.7351 49.1673 25.5158 49.1673 28.2983C49.1481 28.4802 49.1693 28.6641 49.2293 28.8369C49.2894 29.0097 49.3868 29.1672 49.5147 29.2979C49.6426 29.4287 49.7978 29.5297 49.9692 29.5936C50.1406 29.6575 50.324 29.6828 50.5063 29.6676C50.8526 29.698 51.2009 29.698 51.5472 29.6676C51.8482 29.6163 52.1577 29.6701 52.4236 29.8201C52.6896 29.9701 52.8958 30.2071 53.0075 30.4913C53.528 31.4362 54.104 32.3608 54.7407 33.4523ZM45.2563 44.9426V55.4425C48.2526 55.4157 51.2367 55.0581 54.1545 54.3764C54.2966 54.3024 54.4206 54.1979 54.5176 54.0703C54.6145 53.9428 54.6821 53.7954 54.7154 53.6386C54.9933 52.2491 55.2611 50.8545 55.4177 49.4498C55.5744 48.0451 55.63 46.4787 55.731 44.9426H45.2563ZM32.9929 43.3661H43.604V32.9167C43.3617 32.9038 43.1188 32.9038 42.8764 32.9167C40.5218 33.1794 38.1772 33.5028 35.8024 33.6898C34.5694 33.7908 34.0642 34.3365 33.9378 35.529C33.6852 38.111 33.3264 40.6729 32.9929 43.3661ZM45.226 32.8459V43.3509H55.7917C55.5794 41.2489 55.3874 39.2379 55.1651 37.2268C55.0893 36.5447 55.1651 35.7513 54.2152 35.5038C54.0737 35.4684 53.9474 35.2006 53.8867 34.9985C53.5229 33.9222 52.7296 33.4826 51.6533 33.4573C51.3653 33.4573 51.0773 33.3613 50.7943 33.336C48.9601 33.1541 47.1259 32.9925 45.226 32.8207V32.8459ZM43.6243 44.9982H33.1294C33.2001 46.13 33.2355 47.1962 33.3567 48.2522C33.3567 48.4543 33.7054 48.7171 33.9429 48.7878C34.5693 48.9344 35.1266 49.2912 35.5219 49.7987C35.9172 50.3062 36.1268 50.9338 36.1156 51.5771C36.1156 52.4158 36.146 53.2546 36.1156 54.1035C36.1156 54.6088 36.2975 54.8463 36.8028 54.8614C37.0353 54.8614 37.2576 54.9474 37.49 54.9676L43.6192 55.5689L43.6243 44.9982ZM66.9384 49.7681C66.9384 49.7681 66.8676 49.7681 66.8575 49.7681C63.942 52.6786 60.3191 54.2804 56.4384 55.4274C56.2557 55.5052 56.0909 55.6198 55.9544 55.7641C55.8179 55.9084 55.7126 56.0793 55.6451 56.2662C54.6901 59.3585 53.4976 62.3297 51.5017 64.9167C50.9965 65.5484 50.4608 66.1244 49.8899 66.7813C58.4798 64.9875 65.564 57.206 66.9384 49.7428V49.7681ZM21.9675 38.6113C22.0503 38.5866 22.1287 38.5491 22.1999 38.5001C25.0043 35.6755 28.5161 34.1546 32.2552 33.0733C32.5174 33.0204 32.7582 32.8916 32.9477 32.703C33.1373 32.5143 33.2672 32.2741 33.3214 32.0122C34.4077 28.2073 35.9893 24.6602 38.8493 21.8154C38.8745 21.7851 38.8493 21.7144 38.8493 21.6638C30.3907 23.3313 23.2055 31.2391 21.9473 38.586L21.9675 38.6113ZM67.6508 44.9982H57.3328C57.0094 47.9642 56.6911 50.8545 56.3727 53.7447C56.4132 53.7447 56.4688 53.8003 56.5142 53.7902C60.1018 52.719 63.467 51.2638 66.0187 48.3634C66.8986 47.4304 67.4625 46.2442 67.6306 44.9729L67.6508 44.9982ZM43.6445 21.0272C39.2181 21.4769 35.6609 28.3185 34.908 32.2547L43.6445 31.2947V21.0272ZM45.2412 67.327C49.0966 67.2006 53.0732 60.8997 53.9625 56.155L45.2412 57.1049V67.327ZM67.6003 43.3661C67.1506 39.3237 61.2336 35.6857 56.3727 34.6347C56.6894 37.5418 57.0094 40.4522 57.3328 43.3661H67.6003ZM32.5028 34.473C31.3507 34.8974 30.2239 35.2562 29.1426 35.721C26.6162 36.8175 24.216 38.1818 22.493 40.4455C21.8203 41.2801 21.3841 42.28 21.2298 43.3408H31.5276C31.851 40.3849 32.1693 37.5148 32.5028 34.4629V34.473ZM43.6192 67.3927V57.0392L36.2824 56.347C35.484 59.5708 36.9443 62.0467 38.8644 64.3508C40.0973 65.8364 41.5324 67.0541 43.6141 67.3826L43.6192 67.3927ZM21.1186 44.9577C21.2298 46.0138 21.3409 46.9789 21.4218 47.9086C21.4723 48.5352 21.7249 48.7727 22.402 48.7626C25.2115 48.7222 28.0209 48.7626 30.8303 48.7626H31.8409L31.6135 44.978L21.1186 44.9577ZM66.9839 38.6517C66.4437 36.0675 65.4054 33.6132 63.9268 31.426C63.8644 31.3519 63.7873 31.2917 63.7003 31.249C63.6133 31.2064 63.5184 31.1824 63.4216 31.1785C61.6884 31.1785 59.9502 31.1532 58.2171 31.1785C58.1084 31.1875 58.0029 31.2192 57.9071 31.2714C57.8114 31.3236 57.7277 31.3952 57.6612 31.4816C57.3429 31.9516 57.0802 32.4568 56.7517 33.0329C60.5717 34.2708 64.129 35.7867 66.9839 38.6517ZM51.9767 31.901C51.9363 31.2391 51.522 31.1633 50.9661 31.1582C48.6266 31.1582 47.6716 30.1477 47.6666 27.8082V21.0827L45.2513 20.8756V31.3351L51.9767 31.901ZM35.3274 62.0618C34.6553 62.7996 33.7509 62.8653 32.8009 62.8905C32.4725 62.8905 32.1542 63.219 31.8308 63.3958C32.0177 63.6384 32.1491 63.9769 32.3967 64.1184C33.262 64.6432 34.1599 65.1124 35.0848 65.5231C36.3127 66.0284 37.6113 66.4377 38.9402 66.9227L35.3274 62.0618Z" fill="url(#paint1_linear_3353_1453)"/>
<path d="M30.9315 57.8278C30.3905 57.8318 29.8699 57.6215 29.4836 57.2427C29.0972 56.864 28.8766 56.3476 28.8699 55.8066C28.8652 55.5382 28.9141 55.2716 29.0135 55.0223C29.113 54.773 29.2611 54.546 29.4493 54.3545C29.6374 54.1631 29.8618 54.011 30.1094 53.9073C30.3569 53.8035 30.6227 53.7501 30.8911 53.7501C31.1641 53.7378 31.4367 53.781 31.6925 53.877C31.9483 53.9731 32.182 54.12 32.3794 54.309C32.5769 54.4979 32.7339 54.7248 32.8411 54.9762C32.9484 55.2275 33.0035 55.498 33.0032 55.7713C33.0005 56.3185 32.7809 56.8423 32.3926 57.2279C32.0042 57.6134 31.4788 57.8291 30.9315 57.8278ZM31.6743 55.7157C31.2953 55.5136 31.068 55.2963 30.8557 55.3115C30.6435 55.3266 30.406 55.6753 30.4414 55.8167C30.502 56.029 30.7698 56.322 30.9467 56.322C31.1235 56.322 31.3408 55.9986 31.6743 55.7157Z" fill="url(#paint2_linear_3353_1453)"/>
<path d="M26.0551 53.7545C26.4518 53.7674 26.8359 53.8968 27.1596 54.1266C27.4832 54.3564 27.732 54.6763 27.8749 55.0466C28.0179 55.4169 28.0487 55.821 27.9634 56.2087C27.8782 56.5963 27.6807 56.9503 27.3956 57.2264C27.1105 57.5025 26.7504 57.6886 26.3602 57.7614C25.97 57.8342 25.5671 57.7906 25.2015 57.6359C24.836 57.4811 24.5242 57.2222 24.3049 56.8914C24.0855 56.5606 23.9685 56.1726 23.9683 55.7756C23.9681 55.5046 24.0225 55.2363 24.1281 54.9867C24.2338 54.7371 24.3886 54.5113 24.5833 54.3227C24.778 54.1342 25.0086 53.9867 25.2615 53.8891C25.5143 53.7915 25.7842 53.7457 26.0551 53.7545ZM26.7878 55.7756C26.429 55.5382 26.2219 55.2704 26.0046 55.2704C25.7873 55.2704 25.4993 55.5937 25.5397 55.715C25.5852 55.9323 25.8227 56.2203 26.0147 56.2658C26.2067 56.3113 26.4492 56.0384 26.808 55.7858L26.7878 55.7756Z" fill="url(#paint3_linear_3353_1453)"/>
<path d="M21.1087 57.8323C20.7146 57.8145 20.3343 57.6817 20.0148 57.4504C19.6952 57.2191 19.4503 56.8994 19.3103 56.5305C19.1703 56.1617 19.1413 55.76 19.2268 55.3749C19.3123 54.9898 19.5087 54.6382 19.7917 54.3633C20.0746 54.0885 20.4319 53.9024 20.8193 53.8281C21.2067 53.7539 21.6074 53.7946 21.972 53.9453C22.3365 54.096 22.649 54.3501 22.8709 54.6762C23.0929 55.0024 23.2145 55.3864 23.2208 55.7808C23.2252 56.0566 23.1731 56.3304 23.0677 56.5853C22.9624 56.8402 22.806 57.0708 22.6081 57.263C22.4102 57.4552 22.1751 57.6048 21.9173 57.7027C21.6594 57.8006 21.3842 57.8447 21.1087 57.8323ZM21.1087 56.5387C21.3765 56.2052 21.6645 55.9981 21.6544 55.806C21.6443 55.614 21.3512 55.3614 21.1491 55.3008C21.0177 55.2704 20.6741 55.5736 20.6438 55.7302C20.6135 55.8869 20.9015 56.1749 21.1188 56.5387H21.1087Z" fill="url(#paint4_linear_3353_1453)"/>
<path d="M57.6814 26.1306C57.2873 26.1128 56.9071 25.9801 56.5875 25.7488C56.268 25.5174 56.0231 25.1977 55.8831 24.8289C55.743 24.4601 55.714 24.0584 55.7995 23.6733C55.8851 23.2882 56.0814 22.9365 56.3644 22.6616C56.6474 22.3868 57.0046 22.2008 57.392 22.1265C57.7795 22.0522 58.1802 22.0929 58.5447 22.2436C58.9093 22.3943 59.2218 22.6484 59.4437 22.9746C59.6656 23.3007 59.7872 23.6847 59.7935 24.0791C59.7923 24.3533 59.7363 24.6245 59.629 24.8768C59.5216 25.1291 59.365 25.3574 59.1684 25.5485C58.9717 25.7395 58.7389 25.8894 58.4835 25.9893C58.2282 26.0893 57.9555 26.1373 57.6814 26.1306ZM58.5 24.1094C58.1412 23.8366 57.924 23.5435 57.7471 23.5688C57.5703 23.594 57.3126 23.877 57.2418 24.0741C57.2115 24.1802 57.5248 24.5238 57.6966 24.5288C57.8684 24.5339 58.121 24.3469 58.5 24.1246V24.1094Z" fill="url(#paint5_linear_3353_1453)"/>
<path d="M52.836 22.0527C53.3767 22.0527 53.8953 22.2675 54.2777 22.6499C54.66 23.0323 54.8748 23.5508 54.8748 24.0916C54.8748 24.6323 54.66 25.1509 54.2777 25.5333C53.8953 25.9156 53.3767 26.1304 52.836 26.1304C52.3007 26.1203 51.7898 25.9049 51.409 25.5287C51.0281 25.1525 50.8063 24.6444 50.7896 24.1093C50.7909 23.566 51.0066 23.0452 51.3898 22.6601C51.773 22.275 52.2927 22.0567 52.836 22.0527ZM52.8663 23.3109C52.6137 23.6747 52.361 23.8819 52.361 24.0941C52.361 24.3063 52.6743 24.5994 52.8057 24.5741C52.9274 24.5478 53.0405 24.4915 53.135 24.4103C53.2294 24.3291 53.302 24.2256 53.3463 24.1093C53.3766 23.9173 53.1088 23.6848 52.8663 23.3109Z" fill="url(#paint6_linear_3353_1453)"/>
<path d="M62.5782 26.1303C62.182 26.1154 61.7989 25.9843 61.4767 25.7534C61.1544 25.5225 60.9072 25.2019 60.7658 24.8315C60.6244 24.4611 60.595 24.0573 60.6813 23.6704C60.7677 23.2834 60.9659 22.9304 61.2513 22.6553C61.5368 22.3801 61.8969 22.195 62.2867 22.123C62.6766 22.051 63.079 22.0952 63.4439 22.2501C63.8089 22.4051 64.1202 22.6639 64.3391 22.9945C64.558 23.325 64.6749 23.7126 64.6751 24.1091C64.6753 24.381 64.6207 24.6502 64.5144 24.9005C64.4081 25.1508 64.2524 25.377 64.0566 25.5657C63.8608 25.7545 63.629 25.9017 63.3749 25.9987C63.1209 26.0957 62.8499 26.1405 62.5782 26.1303ZM63.3765 24.1091C63.0127 23.8565 62.7853 23.5785 62.6085 23.6038C62.4871 23.6468 62.3778 23.7184 62.2899 23.8125C62.202 23.9066 62.1379 24.0204 62.1032 24.1445C62.1032 24.2556 62.4064 24.5841 62.5731 24.5841C62.7399 24.5841 63.0077 24.3314 63.3765 24.0889V24.1091Z" fill="url(#paint7_linear_3353_1453)"/>
<defs>
<linearGradient id="paint0_linear_3353_1453" x1="42.75" y1="4" x2="42.75" y2="81.5" gradientUnits="userSpaceOnUse">
<stop stop-color="#38E4AE"/>
<stop offset="1" stop-color="#0798AD"/>
</linearGradient>
<linearGradient id="paint1_linear_3353_1453" x1="16" y1="25.8302" x2="64.032" y2="26.776" gradientUnits="userSpaceOnUse">
<stop stop-color="#42F8BF"/>
<stop offset="1" stop-color="#2FADC3"/>
</linearGradient>
<linearGradient id="paint2_linear_3353_1453" x1="28.8696" y1="54.4408" x2="32.597" y2="54.5134" gradientUnits="userSpaceOnUse">
<stop stop-color="#42F8BF"/>
<stop offset="1" stop-color="#2FADC3"/>
</linearGradient>
<linearGradient id="paint3_linear_3353_1453" x1="23.9683" y1="54.4399" x2="27.6134" y2="54.5099" gradientUnits="userSpaceOnUse">
<stop stop-color="#42F8BF"/>
<stop offset="1" stop-color="#2FADC3"/>
</linearGradient>
<linearGradient id="paint4_linear_3353_1453" x1="19.1787" y1="54.4784" x2="22.8239" y2="54.5485" gradientUnits="userSpaceOnUse">
<stop stop-color="#42F8BF"/>
<stop offset="1" stop-color="#2FADC3"/>
</linearGradient>
<linearGradient id="paint5_linear_3353_1453" x1="55.7515" y1="22.7765" x2="59.3964" y2="22.8466" gradientUnits="userSpaceOnUse">
<stop stop-color="#42F8BF"/>
<stop offset="1" stop-color="#2FADC3"/>
</linearGradient>
<linearGradient id="paint6_linear_3353_1453" x1="50.7896" y1="22.7452" x2="54.4734" y2="22.8161" gradientUnits="userSpaceOnUse">
<stop stop-color="#42F8BF"/>
<stop offset="1" stop-color="#2FADC3"/>
</linearGradient>
<linearGradient id="paint7_linear_3353_1453" x1="60.6328" y1="22.7758" x2="64.2779" y2="22.8459" gradientUnits="userSpaceOnUse">
<stop stop-color="#42F8BF"/>
<stop offset="1" stop-color="#2FADC3"/>
</linearGradient>
</defs>
</svg>
