<?xml version="1.0" encoding="utf-8"?>
<!-- Generator: Adobe Illustrator 26.0.1, SVG Export Plug-In . SVG Version: 6.00 Build 0)  -->
<svg version="1.1" id="Layer_1" xmlns="http://www.w3.org/2000/svg" xmlns:xlink="http://www.w3.org/1999/xlink" x="0px" y="0px"
	 viewBox="0 0 285 285" style="enable-background:new 0 0 285 285;" xml:space="preserve">
<style type="text/css">
	.st0{fill:#3F89C9;}
	.st1{fill:#FFFFFF;}
</style>
<g>
	<g>
		<circle class="st0" cx="142.5" cy="142.5" r="142.5"/>
	</g>
	<g>
		<circle class="st1" cx="142.5" cy="142.5" r="78.5"/>
	</g>
	<g>
		<path class="st1" d="M233,104.4c-0.7-1.5-0.9-2.9-0.5-4c0.4-1.1,1.4-2.1,3-2.8l0.9-0.4l1,2.1l-0.9,0.4c-0.9,0.4-1.5,1-1.8,1.6
			c-0.3,0.6-0.2,1.4,0.2,2.2l0.5,1.1l-2,0.7L233,104.4z M236.1,98.7c-1.7-3.7-0.1-6.8,5-9.1c5.2-2.5,8.7-1.8,10.5,1.9
			c1.7,3.7,0,6.8-5.2,9.2C241.2,103.1,237.8,102.5,236.1,98.7z M238,97.8c1,2.2,3.4,2.4,7.2,0.6c3.9-1.8,5.4-3.9,4.4-6.1
			c-1-2.2-3.5-2.4-7.4-0.5C238.4,93.7,237,95.6,238,97.8z"/>
		<path class="st1" d="M241,111.3c-1.2-3.9,0.8-6.7,6.2-8.4c5.5-1.7,8.9-0.7,10.1,3.2c1.2,3.9-0.9,6.7-6.4,8.5
			C245.5,116.3,242.2,115.2,241,111.3z M243,110.6c0.7,2.3,3.1,2.8,7.1,1.6c4.1-1.3,5.8-3.1,5.1-5.4c-0.7-2.3-3.2-2.8-7.3-1.5
			C243.9,106.5,242.3,108.3,243,110.6z"/>
		<path class="st1" d="M243.5,119.1l16.4-2.9l0.4,2.4l-16.4,2.9L243.5,119.1z M244.8,126.5l11.6-6.9l-0.2-1.1l3.9-0.7l0.3,1.5
			l-11.6,6.9l0.1,0.6l-3.9,0.7L244.8,126.5z M244.9,127.2l16.4-2.9l0.4,2.4l-16.4,2.9L244.9,127.2z"/>
		<path class="st1" d="M245.7,132.6l16.6-0.7l0.1,2.4l-16.6,0.7L245.7,132.6z M246.1,141.6l7.9-4.6l1.3,2.1l-9.1,5.3L246.1,141.6z
			 M251,133.8l2.3,0.1c0.1,1.2,0.4,2.2,0.9,3.1s1.3,1.5,2.1,2.1c0.9,0.5,1.9,0.9,2.9,1.1c1.1,0.2,2.2,0.3,3.3,0.3l0.1,2.4
			c-1.5,0.1-2.9-0.1-4.3-0.5c-1.4-0.4-2.6-0.9-3.7-1.7c-1.1-0.8-2-1.7-2.7-2.9C251.5,136.6,251.1,135.3,251,133.8z"/>
		<path class="st1" d="M246.2,144.9l16.2,6.2l-0.3,3.4l-17,3.4l0.2-2.5l14.9-2.7l0-0.2l-14.2-5.2L246.2,144.9z M250,147.4l2.2,0.2
			l-0.7,8.4l-2.2-0.2L250,147.4z"/>
		<path class="st1" d="M242.8,168.2l8.4-2l-0.5,2.5l-8.5,2.2L242.8,168.2z M244.7,159.5L261,163l-0.5,2.4l-16.3-3.6L244.7,159.5z
			 M250.4,163l2.2,0.5l-0.7,3.4c-0.2,0.9-0.1,1.7,0.3,2.3c0.4,0.6,1,1,1.9,1.2c1,0.2,1.7,0.1,2.4-0.3c0.6-0.4,1-1,1.2-2l0.7-3.3
			l2.2,0.2l-0.8,3.6c-0.4,1.7-1.1,2.9-2.1,3.6c-1.1,0.7-2.4,0.9-3.9,0.6c-1.6-0.4-2.8-1.1-3.5-2.2s-0.9-2.5-0.5-4.2L250.4,163z"/>
		<path class="st1" d="M235,189l14.8,7.7l-1.1,2.2l-14.8-7.7L235,189z M250,191.3l2,1l-5.6,10.8l-2-1L250,191.3z"/>
		<path class="st1" d="M230.4,197.5l1.8,1.3l-6.3,9l-1.8-1.3L230.4,197.5z M230.4,197.5L244,207l-1.4,2l-13.6-9.5L230.4,197.5z
			 M236.3,201.6l1.8,1.3l-5.1,7.3l-1.8-1.3L236.3,201.6z M242.2,205.7l1.8,1.3l-6.3,9l-1.8-1.3L242.2,205.7z"/>
		<path class="st1" d="M217.6,213.4c3.5-3.8,7.3-3.8,11.6,0.1c2,1.8,3.1,3.7,3.3,5.7c0.2,2-0.5,3.8-2.1,5.6
			c-0.8,0.8-1.6,1.5-2.4,1.8c-0.8,0.4-1.6,0.5-2.4,0.3l-0.1-2.4c0.6,0.1,1.2,0,1.8-0.2c0.6-0.2,1.1-0.5,1.5-1c1-1.1,1.4-2.4,1.2-3.8
			c-0.2-1.4-1-2.8-2.5-4.1c-3.2-2.9-6.1-3-8.6-0.2c-0.8,0.8-1.3,1.8-1.7,2.9l-1.9-1C215.8,215.7,216.6,214.5,217.6,213.4z"/>
		<path class="st1" d="M206.9,223.5l10.7,12.7l-1.9,1.6l-10.7-12.7L206.9,223.5z M217.6,224l1.4,1.7l-7.5,6.4l-1.4-1.7L217.6,224z
			 M213.3,218.2l10.7,12.7l-1.9,1.6l-10.7-12.7L213.3,218.2z"/>
		<path class="st1" d="M195.9,231.2l9,14l-2.1,1.3l-9-14L195.9,231.2z M196.5,230.8l10.9,8.1l0.9-0.6l2.2,3.4l-1.3,0.8l-10.9-8.1
			l-0.5,0.3l-2.2-3.4L196.5,230.8z M202.8,226.8l9,14l-2.1,1.3l-9-14L202.8,226.8z"/>
		<path class="st1" d="M186.4,236c3.7-1.7,6.8-0.1,9.1,5c2.5,5.2,1.8,8.7-1.9,10.5c-3.7,1.7-6.8,0-9.2-5.2
			C182,241.2,182.7,237.7,186.4,236z M187.3,237.9c-2.2,1-2.4,3.4-0.6,7.2c1.8,3.9,3.9,5.4,6.1,4.3c2.2-1,2.4-3.5,0.5-7.4
			C191.5,238.3,189.5,236.9,187.3,237.9z"/>
		<path class="st1" d="M178.8,239.6l0.7,2.1l-10.5,3.3l-0.7-2.1L178.8,239.6z M178.8,239.6l5.1,15.9l-2.3,0.7l-5.1-15.9L178.8,239.6
			z"/>
		<path class="st1" d="M160.7,244.2c4-0.7,6.5,1.7,7.5,7.2c1,5.7-0.5,8.9-4.5,9.6c-4,0.7-6.6-1.8-7.6-7.5
			C155.2,248,156.7,244.9,160.7,244.2z M161.1,246.3c-2.4,0.4-3.2,2.7-2.5,6.8c0.8,4.3,2.3,6.2,4.7,5.8c2.4-0.4,3.2-2.8,2.4-7.1
			C165,247.7,163.5,245.9,161.1,246.3z"/>
		<path class="st1" d="M146.1,245.7c2.5-0.1,4.4,0.5,5.7,1.9c1.3,1.4,2,3.5,2.2,6.3c0.1,2.7-0.4,4.8-1.6,6.4c-1.2,1.5-3,2.4-5.3,2.5
			c-1.2,0.1-2.2-0.1-3.1-0.4c-0.9-0.3-1.6-0.8-2-1.5l1.7-1.8c0.4,0.5,0.9,0.9,1.4,1.2c0.6,0.3,1.1,0.4,1.8,0.4
			c1.6-0.1,2.8-0.7,3.6-1.8c0.8-1.1,1.2-2.7,1.1-4.7c-0.1-2.2-0.6-3.8-1.5-4.8c-0.9-1-2.3-1.5-4-1.5c-0.7,0-1.4,0.1-2,0.3
			c-0.6,0.2-1,0.3-1.4,0.4l-1-2c0.3-0.1,0.9-0.3,1.7-0.5C144.1,245.9,145.1,245.8,146.1,245.7z M143.9,246.5l0.4,7.8l-2.3,0.1
			l-0.4-7.8L143.9,246.5z M147.5,252l0.1,2.2l-5.5,0.3l-0.1-2.2L147.5,252z"/>
		<path class="st1" d="M137.6,260.4l-0.2,2.2l-10.1-0.9l0.2-2.2L137.6,260.4z M138.8,246.1l-0.2,2.2l-10.1-0.9l0.2-2.2L138.8,246.1z
			 M135,245.7l-1.4,16.6l-2.4-0.2l1.4-16.6L135,245.7z"/>
		<path class="st1" d="M122.4,258.8l-0.5,2.2l-10.8-2.3l0.5-2.2L122.4,258.8z M125.4,244.7l-0.5,2.2l-10.8-2.3l0.5-2.2L125.4,244.7z
			 M123.9,251.8l-0.5,2.2l-8.7-1.9l0.5-2.2L123.9,251.8z M125.4,244.7l-3.5,16.3l-2.4-0.5l3.5-16.3L125.4,244.7z"/>
		<path class="st1" d="M108,239.9c0.9,0.3,1.7,0.7,2.4,1.1c0.7,0.4,1.4,0.9,1.9,1.4l-1.1,2.1c-0.7-0.6-1.4-1.2-2.1-1.6
			c-0.7-0.5-1.4-0.8-2.1-1.1c-1-0.4-1.9-0.5-2.5-0.3c-0.6,0.2-1.1,0.6-1.3,1.4c-0.3,0.9-0.1,1.8,0.7,2.6l2.3,2.2
			c0.9,0.9,1.5,1.7,1.8,2.6c0.3,0.9,0.3,1.8-0.1,2.9c-0.5,1.4-1.3,2.3-2.4,2.7c-1.1,0.5-2.4,0.4-3.9-0.1c-1.1-0.4-1.9-0.9-2.6-1.5
			c-0.7-0.6-1.3-1.4-1.8-2.3l2.1-1c0.5,0.8,0.9,1.4,1.4,1.8c0.5,0.4,1,0.8,1.6,1c0.8,0.3,1.4,0.3,2,0.1c0.5-0.2,0.9-0.7,1.2-1.4
			c0.2-0.5,0.2-1,0-1.4c-0.2-0.4-0.5-0.8-0.9-1.3l-1.9-1.9c-1-1-1.6-1.9-2-2.8c-0.4-0.9-0.3-1.9,0-3c0.5-1.4,1.4-2.3,2.5-2.7
			C104.6,239,106.2,239.2,108,239.9z"/>
	</g>
	<g>
		<path class="st1" d="M45.9,179c1.5,3.8-0.5,6.7-5.7,8.7c-5.4,2-8.8,1.2-10.3-2.7c-1.5-3.8,0.5-6.8,5.9-8.8
			C41.1,174.3,44.4,175.2,45.9,179z M43.9,179.8c-0.9-2.3-3.2-2.7-7.2-1.2c-4.1,1.5-5.7,3.4-4.8,5.7c0.9,2.3,3.3,2.6,7.4,1.1
			C43.2,183.9,44.7,182,43.9,179.8z M49.3,173.6c0.6,1.6,0.6,2.9,0.1,4c-0.5,1.1-1.6,2-3.2,2.6l-0.9,0.3l-0.8-2.2l0.9-0.3
			c0.9-0.4,1.6-0.8,1.9-1.5s0.3-1.3,0-2.2l-0.4-1.1l2.1-0.5L49.3,173.6z"/>
		<path class="st1" d="M41.9,166.1c0.9,4-1.3,6.6-6.8,7.9c-5.6,1.3-8.9,0-9.8-4c-0.9-4,1.4-6.6,7-8C37.8,160.8,41,162.1,41.9,166.1z
			 M39.8,166.6c-0.6-2.4-2.9-3.1-6.9-2.1c-4.2,1-6.1,2.7-5.5,5c0.6,2.4,2.9,3,7.2,2C38.6,170.6,40.4,169,39.8,166.6z"/>
		<path class="st1" d="M39.2,150l-16.6,1.7l-0.2-2.4l16.6-1.7L39.2,150z M39.3,150.7l-12.1,6l0.1,1.1l-4,0.4l-0.2-1.5l12.1-6
			l-0.1-0.6l4-0.4L39.3,150.7z M40,158.1l-16.6,1.7l-0.2-2.4l16.6-1.7L40,158.1z"/>
		<path class="st1" d="M38.9,144.6L22.2,144l0.1-2.4l16.6,0.5L38.9,144.6z M33.6,142.9l-2.3-0.3c0-1.2-0.2-2.2-0.7-3.1
			c-0.5-0.9-1.1-1.6-2-2.2c-0.8-0.6-1.8-1-2.9-1.4c-1.1-0.3-2.2-0.5-3.3-0.5l0.1-2.4c1.5,0,2.9,0.3,4.2,0.8c1.3,0.5,2.5,1.1,3.6,2
			c1,0.9,1.8,1.9,2.4,3.1C33.4,140,33.7,141.4,33.6,142.9z M39.2,135.5l-8.2,4l-1.1-2.1l9.5-4.6L39.2,135.5z"/>
		<path class="st1" d="M39.3,132.2l-15.6-7.4l0.5-3.4l17.2-2.1l-0.4,2.4l-15.1,1.5l0,0.2l13.8,6.2L39.3,132.2z M35.7,129.4l-2.2-0.4
			l1.4-8.3l2.2,0.4L35.7,129.4z"/>
		<path class="st1" d="M41.8,117.8L25.9,113l0.7-2.3l15.9,4.8L41.8,117.8z M36.4,113.8l-2.1-0.6l1-3.3c0.3-0.9,0.2-1.7-0.1-2.3
			c-0.3-0.6-0.9-1.1-1.8-1.3c-0.9-0.3-1.7-0.2-2.4,0.1c-0.7,0.3-1.1,1-1.4,1.9l-1,3.3l-2.2-0.4l1.1-3.5c0.5-1.7,1.3-2.8,2.4-3.5
			s2.4-0.7,4-0.3c1.6,0.5,2.7,1.3,3.3,2.5c0.6,1.2,0.7,2.6,0.2,4.2L36.4,113.8z M44.4,109.2l-8.6,1.3l0.7-2.5l8.6-1.5L44.4,109.2z"
			/>
		<path class="st1" d="M39,85.6l-1.9-1.2l6.4-10.4l1.9,1.2L39,85.6z M53.8,89.1l-14.1-8.8l1.3-2.1L55.1,87L53.8,89.1z"/>
		<path class="st1" d="M47.9,71.9l-1.7-1.4l7-8.5l1.7,1.4L47.9,71.9z M59.1,81L46.2,70.5l1.5-1.9l12.9,10.5L59.1,81z M53.5,76.4
			L51.8,75l5.6-6.9l1.7,1.4L53.5,76.4z M59.1,81l-1.7-1.4l7-8.5l1.7,1.4L59.1,81z"/>
		<path class="st1" d="M73,66.1c-3.8,3.5-7.6,3.2-11.5-0.9c-1.9-2-2.8-4-2.9-5.9c-0.1-2,0.8-3.8,2.5-5.4c0.8-0.8,1.7-1.3,2.6-1.7
			s1.7-0.4,2.4-0.1L66,54.5c-0.6-0.1-1.2-0.1-1.8,0c-0.6,0.2-1.1,0.5-1.6,0.9c-1.1,1-1.6,2.3-1.5,3.7c0.1,1.4,0.8,2.9,2.2,4.3
			c3,3.2,5.8,3.5,8.6,0.9c0.8-0.8,1.5-1.7,2-2.8l1.8,1.1C74.9,63.9,74.1,65.1,73,66.1z"/>
		<path class="st1" d="M77.6,61.7l-9.7-13.5l2-1.4l9.7,13.5L77.6,61.7z M73.9,55.6l-1.3-1.8l8-5.8l1.3,1.8L73.9,55.6z M84.4,56.8
			l-9.7-13.5l2-1.4l9.7,13.5L84.4,56.8z"/>
		<path class="st1" d="M88.8,53.9l-7.9-14.6l2.1-1.2L91,52.7L88.8,53.9z M95.4,50.3l-10.2-8.9L84.2,42l-1.9-3.5l1.4-0.7l10.2,8.9
			l0.5-0.3l1.9,3.5L95.4,50.3z M96,50l-7.9-14.7l2.1-1.2l7.9,14.7L96,50z"/>
		<path class="st1" d="M105.9,45.9c-3.8,1.5-6.7-0.4-8.7-5.7c-2.1-5.4-1.2-8.8,2.7-10.3c3.8-1.5,6.8,0.5,8.8,5.9
			C110.6,41.1,109.7,44.5,105.9,45.9z M105.1,43.9c2.3-0.9,2.7-3.2,1.2-7.2c-1.5-4.1-3.4-5.7-5.7-4.8c-2.3,0.9-2.6,3.3-1.1,7.4
			C101,43.3,102.8,44.8,105.1,43.9z"/>
		<path class="st1" d="M113.7,42.9l-3.8-16.2l2.4-0.6l3.8,16.2L113.7,42.9z M113.7,42.9l-0.5-2.2l10.7-2.5l0.5,2.2L113.7,42.9z"/>
		<path class="st1" d="M132.1,39.7c-4.1,0.4-6.4-2.2-7-7.8c-0.6-5.8,1.2-8.8,5.2-9.2c4.1-0.4,6.4,2.3,7,8
			C137.9,36.3,136.2,39.3,132.1,39.7z M131.9,37.6c2.4-0.2,3.4-2.4,3-6.6c-0.4-4.3-1.9-6.4-4.3-6.1c-2.4,0.2-3.4,2.5-3,6.8
			C128,35.9,129.5,37.8,131.9,37.6z"/>
		<path class="st1" d="M146.8,39.3c-2.5-0.1-4.3-0.8-5.5-2.3s-1.8-3.6-1.7-6.5c0.1-2.7,0.8-4.8,2.1-6.2c1.3-1.4,3.2-2.1,5.5-2.1
			c1.2,0,2.2,0.2,3,0.6c0.9,0.4,1.5,0.9,1.9,1.6l-1.8,1.7c-0.3-0.5-0.8-1-1.3-1.3c-0.5-0.3-1.1-0.5-1.7-0.5c-1.6,0-2.8,0.5-3.7,1.5
			c-0.9,1.1-1.4,2.6-1.5,4.6c-0.1,2.2,0.3,3.8,1.2,4.9c0.8,1.1,2.1,1.7,3.9,1.8c0.7,0,1.4,0,2-0.2c0.6-0.1,1-0.2,1.4-0.3l0.9,2.1
			c-0.3,0.1-0.9,0.2-1.7,0.4C148.8,39.3,147.8,39.3,146.8,39.3z M145.9,32.9l0.1-2.2l5.6,0.2l-0.1,2.2L145.9,32.9z M149,38.7
			l0.2-7.8l2.3,0.1l-0.2,7.8L149,38.7z"/>
		<path class="st1" d="M154.1,39.5l0.4-2.2l10,1.6l-0.4,2.2L154.1,39.5z M156.4,25.3l0.4-2.2l10,1.6l-0.4,2.2L156.4,25.3z
			 M157.8,40.1l2.7-16.4l2.4,0.4l-2.7,16.4L157.8,40.1z"/>
		<path class="st1" d="M167.3,41.9l4.8-15.9l2.3,0.7l-4.8,15.9L167.3,41.9z M167.3,41.9l0.6-2.1l10.6,3.2l-0.6,2.1L167.3,41.9z
			 M169.4,35l0.6-2.1l8.5,2.5l-0.6,2.1L169.4,35z M171.4,28.1l0.6-2.1l10.6,3.2l-0.6,2.1L171.4,28.1z"/>
		<path class="st1" d="M184.3,48c-0.9-0.4-1.6-0.8-2.3-1.3c-0.7-0.5-1.3-1-1.8-1.6l1.2-2c0.6,0.7,1.3,1.3,1.9,1.8
			c0.7,0.5,1.3,0.9,2,1.2c1,0.4,1.8,0.6,2.5,0.5c0.6-0.1,1.1-0.6,1.4-1.3c0.4-0.9,0.2-1.8-0.5-2.6l-2.1-2.4
			c-0.8-0.9-1.4-1.9-1.6-2.8c-0.3-0.9-0.2-1.9,0.3-2.8c0.6-1.3,1.5-2.2,2.6-2.5c1.1-0.4,2.4-0.2,3.9,0.4c1,0.5,1.9,1,2.5,1.7
			c0.7,0.7,1.2,1.5,1.6,2.5l-2.2,0.8c-0.4-0.8-0.8-1.4-1.3-1.9c-0.4-0.5-1-0.8-1.5-1.1c-0.7-0.3-1.4-0.4-1.9-0.2
			c-0.6,0.2-1,0.6-1.3,1.3c-0.2,0.5-0.3,1-0.1,1.4c0.1,0.4,0.4,0.9,0.8,1.4l1.8,2c0.9,1,1.5,2,1.8,2.9c0.3,0.9,0.2,1.9-0.3,2.9
			c-0.6,1.4-1.5,2.2-2.7,2.5C187.6,49.1,186.1,48.9,184.3,48z"/>
	</g>
	<g>
		<polygon class="st0" points="114.3,173.3 110.2,169.2 165.2,114.3 140.3,114.3 140.3,108.5 175,108.5 175,143.2 169.2,143.2 
			169.2,118.3 		"/>
	</g>
	<g>
		<circle class="st1" cx="62" cy="221" r="10"/>
	</g>
	<g>
		<circle class="st1" cx="219" cy="63" r="10"/>
	</g>
</g>
</svg>
