<svg width="325" height="163" viewBox="0 0 325 163" fill="none" xmlns="http://www.w3.org/2000/svg">
<path d="M324.602 162.5C324.602 119.463 307.502 78.1879 277.065 47.7559C246.628 17.3238 205.346 0.227298 162.301 0.227295C119.256 0.227292 77.9742 17.3238 47.5368 47.7559C17.0995 78.1879 6.4996e-06 119.463 0 162.5L48.6903 162.5C48.6903 132.374 60.6599 103.482 81.9661 82.1791C103.272 60.8767 132.169 48.9091 162.301 48.9091C192.432 48.9091 221.33 60.8767 242.636 82.1791C263.942 103.482 275.911 132.374 275.911 162.5H324.602Z" fill="url(#paint0_linear_309_680)"/>
<defs>
<linearGradient id="paint0_linear_309_680" x1="0" y1="0.227295" x2="408.403" y2="8.82842" gradientUnits="userSpaceOnUse">
<stop stop-color="#3F89C9"/>
<stop offset="0.431537" stop-color="#0798AD"/>
<stop offset="1" stop-color="#99CD4A"/>
</linearGradient>
</defs>
</svg>
