<?xml version="1.0" encoding="utf-8"?>
<!-- Generator: Adobe Illustrator 26.0.1, SVG Export Plug-In . SVG Version: 6.00 Build 0)  -->
<svg version="1.1" id="Layer_1" xmlns="http://www.w3.org/2000/svg" xmlns:xlink="http://www.w3.org/1999/xlink" x="0px" y="0px"
	 viewBox="0 0 389.7 217.3" style="enable-background:new 0 0 389.7 217.3;" xml:space="preserve">
<style type="text/css">
	.st0{fill:#FFFFFF;}
	.st1{fill:#28ACE3;}
	.st2{font-family:'ArialNarrow-Bold';}
	.st3{font-size:42.8537px;}
	.st4{font-family:'Montserrat-Thin';}
	.st5{font-size:23.0563px;}
	.st6{letter-spacing:11;}
	.st7{font-size:23.757px;}
</style>
<g>
	<path class="st0" d="M286.1,155.2c0,9,0,17.9,0,27.3c-64.4,0-128.9,0-193.6,0c0-9,0-17.9,0-27.3
		C156.9,155.2,221.3,155.2,286.1,155.2z M233.2,176c-2.9-6-5.4-11.3-7.9-16.6c-0.4,0.2-0.8,0.4-1.2,0.6c0,5.9,0,11.8,0,17.7
		c0.4,0,0.9,0,1.3,0c0-3.9,0-7.9,0-11.8c0.3,0,0.6-0.1,0.9-0.1c2.2,4.3,4.3,8.6,6.9,13.7c2.5-5.3,4.6-9.5,6.6-13.7
		c0.5,0.1,0.9,0.1,1.4,0.2c0,4,0,8,0,12c0.4,0,0.8-0.1,1.1-0.1c0-5.9,0-11.8,0-17.7c-0.4-0.1-0.8-0.3-1.3-0.4
		C238.7,164.8,236.2,169.9,233.2,176z M205.1,173.7c-0.4,0.1-0.7,0.3-1.1,0.4c-3.6-4.9-7.2-9.7-10.8-14.6c-0.3,0.2-0.6,0.3-0.9,0.5
		c0,5.9,0,11.8,0,17.7c0.4,0,0.8,0,1.2,0c0-4.5,0-9,0-13.4c0.3-0.1,0.7-0.1,1-0.2c3.6,4.9,7.2,9.8,10.8,14.7
		c0.3-0.2,0.6-0.4,0.9-0.7c0-5.9,0-11.9,0-17.8c-0.4,0-0.8,0-1.2,0C205.1,164.7,205.1,169.2,205.1,173.7z M162.1,177.2
		c2.7-1.2,5.2-3.2,7.7-3.2c2.6,0,5.2,2,7.8,3.2c-2.2-5.6-4.7-11.6-7.1-17.7c-0.5,0.1-1,0.1-1.5,0.2
		C166.7,165.7,164.3,171.7,162.1,177.2z M210.3,160.2c-0.6,0-1.2,0-1.7,0c0,4.4-0.7,8.9,0.3,13c0.5,2.1,3.8,4.6,6.2,5
		c1.7,0.3,5.3-2.3,5.7-4.1c0.8-4.4,0.3-9.1,0.3-13.7c-0.4,0-0.9,0-1.3,0c0,3.6,0,7.1,0,10.7c0,3.2-1.2,5.6-4.8,5.5
		c-3.3-0.1-4.6-2.3-4.5-5.4C210.3,167.6,210.3,163.9,210.3,160.2z M138.8,172.9c8.7-2.1,11.1-4.2,9.9-8.8c-1.1-4.3-5.1-5.5-11.4-3.7
		c0,5.8,0,11.4,0,17.1c0.3,0,0.5,0,0.8,0C138.4,176,138.6,174.4,138.8,172.9z M150.5,178.1c3.5,0,6.5,0,9.5,0c0-0.3,0-0.6,0-0.9
		c-2.5-0.2-5.1-0.5-8.3-0.8c0-5.7,0-11,0-16.3c-0.4,0-0.8,0.1-1.1,0.1C150.5,166.1,150.5,171.9,150.5,178.1z M180.7,161.8
		c0,5.5,0,10.9,0,16.3c0.5,0,0.9,0,1.4,0c0-5.5,0-10.9,0-16.1c1.9-0.6,3.2-1,4.5-1.5c0-0.2-0.1-0.3-0.1-0.5c-3.5,0-6.9,0-10.4,0
		c0,0.2-0.1,0.5-0.1,0.7C177.3,161,178.6,161.3,180.7,161.8z M188.9,177.8c0.3,0,0.6,0,0.9,0.1c0-5.9,0-11.8,0-17.7
		c-0.3,0-0.6,0-0.9,0C188.9,166.1,188.9,171.9,188.9,177.8z"/>
	<path class="st0" d="M214.4,112.1c-7.2,0-13.5,0-20.2,0c0-26.1,0-52,0-78.1c4.4-1.4,7.5-0.3,10.5,3.3c7.7,9,15.8,17.5,23.6,26.3
		c1.1,1.2,2,2.6,3.3,4.4c9.9-10.7,19.1-20.4,28-30.4c3-3.3,5.9-5.1,10.7-3.5c0,25.8,0,51.8,0,78c-6.7,0-13.2,0-20.2,0
		c0-11.2,0-22.2,0-34.6c-5.5,5.7-10,10.2-14.3,14.9c-2.6,2.9-4.6,3.1-7.3,0.1c-4.3-4.8-8.8-9.3-14.2-14.9
		C214.4,89.7,214.4,100.6,214.4,112.1z"/>
	<path class="st0" d="M343.4,79.1c-5.1,4.7-10,8.9-14.5,13.5c-2.6,2.7-4.4,2.7-6.9-0.1c-4.3-4.8-8.9-9.3-14.2-14.9
		c0,12.1,0,23,0,34.3c-7.1,0-13.5,0-20.4,0c0-25.9,0-51.8,0-77.9c4.3-1.5,7.5-0.4,10.5,3.1c8.8,10.1,17.9,20,27.3,30.3
		c6.4-6.9,12.6-13.6,18.8-20.2c3.2-3.4,6.5-6.7,9.4-10.3c2.5-3.1,5.3-4.3,9.6-3c0,25.7,0,51.7,0,77.9c-6.4,0-12.8,0-19.6,0
		C343.4,100.8,343.4,89.9,343.4,79.1z"/>
	<path class="st0" d="M94.1,82.1c-1.1,19-17.3,31.5-38.9,31c-21.9-0.5-37.6-16.7-38.4-38.4c-1-26.6,18.5-40.7,36.5-41.6
		c22.3-1.1,38.9,10.8,40.5,29.7c-6.1,0-12.1,0.1-18.2-0.1c-0.9,0-1.9-1.6-2.5-2.7c-3.9-7-10.2-9.2-17.7-8.7
		c-7.5,0.5-12.9,4.2-15.8,11.1c-3.5,8.3-3.2,16.6,2.1,24.2c8.2,11.8,25.4,10.6,32.1-2c0.6-1.1,2-2.4,3-2.5
		C82.6,81.9,88.2,82.1,94.1,82.1z"/>
	<path class="st0" d="M317.8,174.9c-10.2,0-19.5,0-29.5,0c0-8.6,0-16.6,0-24.6c-3.9-1.3-7.3-2.5-11.6-3.9c14,0,27.1,0,41.8,0
		c-3.6,5.2-6.2,9.3-9.2,13.1c-1.9,2.4-1.9,4.1,0.3,6.3C312.6,168.5,314.9,171.6,317.8,174.9z"/>
	<path class="st0" d="M90.5,175.4c-9.2,0-17.5,0-25.8,0c-1,0-1.9,0-4.1,0c3.2-3.7,5.4-6.9,8.2-9.5c2.5-2.4,2.3-4.2,0.3-6.7
		c-2.8-3.6-5.3-7.5-8.8-12.6c14.3,0,27.4,0,40.6,0c-0.3,0.2-0.8,0.5-1.4,0.7c-8.9,3.2-8.9,3.2-8.9,12.9
		C90.5,164.8,90.5,169.4,90.5,175.4z"/>
	<path class="st0" d="M276.2,152.7c-5.1,0-10.1,0-15.6,0c0-1.4,0-2.9,0-4.9c5.4,1.3,10.6,2.6,15.8,3.8
		C276.3,151.9,276.2,152.3,276.2,152.7z"/>
	<path class="st0" d="M118.3,152.7c-5.5,0-10.5,0-15.5,0c-0.1-0.4-0.1-0.8-0.2-1.2c5-1.2,9.9-2.4,15.5-3.8
		C118.2,149.6,118.2,151,118.3,152.7z"/>
	<path d="M165.9,172.2c1.4-3.6,2.4-6.1,3.8-9.8c1.4,3.5,2.5,6.1,3.9,9.4C171,171.9,168.9,172,165.9,172.2z"/>
	<path d="M138.1,170.1c0.5-2.9,0.7-5.8,1.8-8.5c0.2-0.5,4.3-0.2,5.7,0.9c1.1,0.9,1.7,4.4,1,5.1c-1.8,1.8-4.5,2.6-6.9,3.9
		C139.2,171,138.7,170.6,138.1,170.1z"/>
	<circle class="st1" cx="142.5" cy="70.7" r="41.4"/>
	<text transform="matrix(1 0 0 1 115.2316 82.5109)" class="st0 st2 st3">dot</text>
	<text transform="matrix(1 0 0 1 199.3234 136.2057)" class="st0 st4 st5 st6">AWARDS</text>
	<rect x="113.5" y="155.2" class="st0" width="147.1" height="24.1"/>
	<text transform="matrix(1 0 0 1 125.9407 177.2401)" class="st4 st7">PLATINUM</text>
</g>
</svg>
