<svg width="85" height="85" viewBox="0 0 85 85" fill="none" xmlns="http://www.w3.org/2000/svg">
<circle cx="42.75" cy="42.75" r="40.5" stroke="url(#paint0_linear_3284_1552)" stroke-width="3.5"/>
<path fill-rule="evenodd" clip-rule="evenodd" d="M48.2495 52.2502C50.9995 52.2502 53.2495 50.0127 53.2495 47.2502C53.2495 44.5002 51.012 42.2502 48.2495 42.2502C45.4995 42.2502 43.2495 44.4877 43.2495 47.2502C43.2495 50.0002 45.487 52.2502 48.2495 52.2502ZM48.2495 49.7502C48.9126 49.7502 49.5484 49.4869 50.0173 49.018C50.4861 48.5492 50.7495 47.9133 50.7495 47.2502C50.7495 46.5872 50.4861 45.9513 50.0173 45.4825C49.5484 45.0136 48.9126 44.7502 48.2495 44.7502C47.5865 44.7502 46.9506 45.0136 46.4817 45.4825C46.0129 45.9513 45.7495 46.5872 45.7495 47.2502C45.7495 47.9133 46.0129 48.5492 46.4817 49.018C46.9506 49.4869 47.5865 49.7502 48.2495 49.7502Z" fill="url(#paint1_linear_3284_1552)"/>
<path d="M43.7493 24.7503H35.2493C33.1068 24.7503 31.6493 24.7503 30.5243 24.8453C29.4293 24.9328 28.8668 25.0953 28.4768 25.2953C27.536 25.7747 26.7711 26.5395 26.2918 27.4803C26.0918 27.8703 25.9293 28.4303 25.8418 29.5278C25.7493 30.6503 25.7468 32.1003 25.7468 34.2503V47.7503C25.7468 49.8928 25.7493 51.3503 25.8418 52.4753C25.9318 53.5703 26.0943 54.1328 26.2918 54.5228C26.7718 55.4628 27.5368 56.2278 28.4768 56.7078C28.8668 56.9078 29.4293 57.0703 30.5243 57.1578C31.1493 57.2078 31.8743 57.2328 32.7618 57.2428C33.0868 58.1428 33.5818 58.9978 34.2518 59.7428C30.7018 59.7378 28.8268 59.6753 27.3518 58.9253C25.9419 58.2065 24.7956 57.0601 24.0768 55.6503C23.2593 54.0453 23.2593 51.9503 23.2593 47.7503V34.2503C23.2593 30.0503 23.2593 27.9503 24.0768 26.3503C24.7984 24.9425 25.944 23.7969 27.3518 23.0753C28.9568 22.2578 31.0518 22.2578 35.2518 22.2578H43.7518C47.9518 22.2578 50.0518 22.2578 51.6518 23.0753C53.0596 23.7969 54.2052 24.9425 54.9268 26.3503C55.5268 27.5253 55.6868 28.9753 55.7293 31.3253C55.4296 31.3199 55.1299 31.3324 54.8318 31.3628C54.3552 30.779 53.796 30.2677 53.1718 29.8453L53.1493 29.5453C53.0593 28.4503 52.8993 27.8878 52.6993 27.4953C52.2195 26.5555 51.4547 25.7915 50.5143 25.3128C50.1243 25.1128 49.5643 24.9503 48.4668 24.8628C47.3418 24.7703 45.8918 24.7678 43.7418 24.7678L43.7493 24.7503Z" fill="url(#paint2_linear_3284_1552)"/>
<path d="M43.4247 29.7502H29.4997C29.1682 29.7502 28.8503 29.8819 28.6159 30.1164C28.3814 30.3508 28.2497 30.6687 28.2497 31.0002C28.2497 31.3318 28.3814 31.6497 28.6159 31.8841C28.8503 32.1185 29.1682 32.2502 29.4997 32.2502H37.1747C38.549 31.5011 40.1178 31.1856 41.6747 31.3452C42.1797 30.7277 42.7772 30.1877 43.4497 29.7502H43.4247ZM29.4997 37.2502H32.7747C32.4811 38.0515 32.3264 38.897 32.3172 39.7502H29.5172C29.1857 39.7502 28.8678 39.6185 28.6334 39.3841C28.3989 39.1497 28.2672 38.8318 28.2672 38.5002C28.2672 38.1687 28.3989 37.8508 28.6334 37.6164C28.8678 37.3819 29.1857 37.2502 29.5172 37.2502H29.4997ZM29.7247 44.7502H29.4897C29.1582 44.7502 28.8403 44.8819 28.6059 45.1164C28.3714 45.3508 28.2397 45.6687 28.2397 46.0002C28.2397 46.3318 28.3714 46.6497 28.6059 46.8841C28.8403 47.1185 29.1582 47.2502 29.4897 47.2502V46.6552C29.4897 45.9969 29.5681 45.3619 29.7247 44.7502Z" fill="url(#paint3_linear_3284_1552)"/>
<path fill-rule="evenodd" clip-rule="evenodd" d="M48.7494 32.2502H47.5644C45.5894 32.2502 43.9394 33.6877 43.6394 35.5752C43.462 35.6437 43.2861 35.7162 43.1119 35.7927C42.3449 35.2459 41.4087 34.9892 40.4701 35.0684C39.5314 35.1476 38.6514 35.5576 37.9869 36.2252L37.1444 37.0677C36.4786 37.7332 36.0699 38.613 35.9907 39.5511C35.9115 40.4892 36.167 41.425 36.7119 42.1927C36.6353 42.3677 36.5628 42.5435 36.4944 42.7202C35.5663 42.8771 34.7234 43.3571 34.115 44.0753C33.5065 44.7936 33.1716 45.7039 33.1694 46.6452V47.8302C33.1694 49.8127 34.6119 51.4552 36.4944 51.7802C36.5611 51.9535 36.6319 52.1252 36.7069 52.2952C36.1576 53.0655 35.8991 54.0056 35.9774 54.9485C36.0557 55.8914 36.4656 56.776 37.1344 57.4452L37.9594 58.2702C39.3644 59.6752 41.5594 59.8202 43.1344 58.6902C43.2978 58.7652 43.4628 58.8344 43.6294 58.8977C43.7836 59.8338 44.2655 60.6847 44.989 61.2983C45.7126 61.912 46.6307 62.2484 47.5794 62.2477H48.7244C50.7244 62.2477 52.3744 60.7877 52.6994 58.8727C52.8628 58.8077 53.0244 58.7402 53.1844 58.6702C54.7544 59.8052 56.9594 59.6652 58.3844 58.2527L59.1869 57.4502C60.5994 56.0377 60.7394 53.8252 59.6044 52.2502C59.6761 52.0885 59.7436 51.9269 59.8069 51.7652C60.7497 51.6109 61.6069 51.1264 62.2252 50.3981C62.8435 49.6699 63.1826 48.7455 63.1819 47.7902V46.6452C63.1819 44.6527 61.7294 42.9952 59.8319 42.6952C59.7672 42.5271 59.6989 42.3604 59.6269 42.1952C60.7519 40.6327 60.6119 38.4452 59.2019 37.0202L58.3819 36.2002C57.7127 35.5314 56.8281 35.1214 55.8852 35.0432C54.9424 34.9649 54.0023 35.2234 53.2319 35.7727C53.0619 35.6972 52.8902 35.6255 52.7169 35.5577C52.5593 34.6253 52.0757 33.7791 51.3522 33.1702C50.6288 32.5612 49.7126 32.229 48.7669 32.2327L48.7494 32.2502ZM46.0744 36.2502C46.0744 35.4277 46.7394 34.7627 47.5619 34.7627H48.7469C49.5719 34.7627 50.2419 35.4327 50.2419 36.2577C50.2419 36.9627 50.7394 37.5602 51.4069 37.7902C51.8003 37.9252 52.1819 38.0844 52.5519 38.2677C53.1869 38.5802 53.9669 38.5102 54.4669 38.0102C54.7481 37.7301 55.1288 37.5728 55.5257 37.5728C55.9226 37.5728 56.3033 37.7301 56.5844 38.0102L57.4069 38.8327C57.6891 39.1153 57.8475 39.4984 57.8475 39.8977C57.8475 40.297 57.6891 40.6801 57.4069 40.9627C56.9044 41.4652 56.8319 42.2452 57.1419 42.8827C57.3169 43.2444 57.4703 43.6169 57.6019 44.0002C57.8344 44.6752 58.4369 45.1802 59.1494 45.1802C59.9819 45.1802 60.6569 45.8552 60.6569 46.6877V47.8327C60.6569 48.2345 60.4973 48.6198 60.2132 48.904C59.9291 49.1881 59.5437 49.3477 59.1419 49.3477C58.4269 49.3477 57.8219 49.8527 57.5869 50.5252C57.4569 50.9019 57.3053 51.2677 57.1319 51.6227C56.8194 52.2652 56.8894 53.0527 57.3969 53.5577C57.5379 53.6982 57.6498 53.8652 57.7261 54.049C57.8024 54.2328 57.8417 54.4299 57.8417 54.6289C57.8417 54.828 57.8024 55.0251 57.7261 55.2089C57.6498 55.3927 57.5379 55.5597 57.3969 55.7002L56.5944 56.5027C56.4539 56.6437 56.287 56.7555 56.1031 56.8318C55.9193 56.9082 55.7222 56.9474 55.5232 56.9474C55.3241 56.9474 55.1271 56.9082 54.9432 56.8318C54.7594 56.7555 54.5924 56.6437 54.4519 56.5027C53.9469 55.9977 53.1594 55.9252 52.5169 56.2377C52.1619 56.411 51.7961 56.5627 51.4194 56.6927C50.7444 56.9277 50.2394 57.5327 50.2394 58.2477C50.2394 58.6495 50.0798 59.0348 49.7957 59.319C49.5116 59.6031 49.1262 59.7627 48.7244 59.7627H47.5794C47.1796 59.7627 46.7962 59.6039 46.5135 59.3212C46.2308 59.0384 46.0719 58.655 46.0719 58.2552C46.0719 57.5427 45.5669 56.9377 44.8919 56.7077C44.5105 56.577 44.1373 56.4234 43.7744 56.2477C43.1369 55.9377 42.3569 56.0102 41.8544 56.5102C41.5718 56.7923 41.1888 56.9508 40.7894 56.9508C40.3901 56.9508 40.0071 56.7923 39.7244 56.5102L38.9019 55.6877C38.6218 55.4065 38.4645 55.0258 38.4645 54.6289C38.4645 54.2321 38.6218 53.8513 38.9019 53.5702C39.4019 53.0702 39.4719 52.2902 39.1594 51.6552C38.9767 51.2838 38.8172 50.9014 38.6819 50.5102C38.4519 49.8427 37.8544 49.3452 37.1494 49.3452C36.7533 49.3439 36.3738 49.1859 36.0938 48.9059C35.8137 48.6258 35.6558 48.2463 35.6544 47.8502V46.6652C35.6544 45.8427 36.3194 45.1777 37.1419 45.1777C37.8469 45.1777 38.4419 44.6802 38.6694 44.0127C38.8056 43.6146 38.9668 43.2255 39.1519 42.8477C39.4619 42.2177 39.3919 41.4452 38.8944 40.9477C38.6157 40.6684 38.4591 40.2898 38.4591 39.8952C38.4591 39.5006 38.6157 39.122 38.8944 38.8427L39.7369 38.0002C40.0163 37.7214 40.3948 37.5649 40.7894 37.5649C41.1841 37.5649 41.5626 37.7214 41.8419 38.0002C42.3394 38.4977 43.1119 38.5677 43.7419 38.2577C44.1169 38.0744 44.5053 37.9135 44.9069 37.7752C45.5744 37.5502 46.0719 36.9527 46.0719 36.2477L46.0744 36.2502Z" fill="url(#paint4_linear_3284_1552)"/>
<defs>
<linearGradient id="paint0_linear_3284_1552" x1="42.75" y1="4" x2="42.75" y2="81.5" gradientUnits="userSpaceOnUse">
<stop stop-color="#38E4AE"/>
<stop offset="1" stop-color="#0798AD"/>
</linearGradient>
<linearGradient id="paint1_linear_3284_1552" x1="48.2495" y1="42.2502" x2="48.2495" y2="52.2502" gradientUnits="userSpaceOnUse">
<stop stop-color="#38E4AE"/>
<stop offset="1" stop-color="#0798AD"/>
</linearGradient>
<linearGradient id="paint2_linear_3284_1552" x1="39.4943" y1="22.2578" x2="39.4943" y2="59.7428" gradientUnits="userSpaceOnUse">
<stop stop-color="#38E4AE"/>
<stop offset="1" stop-color="#0798AD"/>
</linearGradient>
<linearGradient id="paint3_linear_3284_1552" x1="35.8447" y1="29.7502" x2="35.8447" y2="47.2502" gradientUnits="userSpaceOnUse">
<stop stop-color="#38E4AE"/>
<stop offset="1" stop-color="#0798AD"/>
</linearGradient>
<linearGradient id="paint4_linear_3284_1552" x1="48.1757" y1="32.2327" x2="48.1757" y2="62.2477" gradientUnits="userSpaceOnUse">
<stop stop-color="#38E4AE"/>
<stop offset="1" stop-color="#0798AD"/>
</linearGradient>
</defs>
</svg>
