<svg width="85" height="85" viewBox="0 0 85 85" fill="none" xmlns="http://www.w3.org/2000/svg">
<circle cx="42.75" cy="42.75" r="40.5" stroke="white" stroke-width="3.5"/>
<path d="M59.8 39.0688C59.8 31.0216 59.8 27.0001 57.3388 24.499C54.8776 21.9979 50.9191 22 43 22H38.8C30.8809 22 26.9203 22 24.4612 24.499C22.0021 26.998 22 31.0216 22 39.0688C22 47.116 22 51.1375 24.4612 53.6386C25.4482 54.6403 26.6746 55.2409 28.3 55.6" stroke="white" stroke-width="1.5" stroke-linecap="round" stroke-linejoin="round"/>
<path d="M64.0001 54.5501C64.0001 50.6126 64.0001 48.6449 62.9984 47.2631C62.6746 46.8175 62.2827 46.4256 61.8371 46.1018C60.4553 45.1001 58.4876 45.1001 54.5501 45.1001H44.0501C40.1126 45.1001 38.1449 45.1001 36.7631 46.1018C36.3175 46.4256 35.9256 46.8175 35.6018 47.2631C34.6001 48.647 34.6001 50.6147 34.6001 54.5501C34.6001 58.4855 34.6001 60.4553 35.6018 61.8371C35.9262 62.2829 36.3188 62.6748 36.7652 62.9984C38.1449 64.0001 40.1126 64.0001 44.0501 64.0001H54.5501C58.4876 64.0001 60.4553 64.0001 61.8371 62.9984C62.2827 62.6746 62.6746 62.2827 62.9984 61.8371C64.0001 60.4553 64.0001 58.4876 64.0001 54.5501Z" stroke="white" stroke-width="1.5" stroke-linecap="round" stroke-linejoin="round"/>
<path d="M52.4498 51.3999L54.3818 53.0652C55.1945 53.7645 55.5998 54.1152 55.5998 54.5499C55.5998 54.9846 55.1945 55.3353 54.3818 56.0346L52.4498 57.6999M46.1498 51.3999L44.2178 53.0652C43.4051 53.7645 42.9998 54.1152 42.9998 54.5499C42.9998 54.9846 43.4051 55.3353 44.2178 56.0346L46.1498 57.6999M23.0498 30.3999H58.7498" stroke="white" stroke-width="1.5" stroke-linecap="round" stroke-linejoin="round"/>
</svg>
