<svg width="85" height="85" viewBox="0 0 85 85" fill="none" xmlns="http://www.w3.org/2000/svg">
<circle cx="42.75" cy="42.75" r="40.5" stroke="white" stroke-width="3.5"/>
<mask id="path-2-inside-1_3284_1555" fill="white">
<path d="M38.1096 40.5558C38.1096 39.5928 38.2993 38.6391 38.6679 37.7494C39.0364 36.8597 39.5766 36.0513 40.2576 35.3703C40.9386 34.6893 41.7471 34.1491 42.6369 33.7806C43.5266 33.4121 44.4803 33.2224 45.4434 33.2224C46.4064 33.2224 47.3601 33.4121 48.2499 33.7806C49.1396 34.1491 49.9481 34.6893 50.6291 35.3703C51.3101 36.0513 51.8503 36.8597 52.2189 37.7494C52.5874 38.6391 52.7771 39.5928 52.7771 40.5558C52.7771 42.5007 52.0044 44.366 50.6291 45.7413C49.2538 47.1166 47.3884 47.8892 45.4434 47.8892C43.4983 47.8892 41.633 47.1166 40.2576 45.7413C38.8823 44.366 38.1096 42.5007 38.1096 40.5558ZM45.4434 35.6668C44.1467 35.6668 42.9031 36.1819 41.9862 37.0988C41.0693 38.0156 40.5542 39.2592 40.5542 40.5558C40.5542 41.8524 41.0693 43.0959 41.9862 44.0128C42.9031 44.9297 44.1467 45.4447 45.4434 45.4447C46.74 45.4447 47.9836 44.9297 48.9005 44.0128C49.8174 43.0959 50.3325 41.8524 50.3325 40.5558C50.3325 39.2592 49.8174 38.0156 48.9005 37.0988C47.9836 36.1819 46.74 35.6668 45.4434 35.6668ZM40.5542 22.2222C40.5542 21.8981 40.4254 21.5872 40.1962 21.358C39.967 21.1288 39.6561 21 39.3319 21C39.0077 21 38.6968 21.1288 38.4676 21.358C38.2384 21.5872 38.1096 21.8981 38.1096 22.2222V25.8889H36.8873C35.2665 25.8889 33.712 26.5328 32.5659 27.6789C31.4198 28.8249 30.7759 30.3793 30.7759 32.0001V33.2224H27.109C26.7848 33.2224 26.4739 33.3511 26.2447 33.5804C26.0155 33.8096 25.8867 34.1205 25.8867 34.4446C25.8867 34.7688 26.0155 35.0796 26.2447 35.3089C26.4739 35.5381 26.7848 35.6668 27.109 35.6668H30.7759V39.3336H27.109C26.8977 39.3335 26.69 39.3882 26.5062 39.4923C26.3223 39.5964 26.1686 39.7464 26.06 39.9276C25.9514 40.1088 25.8917 40.3151 25.8866 40.5263C25.8815 40.7375 25.9312 40.9464 26.0309 41.1327C27.1659 40.7499 28.3558 40.555 29.5536 40.5558C30.8394 40.5558 32.0715 40.7758 33.2205 41.1816V32.0001C33.2205 31.0277 33.6068 30.095 34.2945 29.4074C34.9821 28.7197 35.9148 28.3334 36.8873 28.3334H53.9994C54.9719 28.3334 55.9046 28.7197 56.5923 29.4074C57.2799 30.095 57.6663 31.0277 57.6663 32.0001V49.1115C57.6663 50.0839 57.2799 51.0166 56.5923 51.7042C55.9046 52.3919 54.9719 52.7782 53.9994 52.7782H40.4882C40.3946 53.6118 40.206 54.4319 39.9259 55.2226H44.2211V58.8894C44.2211 59.2135 44.3498 59.5244 44.5791 59.7536C44.8083 59.9828 45.1192 60.1116 45.4434 60.1116C45.7675 60.1116 46.0784 59.9828 46.3076 59.7536C46.5369 59.5244 46.6656 59.2135 46.6656 58.8894V55.2226H50.3325V58.8894C50.3325 59.2135 50.4613 59.5244 50.6905 59.7536C50.9197 59.9828 51.2306 60.1116 51.5548 60.1116C51.879 60.1116 52.1899 59.9828 52.4191 59.7536C52.6483 59.5244 52.7771 59.2135 52.7771 58.8894V55.2226H53.9994C55.6202 55.2226 57.1747 54.5788 58.3208 53.4327C59.467 52.2866 60.1108 50.7322 60.1108 49.1115V47.8892H63.7777C64.1019 47.8892 64.4128 47.7604 64.642 47.5312C64.8712 47.302 65 46.9911 65 46.667C65 46.3428 64.8712 46.0319 64.642 45.8027C64.4128 45.5735 64.1019 45.4447 63.7777 45.4447H60.1108V41.778H63.7777C64.1019 41.778 64.4128 41.6493 64.642 41.42C64.8712 41.1908 65 40.88 65 40.5558C65 40.2316 64.8712 39.9208 64.642 39.6915C64.4128 39.4623 64.1019 39.3336 63.7777 39.3336H60.1108V35.6668H63.7777C64.1019 35.6668 64.4128 35.5381 64.642 35.3089C64.8712 35.0796 65 34.7688 65 34.4446C65 34.1205 64.8712 33.8096 64.642 33.5804C64.4128 33.3511 64.1019 33.2224 63.7777 33.2224H60.1108V32.0001C60.1108 30.3793 59.467 28.8249 58.3208 27.6789C57.1747 26.5328 55.6202 25.8889 53.9994 25.8889H52.7771V22.2222C52.7771 21.8981 52.6483 21.5872 52.4191 21.358C52.1899 21.1288 51.879 21 51.5548 21C51.2306 21 50.9197 21.1288 50.6905 21.358C50.4613 21.5872 50.3325 21.8981 50.3325 22.2222V25.8889H46.6656V22.2222C46.6656 21.8981 46.5369 21.5872 46.3076 21.358C46.0784 21.1288 45.7675 21 45.4434 21C45.1192 21 44.8083 21.1288 44.5791 21.358C44.3498 21.5872 44.2211 21.8981 44.2211 22.2222V25.8889H40.5542V22.2222ZM29.5536 60.1116C31.475 60.1116 33.2498 59.476 34.6774 58.4078L40.9111 64.6412C41.1403 64.8707 41.4513 64.9998 41.7756 65C42.1 65.0002 42.4111 64.8716 42.6406 64.6424C42.8702 64.4132 42.9992 64.1023 42.9995 63.7779C42.9997 63.4536 42.8711 63.1425 42.6419 62.913L36.4082 56.6795C37.5621 55.1365 38.1613 53.2492 38.1089 51.3233C38.0565 49.3973 37.3555 47.5453 36.1195 46.0674C34.8834 44.5894 33.1846 43.5718 31.2982 43.1795C29.4118 42.7872 27.4482 43.0431 25.7253 43.9057C24.0024 44.7683 22.6212 46.1872 21.8052 47.9326C20.9892 49.678 20.7862 51.6477 21.2292 53.5228C21.6721 55.3979 22.735 57.0686 24.2458 58.2644C25.7566 59.4602 27.6268 60.111 29.5536 60.1116ZM29.5536 57.6671C27.9327 57.6671 26.3783 57.0233 25.2321 55.8772C24.086 54.7311 23.4421 53.1767 23.4421 51.5559C23.4421 49.9351 24.086 48.3807 25.2321 47.2347C26.3783 46.0886 27.9327 45.4447 29.5536 45.4447C31.1744 45.4447 32.7289 46.0886 33.875 47.2347C35.0212 48.3807 35.665 49.9351 35.665 51.5559C35.665 53.1767 35.0212 54.7311 33.875 55.8772C32.7289 57.0233 31.1744 57.6671 29.5536 57.6671Z"/>
</mask>
<path d="M38.1096 40.5558C38.1096 39.5928 38.2993 38.6391 38.6679 37.7494C39.0364 36.8597 39.5766 36.0513 40.2576 35.3703C40.9386 34.6893 41.7471 34.1491 42.6369 33.7806C43.5266 33.4121 44.4803 33.2224 45.4434 33.2224C46.4064 33.2224 47.3601 33.4121 48.2499 33.7806C49.1396 34.1491 49.9481 34.6893 50.6291 35.3703C51.3101 36.0513 51.8503 36.8597 52.2189 37.7494C52.5874 38.6391 52.7771 39.5928 52.7771 40.5558C52.7771 42.5007 52.0044 44.366 50.6291 45.7413C49.2538 47.1166 47.3884 47.8892 45.4434 47.8892C43.4983 47.8892 41.633 47.1166 40.2576 45.7413C38.8823 44.366 38.1096 42.5007 38.1096 40.5558ZM45.4434 35.6668C44.1467 35.6668 42.9031 36.1819 41.9862 37.0988C41.0693 38.0156 40.5542 39.2592 40.5542 40.5558C40.5542 41.8524 41.0693 43.0959 41.9862 44.0128C42.9031 44.9297 44.1467 45.4447 45.4434 45.4447C46.74 45.4447 47.9836 44.9297 48.9005 44.0128C49.8174 43.0959 50.3325 41.8524 50.3325 40.5558C50.3325 39.2592 49.8174 38.0156 48.9005 37.0988C47.9836 36.1819 46.74 35.6668 45.4434 35.6668ZM40.5542 22.2222C40.5542 21.8981 40.4254 21.5872 40.1962 21.358C39.967 21.1288 39.6561 21 39.3319 21C39.0077 21 38.6968 21.1288 38.4676 21.358C38.2384 21.5872 38.1096 21.8981 38.1096 22.2222V25.8889H36.8873C35.2665 25.8889 33.712 26.5328 32.5659 27.6789C31.4198 28.8249 30.7759 30.3793 30.7759 32.0001V33.2224H27.109C26.7848 33.2224 26.4739 33.3511 26.2447 33.5804C26.0155 33.8096 25.8867 34.1205 25.8867 34.4446C25.8867 34.7688 26.0155 35.0796 26.2447 35.3089C26.4739 35.5381 26.7848 35.6668 27.109 35.6668H30.7759V39.3336H27.109C26.8977 39.3335 26.69 39.3882 26.5062 39.4923C26.3223 39.5964 26.1686 39.7464 26.06 39.9276C25.9514 40.1088 25.8917 40.3151 25.8866 40.5263C25.8815 40.7375 25.9312 40.9464 26.0309 41.1327C27.1659 40.7499 28.3558 40.555 29.5536 40.5558C30.8394 40.5558 32.0715 40.7758 33.2205 41.1816V32.0001C33.2205 31.0277 33.6068 30.095 34.2945 29.4074C34.9821 28.7197 35.9148 28.3334 36.8873 28.3334H53.9994C54.9719 28.3334 55.9046 28.7197 56.5923 29.4074C57.2799 30.095 57.6663 31.0277 57.6663 32.0001V49.1115C57.6663 50.0839 57.2799 51.0166 56.5923 51.7042C55.9046 52.3919 54.9719 52.7782 53.9994 52.7782H40.4882C40.3946 53.6118 40.206 54.4319 39.9259 55.2226H44.2211V58.8894C44.2211 59.2135 44.3498 59.5244 44.5791 59.7536C44.8083 59.9828 45.1192 60.1116 45.4434 60.1116C45.7675 60.1116 46.0784 59.9828 46.3076 59.7536C46.5369 59.5244 46.6656 59.2135 46.6656 58.8894V55.2226H50.3325V58.8894C50.3325 59.2135 50.4613 59.5244 50.6905 59.7536C50.9197 59.9828 51.2306 60.1116 51.5548 60.1116C51.879 60.1116 52.1899 59.9828 52.4191 59.7536C52.6483 59.5244 52.7771 59.2135 52.7771 58.8894V55.2226H53.9994C55.6202 55.2226 57.1747 54.5788 58.3208 53.4327C59.467 52.2866 60.1108 50.7322 60.1108 49.1115V47.8892H63.7777C64.1019 47.8892 64.4128 47.7604 64.642 47.5312C64.8712 47.302 65 46.9911 65 46.667C65 46.3428 64.8712 46.0319 64.642 45.8027C64.4128 45.5735 64.1019 45.4447 63.7777 45.4447H60.1108V41.778H63.7777C64.1019 41.778 64.4128 41.6493 64.642 41.42C64.8712 41.1908 65 40.88 65 40.5558C65 40.2316 64.8712 39.9208 64.642 39.6915C64.4128 39.4623 64.1019 39.3336 63.7777 39.3336H60.1108V35.6668H63.7777C64.1019 35.6668 64.4128 35.5381 64.642 35.3089C64.8712 35.0796 65 34.7688 65 34.4446C65 34.1205 64.8712 33.8096 64.642 33.5804C64.4128 33.3511 64.1019 33.2224 63.7777 33.2224H60.1108V32.0001C60.1108 30.3793 59.467 28.8249 58.3208 27.6789C57.1747 26.5328 55.6202 25.8889 53.9994 25.8889H52.7771V22.2222C52.7771 21.8981 52.6483 21.5872 52.4191 21.358C52.1899 21.1288 51.879 21 51.5548 21C51.2306 21 50.9197 21.1288 50.6905 21.358C50.4613 21.5872 50.3325 21.8981 50.3325 22.2222V25.8889H46.6656V22.2222C46.6656 21.8981 46.5369 21.5872 46.3076 21.358C46.0784 21.1288 45.7675 21 45.4434 21C45.1192 21 44.8083 21.1288 44.5791 21.358C44.3498 21.5872 44.2211 21.8981 44.2211 22.2222V25.8889H40.5542V22.2222ZM29.5536 60.1116C31.475 60.1116 33.2498 59.476 34.6774 58.4078L40.9111 64.6412C41.1403 64.8707 41.4513 64.9998 41.7756 65C42.1 65.0002 42.4111 64.8716 42.6406 64.6424C42.8702 64.4132 42.9992 64.1023 42.9995 63.7779C42.9997 63.4536 42.8711 63.1425 42.6419 62.913L36.4082 56.6795C37.5621 55.1365 38.1613 53.2492 38.1089 51.3233C38.0565 49.3973 37.3555 47.5453 36.1195 46.0674C34.8834 44.5894 33.1846 43.5718 31.2982 43.1795C29.4118 42.7872 27.4482 43.0431 25.7253 43.9057C24.0024 44.7683 22.6212 46.1872 21.8052 47.9326C20.9892 49.678 20.7862 51.6477 21.2292 53.5228C21.6721 55.3979 22.735 57.0686 24.2458 58.2644C25.7566 59.4602 27.6268 60.111 29.5536 60.1116ZM29.5536 57.6671C27.9327 57.6671 26.3783 57.0233 25.2321 55.8772C24.086 54.7311 23.4421 53.1767 23.4421 51.5559C23.4421 49.9351 24.086 48.3807 25.2321 47.2347C26.3783 46.0886 27.9327 45.4447 29.5536 45.4447C31.1744 45.4447 32.7289 46.0886 33.875 47.2347C35.0212 48.3807 35.665 49.9351 35.665 51.5559C35.665 53.1767 35.0212 54.7311 33.875 55.8772C32.7289 57.0233 31.1744 57.6671 29.5536 57.6671Z" fill="white" stroke="white" stroke-width="2" mask="url(#path-2-inside-1_3284_1555)"/>
</svg>
