<svg width="85" height="85" viewBox="0 0 85 85" fill="none" xmlns="http://www.w3.org/2000/svg">
<circle cx="42.75" cy="42.75" r="40.5" stroke="url(#paint0_linear_3284_1557)" stroke-width="3.5"/>
<path d="M58.2495 44.25V50.5H28.2495V30.5H40.7495V28H28.2495C27.5865 28 26.9506 28.2634 26.4817 28.7322C26.0129 29.2011 25.7495 29.837 25.7495 30.5V50.5C25.7495 51.163 26.0129 51.7989 26.4817 52.2678C26.9506 52.7366 27.5865 53 28.2495 53H38.2495V58H33.2495V60.5H53.2495V58H48.2495V53H58.2495C58.9126 53 59.5484 52.7366 60.0173 52.2678C60.4861 51.7989 60.7495 51.163 60.7495 50.5V44.25H58.2495ZM45.7495 58H40.7495V53H45.7495V58Z" fill="url(#paint1_linear_3284_1557)"/>
<path d="M60.7495 35.5V33H58.1233C57.9611 32.2178 57.6505 31.474 57.2083 30.8088L59.0708 28.9462L57.3033 27.1787L55.4408 29.0413C54.7755 28.599 54.0317 28.2884 53.2495 28.1262V25.5H50.7495V28.1262C49.9673 28.2884 49.2235 28.599 48.5583 29.0413L46.6958 27.1787L44.9283 28.9462L46.7908 30.8088C46.3485 31.474 46.0379 32.2178 45.8758 33H43.2495V35.5H45.8758C46.0379 36.2822 46.3485 37.026 46.7908 37.6913L44.9283 39.5538L46.6958 41.3212L48.5583 39.4587C49.2235 39.901 49.9673 40.2116 50.7495 40.3738V43H53.2495V40.3738C54.0317 40.2116 54.7755 39.901 55.4408 39.4587L57.3033 41.3212L59.0708 39.5538L57.2083 37.6913C57.6505 37.026 57.9611 36.2822 58.1233 35.5H60.7495ZM51.9995 38C51.2578 38 50.5328 37.7801 49.9161 37.368C49.2994 36.956 48.8188 36.3703 48.535 35.6851C48.2511 34.9998 48.1769 34.2458 48.3216 33.5184C48.4663 32.791 48.8234 32.1228 49.3479 31.5983C49.8723 31.0739 50.5405 30.7168 51.2679 30.5721C51.9954 30.4274 52.7494 30.5016 53.4346 30.7855C54.1198 31.0693 54.7055 31.5499 55.1175 32.1666C55.5296 32.7833 55.7495 33.5083 55.7495 34.25C55.7485 35.2443 55.3531 36.1975 54.6501 36.9006C53.947 37.6036 52.9938 37.999 51.9995 38Z" fill="url(#paint2_linear_3284_1557)"/>
<defs>
<linearGradient id="paint0_linear_3284_1557" x1="42.75" y1="4" x2="42.75" y2="81.5" gradientUnits="userSpaceOnUse">
<stop stop-color="#38E4AE"/>
<stop offset="1" stop-color="#0798AD"/>
</linearGradient>
<linearGradient id="paint1_linear_3284_1557" x1="25.7495" y1="33.5189" x2="57.3086" y2="34.1722" gradientUnits="userSpaceOnUse">
<stop stop-color="#42F8BF"/>
<stop offset="1" stop-color="#2FADC3"/>
</linearGradient>
<linearGradient id="paint2_linear_3284_1557" x1="43.2495" y1="28.4717" x2="59.03" y2="28.775" gradientUnits="userSpaceOnUse">
<stop stop-color="#42F8BF"/>
<stop offset="1" stop-color="#2FADC3"/>
</linearGradient>
</defs>
</svg>
