<svg width="85" height="85" viewBox="0 0 85 85" fill="none" xmlns="http://www.w3.org/2000/svg">
<circle cx="42.75" cy="42.75" r="40.5" stroke="url(#paint0_linear_3289_1591)" stroke-width="3.5"/>
<path d="M54.6611 26.5081C56.2905 26.2189 57.7766 26.1713 58.9346 26.4534L58.9355 26.4524L58.9365 26.4534H58.9395L58.9385 26.4543C59.0546 26.4821 59.163 26.5334 59.2568 26.6057L59.3467 26.6848L59.4238 26.7766C59.4923 26.8705 59.5402 26.9778 59.5654 27.092C59.8422 28.2984 59.7952 29.8091 59.5049 31.4524C59.2133 33.1028 58.6709 34.9207 57.9307 36.7571C56.4522 40.4249 54.1635 44.2152 51.4336 46.9299L51.4326 46.929C50.5357 47.8312 49.5669 48.6585 48.5361 49.4036C48.6431 50.9913 48.5013 52.6054 47.8838 54.0227V54.0237C46.9614 56.1335 45.2919 57.4796 43.6328 58.3323C42.1827 59.0775 40.7169 59.4582 39.7021 59.6497L39.2969 59.7209C39.1148 59.7504 38.9283 59.7379 38.752 59.6838C38.5756 59.6297 38.4145 59.5349 38.2803 59.4084C38.1461 59.282 38.042 59.127 37.9775 58.9543C37.9131 58.7816 37.8897 58.5958 37.9082 58.4124V58.4075L38.543 52.6174C38.2376 52.6029 37.9328 52.5789 37.6289 52.5452C37.1856 52.5007 36.7716 52.304 36.458 51.9875L34.0059 49.5354V49.5344C33.6912 49.2222 33.4937 48.8113 33.4482 48.3704C33.4138 48.0616 33.3896 47.7519 33.375 47.4417L27.5801 48.0784H27.5771C27.3934 48.0972 27.2073 48.0735 27.0342 48.009C26.8611 47.9446 26.7048 47.8417 26.5781 47.7073C26.4514 47.5728 26.3578 47.4103 26.3037 47.2336C26.2498 47.0572 26.237 46.8708 26.2666 46.6887V46.6877C26.4314 45.6876 26.8103 44.0127 27.6631 42.3567C28.5168 40.699 29.8624 39.0302 31.9717 38.1028L31.9727 38.1018C33.3889 37.484 35.0114 37.3426 36.6074 37.4563C37.3536 36.4279 38.1816 35.4607 39.084 34.5657C41.805 31.8473 45.6516 29.5595 49.3457 28.0813C51.1958 27.341 53.0206 26.7992 54.6611 26.5081ZM48.6914 34.4983C48.1306 34.4983 47.5825 34.6643 47.1162 34.9758C46.6499 35.2874 46.2859 35.7302 46.0713 36.2483C45.8567 36.7664 45.8008 37.3369 45.9102 37.887C46.006 38.3685 46.2249 38.8158 46.5439 39.1858L46.6865 39.3391V39.3401C46.9496 39.6037 47.2625 39.8126 47.6064 39.9553C47.9504 40.098 48.3191 40.1711 48.6914 40.1711C49.0637 40.1711 49.4324 40.098 49.7764 39.9553C50.1203 39.8126 50.4332 39.6037 50.6963 39.3401V39.3391C51.0929 38.9425 51.3632 38.4371 51.4727 37.887C51.582 37.3369 51.5261 36.7664 51.3115 36.2483C51.0969 35.7302 50.7329 35.2874 50.2666 34.9758C49.8003 34.6643 49.2522 34.4983 48.6914 34.4983Z" stroke="url(#paint1_linear_3289_1591)"/>
<mask id="path-3-outside-1_3289_1591" maskUnits="userSpaceOnUse" x="26" y="49.5" width="11" height="10" fill="black">
<rect fill="white" x="26" y="49.5" width="11" height="10"/>
<path d="M31.5656 50.5C30.7868 50.5956 30.0623 50.9487 29.507 51.5031C28.1305 52.8844 28 58 28 58C28 58 33.1187 57.8695 34.4961 56.4914C35.0528 55.9371 35.4065 55.2113 35.5 54.4313"/>
</mask>
<path d="M29.507 51.5031L28.8004 50.7955L28.7987 50.7972L29.507 51.5031ZM28 58L27.0003 57.9745L26.9735 59.0265L28.0255 58.9997L28 58ZM34.4961 56.4914L33.7905 55.7828L33.7888 55.7845L34.4961 56.4914ZM31.5656 50.5L31.4438 49.5075C30.4437 49.6302 29.5134 50.0836 28.8004 50.7955L29.507 51.5031L30.2136 52.2107C30.6112 51.8138 31.1299 51.561 31.6875 51.4925L31.5656 50.5ZM29.507 51.5031L28.7987 50.7972C28.2753 51.3224 27.9515 52.0983 27.7344 52.8089C27.5074 53.5521 27.3532 54.3777 27.2471 55.1299C27.1404 55.8867 27.079 56.5947 27.0442 57.1119C27.0267 57.3713 27.0158 57.5843 27.0093 57.7337C27.006 57.8084 27.0038 57.8672 27.0024 57.9081C27.0017 57.9285 27.0012 57.9444 27.0009 57.9556C27.0007 57.9612 27.0006 57.9656 27.0005 57.9687C27.0004 57.9703 27.0004 57.9716 27.0004 57.9725C27.0004 57.973 27.0004 57.9734 27.0003 57.9738C27.0003 57.9739 27.0003 57.9741 27.0003 57.9742C27.0003 57.9744 27.0003 57.9745 28 58C28.9997 58.0255 28.9997 58.0256 28.9997 58.0257C28.9997 58.0257 28.9997 58.0258 28.9997 58.0258C28.9997 58.0258 28.9997 58.0257 28.9997 58.0256C28.9997 58.0253 28.9997 58.0247 28.9997 58.0239C28.9998 58.0221 28.9999 58.0191 29 58.015C29.0002 58.0067 29.0006 57.9937 29.0012 57.9764C29.0024 57.9416 29.0044 57.8892 29.0073 57.8213C29.0133 57.6855 29.0234 57.4881 29.0396 57.2463C29.0723 56.7612 29.1295 56.1039 29.2275 55.4092C29.3261 54.7098 29.4626 53.9975 29.6472 53.3931C29.8418 52.756 30.0505 52.3744 30.2153 52.209L29.507 51.5031ZM28 58C28.0255 58.9997 28.0256 58.9997 28.0258 58.9997C28.0259 58.9997 28.0261 58.9997 28.0262 58.9997C28.0266 58.9996 28.027 58.9996 28.0274 58.9996C28.0284 58.9996 28.0297 58.9996 28.0313 58.9995C28.0344 58.9994 28.0388 58.9993 28.0444 58.9991C28.0556 58.9988 28.0715 58.9983 28.092 58.9976C28.1328 58.9962 28.1917 58.994 28.2665 58.9907C28.4159 58.9842 28.6291 58.9733 28.8885 58.9558C29.406 58.921 30.1143 58.8595 30.8713 58.7527C31.6237 58.6465 32.4494 58.4921 33.1925 58.2648C33.9027 58.0475 34.6789 57.7232 35.2034 57.1983L34.4961 56.4914L33.7888 55.7845C33.6247 55.9487 33.2444 56.1574 32.6075 56.3523C32.0035 56.537 31.2913 56.6736 30.5918 56.7723C29.8969 56.8704 29.2395 56.9277 28.7541 56.9603C28.5122 56.9766 28.3147 56.9867 28.1788 56.9927C28.1109 56.9956 28.0585 56.9976 28.0237 56.9988C28.0063 56.9994 27.9933 56.9998 27.985 57C27.9809 57.0001 27.9779 57.0002 27.9762 57.0003C27.9753 57.0003 27.9747 57.0003 27.9744 57.0003C27.9743 57.0003 27.9742 57.0003 27.9742 57.0003C27.9742 57.0003 27.9743 57.0003 27.9743 57.0003C27.9744 57.0003 27.9745 57.0003 28 58ZM34.4961 56.4914L35.2017 57.2C35.9177 56.487 36.3726 55.5536 36.4929 54.5503L35.5 54.4313L34.5071 54.3122C34.4403 54.869 34.1879 55.3871 33.7905 55.7828L34.4961 56.4914Z" fill="url(#paint2_linear_3289_1591)" mask="url(#path-3-outside-1_3289_1591)"/>
<defs>
<linearGradient id="paint0_linear_3289_1591" x1="42.75" y1="4" x2="42.75" y2="81.5" gradientUnits="userSpaceOnUse">
<stop stop-color="#38E4AE"/>
<stop offset="1" stop-color="#0798AD"/>
</linearGradient>
<linearGradient id="paint1_linear_3289_1591" x1="43.0005" y1="26.7639" x2="43.0005" y2="59.2363" gradientUnits="userSpaceOnUse">
<stop stop-color="#38E4AE"/>
<stop offset="1" stop-color="#0798AD"/>
</linearGradient>
<linearGradient id="paint2_linear_3289_1591" x1="31.75" y1="50.5" x2="31.75" y2="58" gradientUnits="userSpaceOnUse">
<stop stop-color="#38E4AE"/>
<stop offset="1" stop-color="#0798AD"/>
</linearGradient>
</defs>
</svg>
