<svg width="85" height="85" viewBox="0 0 85 85" fill="none" xmlns="http://www.w3.org/2000/svg">
<circle cx="42.75" cy="42.75" r="40.5" stroke="white" stroke-width="3.5"/>
<path d="M59.0789 27.2039C59.0656 27.1398 59.0343 27.0808 58.9886 27.0339C58.9429 26.987 58.8848 26.9541 58.8211 26.939C54.5726 25.9 44.7586 29.6023 39.4359 34.9211C38.4873 35.8619 37.6223 36.8835 36.8507 37.9742C35.2101 37.8258 33.5695 37.9508 32.1726 38.5601C28.2281 40.2945 27.0804 44.8242 26.7601 46.7687C26.7428 46.8753 26.7502 46.9844 26.7818 47.0876C26.8134 47.1908 26.8683 47.2854 26.9424 47.364C27.0164 47.4425 27.1075 47.503 27.2087 47.5407C27.3099 47.5784 27.4184 47.5922 27.5257 47.5812L33.8593 46.8859C33.8637 47.3636 33.8924 47.8408 33.9453 48.3156C33.9783 48.6438 34.1248 48.9502 34.3593 49.182L36.8117 51.6344C37.0437 51.8691 37.3504 52.0155 37.6789 52.0484C38.1508 52.101 38.6251 52.1297 39.1 52.1344L38.4054 58.4625C38.3946 58.5697 38.4086 58.678 38.4462 58.779C38.4839 58.88 38.5443 58.971 38.6228 59.0449C38.7013 59.1189 38.7957 59.1738 38.8987 59.2054C39.0018 59.237 39.1107 59.2445 39.2172 59.2273C41.1625 58.9148 45.7015 57.7672 47.4257 53.8234C48.0351 52.425 48.1601 50.793 48.0195 49.1601C49.1134 48.3893 50.1379 47.5243 51.0812 46.575C56.4234 41.2625 60.1023 31.664 59.0789 27.2039ZM46.3328 39.693C45.8662 39.2264 45.5484 38.632 45.4196 37.9849C45.2908 37.3378 45.3568 36.667 45.6093 36.0574C45.8618 35.4478 46.2893 34.9267 46.8379 34.5601C47.3866 34.1936 48.0316 33.9979 48.6914 33.9979C49.3512 33.9979 49.9962 34.1936 50.5448 34.5601C51.0934 34.9267 51.521 35.4478 51.7734 36.0574C52.0259 36.667 52.0919 37.3378 51.9632 37.9849C51.8344 38.632 51.5166 39.2264 51.05 39.693C50.7405 40.0031 50.3728 40.2492 49.9681 40.4171C49.5634 40.585 49.1295 40.6714 48.6914 40.6714C48.2532 40.6714 47.8194 40.585 47.4146 40.4171C47.0099 40.2492 46.6423 40.0031 46.3328 39.693Z" stroke="white" stroke-linecap="round" stroke-linejoin="round"/>
<path d="M31.5656 50.5C30.7868 50.5956 30.0623 50.9487 29.507 51.5031C28.1305 52.8844 28 58 28 58C28 58 33.1187 57.8695 34.4961 56.4914C35.0528 55.9371 35.4065 55.2113 35.5 54.4313" stroke="white" stroke-linecap="round" stroke-linejoin="round"/>
</svg>
