<svg width="85" height="85" viewBox="0 0 85 85" fill="none" xmlns="http://www.w3.org/2000/svg">
<circle cx="42.75" cy="42.75" r="40.5" stroke="url(#paint0_linear_3289_1593)" stroke-width="3.5"/>
<path d="M54.5001 35.0198C54.8601 35.0198 55.1881 35.1458 55.4461 35.3558C56.9851 36.6533 58.0967 38.3849 58.6356 40.3244C59.1744 42.2638 59.1155 44.3207 58.4664 46.2261C57.8173 48.1315 56.6083 49.7966 54.9975 51.0037C53.3867 52.2108 51.4491 52.9038 49.4381 52.9918L49.0061 52.9998H40.1201L42.5601 55.4398C42.8139 55.6941 42.9679 56.0309 42.9944 56.3891C43.0208 56.7473 42.9178 57.1031 42.7041 57.3918L42.5601 57.5598C42.306 57.8144 41.9689 57.9692 41.6103 57.996C41.2516 58.0228 40.8952 57.9198 40.6061 57.7058L40.4381 57.5598L35.4381 52.5598C35.1844 52.3056 35.0303 51.9688 35.0039 51.6105C34.9774 51.2523 35.0804 50.8965 35.2941 50.6078L35.4381 50.4398L40.4381 45.4398C40.7061 45.1739 41.0645 45.0188 41.4418 45.0056C41.8191 44.9923 42.1876 45.1217 42.4736 45.3681C42.7597 45.6146 42.9423 45.9598 42.985 46.3349C43.0277 46.71 42.9274 47.0874 42.7041 47.3918L42.5601 47.5598L40.1201 49.9998H49.0041C50.7943 50 52.5164 49.3143 53.8165 48.0837C55.1167 46.8532 55.8959 45.1713 55.9941 43.3838L56.0041 42.9998C56.0041 40.8378 55.0241 38.9038 53.4841 37.6198C53.2633 37.4151 53.1091 37.1486 53.0418 36.855C52.9745 36.5614 52.9972 36.2544 53.1068 35.9739C53.2164 35.6933 53.408 35.4523 53.6565 35.2822C53.905 35.112 54.1989 35.0206 54.5001 35.0198ZM43.4401 28.4398C43.6942 28.1853 44.0313 28.0305 44.39 28.0037C44.7487 27.9769 45.105 28.0799 45.3941 28.2938L45.5621 28.4398L50.5621 33.4398L50.7061 33.6078C50.8948 33.8625 50.998 34.1703 51.0008 34.4872C51.0037 34.8041 50.9061 35.1138 50.7221 35.3718L50.5621 35.5598L45.5621 40.5598L45.3941 40.7058C45.1391 40.8947 44.8307 40.9978 44.5134 41.0003C44.1961 41.0028 43.8861 40.9046 43.6281 40.7198L43.4401 40.5598L43.2961 40.3918C43.1074 40.1372 43.0043 39.8293 43.0014 39.5124C42.9985 39.1955 43.0961 38.8858 43.2801 38.6278L43.4401 38.4398L45.8801 35.9998H37.0001C35.2096 35.9992 33.487 36.6846 32.1864 37.9153C30.8859 39.1459 30.1063 40.828 30.0081 42.6158L29.9961 42.9998C29.9961 45.1658 30.9801 47.1018 32.5261 48.3858C32.7996 48.6586 32.9573 49.0264 32.9664 49.4125C32.9755 49.7987 32.8353 50.1735 32.5749 50.4589C32.3146 50.7442 31.9542 50.9181 31.5688 50.9444C31.1834 50.9706 30.8028 50.8472 30.5061 50.5998C28.9805 49.2958 27.8825 47.563 27.355 45.6266C26.8275 43.6901 26.8949 41.6398 27.5483 39.7422C28.2018 37.8446 29.4111 36.1875 31.019 34.9865C32.627 33.7854 34.5591 33.096 36.5641 33.0078L36.9941 32.9998H45.8761L43.4401 30.5598L43.2961 30.3918C43.0824 30.1031 42.9794 29.7473 43.0059 29.3891C43.0323 29.0309 43.1864 28.6941 43.4401 28.4398Z" fill="url(#paint1_linear_3289_1593)"/>
<defs>
<linearGradient id="paint0_linear_3289_1593" x1="42.75" y1="4" x2="42.75" y2="81.5" gradientUnits="userSpaceOnUse">
<stop stop-color="#38E4AE"/>
<stop offset="1" stop-color="#0798AD"/>
</linearGradient>
<linearGradient id="paint1_linear_3289_1593" x1="27.0034" y1="33.094" x2="55.8551" y2="33.6855" gradientUnits="userSpaceOnUse">
<stop stop-color="#42F8BF"/>
<stop offset="1" stop-color="#2FADC3"/>
</linearGradient>
</defs>
</svg>
