<svg width="85" height="85" viewBox="0 0 85 85" fill="none" xmlns="http://www.w3.org/2000/svg">
<circle cx="42.75" cy="42.75" r="40.5" stroke="white" stroke-width="3.5"/>
<path d="M34.667 47.3337L38.4887 43.512C38.8012 43.1995 39.2251 43.024 39.667 43.024C40.1089 43.024 40.5328 43.1995 40.8453 43.512L43.4887 46.1553C43.8012 46.4678 44.2251 46.6433 44.667 46.6433C45.1089 46.6433 45.5328 46.4678 45.8453 46.1553L51.3337 40.667M51.3337 40.667V44.8337M51.3337 40.667H47.167" stroke="white" stroke-width="1.5" stroke-linecap="round" stroke-linejoin="round"/>
<path d="M59.6668 44.0002C59.6668 51.8568 59.6668 55.7852 57.2252 58.2252C54.7868 60.6668 50.8568 60.6668 43.0002 60.6668C35.1435 60.6668 31.2152 60.6668 28.7735 58.2252C26.3335 55.7868 26.3335 51.8568 26.3335 44.0002C26.3335 36.1435 26.3335 32.2152 28.7735 29.7735C31.2168 27.3335 35.1435 27.3335 43.0002 27.3335C50.8568 27.3335 54.7852 27.3335 57.2252 29.7735C58.8485 31.3968 59.3918 33.6785 59.5752 37.3335" stroke="white" stroke-width="1.5" stroke-linecap="round"/>
</svg>
