<svg width="85" height="85" viewBox="0 0 85 85" fill="none" xmlns="http://www.w3.org/2000/svg">
<circle cx="42.75" cy="42.75" r="40.5" stroke="url(#paint0_linear_3340_1505)" stroke-width="3.5"/>
<path d="M54.4487 48.4928C54.4487 45.4862 54.4487 42.4796 54.4487 39.4694C54.4487 38.3306 54.6826 38.0599 55.7861 38.0383C57.2413 38.0112 58.7001 38.0491 60.1571 38.0383C60.8571 38.0383 61.1892 38.3992 61.2285 39.0796C61.2553 39.4694 61.2767 39.861 61.2767 40.2508C61.2767 45.7227 61.2767 51.1969 61.2767 56.6735C61.2767 58.9186 61.1838 59.0016 58.9554 58.9998C57.9145 58.9998 56.8735 58.9998 55.8343 58.9781C54.7183 58.9529 54.4666 58.7092 54.4612 57.5957C54.4487 54.5584 54.4612 51.5211 54.4612 48.4856L54.4487 48.4928Z" fill="url(#paint1_linear_3340_1505)"/>
<path d="M51.0819 37.5946C51.1653 39.5826 49.8357 41.0754 47.9203 41.3302C46.2642 41.5525 44.5156 40.385 44.2327 38.7042C44.0749 37.7753 43.7085 37.2584 42.7816 37.1048C42.5435 37.0624 42.3123 36.9883 42.0941 36.8843C41.0965 36.4181 40.2802 36.2952 39.2971 37.1934C38.2777 38.1259 36.8901 38.0771 35.6585 37.3542C35.2232 37.0976 34.9329 37.1157 34.5303 37.4066C33.4419 38.2018 32.3119 38.9681 31.1782 39.7127C30.7193 40.0145 30.5543 40.3326 30.6504 40.9019C30.7314 41.4718 30.6688 42.0529 30.4681 42.5928C30.2674 43.1326 29.9351 43.6141 29.501 43.994C29.0668 44.3739 28.5447 44.6401 27.9815 44.7687C27.4183 44.8973 26.8319 44.8842 26.2751 44.7306C25.7182 44.577 25.2086 44.2876 24.792 43.8888C24.3754 43.4899 24.065 42.9939 23.8889 42.4457C23.7127 41.8974 23.6763 41.3141 23.7829 40.7483C23.8895 40.1825 24.1358 39.6521 24.4995 39.2049C25.528 37.9597 27.2566 37.4825 28.6606 38.2542C29.4351 38.6826 29.9303 38.5832 30.5597 38.088C31.5102 37.347 32.5205 36.6837 33.5199 36.0078C33.9009 35.7512 34.0786 35.5054 33.9934 34.9831C33.6723 33.0114 34.8767 31.2674 36.7142 30.9294C38.6623 30.568 40.3836 31.7066 40.7881 33.7108C40.9351 34.4464 41.2343 34.8928 41.9816 35.0283C42.2182 35.0777 42.4483 35.1541 42.6673 35.256C43.7719 35.7277 44.726 35.9789 45.8089 34.9343C46.734 34.0415 48.0817 34.1373 49.2063 34.7897C49.7976 35.1331 50.1731 35.0283 50.6574 34.6795C51.6859 33.9421 52.7234 33.2138 53.7936 32.5397C54.2688 32.2379 54.4303 31.9271 54.3377 31.3686C54.082 29.8722 54.6878 28.7047 55.9195 27.8897C57.0749 27.127 58.3101 27.0999 59.5073 27.8246C60.7462 28.5746 61.3556 29.6897 61.2686 31.1481C61.1216 33.6168 58.3319 35.1241 56.1045 33.8843C55.5603 33.5807 55.2157 33.6259 54.7513 33.9765C53.8625 34.6488 52.9374 35.2705 52.0087 35.894C51.3304 36.3512 50.6393 36.7831 51.0819 37.5946ZM59.5672 30.868C59.5799 30.0078 58.7255 29.1132 57.8603 29.0806C56.9116 29.0445 56.0192 29.8668 56.0011 30.7885C55.9829 31.7102 56.8554 32.5704 57.7896 32.5758C58.6802 32.5795 59.5526 31.7427 59.5672 30.8662V30.868ZM37.3617 32.574C37.136 32.5766 36.913 32.6235 36.7054 32.7121C36.4979 32.8006 36.3099 32.929 36.1523 33.09C35.9946 33.2509 35.8703 33.4413 35.7865 33.6502C35.7027 33.859 35.6611 34.0823 35.6639 34.3072C35.654 34.5323 35.6894 34.7571 35.7682 34.9683C35.847 35.1795 35.9675 35.3728 36.1226 35.5367C36.2776 35.7007 36.4642 35.832 36.6711 35.9228C36.878 36.0137 37.1012 36.0623 37.3273 36.0657C37.5612 36.0787 37.7955 36.044 38.0155 35.9635C38.2354 35.883 38.4366 35.7585 38.6065 35.5977C38.7764 35.4369 38.9115 35.2431 39.0034 35.0283C39.0954 34.8135 39.1422 34.5823 39.1411 34.3488C39.1428 34.1154 39.098 33.884 39.0092 33.6681C38.9203 33.4521 38.7894 33.2559 38.6238 33.0908C38.4583 32.9256 38.2615 32.7949 38.0448 32.7062C37.8281 32.6175 37.596 32.5726 37.3617 32.574ZM45.8398 37.7952C45.83 38.027 45.8673 38.2584 45.9494 38.4755C46.0315 38.6926 46.1568 38.891 46.3177 39.0587C46.4786 39.2265 46.6718 39.3601 46.8858 39.4517C47.0998 39.5432 47.3301 39.5908 47.5629 39.5916C47.788 39.5997 48.0125 39.5621 48.2226 39.4812C48.4327 39.4003 48.6241 39.2778 48.7852 39.1209C48.9464 38.9641 49.0738 38.7763 49.1599 38.5689C49.246 38.3615 49.289 38.1389 49.2861 37.9145C49.2935 37.689 49.2562 37.4643 49.1765 37.2532C49.0967 37.0421 48.976 36.8487 48.8212 36.684C48.6664 36.5194 48.4806 36.3868 48.2743 36.2937C48.0681 36.2006 47.8455 36.1489 47.6192 36.1416C47.3929 36.1342 47.1674 36.1713 46.9555 36.2508C46.7436 36.3303 46.5495 36.4506 46.3842 36.6048C46.219 36.759 46.0859 36.9442 45.9925 37.1497C45.899 37.3551 45.8471 37.577 45.8398 37.8024V37.7952ZM28.9707 41.3483C28.9707 40.4645 28.1164 39.6061 27.2385 39.6006C26.3316 39.6006 25.3865 40.5043 25.401 41.3663C25.4137 42.1958 26.3297 43.1176 27.1623 43.1392C28.0366 43.1645 28.9707 42.2356 28.9707 41.3483Z" fill="url(#paint2_linear_3340_1505)"/>
<path d="M40.7886 50.2038C40.7886 52.6406 40.7886 55.0883 40.7886 57.5179C40.7886 58.56 40.3754 58.9923 39.3591 58.9978C37.9859 58.9978 36.6092 59.0104 35.236 58.9742C34.3569 58.9507 33.9648 58.5057 33.9648 57.6138C33.9648 53.0995 33.9648 48.5847 33.9648 44.0692C33.9648 43.7074 33.9824 43.3455 34.007 42.9837C34.0967 41.6703 34.3253 41.4532 35.6264 41.4496C36.8853 41.4496 38.1424 41.4333 39.4013 41.4496C40.3771 41.4659 40.7816 41.8928 40.7833 42.8824C40.8009 45.3265 40.7886 47.7651 40.7886 50.2038Z" fill="url(#paint3_linear_3340_1505)"/>
<path d="M51.0315 51.9661C51.0315 53.8141 51.0315 55.6621 51.0315 57.5119C51.0315 58.487 50.6798 58.9353 49.7495 58.9699C48.2899 59.0118 46.8267 59.0082 45.3636 58.9699C44.5018 58.9535 44.2398 58.3339 44.2345 57.552C44.2205 55.4865 44.2117 53.4253 44.2082 51.3683C44.2082 49.7281 44.1994 48.0878 44.231 46.4603C44.2556 45.1208 44.5282 44.8511 45.7927 44.8565C47.138 44.8565 48.4833 44.8911 49.8269 44.9294C50.671 44.9531 51.0245 45.3377 51.0298 46.2361C51.0403 48.1461 51.0315 50.0561 51.0315 51.9661Z" fill="url(#paint4_linear_3340_1505)"/>
<path d="M30.5509 53.8547C30.5509 55.1862 30.5401 56.5176 30.5509 57.8473C30.5616 58.6303 30.174 58.9924 29.4168 58.9942C27.9291 58.9942 26.4432 59.0066 24.9519 58.9942C24.1036 58.9942 23.7214 58.5237 23.7232 57.7C23.7232 55.1258 23.7232 52.5528 23.7232 49.981C23.7232 49.1945 24.0946 48.7596 24.9072 48.7578C26.4253 48.7578 27.9428 48.7578 29.4596 48.7578C30.1955 48.7578 30.5437 49.1395 30.5419 49.8585L30.5509 53.8547Z" fill="url(#paint5_linear_3340_1505)"/>
<defs>
<linearGradient id="paint0_linear_3340_1505" x1="42.75" y1="4" x2="42.75" y2="81.5" gradientUnits="userSpaceOnUse">
<stop stop-color="#38E4AE"/>
<stop offset="1" stop-color="#0798AD"/>
</linearGradient>
<linearGradient id="paint1_linear_3340_1505" x1="54.4487" y1="41.5895" x2="60.6078" y2="41.6281" gradientUnits="userSpaceOnUse">
<stop stop-color="#42F8BF"/>
<stop offset="1" stop-color="#2FADC3"/>
</linearGradient>
<linearGradient id="paint2_linear_3340_1505" x1="23.7231" y1="30.2803" x2="57.5422" y2="31.6707" gradientUnits="userSpaceOnUse">
<stop stop-color="#42F8BF"/>
<stop offset="1" stop-color="#2FADC3"/>
</linearGradient>
<linearGradient id="paint3_linear_3340_1505" x1="33.9648" y1="44.4239" x2="40.1238" y2="44.4699" gradientUnits="userSpaceOnUse">
<stop stop-color="#42F8BF"/>
<stop offset="1" stop-color="#2FADC3"/>
</linearGradient>
<linearGradient id="paint4_linear_3340_1505" x1="44.207" y1="47.2582" x2="50.3658" y2="47.3153" gradientUnits="userSpaceOnUse">
<stop stop-color="#42F8BF"/>
<stop offset="1" stop-color="#2FADC3"/>
</linearGradient>
<linearGradient id="paint5_linear_3340_1505" x1="23.7231" y1="50.497" x2="29.8814" y2="50.5759" gradientUnits="userSpaceOnUse">
<stop stop-color="#42F8BF"/>
<stop offset="1" stop-color="#2FADC3"/>
</linearGradient>
</defs>
</svg>
