<svg width="46" height="58" viewBox="0 0 46 58" fill="none" xmlns="http://www.w3.org/2000/svg">
<path d="M23.5991 0C32.5966 0.417333 39.5692 4.70033 43.5988 13.2215C47.7706 22.0403 46.3713 30.3955 40.4509 37.9595C39.3196 39.4045 39.2757 40.3096 40.19 41.7639C41.8304 44.374 43.3103 47.0909 44.7598 49.8114C45.066 50.3876 45.194 51.2956 44.9486 51.8454C44.8015 52.1751 43.7537 52.2684 43.1463 52.1901C41.2605 51.9444 38.9639 50.7586 37.6381 51.4694C36.3427 52.1638 36.0981 54.7689 35.2814 56.4809C34.9844 57.1034 34.3771 57.985 33.8913 57.9979C33.3454 58.0128 32.6044 57.2857 32.2473 56.6967C30.4485 53.7277 28.6992 50.7252 27.034 47.6785C26.3531 46.4322 25.4573 46.2093 24.1124 46.0013C20.6152 45.4594 18.7513 46.9599 17.4234 50.0408C16.4526 52.2927 15.0307 54.3587 13.7042 56.4382C13.2976 57.0756 12.5396 57.4858 11.9428 58C11.5037 57.4167 10.9402 56.8883 10.6517 56.2374C10.1283 55.0348 9.68744 53.7975 9.3323 52.5341C8.94412 51.1852 8.13521 50.9118 6.88085 51.2315C5.54582 51.5777 4.19398 51.8544 2.8307 52.0605C2.28483 52.141 1.31331 52.0826 1.20442 51.8162C0.984514 51.2629 1.0121 50.4225 1.29139 49.8876C2.64969 47.2889 4.02001 44.6845 5.59397 42.2168C6.71328 40.4621 6.61499 39.2813 5.27437 37.5585C-0.746413 29.8222 -1.62248 21.2284 2.69707 12.5371C6.83136 4.22532 13.9679 0.163087 23.5991 0ZM2.53444 23.1584C2.50191 34.4748 11.6331 43.8157 22.7732 43.862C33.9132 43.9083 43.2644 34.6165 43.328 23.4226C43.3938 11.9253 34.3912 2.64786 23.0398 2.50969C11.7915 2.37581 2.56767 11.6654 2.53444 23.1584ZM17.1667 45.7642L8.59835 41.5681C7.18419 43.9837 5.79549 46.3553 4.40678 48.7275L4.92295 49.2446C5.87327 49.0694 6.83702 48.9476 7.77037 48.7062C9.44968 48.2717 10.564 48.6428 11.0364 50.5101C11.2959 51.5392 11.8608 52.4899 12.5212 54.0069C14.2515 50.9331 15.6656 48.427 17.1667 45.7656V45.7642ZM33.122 53.4286L33.8361 53.2648C34.1147 52.4885 34.5093 51.7329 34.6493 50.9317C35.0516 48.625 36.3548 48.1051 38.4407 48.7119C39.239 48.944 40.1115 48.9198 41.4606 49.0679C39.8881 46.2271 38.6082 43.9161 37.3362 41.62L28.7586 45.8055L33.122 53.4286Z" fill="url(#paint0_linear_3340_1502)"/>
<path d="M10.0001 23.6008C9.97662 15.9469 15.7729 10.0419 23.3496 10.0002C30.8127 9.95921 36.9672 16.0034 36.9999 23.4028C37.0326 30.8192 30.9484 36.9673 23.5458 36.9999C15.9748 37.0324 10.0264 31.1486 10.0001 23.6008ZM23.3425 34.5525C29.4331 34.5567 34.4646 29.64 34.493 23.6559C34.5229 17.4979 29.5347 12.5459 23.3219 12.5642C17.198 12.5826 12.2667 17.4915 12.2802 23.5569C12.2965 29.5899 17.2854 34.5482 23.3454 34.5525H23.3425Z" fill="url(#paint1_linear_3340_1502)"/>
<path d="M30 20.0503C29.5426 20.5408 29.188 21.0244 28.7334 21.3911C26.2665 23.3862 23.7573 25.3366 21.3009 27.3455C20.0758 28.3465 19.1301 28.1992 18.2914 26.9045C17.5575 25.7707 16.685 24.703 16.096 23.5073C15.8448 22.9955 16.1593 22.2181 16.2163 21.561C16.8081 21.7557 17.5195 21.8108 17.9663 22.1754C18.8965 22.9322 19.6396 24.4739 20.5473 24.5392C21.455 24.6046 22.4584 23.2583 23.4104 22.5194C24.8444 21.4063 26.2313 20.2305 27.7237 19.1986C28.1206 18.9234 28.8495 18.9853 29.3857 19.0816C29.62 19.1229 29.7608 19.6485 30 20.0503Z" fill="url(#paint2_linear_3340_1502)"/>
<defs>
<linearGradient id="paint0_linear_3340_1502" x1="-1.04045e-08" y1="9.84906" x2="41.4858" y2="10.4815" gradientUnits="userSpaceOnUse">
<stop stop-color="#42F8BF"/>
<stop offset="1" stop-color="#2FADC3"/>
</linearGradient>
<linearGradient id="paint1_linear_3340_1502" x1="10" y1="14.5849" x2="34.347" y2="15.0529" gradientUnits="userSpaceOnUse">
<stop stop-color="#42F8BF"/>
<stop offset="1" stop-color="#2FADC3"/>
</linearGradient>
<linearGradient id="paint2_linear_3340_1502" x1="16" y1="20.5283" x2="28.6178" y2="20.9056" gradientUnits="userSpaceOnUse">
<stop stop-color="#42F8BF"/>
<stop offset="1" stop-color="#2FADC3"/>
</linearGradient>
</defs>
</svg>
