<svg width="85" height="85" viewBox="0 0 85 85" fill="none" xmlns="http://www.w3.org/2000/svg">
<circle cx="42.75" cy="42.75" r="40.5" stroke="white" stroke-width="3.5"/>
<path d="M24.7004 22.6665V62.2523H48.5535V59.0786H47.8594C44.9066 59.0786 41.9537 59.0786 39.0009 59.0786C37.9598 59.0786 37.108 58.8451 36.7579 57.7284C36.7232 57.6179 36.4424 57.5359 36.2594 57.5359C33.8492 57.5359 31.439 57.5359 29.0256 57.5359C28.8773 57.5359 28.729 57.5359 28.5776 57.5359C27.975 57.5107 27.5996 57.1794 27.6028 56.681C27.6059 56.1825 27.9782 55.8607 28.5934 55.8576C31.0604 55.8576 33.5274 55.8576 35.9944 55.8576H36.6569V53.5294H36.0827C33.5968 53.5294 31.1109 53.5452 28.6249 53.5105C28.4551 53.5033 28.2885 53.4618 28.135 53.3886C27.9816 53.3155 27.8446 53.212 27.7321 53.0846C27.3283 52.5514 27.7952 51.8605 28.5429 51.8479C29.7764 51.829 31.0099 51.8479 32.2434 51.8479C33.663 51.8479 35.0827 51.8479 36.5055 51.8479C36.7188 51.8605 36.9292 51.793 37.0954 51.6586C37.3044 51.4319 37.5619 51.2554 37.8487 51.1423C38.1355 51.0293 38.4442 50.9825 38.7517 51.0056C41.7802 51.0056 44.8088 51.0056 47.8373 51.0056H48.5535V48.3272L44.3892 46.6962C44.3359 46.6793 44.2858 46.6537 44.2409 46.6205C43.2945 45.816 42.1682 45.7782 40.9852 45.7908C36.7452 45.8318 32.5021 45.8066 28.259 45.8066C26.9182 45.8066 26.4639 45.3586 26.4639 44.0336C26.4639 40.3531 26.4639 36.6725 26.4639 32.992C26.4639 31.7995 26.9687 31.301 28.1738 31.301H44.9381C46.3578 31.301 46.7616 31.6922 46.812 33.115C46.8177 33.208 46.8282 33.3007 46.8436 33.3926C47.361 33.2791 47.8657 33.1876 48.3579 33.0488C48.4204 33.0072 48.4723 32.9516 48.5095 32.8864C48.5468 32.8213 48.5683 32.7483 48.5724 32.6734C48.5724 29.3672 48.5724 26.0484 48.5724 22.6665H33.8933C33.7066 22.6839 33.5186 22.6839 33.3318 22.6665C33.1227 22.6496 32.9288 22.5504 32.7928 22.3907C32.6568 22.231 32.5896 22.0238 32.6062 21.8147C32.6024 21.7111 32.6194 21.6077 32.656 21.5107C32.6927 21.4137 32.7484 21.325 32.8198 21.2498C32.8912 21.1745 32.9768 21.1143 33.0718 21.0727C33.1668 21.031 33.2691 21.0087 33.3728 21.0071C33.522 20.9976 33.6716 20.9976 33.8208 21.0071H48.5124C49.7743 21.0071 50.2633 21.4835 50.2633 22.7674V32.7522C51.399 32.8689 52.4717 32.9036 53.538 33.1087C57.6391 33.91 60.7939 36.1436 62.9833 39.7021C63.1673 39.9629 63.266 40.2742 63.266 40.5933C63.266 40.9125 63.1673 41.2238 62.9833 41.4846C60.1724 45.9391 56.128 48.2168 50.8722 48.3651C50.7239 48.3651 50.5567 48.3651 50.4242 48.3651C50.3777 48.3764 50.333 48.3944 50.2917 48.4187V50.9772C50.522 50.9772 50.7555 51.0087 50.9889 51.0087C55.475 51.0087 59.9579 51.0087 64.4439 51.0087C65.4944 50.9929 66.53 51.2575 67.4441 51.7754C68.6618 52.4599 69.8985 53.1193 71.1288 53.7881C71.6304 54.0594 72.0279 54.419 72.0374 55.0311C72.0469 55.6431 71.6399 56.0406 71.1194 56.3213C69.8385 57.0154 68.5577 57.7063 67.2832 58.4129C66.4465 58.8757 65.5041 59.1137 64.548 59.1038H50.2633C50.2633 60.2143 50.2633 61.2554 50.2633 62.2964C50.2633 63.5079 49.7775 64 48.5661 64H24.6815C23.5079 64 23 63.4889 23 62.3311C23 49.1191 23 35.9059 23 22.6917C23 21.5339 23.5205 21.0102 24.6689 21.0102C26.1642 21.0102 27.6596 21.0102 29.1549 21.0102C29.8553 21.0102 30.2338 21.3257 30.2181 21.8715C30.2023 22.4173 29.8269 22.6886 29.1612 22.6886C27.688 22.6696 26.2147 22.6665 24.7004 22.6665ZM28.1706 33.0141V44.0904H40.7612L38.9252 41.5445C38.7101 41.2708 38.5916 40.9336 38.5882 40.5855C38.5848 40.2374 38.6966 39.898 38.9062 39.6201C40.227 37.4331 42.118 35.6468 44.3766 34.4526C45.2126 34.0047 45.2157 34.0078 45.0675 33.0141H28.1706ZM50.9006 34.4779C46.5313 34.6451 43.0642 36.4717 40.5751 40.1123C40.4606 40.2433 40.3975 40.4114 40.3975 40.5855C40.3975 40.7595 40.4606 40.9276 40.5751 41.0587C45.3672 48.5228 56.5571 48.4881 61.2955 40.9987C61.3941 40.8811 61.4481 40.7326 61.4481 40.5792C61.4481 40.4257 61.3941 40.2772 61.2955 40.1596C58.8095 36.4811 55.333 34.6388 50.9069 34.4779H50.9006ZM43.7456 57.3656H63.6521V55.8702H60.7119C59.7875 55.8702 59.3995 55.621 59.3963 55.0342C59.3932 54.4474 59.7938 54.1856 60.7056 54.1856H63.6552V52.7218H43.7614V54.1856H55.8882C56.0551 54.1713 56.223 54.1713 56.3899 54.1856C56.5989 54.2001 56.7936 54.297 56.9314 54.4549C57.0692 54.6127 57.1388 54.8188 57.1249 55.0279C57.13 55.1317 57.1143 55.2355 57.0789 55.3331C57.0434 55.4308 56.9888 55.5204 56.9184 55.5968C56.8479 55.6732 56.7629 55.7347 56.6684 55.7779C56.5738 55.821 56.4716 55.8449 56.3678 55.8481C56.1997 55.8576 56.0311 55.8576 55.863 55.8481H43.7519L43.7456 57.3656ZM38.3826 52.7123C38.3826 54.214 38.3826 55.6809 38.3826 57.151C38.4001 57.2064 38.4312 57.2565 38.4731 57.2968C38.515 57.337 38.5663 57.3661 38.6223 57.3813C39.7359 57.3813 40.8496 57.3813 41.9821 57.3813V52.7123H38.3826ZM65.3935 57.3971C65.9361 57.1384 66.4156 56.9397 66.8573 56.681C66.944 56.6224 67.0167 56.5453 67.0702 56.4553C67.1236 56.3653 67.1565 56.2646 67.1665 56.1605C67.198 55.397 67.1886 54.6304 67.1665 53.8669C67.1699 53.7885 67.1571 53.7102 67.1288 53.6369C67.1006 53.5636 67.0576 53.497 67.0024 53.4411C66.5071 53.1666 65.9866 52.9331 65.3998 52.6492L65.3935 57.3971ZM68.8637 55.5894L69.8985 55.0311L68.8637 54.4727V55.5894Z" fill="white"/>
<path d="M36.6226 47.8763C39.2757 47.8763 41.9257 47.8763 44.5757 47.8763C44.868 47.8683 45.1556 47.9509 45.3991 48.1129C45.5046 48.2055 45.5836 48.3245 45.628 48.4577C45.6724 48.5909 45.6806 48.7336 45.6517 48.871C45.6228 49.0084 45.5579 49.1356 45.4636 49.2397C45.3693 49.3437 45.2491 49.4208 45.1152 49.4631C44.9015 49.527 44.6787 49.5547 44.4558 49.5451H28.8335C28.7042 49.5451 28.5717 49.5451 28.4423 49.5451C28.2153 49.5402 27.9995 49.4454 27.8422 49.2816C27.6849 49.1178 27.5989 48.8983 27.6032 48.6713C27.6074 48.5589 27.6345 48.4485 27.6828 48.3469C27.731 48.2453 27.7994 48.1546 27.8838 48.0802C27.9682 48.0059 28.0668 47.9494 28.1736 47.9144C28.2805 47.8793 28.3934 47.8664 28.5054 47.8763C30.1301 47.8763 31.7517 47.8763 33.3764 47.8763C34.4584 47.8731 35.5405 47.8763 36.6226 47.8763Z" fill="white"/>
<path d="M36.6253 26.7046H40.7265C41.3795 26.7046 41.7518 27.0201 41.7391 27.5595C41.7265 28.099 41.3606 28.3829 40.7454 28.3829C38.0113 28.3829 35.2835 28.3829 32.562 28.3829C31.931 28.3829 31.5272 28.0422 31.5398 27.5217C31.5525 27.0011 31.9279 26.7077 32.5399 26.7046H36.6253Z" fill="white"/>
<path d="M55.907 40.5823C55.9021 41.5648 55.6063 42.5238 55.057 43.3384C54.5077 44.153 53.7296 44.7868 52.8206 45.1597C51.9117 45.5327 50.9127 45.6282 49.9495 45.4341C48.9864 45.2401 48.1023 44.7652 47.4086 44.0694C46.715 43.3736 46.2429 42.4879 46.0519 41.5242C45.8609 40.5605 45.9596 39.5617 46.3354 38.654C46.7112 37.7462 47.3474 36.97 48.1638 36.4234C48.9801 35.8767 49.9401 35.5839 50.9225 35.582C51.5788 35.5808 52.2288 35.7094 52.8352 35.9604C53.4415 36.2114 53.9922 36.58 54.4555 37.0447C54.9188 37.5095 55.2856 38.0614 55.5347 38.6685C55.7838 39.2756 55.9104 39.9261 55.907 40.5823ZM48.8846 38.0585C48.3501 38.4625 47.957 39.0251 47.7615 39.666C47.5661 40.3068 47.5782 40.993 47.7962 41.6265C48.0268 42.3003 48.469 42.8814 49.0569 43.2834C49.6447 43.6853 50.3467 43.8865 51.0582 43.8569C52.2475 43.8254 53.4842 43.0209 53.724 42.1187C51.156 41.9105 49.5628 40.5224 48.8846 38.0491V38.0585ZM54.1656 40.352C54.2098 38.5727 52.2349 36.9197 50.5913 37.3645C50.5061 39.1248 52.4084 40.7022 54.1656 40.3426V40.352Z" fill="white"/>
</svg>
