<svg width="85" height="85" viewBox="0 0 85 85" fill="none" xmlns="http://www.w3.org/2000/svg">
<circle cx="42.75" cy="42.75" r="40.5" stroke="url(#paint0_linear_3346_1575)" stroke-width="3.5"/>
<path d="M47.9443 70.9222C47.9443 71.719 47.8878 72.441 47.0332 72.4631C46.1133 72.4851 46.1264 71.6728 46.0481 70.975H40.1158C39.9658 71.6068 40.0593 72.5467 39.0285 72.4521C38.2304 72.3816 38.1804 71.6926 38.2261 70.9288C37.5868 70.9288 36.9888 70.9288 36.3929 70.9288C35.4339 70.9288 35.2208 70.6559 35.1838 69.6741C35.0838 67.0326 35.0577 64.3669 34.8033 61.7321C34.5684 59.3107 33.566 57.0831 32.3808 54.9831C30.8956 52.3592 29.2929 49.8036 27.7772 47.1951C25.9419 44.0342 24.6937 40.6883 24.7328 36.944C24.835 25.852 34.6337 17.2584 45.4914 18.7552C49.9865 19.3515 54.1029 21.6153 57.0433 25.1082C59.9837 28.6011 61.5388 33.0745 61.4071 37.6616C61.3136 40.9018 60.2002 43.8427 58.628 46.6118C57.2037 49.119 55.7119 51.5844 54.2288 54.0564C52.0461 57.6041 50.9141 61.711 50.967 65.8902C50.9822 67.1493 50.9539 68.4084 50.9539 69.6675C50.9539 70.6515 50.7125 70.9178 49.7622 70.9244C49.1751 70.9266 48.5967 70.9222 47.9443 70.9222ZM43.0015 58.122C45.1978 58.122 47.3963 58.1066 49.5948 58.1352C50.121 58.1352 50.369 57.9768 50.5864 57.4749C51.1884 56.0182 51.8649 54.5943 52.6131 53.2089C54.1049 50.5542 55.7402 47.9832 57.2276 45.3285C58.9672 42.2071 59.9067 38.8723 59.4913 35.2336C58.2823 24.6677 47.729 17.8989 37.7781 21.3086C29.393 24.1702 24.6698 33.3582 27.288 41.7339C28.086 44.2851 29.4625 46.5546 30.8456 48.8042C32.5852 51.5954 34.3684 54.3535 35.5144 57.4639C35.7058 57.9834 35.9493 58.1441 36.4864 58.1374C38.6567 58.1066 40.8269 58.122 42.9993 58.122H43.0015ZM37.0366 65.1374V69.0622H49.0925V65.1374H37.0366ZM49.684 60.0041H36.419C36.5691 61.0849 36.7148 62.1305 36.8539 63.1717H49.2795C49.4013 62.0953 49.5339 61.0717 49.684 60.0041Z" fill="url(#paint1_linear_3346_1575)"/>
<path d="M64.2361 39.1681C63.9486 39.1681 63.6612 39.1915 63.3758 39.1681C62.8763 39.1159 62.4937 38.7119 62.571 38.094C62.6245 37.6822 62.9972 37.1061 63.2886 37.0331C63.9518 36.9044 64.6251 36.893 65.2906 36.9992C65.7386 37.0461 66.1053 37.4893 65.9725 38.0888C65.8344 38.5479 65.5686 38.9207 65.2292 39.1316C64.9576 39.3062 64.573 39.1681 64.2381 39.1681H64.2361Z" fill="url(#paint2_linear_3346_1575)"/>
<path d="M20.7214 35.8364C21.0652 35.8364 21.4677 35.6895 21.7326 35.8731C22.0461 36.0881 22.4142 36.5759 22.4385 36.9772C22.4567 37.2972 22.034 37.8977 21.7387 37.9633C21.0584 38.1102 20.3641 38.1102 19.6838 37.9633C19.5143 37.8855 19.3627 37.7533 19.2432 37.579C19.1237 37.4048 19.0401 37.1941 19.0002 36.9667C18.9901 36.6074 19.3339 36.0855 19.6252 35.8967C19.9164 35.7079 20.3452 35.8128 20.7133 35.7918L20.7214 35.8364Z" fill="url(#paint3_linear_3346_1575)"/>
<path d="M23.2414 24.3174C24.1673 25.0231 25.0273 25.6124 25.8015 26.3256C25.9488 26.4597 25.8697 27.2084 25.6805 27.4512C25.5475 27.5826 25.389 27.6755 25.2183 27.7221C25.0477 27.7688 24.8698 27.7678 24.6996 27.7193C24.0084 27.3917 23.3571 26.9623 22.762 26.442C22.6392 26.297 22.5473 26.1213 22.4935 25.9287C22.4397 25.736 22.4255 25.5317 22.4518 25.3316C22.5112 25.0003 22.8873 24.7448 23.2414 24.3174Z" fill="url(#paint4_linear_3346_1575)"/>
<path d="M53.1346 20.8778C52.5216 20.9016 52.0919 20.3337 52.2951 19.7939C52.5802 19.0253 52.9367 18.2981 53.3576 17.6262C53.4762 17.4354 53.9796 17.3747 54.1594 17.52C54.3733 17.6912 54.6034 18.2353 54.5189 18.4651C54.2269 19.2278 53.881 19.9588 53.4852 20.6501C53.4115 20.7867 53.1976 20.8301 53.1346 20.8778Z" fill="url(#paint5_linear_3346_1575)"/>
<path d="M59.9463 28.9029C59.5878 28.5331 59.1897 28.3179 59.1413 28.0241C59.0775 27.6417 59.1743 27.0111 59.4074 26.8161C60.0228 26.2746 60.6991 25.8316 61.4178 25.4991C61.6685 25.3801 62.1722 25.5802 62.3767 25.8334C62.5813 26.0867 62.6165 26.7629 62.4779 26.8895C61.7015 27.6037 60.8481 28.2064 59.9463 28.9029Z" fill="url(#paint6_linear_3346_1575)"/>
<path d="M33.9024 20.0236C33.5136 20.3788 33.2823 20.7493 32.9469 20.8452C32.6114 20.9411 32.0676 20.8191 31.8922 20.6142C31.338 19.9798 30.8715 19.2923 30.5022 18.5657C30.3776 18.315 30.5708 17.7855 30.8275 17.6068C31.0841 17.428 31.8313 17.3757 31.9761 17.5327C32.6699 18.2867 33.2315 19.1301 33.9024 20.0236Z" fill="url(#paint7_linear_3346_1575)"/>
<path d="M43.0591 15.7673C43.0591 16.0578 43.0699 16.3502 43.0591 16.6406C43.0362 17.1558 42.8409 17.4502 42.4906 17.4363C42.4194 17.4454 42.3478 17.4317 42.2805 17.3962C42.2133 17.3607 42.152 17.3042 42.1008 17.2306C42.0497 17.1569 42.0099 17.0679 41.9842 16.9695C41.9584 16.8712 41.9473 16.7658 41.9517 16.6605C41.9368 16.008 41.8924 15.3376 41.9773 14.707C42.0208 14.5329 42.0928 14.3774 42.1868 14.2542C42.2808 14.131 42.3939 14.044 42.5162 14.0008C42.6778 13.979 42.9406 14.3868 43.0281 14.6871C43.1157 14.9875 43.0484 15.4013 43.0484 15.7633L43.0591 15.7673Z" fill="url(#paint8_linear_3346_1575)"/>
<path d="M40.5357 51.8253C40.5357 50.1658 40.5357 48.5911 40.5357 47.0187C40.5357 46.586 40.4757 46.2693 40.0143 46.1801C39.9353 46.1648 39.8614 46.1287 39.7997 46.0752C38.7268 45.0849 37.7698 45.5377 36.7548 46.2537C35.7871 46.9362 34.7357 47.4893 33.6628 48.1339L30.811 43.0039C31.2037 42.7519 31.5663 42.511 31.9375 42.2857C32.9053 41.6969 33.8687 41.0902 34.858 40.5438C35.2571 40.3207 35.3815 40.062 35.2743 39.6338C35.2357 39.5325 35.2203 39.4233 35.2292 39.3148C35.5468 37.8784 34.6369 37.3409 33.6198 36.8033C32.5469 36.239 31.5427 35.5655 30.4634 34.9119L33.3259 29.7641L37.832 32.4406C38.4178 32.0592 38.9886 31.7291 39.5079 31.3254C39.6074 31.2376 39.689 31.13 39.7479 31.009C39.8069 30.888 39.842 30.7559 39.8512 30.6206C39.8834 29.182 39.8662 27.7411 39.8684 26.3025C39.8684 26.0371 39.8898 25.7717 39.9049 25.4639H45.6084V28.8965C45.6084 31.0823 45.6084 31.0935 47.501 31.8808C47.6834 31.9566 47.9881 31.8317 48.1898 31.7135C49.5974 30.8905 50.9943 30.0452 52.4814 29.1575L55.3503 34.3164C54.0242 35.1127 52.756 35.9045 51.4578 36.6405C50.9814 36.9126 50.9085 37.2294 50.8549 37.7803C50.7154 39.1944 51.3141 39.9304 52.4921 40.4835C53.5779 40.9921 54.5735 41.7058 55.6829 42.375C54.7194 44.1169 53.786 45.7987 52.829 47.5295C51.4492 46.7042 50.1124 45.9191 48.7928 45.1028C48.4323 44.8797 48.2027 44.96 47.8186 45.1295C46.4131 45.754 46.1277 46.838 46.2714 48.2878C46.3852 49.4387 46.295 50.6119 46.295 51.8297L40.5357 51.8253ZM42.3639 49.9272H44.4754C44.4754 48.4105 44.4604 46.9473 44.4883 45.4886C44.4883 45.2321 44.5913 44.8619 44.7672 44.7459C45.8552 44.0388 46.9774 43.3876 48.2306 42.6314L52.1724 44.9712C52.5457 44.302 52.8783 43.6909 53.2324 43.053C51.932 42.2701 50.7003 41.5095 49.4472 40.7869C49.0695 40.5638 48.988 40.3408 48.9966 39.8947C49.0232 38.8511 48.9694 37.8069 48.8357 36.7721C48.7648 36.2636 48.8764 36.0472 49.2648 35.822C50.4686 35.1216 51.6552 34.3923 52.8998 33.6428L51.8269 31.7314L47.737 34.1848L43.7866 32.086V27.3597H41.6666C41.6666 28.8876 41.6794 30.3507 41.6537 31.8206C41.6537 32.0748 41.5507 32.4429 41.3747 32.5588C40.289 33.2704 39.1689 33.9239 37.9286 34.6755L33.9911 32.3313L32.9182 34.2495C34.2056 35.019 35.4266 35.7484 36.6518 36.4666C37.0445 36.6896 37.1969 36.926 37.1454 37.4836C37.0523 38.4516 37.0964 39.4285 37.2763 40.3832C37.4029 41.0278 37.2763 41.291 36.7591 41.5809C35.5897 42.2344 34.4546 42.9549 33.2594 43.6753L34.3323 45.5957C35.6197 44.8217 36.875 44.05 38.1496 43.3184C38.2644 43.2558 38.3907 43.2191 38.5201 43.2107C38.6495 43.2022 38.7792 43.2222 38.9006 43.2693C40.0121 43.8805 41.0979 44.5452 42.3639 45.2923V49.9294V49.9272Z" fill="url(#paint9_linear_3346_1575)"/>
<path d="M47.6584 38.6589C47.6556 39.4508 47.3851 40.2242 46.8809 40.8818C46.3767 41.5394 45.6614 42.0517 44.8251 42.3543C43.9888 42.6568 43.0688 42.7361 42.1811 42.582C41.2934 42.428 40.4777 42.0475 39.8366 41.4886C39.1955 40.9297 38.7578 40.2172 38.5786 39.4411C38.3994 38.6649 38.4867 37.8597 38.8295 37.1268C39.1723 36.3939 39.7553 35.7662 40.505 35.3227C41.2547 34.8792 42.1377 34.6398 43.0426 34.6345C43.6491 34.629 44.2508 34.7293 44.8126 34.9294C45.3743 35.1296 45.8849 35.4256 46.3146 35.8002C46.7442 36.1748 47.0843 36.6205 47.3151 37.1113C47.5458 37.6021 47.6625 38.1282 47.6584 38.6589ZM43.1059 36.3411C42.5835 36.337 42.0715 36.4689 41.635 36.7201C41.1984 36.9712 40.8571 37.3302 40.6542 37.7514C40.4514 38.1727 40.3963 38.6372 40.4959 39.086C40.5955 39.5347 40.8452 39.9474 41.2135 40.2717C41.5817 40.5959 42.0518 40.8171 42.5641 40.907C43.0763 40.9969 43.6075 40.9516 44.0902 40.7768C44.5729 40.602 44.9853 40.3055 45.2751 39.9251C45.5648 39.5448 45.7188 39.0976 45.7174 38.6405C45.7102 38.0351 45.4332 37.456 44.9455 37.0266C44.4578 36.5972 43.7977 36.3512 43.1059 36.3411Z" fill="url(#paint10_linear_3346_1575)"/>
<defs>
<linearGradient id="paint0_linear_3346_1575" x1="42.75" y1="4" x2="42.75" y2="81.5" gradientUnits="userSpaceOnUse">
<stop stop-color="#38E4AE"/>
<stop offset="1" stop-color="#0798AD"/>
</linearGradient>
<linearGradient id="paint1_linear_3346_1575" x1="24.7319" y1="27.7346" x2="57.817" y2="28.1676" gradientUnits="userSpaceOnUse">
<stop stop-color="#42F8BF"/>
<stop offset="1" stop-color="#2FADC3"/>
</linearGradient>
<linearGradient id="paint2_linear_3346_1575" x1="62.561" y1="37.3166" x2="65.6607" y2="37.4059" gradientUnits="userSpaceOnUse">
<stop stop-color="#42F8BF"/>
<stop offset="1" stop-color="#2FADC3"/>
</linearGradient>
<linearGradient id="paint3_linear_3346_1575" x1="19" y1="36.1701" x2="22.0997" y2="36.2595" gradientUnits="userSpaceOnUse">
<stop stop-color="#42F8BF"/>
<stop offset="1" stop-color="#2FADC3"/>
</linearGradient>
<linearGradient id="paint4_linear_3346_1575" x1="22.439" y1="24.9014" x2="25.5401" y2="24.961" gradientUnits="userSpaceOnUse">
<stop stop-color="#42F8BF"/>
<stop offset="1" stop-color="#2FADC3"/>
</linearGradient>
<linearGradient id="paint5_linear_3346_1575" x1="52.2441" y1="18.0234" x2="54.312" y2="18.0499" gradientUnits="userSpaceOnUse">
<stop stop-color="#42F8BF"/>
<stop offset="1" stop-color="#2FADC3"/>
</linearGradient>
<linearGradient id="paint6_linear_3346_1575" x1="59.1221" y1="26.0479" x2="62.2232" y2="26.1075" gradientUnits="userSpaceOnUse">
<stop stop-color="#42F8BF"/>
<stop offset="1" stop-color="#2FADC3"/>
</linearGradient>
<linearGradient id="paint7_linear_3346_1575" x1="30.4634" y1="18.0234" x2="33.5645" y2="18.083" gradientUnits="userSpaceOnUse">
<stop stop-color="#42F8BF"/>
<stop offset="1" stop-color="#2FADC3"/>
</linearGradient>
<linearGradient id="paint8_linear_3346_1575" x1="41.9268" y1="14.584" x2="42.9608" y2="14.5906" gradientUnits="userSpaceOnUse">
<stop stop-color="#42F8BF"/>
<stop offset="1" stop-color="#2FADC3"/>
</linearGradient>
<linearGradient id="paint9_linear_3346_1575" x1="30.4634" y1="29.9411" x2="53.2056" y2="30.3592" gradientUnits="userSpaceOnUse">
<stop stop-color="#42F8BF"/>
<stop offset="1" stop-color="#2FADC3"/>
</linearGradient>
<linearGradient id="paint10_linear_3346_1575" x1="38.4878" y1="35.9969" x2="46.7565" y2="36.1786" gradientUnits="userSpaceOnUse">
<stop stop-color="#42F8BF"/>
<stop offset="1" stop-color="#2FADC3"/>
</linearGradient>
</defs>
</svg>
