<svg width="55" height="55" viewBox="0 0 55 55" fill="none" xmlns="http://www.w3.org/2000/svg">
<path d="M40.5396 36.283C43.059 38.5824 43.8332 40.1415 44.3007 41.0172C44.4064 41.2176 44.4449 41.4466 44.4106 41.6706C44.3764 41.8945 44.2711 42.1015 44.1104 42.2611C41.83 44.5669 40.3365 46.2169 38.1598 46.4749C33.2944 47.0884 26.0513 43.2278 18.9267 36.0736C11.7746 28.9511 7.9119 21.708 8.52536 16.8447C8.78343 14.6659 10.4398 13.1703 12.7498 10.8878C12.9063 10.7279 13.1104 10.6229 13.3316 10.5886C13.5527 10.5543 13.7791 10.5925 13.9767 10.6974C14.8482 11.1649 16.4115 11.9349 18.7152 14.4628C21.0675 17.0521 21.8163 18.9982 21.9665 20.1067C21.9782 20.3095 21.9454 20.5125 21.8705 20.7014C21.7956 20.8903 21.6804 21.0606 21.5329 21.2003C20.6634 22.0676 18.6729 23.8763 18.4021 24.8049C18.0446 25.943 18.7025 27.3497 19.8554 29.0399C20.5746 30.0574 21.5625 31.2251 22.6688 32.3336C23.7752 33.4399 24.9429 34.4278 25.9604 35.1471C27.6527 36.2978 29.0594 36.9557 30.1975 36.5982C31.1261 36.3274 32.9348 34.339 33.8042 33.4717C33.9426 33.3229 34.1123 33.2066 34.3011 33.1313C34.4898 33.0559 34.6929 33.0234 34.8957 33.0359C36.0042 33.184 37.9504 33.9349 40.5396 36.283ZM31.5132 11.184C32.554 11.184 33.4107 12.0449 33.4107 13.0878L33.4255 18.9453L43.3065 9.01994C43.4816 8.84278 43.6901 8.70212 43.92 8.60612C44.1498 8.51012 44.3965 8.46069 44.6455 8.46069C44.8946 8.46069 45.1413 8.51012 45.3711 8.60612C45.601 8.70212 45.8095 8.84278 45.9846 9.01994C46.3398 9.37674 46.5393 9.85972 46.5393 10.3632C46.5393 10.8667 46.3398 11.3497 45.9846 11.7065L36.1184 21.5874H41.8723C42.9109 21.5874 43.7677 22.4484 43.7677 23.4934C43.7688 23.7414 43.7209 23.9871 43.6268 24.2165C43.5327 24.4459 43.3942 24.6544 43.2192 24.8301C43.0443 25.0059 42.8364 25.1453 42.6074 25.2404C42.3784 25.3356 42.1329 25.3846 41.885 25.3846H31.7861C31.209 25.3823 30.6563 25.1512 30.2494 24.7419C29.8425 24.3326 29.6146 23.7786 29.6157 23.2015L29.6305 13.0751C29.6305 12.0301 30.4873 11.1692 31.5132 11.184Z" fill="white"/>
</svg>
