<svg width="85" height="85" viewBox="0 0 85 85" fill="none" xmlns="http://www.w3.org/2000/svg">
<circle cx="42.75" cy="42.75" r="40.5" stroke="white" stroke-width="3.5"/>
<path d="M55.3346 23.3324L53.4646 24.1806V24.0685C53.2867 24.0165 53.1041 23.9818 52.9195 23.9651C44.3213 23.9651 35.7236 23.9651 27.1265 23.9651H23.9929V62.0455H53.3664V40.6638C54.0324 40.9653 54.6248 41.2264 55.2102 41.5016C55.2805 41.5542 55.3301 41.6299 55.3504 41.7154C55.3619 41.7944 55.3619 41.8747 55.3504 41.9537C55.3504 48.6966 55.3504 55.4388 55.3504 62.1805C55.358 62.5406 55.2918 62.8985 55.1559 63.232C55.0568 63.4534 54.8994 63.6437 54.7007 63.7826C54.5019 63.9215 54.2691 64.0038 54.0272 64.0207C53.8414 64.0394 53.6548 64.0476 53.4681 64.0453H24.0244C23.771 64.0527 23.5174 64.0415 23.2656 64.012C22.9269 63.9567 22.6172 63.7878 22.3875 63.5329C22.1578 63.278 22.0218 62.9524 22.0019 62.6099C22.0019 62.503 22.0019 62.3961 22.0019 62.2891C22.0019 49.4578 22.0019 36.6276 22.0019 23.7986C21.9902 23.5067 22.0318 23.215 22.1246 22.938C22.2163 22.6921 22.3744 22.4766 22.5815 22.3153C22.7885 22.1541 23.0363 22.0536 23.2971 22.0249C23.4294 22.0062 23.5631 21.998 23.6967 22.0004H53.6136C54.5863 21.9934 55.1243 22.407 55.3346 23.3324Z" fill="white"/>
<path d="M63.896 32.4544C63.896 35.4046 63.896 38.3537 63.896 41.3015C63.896 42.4583 63.1845 42.9192 62.1241 42.4407C58.7942 40.9405 55.4643 39.4298 52.1343 37.933C52.0243 37.8992 51.9292 37.8284 51.8654 37.7326C51.8015 37.6368 51.7727 37.5219 51.7838 37.4073C51.7943 34.1124 51.7943 30.8163 51.7838 27.5191C51.7686 27.3972 51.7966 27.2739 51.8629 27.1705C51.9292 27.0671 52.0295 26.9901 52.1466 26.953C55.5151 25.4423 58.8813 23.9233 62.2451 22.3962C63.1214 21.9984 63.8838 22.4839 63.8855 23.4478C63.8855 26.4494 63.8855 29.4516 63.8855 32.4544H63.896Z" fill="white"/>
<path d="M49.8001 27.8348V37.1481C49.6721 37.1481 49.5442 37.1638 49.418 37.1638H40.3343C39.3546 37.1638 38.9883 36.794 38.9883 35.8073C38.9883 33.5874 38.9883 31.3727 38.9883 29.1632C38.9883 28.2063 39.3668 27.833 40.3238 27.833H49.8001V27.8348Z" fill="white"/>
<path d="M39.0826 55.9009H48.8147C49.4579 55.9009 49.8312 56.176 49.9294 56.7071C49.954 56.8351 49.9524 56.9667 49.9249 57.0941C49.8973 57.2215 49.8443 57.3421 49.769 57.4484C49.6937 57.5548 49.5977 57.6449 49.4867 57.7133C49.3757 57.7816 49.2521 57.8269 49.1232 57.8463C48.9773 57.8638 48.8302 57.8708 48.6833 57.8673H29.3819C28.6423 57.8673 28.2252 57.5553 28.1796 56.977C28.1631 56.844 28.1748 56.7091 28.2139 56.581C28.2531 56.4528 28.3188 56.3344 28.4067 56.2334C28.4947 56.1323 28.603 56.051 28.7245 55.9946C28.846 55.9382 28.9781 55.9081 29.112 55.9061C29.2329 55.9061 29.3521 55.9061 29.4731 55.9061L39.0826 55.9009Z" fill="white"/>
<path d="M39.0505 53.9032H29.2832C28.7066 53.9032 28.3246 53.6474 28.2054 53.2022C28.1645 53.0638 28.1545 52.9181 28.1762 52.7754C28.1978 52.6328 28.2506 52.4966 28.3306 52.3765C28.4107 52.2565 28.5162 52.1555 28.6396 52.0808C28.7631 52.006 28.9014 51.9592 29.0449 51.9438C29.191 51.9286 29.338 51.924 29.4848 51.9298C33.8616 51.9298 38.2379 51.9298 42.6135 51.9298C42.8596 51.9352 43.0991 52.0106 43.304 52.1471C43.9475 52.5864 44.7096 52.819 45.4886 52.814C46.2677 52.809 47.0267 52.5666 47.6645 52.1191C48.0658 51.8387 49.1332 51.8317 49.5275 52.1086C49.6922 52.2228 49.8175 52.3852 49.8862 52.5735C49.9549 52.7618 49.9637 52.9667 49.9113 53.1601C49.8637 53.3559 49.7557 53.5318 49.6024 53.6627C49.4492 53.7935 49.2587 53.8728 49.0578 53.8892C48.9246 53.9015 48.7914 53.8892 48.6582 53.8892L39.0505 53.9032Z" fill="white"/>
<path d="M43.1309 42.7144H46.7938C46.8604 43.4452 46.9375 44.1708 46.9901 44.8963C47.09 46.2406 47.1881 47.5831 47.267 48.9273C47.3027 49.2766 47.2284 49.6282 47.0542 49.9331C46.8801 50.2379 46.615 50.4807 46.2961 50.6273C45.9941 50.7944 45.6489 50.867 45.3052 50.8357C44.9615 50.8045 44.6351 50.6708 44.3682 50.4521C44.171 50.3102 44.0072 50.1269 43.8885 49.9149C43.7698 49.703 43.699 49.4675 43.6812 49.2253C43.4954 47.0731 43.3166 44.9086 43.1309 42.7144Z" fill="white"/>
<path d="M41.6204 47.9751C41.666 48.6534 41.7081 49.2755 41.7501 49.9205C41.645 49.931 41.5433 49.9485 41.4399 49.9485C37.3961 49.9485 33.3523 49.9485 29.3084 49.9485C29.1223 49.9515 28.9371 49.9213 28.7616 49.8591C28.5621 49.7723 28.397 49.6215 28.2925 49.4306C28.1879 49.2397 28.1498 49.0194 28.1842 48.8045C28.2185 48.5896 28.3233 48.3921 28.4821 48.2433C28.6408 48.0944 28.8446 48.0025 29.0613 47.9821C29.1665 47.9716 29.2751 47.9821 29.382 47.9821H41.6204V47.9751Z" fill="white"/>
<path d="M41.473 45.9567C41.3223 45.9567 41.2066 45.9777 41.0892 45.9777H29.2749C28.6913 45.9777 28.29 45.6938 28.1953 45.2241C28.1617 45.0905 28.157 44.9514 28.1813 44.8159C28.2056 44.6803 28.2584 44.5515 28.3363 44.438C28.4143 44.3244 28.5154 44.2288 28.6331 44.1573C28.7508 44.0859 28.8824 44.0403 29.019 44.0235C29.1776 44.0028 29.3377 43.9951 29.4975 44.0007C33.2621 44.0007 37.0337 44.0007 40.7913 43.9902C41.1418 43.9902 41.2557 44.0901 41.2802 44.4266C41.317 44.9366 41.4029 45.4274 41.473 45.9567Z" fill="white"/>
<path d="M39.5414 40.0503C39.5358 40.4171 39.604 40.7812 39.7419 41.1211C39.8798 41.461 40.0846 41.7697 40.3441 42.029H29.3606C29.2271 42.0305 29.0939 42.0188 28.9627 41.9939C28.7264 41.9468 28.5158 41.8141 28.3711 41.6215C28.2264 41.4288 28.1578 41.1895 28.1784 40.9494C28.199 40.7093 28.3074 40.4852 28.4828 40.32C28.6582 40.1548 28.8883 40.06 29.1292 40.0538C29.8303 40.0415 30.5436 40.0538 31.2516 40.0538H39.5414V40.0503Z" fill="white"/>
<path d="M36.8655 36.079L37.5666 38.0314C37.4988 38.0437 37.4303 38.0507 37.3615 38.0524C34.666 38.0524 31.9705 38.0524 29.275 38.0524C28.6458 38.0524 28.2497 37.7422 28.1831 37.22C28.1597 37.0877 28.1644 36.952 28.1968 36.8216C28.2292 36.6912 28.2886 36.5691 28.3712 36.4632C28.4538 36.3573 28.5578 36.2699 28.6764 36.2067C28.7949 36.1436 28.9254 36.106 29.0594 36.0965C29.1922 36.0828 29.3256 36.0769 29.459 36.079H36.869H36.8655Z" fill="white"/>
<path d="M36.9776 32.1249V34.0703C36.8531 34.079 36.7497 34.093 36.6463 34.093C34.1927 34.093 31.739 34.093 29.2854 34.093C28.707 34.093 28.2987 33.8074 28.197 33.3464C28.0516 32.6804 28.495 32.1284 29.2013 32.1196C30.4421 32.1109 31.6812 32.1196 32.922 32.1196H36.9776V32.1249Z" fill="white"/>
<path d="M37.0198 28.1641V30.0797C36.923 30.103 36.8245 30.1188 36.7253 30.127C34.2191 30.127 31.7141 30.127 29.2102 30.127C28.4951 30.127 28.0535 29.5802 28.1954 28.9159C28.2988 28.4427 28.6862 28.1658 29.2768 28.1641H37.0198Z" fill="white"/>
<path d="M41.5414 39.1777H47.5932C47.5932 39.5475 47.6142 39.9033 47.5932 40.2573C47.5905 40.322 47.5745 40.3855 47.546 40.4437C47.5176 40.5018 47.4774 40.5535 47.428 40.5953C47.3786 40.6372 47.321 40.6683 47.2589 40.6867C47.1968 40.7052 47.1316 40.7106 47.0674 40.7025C45.4012 40.7025 43.7339 40.7025 42.0655 40.7025C41.9975 40.709 41.9289 40.701 41.8643 40.6789C41.7996 40.6568 41.7405 40.6211 41.6907 40.5744C41.641 40.5276 41.6017 40.4707 41.5757 40.4076C41.5496 40.3445 41.5374 40.2765 41.5397 40.2083C41.5186 39.8788 41.5414 39.5458 41.5414 39.1777Z" fill="white"/>
<path d="M48.794 42.0135C48.7134 41.3563 48.6363 40.7359 48.5557 40.0856C49.0096 39.9893 49.4127 40.0296 49.7194 40.4011C49.8468 40.5416 49.9278 40.7179 49.9513 40.9061C49.9748 41.0943 49.9398 41.2852 49.8508 41.4527C49.6493 41.8698 49.297 42.0433 48.794 42.0135Z" fill="white"/>
<path d="M49.0689 45.9761L48.9199 44.0605C49.0393 44.0459 49.1604 44.0549 49.2763 44.0872C49.3922 44.1194 49.5005 44.1743 49.5951 44.2485C49.6898 44.3228 49.7688 44.415 49.8276 44.5199C49.8865 44.6248 49.9241 44.7403 49.9382 44.8597C50.0171 45.3767 49.7174 45.7904 49.0689 45.9761Z" fill="white"/>
<path d="M49.23 49.8844V48.0547C49.4354 48.0965 49.6196 48.209 49.7506 48.3727C49.8816 48.5363 49.951 48.7407 49.9468 48.9503C49.9521 49.3972 49.7102 49.7162 49.23 49.8844Z" fill="white"/>
</svg>
