<svg width="85" height="85" viewBox="0 0 85 85" fill="none" xmlns="http://www.w3.org/2000/svg">
<circle cx="42.75" cy="42.75" r="40.5" stroke="white" stroke-width="3.5"/>
<path d="M21 27.0078C21.0375 26.9411 21.0684 26.8709 21.0921 26.7982C21.2619 26.0386 21.6749 25.3547 22.2686 24.8499C22.8623 24.3451 23.6045 24.0468 24.3831 24C24.5121 24 24.6411 24 24.7517 24C37.643 24 50.5318 24 63.4182 24C65.2203 24 66.6245 25.0222 67.0593 26.6585C67.1624 27.0745 67.2108 27.5022 67.203 27.9307C67.203 32.2916 67.203 36.6538 67.203 41.0172C67.1864 41.1652 67.2152 41.3147 67.2856 41.4461C67.356 41.5774 67.4648 41.6843 67.5974 41.7526C68.7493 42.4951 69.5713 43.6509 69.8933 44.981C70.0289 45.4429 70.0354 45.9331 69.912 46.3984C69.7885 46.8637 69.54 47.2865 69.1931 47.6211C67.2178 49.6986 65.2719 51.8092 63.2561 53.8499C61.4687 55.6627 59.6039 57.4056 57.7686 59.1742C57.6593 59.2658 57.5436 59.3494 57.4222 59.4243L57.4922 59.5714H63.3445C64.8186 59.5714 65.6589 58.7367 65.6663 57.2622C65.6663 56.0708 65.6663 54.8758 65.6663 53.6808C65.6663 53.0594 65.9316 52.7321 66.4033 52.7284C66.8751 52.7248 67.192 53.0667 67.1957 53.7029C67.1957 54.931 67.1957 56.1554 67.1957 57.3799C67.2068 57.8701 67.1181 58.3575 66.9348 58.8125C66.7516 59.2674 66.4776 59.6806 66.1296 60.0268C65.7815 60.373 65.3667 60.6451 64.9101 60.8266C64.4535 61.0081 63.9648 61.0952 63.4735 61.0826C61.0485 61.101 58.6236 61.0826 56.2023 61.0826C56.0372 61.0658 55.8704 61.088 55.7155 61.1474C55.5606 61.2068 55.4218 61.3017 55.3105 61.4246C54.2629 62.5995 52.8418 63.3786 51.2861 63.6308C50.1805 63.8587 49.0749 64.2081 47.9693 64.4985C46.7494 64.8221 46.0455 64.1308 46.3588 62.9358C46.7716 61.3179 47.1622 59.6927 47.6413 58.0969C47.8165 57.5219 48.1159 56.9922 48.5184 56.5452C53.243 51.4489 58.1433 46.5266 63.2192 41.7783C63.5331 41.4526 63.9226 41.2091 64.3533 41.0693C64.7839 40.9295 65.2425 40.8977 65.6884 40.9767V27.8719C65.6884 26.3606 64.8629 25.5333 63.3556 25.5333H24.8917C23.377 25.5333 22.5589 26.357 22.5589 27.8719V57.1923C22.5589 58.722 23.3844 59.5383 24.9359 59.5383H43.5506C43.7413 59.5327 43.9321 59.5401 44.1218 59.5603C44.3007 59.5651 44.4708 59.6391 44.596 59.7668C44.7211 59.8944 44.7916 60.0657 44.7925 60.2442C44.8211 60.429 44.7751 60.6176 44.6646 60.7685C44.554 60.9195 44.388 61.0205 44.2029 61.0495C44.0159 61.085 43.8254 61.0986 43.6353 61.09H24.9986C22.8722 61.09 21.6523 60.167 21.059 58.1226C21.059 58.0969 21.0221 58.0748 21 58.0528V27.0078ZM51.5625 62.0533C52.1485 61.7555 52.8266 61.568 53.2946 61.1451C55.5279 59.1301 57.7575 57.1004 59.8913 54.9825C62.6443 52.2431 65.3051 49.4081 67.9991 46.6136C68.1621 46.4724 68.2873 46.2929 68.3632 46.0913C68.4392 45.8897 68.4635 45.6724 68.434 45.459C68.2055 44.047 66.8824 42.6902 65.4857 42.5174C65.1285 42.4813 64.77 42.571 64.4722 42.7711C63.9333 43.2107 63.4214 43.6822 62.9391 44.1831C63.1071 44.2614 63.2654 44.3589 63.4108 44.4736C64.1479 45.1943 64.885 45.9235 65.622 46.6614C65.769 46.7897 65.8589 46.971 65.8721 47.1654C65.8852 47.3598 65.8205 47.5515 65.6921 47.6983C65.5721 47.84 65.4045 47.9332 65.2206 47.9603C65.0367 47.9873 64.8492 47.9465 64.6933 47.8454C64.5587 47.7573 64.435 47.6537 64.3248 47.5365C63.5325 46.7313 62.7475 45.9223 61.9478 45.1023C61.7672 45.2678 61.6456 45.3708 61.535 45.47C57.6285 49.4559 53.7147 53.4344 49.7935 57.4056C49.3006 57.9581 48.9825 58.6439 48.8796 59.3765C50.0764 59.9049 51.0329 60.8592 51.5625 62.0533Z" fill="white"/>
<path d="M37.0781 42.7475C37.0781 40.3498 37.0781 37.952 37.0781 35.5543C37.0781 34.6678 37.3397 33.9271 38.1396 33.467C38.9394 33.0069 39.7093 33.1565 40.4755 33.6129C44.5194 36.0194 48.567 38.4159 52.6184 40.8024C54.3601 41.8385 54.3526 43.6864 52.6184 44.7226C48.5695 47.1166 44.5219 49.5118 40.4755 51.9083C39.728 52.3572 38.9805 52.5031 38.1807 52.0617C37.3809 51.6203 37.0893 50.8797 37.0931 49.9856C37.0819 47.5729 37.0781 45.1677 37.0781 42.7475ZM38.6478 42.7288C38.6478 45.0742 38.6478 47.4196 38.6478 49.7687C38.6297 50.0899 38.7354 50.4059 38.9431 50.6515C39.0926 50.7637 39.5411 50.6028 39.7952 50.4532C43.7819 48.1091 47.7685 45.7512 51.7551 43.3797C52.5026 42.9308 52.5026 42.5792 51.7551 42.1341L43.7084 37.3722L39.6196 34.9558C38.9543 34.5817 38.6292 34.765 38.618 35.5431V42.7288H38.6478Z" fill="white"/>
</svg>
