<svg width="85" height="85" viewBox="0 0 85 85" fill="none" xmlns="http://www.w3.org/2000/svg">
<circle cx="42.75" cy="42.75" r="40.5" stroke="white" stroke-width="3.5"/>
<path d="M30.1506 19.5388C31.4081 19.5388 32.6629 19.5251 33.9204 19.5388C36.3862 19.5717 37.7286 20.7059 37.4492 23.1689C37.0053 27.0949 38.0519 30.2921 41.0108 32.9168C41.3834 33.2483 41.4437 33.9277 41.6491 34.4455C41.1204 34.6209 40.5944 34.9332 40.0601 34.9469C37.8327 35.0017 35.6053 34.9688 33.2958 34.9688V38.3469C33.8629 38.3469 34.3917 38.3469 34.9396 38.3469C37.2026 38.3798 38.3615 39.5496 38.3725 41.8455C38.3834 44.1414 38.2985 46.4153 38.4163 48.6948C38.5062 49.5671 38.8061 50.4046 39.2902 51.1358C39.9122 52.1386 40.7861 52.9797 41.482 53.9468C42.0491 54.7495 41.756 55.3742 40.767 55.4481C39.7779 55.5221 38.8492 55.4755 37.8903 55.4755C32.2739 55.4755 26.6556 55.4755 21.0356 55.4755C17.9397 55.4755 17.0027 54.5468 17 51.5084C17 48.2674 17 45.0263 17 41.7825C17 39.4811 18.1479 38.3633 20.4712 38.3524C22.937 38.3524 25.4027 38.3524 27.9671 38.3524V35.0592L26.4876 34.9168V33.2538H39.0437C38.0957 32.0921 37.2629 31.2182 36.6163 30.2237C36.1759 29.569 35.9022 28.8165 35.819 28.0319C35.7012 26.3497 35.7697 24.6538 35.7834 22.9662C35.7834 21.8374 35.2903 21.2977 34.1232 21.3059C30.1049 21.3278 26.0867 21.3278 22.0685 21.3059C20.9041 21.3059 20.3918 21.8538 20.389 22.9689C20.389 25.8456 20.389 28.7223 20.389 31.599C20.389 32.7277 20.937 33.2812 22.0767 33.2428C22.8986 33.2182 23.7068 33.2428 24.6054 33.2428V34.9414C23.4821 34.9414 22.3452 35.0455 21.2356 34.9168C20.5415 34.8472 19.8984 34.521 19.4322 34.0021C18.9659 33.4831 18.7102 32.8089 18.7151 32.1113C18.6566 28.9168 18.6566 25.7205 18.7151 22.5223C18.7452 20.758 19.9753 19.6374 21.8438 19.5826C23.5781 19.5278 25.3205 19.621 27.0493 19.5278C27.3089 19.4932 27.5585 19.4052 27.7824 19.2694C28.0064 19.1336 28.1999 18.953 28.3506 18.7388C29.0465 17.6429 29.9451 17.0073 31.2547 17.0073C38.8355 17.0073 46.419 16.9909 53.9943 17.0073C55.9121 17.0073 57.0737 18.158 57.1668 20.0484C57.2107 20.9908 57.1668 21.9388 57.1668 22.9306H55.4408C55.4408 22.1086 55.4408 21.3306 55.4408 20.5662C55.4189 19.0922 55.0627 18.7169 53.5586 18.7114C49.8573 18.695 46.1614 18.7114 42.4574 18.7114C38.9423 18.7114 35.4245 18.695 31.9068 18.7278C31.3013 18.7278 30.6985 18.9415 30.0958 19.0566L30.1506 19.5388ZM39.0492 53.7303C38.7514 53.2941 38.4257 52.8777 38.0738 52.4838C36.8519 51.3303 36.504 49.9441 36.6026 48.2838C36.7259 46.1934 36.6437 44.0866 36.6245 41.9825C36.6108 40.4811 36.2327 40.0647 34.7807 40.0647C30.0319 40.0519 25.2831 40.0519 20.5342 40.0647C19.0603 40.0647 18.674 40.4647 18.6685 41.9414C18.6539 45.229 18.6539 48.5167 18.6685 51.8043C18.6685 53.4098 18.9836 53.7221 20.6027 53.7221C25.7643 53.7221 30.9259 53.7221 36.0875 53.7221L39.0492 53.7303ZM31.3999 38.2976V34.977L29.904 35.0483V38.2976H31.3999Z" fill="white"/>
<path d="M46.3891 48.6649C46.4204 48.7893 46.4635 48.9104 46.5178 49.0266C49.4137 51.3991 49.7343 54.569 49.4767 58.021C49.2959 60.4237 49.5808 60.5717 51.9918 60.5744H58.7862V62.1826C55.8219 62.1826 52.8712 62.284 49.9315 62.1361C48.6192 62.0676 47.7753 60.7251 47.7397 59.221C47.7041 57.6238 47.8137 56.0183 47.6932 54.4293C47.6195 53.6411 47.3419 52.8858 46.8877 52.2375C45.9891 50.9772 44.8987 49.8567 43.9507 48.6293C43.7096 48.3143 43.5096 47.7225 43.6521 47.432C43.7946 47.1416 44.3726 46.9307 44.7754 46.906C45.9589 46.8403 47.148 46.8814 48.337 46.8814H51.9534V41.9362C51.603 41.8807 51.2501 41.8432 50.8959 41.8239C48.9781 41.8239 47.0603 41.8568 45.1425 41.791C44.6165 41.7718 44.0987 41.4431 43.5781 41.2431C43.7617 40.7609 43.8521 40.2157 44.1425 39.8047C44.7699 38.9088 45.5617 38.1253 46.1535 37.2102C46.5504 36.6279 46.791 35.9534 46.8521 35.2513C46.9343 32.8349 46.8685 30.413 46.8877 27.9911C46.9069 25.8815 48.0932 24.6651 50.2 24.6541C55.1315 24.6322 60.063 24.6322 64.9944 24.6541C67.0273 24.6541 68.2437 25.8843 68.2601 27.8979C68.2875 31.4121 68.2875 34.928 68.2601 38.4458C68.2464 40.6376 67.0656 41.7773 64.8246 41.7992C62.3205 41.8211 59.8136 41.7992 57.2273 41.7992V46.8951H62.5396C65.5533 46.8951 66.5752 47.9033 66.5752 50.9087C66.5752 53.5115 66.5752 56.1142 66.5752 58.7196C66.5752 61.21 65.4793 62.2813 62.967 62.3087C62.2027 62.3087 61.4383 62.3087 60.6438 62.3087V60.5717C61.6191 60.5717 62.5232 60.5717 63.4273 60.5717C64.3314 60.5717 64.8136 60.0868 64.8218 59.2238C64.8465 56.1662 64.8848 53.1033 64.778 50.0485C64.7615 49.5745 64.0163 48.7307 63.5971 48.7252C57.9095 48.6348 52.2137 48.6649 46.3891 48.6649ZM46.3891 39.917C46.5201 39.9725 46.6571 40.013 46.7973 40.0376C52.8721 40.0376 58.9461 40.0431 65.0191 40.054C66.1341 40.054 66.567 39.4403 66.567 38.4102C66.567 34.9856 66.567 31.5609 66.567 28.139C66.567 26.9418 66.0191 26.3829 64.8191 26.3884C59.9789 26.3993 55.1388 26.3993 50.2986 26.3884C49.0986 26.3884 48.5479 26.95 48.5644 28.15C48.589 29.8404 48.4685 31.5363 48.5918 33.2157C48.7726 35.6321 48.5096 37.8376 46.5534 39.539C46.4822 39.6129 46.4658 39.7636 46.3973 39.917H46.3891ZM55.3561 46.8403V41.9088H53.8383V46.8403H55.3561Z" fill="white"/>
<path d="M28.0408 57.27H29.8024C29.8024 59.7221 29.8024 62.1303 29.8024 64.5412C29.8024 66.3357 30.0544 66.5741 31.89 66.5741H52.7255C55.2104 66.5741 55.2104 66.5741 55.5529 64.1248H56.9584C57.5063 66.7549 56.3227 68.2699 53.731 68.2754C46.2844 68.2882 38.837 68.2882 31.3887 68.2754C29.2435 68.2754 28.0764 67.1275 28.0462 64.9878C28.0161 62.4371 28.0408 59.8892 28.0408 57.27Z" fill="white"/>
<path d="M24.6329 31.0814C24.6455 30.7817 24.6895 30.4842 24.7644 30.1937C25.1398 29.1554 24.8274 28.402 24.0192 27.6732C23.559 27.2595 23.3371 26.5773 23.0083 26.0294C23.5891 25.7554 24.1672 25.2732 24.7508 25.2677C26.0192 25.2677 26.4356 24.4897 26.8877 23.5417C27.137 23.0184 27.6494 22.6184 28.0411 22.1719C28.4466 22.6102 29.0247 22.9801 29.2219 23.4952C29.6603 24.6404 30.2767 25.2979 31.5973 25.2951C32.1041 25.2951 32.6137 25.7335 33.1233 25.9691C32.8767 26.4677 32.7562 27.1253 32.3644 27.4294C31.2027 28.3225 31.0822 29.3718 31.4274 30.6841C31.5452 31.1389 31.4521 31.9061 31.1534 32.1362C30.8548 32.3663 30.074 32.1965 29.7124 31.928C28.4877 31.0129 27.4439 31.2732 26.2603 32.0266C25.1699 32.706 24.5809 32.3198 24.6329 31.0814ZM29.2247 29.4842L30.063 27.0705L28.074 25.5417L26.0877 27.002L26.8631 29.4842H29.2247Z" fill="white"/>
<path d="M53.5559 23.3444C53.0311 22.9663 52.4819 22.6231 51.9121 22.317C51.5342 22.1803 51.1325 22.1215 50.7312 22.1444C46.9559 22.1307 43.1806 22.1444 39.2738 22.1444C39.2491 21.5965 39.2272 21.1143 39.1943 20.4348C40.0409 20.4348 40.7971 20.4348 41.5532 20.4348H51.6682C53.7833 20.4266 53.9093 20.5828 53.5559 23.3444Z" fill="white"/>
<path d="M45.9859 58.0401V59.7387H33.5367C31.4326 59.7387 31.2874 59.5524 31.6983 56.9497C32.2067 57.2637 32.7316 57.55 33.2709 57.8072C33.6361 57.9567 34.027 58.033 34.4216 58.0319C37.7914 58.0511 41.164 58.0319 44.5366 58.0319L45.9859 58.0401Z" fill="white"/>
<path d="M42.6025 65.7439C41.9359 65.7365 41.2978 65.4718 40.8215 65.0053C40.3453 64.5387 40.0676 63.9062 40.0464 63.2398C40.0433 62.5502 40.3107 61.8868 40.7911 61.392C41.2716 60.8972 41.9268 60.6105 42.6163 60.5933C43.2828 60.6163 43.9166 60.888 44.3928 61.3551C44.8689 61.8221 45.153 62.4505 45.1888 63.1165C45.1911 63.8069 44.9206 64.4703 44.4363 64.9623C43.9519 65.4544 43.2929 65.7352 42.6025 65.7439ZM43.6984 63.2289C43.2628 62.8508 42.9532 62.3905 42.7259 62.4261C42.3834 62.4837 42.0957 62.8864 41.7861 63.1412C42.0601 63.4316 42.3149 63.8672 42.6546 63.9631C42.8628 64.0097 43.219 63.5686 43.6902 63.2179L43.6984 63.2289Z" fill="white"/>
<path d="M28.0465 46.9251C26.6493 46.3251 25.5808 44.969 23.7562 45.8895C22.4576 46.5498 20.9589 45.6648 20.4987 44.2457C20.2996 43.609 20.3576 42.9198 20.6602 42.3254C20.9628 41.7309 21.486 41.2785 22.1178 41.0649C23.4877 40.6128 25.0931 41.3142 25.3424 42.758C25.5479 43.9607 26.3972 44.0347 27.1698 44.4374C28.0712 44.9059 28.7178 44.8539 29.5616 44.147C30.9314 43.0073 32.9698 43.3635 34.1013 44.695C34.6283 45.3326 34.909 46.1381 34.8924 46.9652C34.8758 47.7922 34.563 48.5858 34.0109 49.2018C33.441 49.8376 32.6514 50.2341 31.801 50.3113C30.9506 50.3886 30.1025 50.141 29.4274 49.6182C28.0904 48.6456 25.926 49.3689 25.4246 50.9579C24.9534 52.4566 23.5068 53.2346 22.0904 52.7415C21.4616 52.5179 20.9448 52.058 20.6496 51.4595C20.3544 50.861 20.3042 50.171 20.5096 49.536C20.9781 48.1443 22.4904 47.284 23.7973 47.9497C25.6055 48.9086 26.652 47.4785 28.0465 46.9251ZM33.1862 46.9251C33.1862 45.9991 32.3424 45.1498 31.4274 45.2374C30.4383 45.3333 29.8273 45.9032 29.8301 46.9224C29.8328 47.9415 30.4164 48.5223 31.4246 48.599C31.6525 48.6114 31.8805 48.577 32.0946 48.4978C32.3086 48.4187 32.5042 48.2966 32.6692 48.139C32.8343 47.9814 32.9653 47.7916 33.0542 47.5814C33.1431 47.3712 33.1881 47.1451 33.1862 46.9169V46.9251ZM22.8575 44.7114C23.2904 44.1333 23.6795 43.8265 23.7151 43.4868C23.7342 43.2484 23.263 42.7854 22.9836 42.7607C22.7041 42.7361 22.2082 43.1525 22.1945 43.3991C22.1726 43.7251 22.5206 44.0813 22.8575 44.7032V44.7114ZM24.0822 50.4648C23.6137 50.0456 23.3206 49.5853 23.0767 49.61C22.8846 49.6494 22.7043 49.733 22.5502 49.8543C22.3961 49.9756 22.2724 50.1311 22.189 50.3086C22.1205 50.4922 22.5726 51.1004 22.8164 51.1305C23.1507 51.1305 23.5123 50.7744 24.0822 50.4566V50.4648Z" fill="white"/>
<path d="M52.8904 33.254C52.8904 31.9335 52.8904 30.6129 52.8904 29.2951C52.8904 28.1992 53.4383 27.8842 54.389 28.3444C57.0848 29.6622 59.7752 30.991 62.4382 32.3718C63.3834 32.8622 63.3862 33.6129 62.4382 34.1006C59.7332 35.5033 57.01 36.8667 54.2684 38.1909C53.3506 38.6375 52.8986 38.169 52.8794 37.2129C52.8904 35.8814 52.8904 34.5718 52.8904 33.254ZM60.3615 33.2403L54.6438 30.402V36.0814L60.3615 33.2403Z" fill="white"/>
<path d="M61.1094 52.0894H52.8848V53.7332H61.1094V52.0894Z" fill="white"/>
<path d="M61.1094 56.1987H52.8848V57.8426H61.1094V56.1987Z" fill="white"/>
</svg>
