<svg width="85" height="85" viewBox="0 0 85 85" fill="none" xmlns="http://www.w3.org/2000/svg">
<circle cx="42.75" cy="42.75" r="40.5" stroke="white" stroke-width="3.5"/>
<path d="M34.2051 62.966C36.0906 62.2872 37.7761 61.7166 39.4255 61.0575C39.6714 60.9624 39.8452 60.4673 39.8878 60.1361C39.9382 59.5374 39.9524 58.9363 39.9305 58.3359C39.9961 51.1906 39.9961 51.1873 44.8099 45.8587C45.1619 45.5553 45.5356 45.278 45.9281 45.029C45.8297 45.7767 45.892 46.1931 45.7182 46.462C45.2976 47.1662 44.7933 47.817 44.2163 48.4C41.5602 50.9118 40.8782 53.9746 40.9667 57.5587C41.088 62.4381 41.6717 61.474 36.9465 63.1726C36.4316 63.3562 35.9233 63.553 35.4019 63.7202C33.7624 64.2416 33.0606 63.7202 33.0246 61.9856C32.9688 59.3098 33.0246 56.6241 32.8705 53.9549C32.8092 52.9492 32.4685 51.9804 31.8867 51.1578C28.9715 47.2687 25.9842 43.419 22.9281 39.648C21.7574 38.2084 21.8886 36.6639 22.2722 35.1752C22.41 34.6309 23.5577 34.034 24.2692 34.0012C27.1582 33.8668 30.057 33.9455 33.0541 33.9455C33.1656 33.5717 33.264 33.2273 33.382 32.8896C33.8509 31.4632 35.0708 30.7877 36.4415 31.191C37.7531 31.5681 38.6811 33.1585 38.1794 34.4374C38.0384 34.7948 37.2645 35.0932 36.7759 35.0932C32.9492 35.1457 29.1257 35.1227 25.2989 35.126C23.0035 35.126 22.9773 35.1588 23.4134 37.8739H39.5534L39.6353 38.5298C39.1003 38.6901 38.5514 38.7999 37.9958 38.8577C33.405 38.8806 28.8141 38.8577 23.984 38.8577C24.1982 39.2607 24.4347 39.6515 24.6923 40.0283C27.5025 43.6551 30.3553 47.2425 33.1098 50.9217C33.6318 51.6557 33.9375 52.5214 33.9919 53.4204C34.1264 55.9814 34.0739 58.5556 34.1067 61.1231C34.1034 61.6281 34.1493 62.1495 34.2051 62.966Z" fill="white"/>
<path d="M61.4122 27.712C61.0121 28.4597 60.8154 28.8991 60.5563 29.3024C59.8776 30.3616 60.3432 31.5749 61.6057 31.7388C63.3207 31.9651 63.4584 33.1292 63.465 34.4802C63.4715 35.8312 63.3567 37.1035 61.5565 37.3527C60.3301 37.5167 59.8448 38.7988 60.6154 39.799C61.5991 41.091 60.9859 41.9894 60.0481 42.9076C59.1102 43.8258 58.2282 44.8751 56.7099 43.7864C55.5556 42.9568 54.385 43.4192 54.1784 44.803C53.9324 46.4163 52.8667 46.5868 51.5551 46.5868C50.1811 46.5868 48.9022 46.5868 48.6038 44.7767C48.371 43.3732 47.2922 42.9699 46.0756 43.8159C44.741 44.7538 43.8655 44.0356 42.967 43.1142C42.0685 42.1927 41.0979 41.3533 42.1078 39.9006C43.003 38.5889 42.5899 37.6314 41.0323 37.3166C39.3468 36.9887 39.35 35.7361 39.3402 34.4244C39.3304 33.1128 39.5108 32.0274 41.0913 31.7552C42.5046 31.5093 43.0129 30.3812 42.1767 29.2598C41.1274 27.853 41.9406 26.9644 42.885 26.0364C43.8294 25.1084 44.6885 24.2492 46.1084 25.2854C47.243 26.1151 48.3579 25.6363 48.6169 24.223C48.9449 22.4129 50.2828 22.4916 51.6272 22.4785C52.9717 22.4654 53.9849 22.7277 54.1882 24.3312C54.3522 25.6035 55.5294 25.9708 56.664 25.3969C57.2641 25.069 58.2741 24.7936 58.7036 25.069C59.7267 25.774 60.5268 26.8168 61.4122 27.712ZM62.2746 34.6409C62.3041 33.7194 62.455 32.7226 61.0515 32.8734C59.2447 33.0701 59.6349 31.3748 59.1102 30.5255C58.8938 30.1746 59.1102 29.2565 59.4381 28.9154C60.4219 27.9317 59.6906 27.4103 59.0709 26.7742C58.4511 26.138 57.8543 25.5051 57.0805 26.4987C55.959 27.935 55.008 26.5643 54.0702 26.2659C53.6177 26.1216 53.1422 25.2986 53.1094 24.7575C53.0274 23.4229 52.1453 23.6786 51.3616 23.6557C50.5779 23.6327 49.6007 23.5376 49.7482 24.8329C49.9483 26.6135 48.312 26.3348 47.4332 26.8004C47.043 27.0135 46.1445 26.8365 45.7936 26.5053C44.8328 25.551 44.3081 26.1774 43.6425 26.8168C42.9768 27.4562 42.416 28.1055 43.4359 28.9417C44.7475 30.0173 43.3801 30.9092 43.1079 31.8339C42.985 32.0961 42.7986 32.3234 42.5655 32.4952C42.3324 32.667 42.0602 32.7778 41.7734 32.8176C40.3928 32.8176 40.4945 33.6538 40.4617 34.5556C40.4387 35.5131 40.4617 36.3296 41.8029 36.1952C43.4752 36.0345 43.1145 37.6511 43.6261 38.4709C43.7275 38.7159 43.7656 38.9825 43.7369 39.2461C43.7083 39.5097 43.6138 39.7618 43.4621 39.9793C42.4784 40.904 42.862 41.4943 43.6326 42.2747C44.4032 43.0551 45.0197 43.4028 45.892 42.3862C46.9151 41.1959 47.7447 42.5764 48.6464 42.7797C49.0629 42.8715 49.6597 43.547 49.6302 43.9373C49.5777 45.2686 50.227 45.4588 51.3354 45.4522C52.4437 45.4457 53.1225 45.308 53.0274 43.9537C52.9225 42.4092 54.4735 42.7633 55.2605 42.278C55.6245 42.055 56.523 42.1108 56.7689 42.3961C57.7527 43.5438 58.3724 42.9076 59.1594 42.1698C59.9464 41.432 60.1432 40.8319 59.2283 40.0416C57.9756 38.9497 59.4349 38.0741 59.625 37.1396C59.7005 36.7592 60.4285 36.2378 60.8515 36.2444C62.1697 36.2641 62.4222 35.6541 62.2746 34.6409Z" fill="white"/>
<path d="M29.8015 29.9679C29.7992 30.627 29.5406 31.2594 29.0804 31.7313C28.6202 32.2031 27.9944 32.4774 27.3356 32.4961C26.6771 32.4677 26.0546 32.1881 25.596 31.7148C25.1373 31.2415 24.8774 30.6105 24.8696 29.9515C24.9171 29.3304 25.1978 28.7502 25.6554 28.3276C26.1131 27.905 26.7137 27.6713 27.3366 27.6734C27.9596 27.6754 28.5586 27.9132 29.0134 28.3388C29.4682 28.7645 29.7451 29.3465 29.7884 29.9679H29.8015Z" fill="white"/>
<path d="M35.8349 26.2034C35.8653 25.5859 36.1374 25.0051 36.5924 24.5865C37.0475 24.1679 37.6489 23.9451 38.2668 23.9662C38.8847 23.9873 39.4696 24.2506 39.895 24.6993C40.3204 25.1479 40.5522 25.7459 40.5405 26.3641C40.5101 26.9816 40.238 27.5624 39.7829 27.981C39.3279 28.3996 38.7265 28.6224 38.1086 28.6013C37.4907 28.5802 36.9058 28.3169 36.4804 27.8682C36.055 27.4196 35.8231 26.8216 35.8349 26.2034Z" fill="white"/>
<path d="M31.1226 21.0027C31.4361 21.0059 31.7457 21.0733 32.0322 21.2007C32.3187 21.3282 32.576 21.513 32.7883 21.7437C33.0007 21.9745 33.1635 22.2463 33.2667 22.5424C33.3699 22.8385 33.4113 23.1526 33.3885 23.4653C33.3466 24.0675 33.0753 24.6307 32.6306 25.0388C32.1858 25.4469 31.6015 25.6689 30.998 25.6591C30.6854 25.6492 30.3779 25.5765 30.094 25.4453C29.8101 25.3142 29.5554 25.1272 29.3452 24.8956C29.135 24.664 28.9736 24.3924 28.8705 24.0972C28.7674 23.8019 28.7248 23.4889 28.7452 23.1768C28.7574 22.8775 28.8287 22.5837 28.955 22.3121C29.0813 22.0406 29.2601 21.7967 29.4811 21.5946C29.7021 21.3925 29.9609 21.2362 30.2427 21.1346C30.5244 21.033 30.8235 20.9881 31.1226 21.0027Z" fill="white"/>
<path d="M51.273 39.1722C50.3575 39.1468 49.4699 38.8511 48.7221 38.3221C47.9744 37.7932 47.3999 37.0548 47.0711 36.1999C46.7422 35.3451 46.6738 34.412 46.8743 33.5183C47.0748 32.6246 47.5353 31.8102 48.1978 31.1778C48.8603 30.5453 49.6952 30.1231 50.5973 29.9643C51.4993 29.8055 52.4281 29.9172 53.2668 30.2854C54.1055 30.6536 54.8165 31.2617 55.3101 32.0332C55.8038 32.8047 56.058 33.705 56.0409 34.6208C56.0384 35.2362 55.9117 35.8448 55.6684 36.4101C55.4251 36.9754 55.0703 37.4858 54.6252 37.9107C54.18 38.3357 53.6537 38.6665 53.0777 38.8832C52.5017 39.1 51.8879 39.1983 51.273 39.1722ZM51.3845 30.9744C50.6817 30.9776 49.9955 31.1892 49.4128 31.5823C48.8301 31.9755 48.3771 32.5325 48.111 33.1831C47.8449 33.8336 47.7775 34.5485 47.9176 35.2373C48.0577 35.9261 48.3988 36.5579 48.8979 37.0528C49.397 37.5478 50.0316 37.8837 50.7215 38.018C51.4115 38.1524 52.1257 38.0792 52.7741 37.8076C53.4224 37.5361 53.9757 37.0784 54.364 36.4925C54.7522 35.9066 54.9581 35.2188 54.9555 34.5159C54.9368 33.578 54.5534 32.6843 53.8868 32.0243C53.2201 31.3644 52.3226 30.9901 51.3845 30.9809V30.9744Z" fill="white"/>
</svg>
