<svg width="85" height="85" viewBox="0 0 85 85" fill="none" xmlns="http://www.w3.org/2000/svg">
<circle cx="42.75" cy="42.75" r="40.5" stroke="white" stroke-width="3.5"/>
<path d="M34.0086 35.818C32.6633 35.818 31.4266 35.7963 30.1922 35.8408C30.0044 35.8475 29.7888 36.1354 29.654 36.337C29.1238 37.1239 28.1579 37.4887 27.2512 37.2103C26.3444 36.9318 25.7585 36.0964 25.804 35.1497C25.8484 34.2157 26.5236 33.4566 27.481 33.2645C28.3178 33.0974 29.1347 33.4873 29.6739 34.2202C29.8258 34.4273 30.1552 34.6184 30.4095 34.6262C31.7178 34.6663 33.0262 34.6557 34.3346 34.6384C34.9757 34.6295 35.259 34.8868 35.23 35.5295C35.1992 36.1933 35.2231 36.8594 35.2231 37.6619C35.8671 37.3979 36.3933 37.1941 36.9052 36.9613C36.9615 36.929 37.0095 36.8845 37.0455 36.8312C37.0815 36.7779 37.1045 36.7173 37.1129 36.6539C37.1265 35.1541 37.122 33.6543 37.122 32.0777C36.2221 32.0777 35.4012 32.0593 34.5826 32.0944C34.437 32.1005 34.2652 32.3055 34.1668 32.457C33.6161 33.3035 32.7247 33.6933 31.8168 33.4594C30.9089 33.2255 30.253 32.3823 30.2553 31.4657C30.2601 31.0355 30.4025 30.6177 30.6625 30.2709C30.9225 29.9242 31.287 29.6659 31.7048 29.5326C32.6337 29.2436 33.6025 29.5844 34.1235 30.4705C34.3369 30.833 34.5883 30.9037 34.9546 30.8987C35.8045 30.8865 36.6544 30.8987 37.5037 30.8876C38.0805 30.8798 38.3393 31.1321 38.3319 31.704C38.3166 32.9849 38.3263 34.2658 38.3263 35.5468C38.3263 35.7851 38.3263 36.0235 38.3263 36.3727C38.9548 36.117 39.4668 35.9305 39.9549 35.6949C40.0812 35.6336 40.2041 35.4203 40.2052 35.2766C40.2206 32.8535 40.216 30.4315 40.216 27.9031C39.5436 27.9031 38.9264 27.8518 38.3268 27.9298C38.0993 27.9593 37.8956 28.2734 37.7159 28.4867C37.147 29.1611 36.3068 29.4413 35.5007 29.2029C34.6947 28.9645 34.0615 28.2561 33.995 27.4503C33.9244 26.5887 34.2714 25.9115 35.0439 25.4749C36.0275 24.918 37.3052 25.2338 37.8444 26.2251C38.0686 26.6377 38.3245 26.748 38.7546 26.7263C39.3502 26.6985 39.9492 26.7436 40.5454 26.7135C41.2069 26.6795 41.4402 26.9652 41.4345 27.5945C41.4146 29.8222 41.4265 32.046 41.4265 34.272C41.4265 34.5092 41.4265 34.7465 41.4265 35.0567L43.3703 34.4067V33.6961C43.3703 30.6838 43.3663 27.6708 43.3777 24.6585C43.3777 24.2497 43.3112 23.9751 42.8885 23.7462C42.0517 23.2918 41.7149 22.3489 41.9709 21.4813C42.0924 21.0609 42.3488 20.69 42.7023 20.4233C43.0557 20.1566 43.4874 20.0083 43.9335 20.0003C44.3796 19.9923 44.8166 20.1251 45.1797 20.3789C45.5429 20.6328 45.813 20.9943 45.9501 21.41C46.2425 22.3116 45.9205 23.2701 45.0712 23.749C44.6645 23.9779 44.5723 24.2397 44.574 24.659C44.5888 27.829 44.6053 30.9995 44.5649 34.1689C44.5558 34.879 44.7253 35.3134 45.4626 35.4822C45.7646 35.5512 46.0445 35.7122 46.4421 35.8759C46.4598 35.5373 46.482 35.3034 46.4825 35.07C46.4848 32.5973 46.4848 30.1242 46.4825 27.6508C46.4825 26.8355 46.6037 26.7224 47.4456 26.7202C48.5475 26.7163 49.6499 26.709 50.7524 26.7241C51.1062 26.7285 51.3212 26.6511 51.5038 26.3053C51.976 25.4142 52.9339 25.0322 53.893 25.2783C54.7463 25.4966 55.3795 26.2769 55.4221 27.1546C55.4648 28.0323 54.8629 28.8955 54 29.1767C53.5611 29.3244 53.084 29.3212 52.6473 29.1675C52.2106 29.0138 51.8406 28.7188 51.5983 28.3313C51.3855 27.9972 51.1728 27.8752 50.7797 27.8886C49.8394 27.9203 48.8973 27.9047 47.9559 27.9131C47.8927 27.9131 47.829 27.9549 47.6845 28.0055V29.0498C47.6845 31.2529 47.7067 33.4566 47.6703 35.6593C47.6606 36.2256 47.8313 36.5336 48.3831 36.6856C48.771 36.7931 49.1402 36.9641 49.6346 37.1535V36.3404C49.6346 34.7888 49.642 33.2378 49.6346 31.6862C49.6317 31.1259 49.8621 30.8553 50.4623 30.8842C51.0123 30.9104 51.5647 30.8842 52.1159 30.8909C52.9465 30.9015 53.6752 30.9678 54.2776 30.0706C54.9255 29.1071 56.429 29.2352 57.243 30.1051C57.4314 30.3101 57.5755 30.5504 57.6665 30.8113C57.7575 31.0723 57.7937 31.3486 57.7727 31.6236C57.7518 31.8986 57.6742 32.1666 57.5447 32.4115C57.4151 32.6564 57.2363 32.873 57.0189 33.0484C56.0746 33.8008 54.6422 33.6376 54.004 32.6112C53.6945 32.1139 53.3532 32.0081 52.8355 32.0504C52.2018 32.1022 51.3309 31.8834 50.9947 32.2097C50.6585 32.5361 50.8485 33.3865 50.84 34.0074C50.8252 35.0416 50.8588 36.0769 50.8275 37.11C50.8144 37.5455 50.9776 37.7683 51.3844 37.8992C51.811 38.0362 52.2223 38.2183 52.7331 38.4165C52.7331 37.4141 52.7331 36.523 52.7331 35.6264C52.7331 34.7298 52.8469 34.6362 53.7781 34.6362C54.88 34.6362 55.9836 34.6646 57.0838 34.6206C57.3341 34.6106 57.664 34.409 57.8022 34.1985C58.3711 33.3291 59.1834 32.937 60.13 33.1598C61.0532 33.3776 61.6972 34.1244 61.7404 35.031C61.7607 35.4724 61.6345 35.9083 61.3807 36.2736C61.1269 36.6389 60.7592 36.9139 60.3325 37.0577C59.4223 37.3523 58.5315 37.027 57.9041 36.2435C57.7379 36.0363 57.4143 35.8469 57.1537 35.8341C56.1918 35.7885 55.2259 35.8191 54.2611 35.8235C54.1596 35.8346 54.0589 35.8519 53.9596 35.8753C53.9596 36.8388 53.9397 37.8167 53.9823 38.7919C53.9886 38.9256 54.2867 39.0854 54.479 39.1662C55.5547 39.6184 56.6509 40.0255 57.7146 40.5028C58.1055 40.6754 58.4506 40.9338 58.7232 41.2579C60.0555 42.9203 61.3496 44.6117 62.6529 46.2953C63.1978 46.9992 63.1205 47.2832 62.2831 47.6742C61.2472 48.1576 60.2199 48.6616 59.1669 49.1055C58.6885 49.3071 58.5412 49.5811 58.5486 50.0767C58.5736 52.4158 58.5429 54.7548 58.5713 57.0939C58.5782 57.6892 58.3916 58.0334 57.8233 58.2935C53.1044 60.4532 48.3937 62.6315 43.6911 64.8283C43.211 65.0511 42.8174 65.0611 42.3321 64.8345C37.6087 62.628 32.8777 60.4374 28.1392 58.2629C27.6272 58.0267 27.4383 57.721 27.444 57.1724C27.4685 54.8122 27.4349 52.4509 27.469 50.0906C27.477 49.551 27.295 49.2931 26.8018 49.0882C25.7056 48.6265 24.6344 48.1086 23.5593 47.5984C22.9335 47.3016 22.8363 46.9658 23.2504 46.4289C24.646 44.616 26.0537 42.8123 27.4736 41.0179C27.6443 40.8029 27.9321 40.6492 28.1972 40.539C29.9512 39.8105 31.711 39.0954 33.4767 38.3937C33.8749 38.2361 34.0456 38.0267 34.0172 37.5973C33.9808 37.0348 34.0086 36.4729 34.0086 35.818ZM28.6506 49.9637C28.6506 52.2693 28.6699 54.4029 28.6358 56.5353C28.6278 57.0293 28.8189 57.2442 29.2422 57.4392C33.374 59.342 37.501 61.2541 41.6234 63.1754C41.8412 63.2762 42.0688 63.3586 42.3384 63.4684V50.0784C42.137 50.3012 42.0153 50.4203 41.9118 50.5529C41.0357 51.6784 40.1426 52.7923 39.295 53.9395C38.9184 54.4513 38.5527 54.5666 37.9605 54.2809C36.2317 53.4455 34.4819 52.6541 32.7389 51.8483C31.4226 51.2379 30.1017 50.632 28.6506 49.9637ZM57.3659 49.9949C57.0599 50.1196 56.8369 50.2004 56.623 50.2995C53.7787 51.6133 50.9344 52.917 48.1066 54.2564C47.4649 54.5605 47.0645 54.4585 46.6532 53.8994C45.809 52.7516 44.9074 51.6444 44.041 50.5122C43.9403 50.3802 43.9141 50.1926 43.8533 50.0311C43.7861 50.1016 43.7192 50.1727 43.6525 50.2444V63.3943C43.76 63.3943 43.8117 63.4088 43.8482 63.3943C48.2473 61.366 52.6438 59.3327 57.0377 57.2944C57.1856 57.2253 57.3506 57.0014 57.3517 56.8488C57.3722 54.6022 57.3659 52.3584 57.3659 49.9949ZM24.561 46.7285C25.1299 46.9936 25.5821 47.2075 26.0372 47.4186C29.9586 49.2352 33.8821 51.0474 37.808 52.8552C38.0219 52.9532 38.4611 52.9771 38.5618 52.8552C39.7291 51.4167 40.8514 49.9431 42.0346 48.4149C41.7223 48.2601 41.4857 48.1364 41.2439 48.025C39.6477 47.2825 38.0507 46.541 36.453 45.8007C33.9017 44.6173 31.3526 43.426 28.7933 42.2598C28.5868 42.1657 28.1676 42.1184 28.0823 42.2275C26.903 43.685 25.7653 45.1742 24.561 46.7285ZM61.4401 46.7285C60.3166 45.2761 59.2403 43.9334 58.226 42.5466C57.8847 42.0777 57.6088 42.041 57.1014 42.2793C53.0454 44.1829 48.9758 46.0591 44.9119 47.946C44.6121 48.0852 44.3226 48.2467 43.975 48.4249C45.1087 49.889 46.2004 51.2741 47.2585 52.6831C47.5309 53.0457 47.7522 53.0908 48.1635 52.8975C51.2251 51.4584 54.2992 50.0439 57.3693 48.6209C58.6925 48.0072 60.0174 47.3913 61.4395 46.7285H61.4401ZM43.3709 41.6689C43.3709 39.918 43.3806 38.1665 43.3584 36.4155C43.3584 36.2162 43.2184 35.8909 43.0694 35.8425C42.4926 35.6554 41.4305 36.498 41.4305 37.0955C41.4305 39.947 41.4834 42.7995 41.4015 45.6487C41.3748 46.5876 41.7098 47.027 42.5483 47.3083C43.2429 47.5411 43.368 47.501 43.3703 46.7881C43.376 45.0817 43.372 43.3753 43.3709 41.6689ZM44.6144 46.7486C45.2117 46.4735 45.7191 46.273 46.1873 46.0051C46.3397 45.9182 46.4717 45.657 46.4717 45.4744C46.4899 42.8505 46.4909 40.2267 46.4746 37.6029C46.4746 37.4358 46.3608 37.1858 46.2283 37.1184C45.7282 36.8678 45.1969 36.6773 44.6138 36.4384L44.6144 46.7486ZM40.1887 36.9318C39.6517 37.1484 39.1886 37.2849 38.7848 37.5194C38.5771 37.6419 38.3496 37.9343 38.3439 38.157C38.3115 40.3997 38.316 42.6435 38.3336 44.8868C38.3336 45.0767 38.4474 45.3518 38.5999 45.4393C39.0823 45.7177 39.6062 45.926 40.1864 46.1945L40.1887 36.9318ZM47.7164 45.3112C48.2648 45.0628 48.688 44.84 49.1323 44.673C49.5413 44.5198 49.6516 44.2642 49.6442 43.8509C49.6221 42.2359 49.6408 40.6208 49.6312 39.0058C49.6312 38.8186 49.6016 38.5207 49.4867 38.4639C48.9343 38.1854 48.349 37.976 47.7147 37.7176L47.7164 45.3112ZM37.0952 38.1988C36.5014 38.4427 36.0053 38.6137 35.5462 38.8537C35.3904 38.9345 35.2419 39.1879 35.2391 39.3644C35.214 40.7567 35.2209 42.1462 35.2328 43.5374C35.2328 43.675 35.2948 43.8832 35.3961 43.9378C35.924 44.2224 36.4735 44.4686 37.0952 44.766V38.1988ZM33.979 39.4747L29.592 41.2758L33.979 43.3007V39.4747ZM50.8991 39.0782V43.7663C52.6922 43.255 52.732 43.2044 52.7326 41.4885V41.3537C52.7326 39.6167 52.7326 39.6167 51.0186 39.0704C50.9786 39.0689 50.9386 39.0715 50.8991 39.0782ZM56.4563 41.2691C55.5274 40.9021 54.7839 40.6091 53.9784 40.2917V42.408L56.4563 41.2691Z" fill="white"/>
</svg>
