<svg width="85" height="85" viewBox="0 0 85 85" fill="none" xmlns="http://www.w3.org/2000/svg">
<circle cx="42.75" cy="42.75" r="40.5" stroke="white" stroke-width="3.5"/>
<path d="M42.9603 67.2613H23.252C22.0985 67.2613 22.0158 67.1671 22.0158 65.9905C22.0158 57.3466 22.0113 48.7014 22.0024 40.055C21.9878 39.7581 22.0402 39.4618 22.1557 39.1879C22.2712 38.914 22.4468 38.6696 22.6695 38.4727C24.7677 36.4835 26.8364 34.4661 28.8756 32.4205C29.1132 32.1555 29.2494 31.815 29.2601 31.4592C29.2947 29.5155 29.2735 27.5699 29.2793 25.6261C29.2793 24.5976 29.3946 24.4822 30.4001 24.4726C32.3977 24.4726 34.3953 24.4976 36.3909 24.4476C36.8462 24.4292 37.2821 24.2586 37.629 23.9631C39.1786 22.5058 40.6724 20.9889 42.1855 19.4931C42.8507 18.8356 43.0814 18.8356 43.7486 19.4931C45.2462 20.9658 46.7593 22.4251 48.232 23.9266C48.4078 24.116 48.6236 24.2639 48.8637 24.3597C49.1038 24.4554 49.3621 24.4966 49.6201 24.4803C51.6176 24.4572 53.6132 24.4687 55.6108 24.4803C56.5182 24.4803 56.6509 24.6187 56.6548 25.5454C56.6548 27.4891 56.6298 29.4347 56.6798 31.3785C56.702 31.8084 56.8748 32.2168 57.1681 32.532C59.2483 34.6103 61.3804 36.6386 63.4645 38.715C63.7256 38.9966 63.8782 39.3618 63.8951 39.7455C63.9048 48.5931 63.9048 57.4562 63.9048 66.3C63.9048 67.0863 63.5202 67.2613 62.8185 67.2613C56.2023 67.2536 49.5829 67.2536 42.9603 67.2613ZM55.284 25.8838C55.1384 25.8553 54.9915 25.8348 54.8437 25.8222C46.9868 25.8222 39.1293 25.8171 31.2711 25.8069C30.7231 25.8069 30.627 26.0279 30.6289 26.5124C30.6405 32.7396 30.6289 38.9688 30.6539 45.196C30.6719 45.5728 30.8287 45.9296 31.0942 46.1976C34.8817 49.7249 38.6839 53.2361 42.5008 56.7314C42.6506 56.8572 42.8072 56.9746 42.9699 57.0832C43.0566 57.0343 43.1395 56.9791 43.2179 56.9179C47.1207 53.3227 51.0184 49.7211 54.911 46.113C55.1494 45.89 55.2686 45.4267 55.2705 45.0748C55.2916 39.0053 55.284 32.9338 55.284 26.8643V25.8838ZM61.0036 65.8924C60.7883 65.6886 60.7037 65.5906 60.6037 65.5079C56.1818 62.2549 51.7599 59 47.338 55.7432C46.9535 55.4586 46.7228 55.5125 46.4036 55.822C45.5711 56.6256 44.7098 57.3966 43.8581 58.1772C43.0468 58.9231 42.8738 58.925 42.0875 58.206C41.3011 57.487 40.4283 56.7448 39.665 55.9508C39.1882 55.4529 38.8652 55.5182 38.3519 55.8989C34.0915 59.0635 29.8099 62.1972 25.5361 65.3426C25.3592 65.4733 25.2015 65.631 24.9074 65.8847L61.0036 65.8924ZM47.8936 54.4724L62.4667 65.1868V41.0432L47.8936 54.4724ZM23.4193 65.2157L38.0308 54.4685L23.4193 41.0105V65.2157ZM29.2408 34.2354L29.0678 34.1335L23.8769 39.5782C25.5611 41.1297 27.3375 42.762 29.2389 44.5096L29.2408 34.2354ZM56.6971 44.5038L61.9053 39.6974L56.6971 33.9624V44.5038ZM39.4247 24.3976H46.5209L42.9661 20.7447L39.4247 24.3976Z" fill="white"/>
<path d="M42.0667 43.0617C42.0667 44.6267 42.084 46.0648 42.0667 47.5009C42.0475 48.7429 41.2439 49.5811 40.0961 49.6157C38.8541 49.66 37.9428 48.8294 37.9121 47.5471C37.8755 46.1071 37.9121 44.6632 37.9121 43.1751C37.1642 43.0944 36.374 43.1232 36.4297 42.0216C35.953 42.0216 35.5377 42.0062 35.1243 42.0216C34.463 42.0543 34.1515 41.7697 34.1631 41.0949C34.1823 40.1234 34.1823 39.1518 34.1631 38.1803C34.1496 37.5189 34.4322 37.2017 35.1032 37.2344C35.3904 37.2659 35.6805 37.2608 35.9664 37.219C36.1587 37.1806 36.4298 37.0268 36.4567 36.8807C36.5605 36.3039 36.9162 36.1712 37.418 36.1924C37.6794 36.202 37.9447 36.1674 38.2043 36.1924C41.438 36.5096 44.5065 35.8348 47.5018 34.6851C48.0677 34.4703 48.6455 34.288 49.2322 34.1391C49.9166 33.9603 50.2261 34.2025 50.2434 34.9081C50.2626 35.5887 50.2107 36.275 50.2722 36.9537C50.2975 37.0865 50.3525 37.2119 50.433 37.3204C50.5136 37.429 50.6177 37.5179 50.7375 37.5805C51.8911 38.0188 52.537 38.8109 52.5313 39.901C52.5255 40.9911 51.8853 41.7601 50.7183 42.2081C50.6064 42.2634 50.5083 42.3431 50.4311 42.4412C50.354 42.5393 50.2997 42.6535 50.2722 42.7753C50.2357 43.2723 50.228 43.7711 50.2492 44.2691C50.2319 45.1323 49.9473 45.3515 49.0956 45.0919C47.1731 44.4959 45.2505 43.8711 43.3126 43.277C42.9017 43.1815 42.4858 43.1096 42.0667 43.0617ZM48.8457 35.6867C47.1404 36.227 45.56 36.7076 43.997 37.2459C43.8759 37.3165 43.7727 37.4141 43.6957 37.5312C43.6186 37.6483 43.5698 37.7816 43.5529 37.9208C43.4971 38.7321 43.5317 39.5492 43.5317 40.3624C43.5317 41.9216 43.5317 41.9216 45.0563 42.4003L48.8457 43.5943V35.6867ZM42.1071 41.7371V37.6112H37.8159C37.8159 38.8859 37.8044 40.1106 37.8332 41.3352C37.8537 41.424 37.8966 41.506 37.9579 41.5733C38.0192 41.6406 38.0967 41.6911 38.1831 41.7198C39.4886 41.7486 40.7824 41.7371 42.1071 41.7371ZM39.2482 43.1425C39.2482 44.6478 39.2117 46.0878 39.2829 47.5221C39.2963 47.7874 39.7558 48.0277 40.0096 48.2796C40.246 48.0412 40.6767 47.8085 40.6882 47.5586C40.7536 46.0994 40.7209 44.6363 40.7209 43.1367L39.2482 43.1425ZM35.5646 40.6758L36.4125 40.6277V38.5898L35.5646 38.6321V40.6758ZM50.2761 40.7796L50.5856 40.9219C50.7779 40.5585 51.0836 40.2048 51.1182 39.8241C51.1605 39.3742 50.8548 39.0224 50.2761 38.9897V40.7796Z" fill="white"/>
<path d="M43.0162 29.7075H34.4262C34.2166 29.7075 33.9609 29.7729 33.8071 29.6787C33.5687 29.5326 33.2495 29.2807 33.2418 29.0635C33.2342 28.8462 33.5245 28.5559 33.7552 28.4079C33.9282 28.2964 34.2128 28.3444 34.4492 28.3425C40.1503 28.3425 45.8539 28.3425 51.5601 28.3425C52.1157 28.3425 52.8905 28.2002 52.879 29.0462C52.8674 29.8921 52.085 29.6979 51.5332 29.6998C48.6916 29.7114 45.8539 29.7075 43.0162 29.7075Z" fill="white"/>
<path d="M38.0344 32.9123C36.7232 32.9123 35.4101 32.9123 34.0989 32.9123C33.6298 32.9123 33.2222 32.8008 33.2107 32.2567C33.1992 31.7126 33.5952 31.5723 34.0701 31.5723C36.6694 31.5723 39.2681 31.5723 41.8661 31.5723C42.3314 31.5723 42.7524 31.6838 42.7543 32.2279C42.7543 32.8181 42.3102 32.9161 41.8142 32.9123C40.5549 32.9065 39.2956 32.9123 38.0344 32.9123Z" fill="white"/>
</svg>
