<svg width="85" height="85" viewBox="0 0 85 85" fill="none" xmlns="http://www.w3.org/2000/svg">
<path d="M63.5842 36.2493C63.4132 35.6977 63.0852 35.2083 62.6405 34.8413C62.5822 34.7862 62.5469 34.7109 62.5418 34.6307C62.5406 34.2921 62.479 33.9566 62.3598 33.6398C61.8125 32.2086 61.1734 30.8144 60.4465 29.4659C60.1203 28.8662 59.619 28.4751 58.9301 28.3648C58.7052 28.325 58.4743 28.3358 58.254 28.3965C58.0338 28.4573 57.8297 28.5664 57.6567 28.7159C56.8703 29.369 56.0865 30.0244 55.3052 30.6821C55.0314 30.9111 54.8851 30.9125 54.6093 30.6821C54.3069 30.4265 54.0086 30.1667 53.6992 29.916C53.1679 29.4842 52.6316 29.0586 52.0982 28.6289C52.0298 28.5772 51.9668 28.5188 51.9098 28.4547C51.8111 28.3353 51.781 28.216 51.8741 28.0615C52.1892 27.5383 52.4895 27.0082 52.794 26.478C52.8577 26.3656 52.9186 26.2512 52.9753 26.1353C53.032 26.0195 53.0853 25.886 53.1441 25.7631C53.1732 25.7127 53.2055 25.6642 53.2407 25.6178C53.1546 25.5848 53.0755 25.4233 53.1315 25.3994C53.2715 25.3383 53.2183 25.233 53.2204 25.1312C53.3604 25.2646 53.2568 25.4212 53.2687 25.5637C53.6978 25.0441 53.6383 24.3391 53.2337 23.8082C52.9383 23.4204 52.5192 23.146 52.0463 23.0308C50.537 22.6355 49.0171 22.2865 47.4784 22.0232C47.4581 22.0174 47.4384 22.0097 47.4196 22H46.8742C46.6096 22.0779 46.3338 22.1285 46.0838 22.2388C45.6204 22.4417 45.3565 22.8104 45.2732 23.3173C45.1394 24.1263 44.9889 24.9324 44.8531 25.7393C44.8494 25.7902 44.8293 25.8385 44.7961 25.877C44.7628 25.9156 44.718 25.9424 44.6683 25.9534C44.5654 25.9803 44.4596 25.9947 44.3533 25.9963C43.9626 25.9963 43.5727 25.9928 43.1827 25.9963C42.5149 25.9963 41.847 25.9963 41.1791 26.0012C41.1203 26.0012 41.0615 26.0012 41.0027 25.9956C40.7514 25.9724 40.6863 25.9113 40.6422 25.6606C40.5022 24.8742 40.3622 24.0898 40.2284 23.3026C40.1248 22.6797 39.7384 22.3244 39.1699 22.1348C38.9806 22.0807 38.7885 22.0367 38.5945 22.0028H38.0813C37.5948 22.0997 37.1061 22.1847 36.6224 22.2942C35.5646 22.5337 34.5068 22.7759 33.4546 23.0365C33.1896 23.0955 32.9393 23.2078 32.7188 23.3665C32.4982 23.5252 32.312 23.727 32.1713 23.9599C31.8661 24.4655 31.8507 24.9837 32.1454 25.5005C32.6355 26.3565 33.1255 27.2118 33.6212 28.0629C33.6615 28.1181 33.6825 28.185 33.6812 28.2534C33.6798 28.3218 33.656 28.3879 33.6135 28.4414C33.5235 28.5666 33.473 28.7161 33.4685 28.8704C33.464 29.0248 33.5057 29.1769 33.5883 29.3072C33.6602 29.4377 33.7687 29.5441 33.9004 29.6133C34.0321 29.6824 34.1811 29.7113 34.3289 29.6962C34.4415 29.691 34.5516 29.6611 34.6514 29.6086C34.7512 29.556 34.8383 29.4822 34.9065 29.3922C35.1375 29.1039 35.2757 28.7522 35.303 28.3834C35.3302 28.0146 35.2452 27.6462 35.0591 27.327C34.5908 26.5152 34.1231 25.7021 33.6485 24.8938C33.575 24.7695 33.5855 24.6951 33.7185 24.6537C33.9782 24.5736 34.2372 24.4872 34.5026 24.4282C35.6815 24.1642 36.8613 23.9067 38.0421 23.6558C38.1847 23.6352 38.3287 23.627 38.4727 23.6312C38.6127 23.6256 38.668 23.6951 38.6918 23.8377C38.8087 24.5462 38.9669 25.2484 39.0558 25.9605C39.1958 27.077 40.1689 27.5917 40.974 27.6065C41.8841 27.6233 42.7942 27.6128 43.7043 27.6065C44.083 27.6065 44.4688 27.6282 44.8398 27.5671C45.5469 27.4499 46.0999 27.0826 46.3478 26.3734C46.443 26.1037 46.4696 25.8116 46.5207 25.5244C46.6243 24.9549 46.7265 24.3847 46.8196 23.8138C46.8413 23.6825 46.8896 23.6172 47.0233 23.6319C47.3362 23.6551 47.6477 23.6942 47.9565 23.7492C49.1586 24.0139 50.3613 24.2948 51.5633 24.5757C51.6921 24.6166 51.8174 24.6681 51.9378 24.7295C51.7558 25.0925 51.4996 25.3959 51.5339 25.8116L51.3855 26.0033C51.3771 25.945 51.3673 25.8846 51.3582 25.8242L51.3113 25.8179C51.2872 25.8807 51.2596 25.9422 51.2287 26.0019C51.1132 26.1964 50.992 26.3874 50.8786 26.5819C50.7477 26.8031 50.6301 27.0334 50.4894 27.2476C49.923 28.1106 50.2248 29.131 50.9094 29.7278C51.3001 30.0691 51.7215 30.3746 52.1234 30.7039C52.6197 31.1112 53.1035 31.5304 53.604 31.9377C54.1641 32.3948 54.799 32.5844 55.5061 32.3969C55.7473 32.3296 55.9722 32.2135 56.167 32.0557C56.9783 31.3991 57.7771 30.7215 58.5703 30.048C58.6865 29.9504 58.7761 29.9518 58.8734 30.048C58.9411 30.1091 58.9992 30.1802 59.0457 30.2587C59.7097 31.5013 60.2993 32.7825 60.8112 34.0956C60.8189 34.1145 60.8217 34.1349 60.8329 34.1756H53.0622C52.8612 34.1756 52.6596 34.1707 52.4594 34.1813C52.4195 34.1813 52.3831 34.2445 52.3691 34.2564C52.2648 34.2339 52.1617 34.206 52.0603 34.1728C51.9962 34.1475 51.9388 34.1073 51.893 34.0556C50.9381 32.9935 49.8069 32.1057 48.5495 31.4314C46.4947 30.3165 44.1617 29.8228 41.833 30.0101C39.151 30.2117 36.7848 31.2039 34.7434 32.9552C34.289 33.3453 33.8632 33.7677 33.4693 34.2192C31.9669 35.9452 30.998 37.9409 30.6228 40.202C30.0725 43.5179 30.7278 46.5879 32.6411 49.3518C34.4207 51.9219 36.8506 53.5784 39.8826 54.3298C41.2884 54.6769 42.7456 54.7637 44.1824 54.5861C46.7776 54.2736 49.0437 53.2301 50.9913 51.4858C51.0578 51.4262 51.0943 51.3335 51.1573 51.2675C51.2203 51.2014 51.3057 51.153 51.3673 51.0863C51.4052 51.0363 51.4389 50.9832 51.4681 50.9276C51.4849 50.9044 51.515 50.8679 51.5339 50.8707C51.6064 50.8846 51.6814 50.8745 51.7477 50.8419C51.8139 50.8094 51.8679 50.7562 51.9014 50.6902C51.9112 50.6776 51.9247 50.6682 51.9399 50.6636C51.9632 50.6612 51.9867 50.6612 52.0099 50.6636L51.9399 50.8672C52.1059 50.8588 52.2732 50.8482 52.4405 50.8433C52.5574 50.8433 52.675 50.8433 52.7905 50.8433C52.9746 50.8482 53.1588 50.8433 53.3415 50.8651C53.5242 50.8869 53.6047 50.8314 53.6061 50.6383C53.6026 50.5576 53.6114 50.4769 53.632 50.3988C53.6397 50.5533 53.6467 50.7085 53.6544 50.8637H55.0251C54.9411 51.0161 54.8711 51.134 54.8088 51.2555C54.449 51.9577 54.3888 52.6691 54.8032 53.3706C54.9088 53.538 55.0402 53.6875 55.1925 53.8137C55.9723 54.4829 56.7606 55.1437 57.5454 55.8065C57.7274 55.9603 57.7477 56.0678 57.6154 56.2735C57.5668 56.3505 57.5076 56.4202 57.4397 56.4807C56.3821 57.4269 55.2592 58.297 54.0794 59.0845C54.0087 59.1327 53.9331 59.1731 53.8539 59.2053C53.5592 59.319 53.4423 59.2755 53.2862 59.0051C52.8269 58.206 52.3474 57.4181 51.9161 56.6043C51.445 55.7153 50.446 55.4105 49.5982 55.664C48.8715 55.8789 48.1603 56.1478 47.4413 56.3901C47.0261 56.5305 46.6047 56.6513 46.1938 56.803C45.5357 57.0452 45.0582 57.4743 44.8636 58.1744C44.7733 58.496 44.83 58.812 44.8867 59.1294C45.0104 59.8265 45.1331 60.5233 45.255 61.2199C45.2627 61.262 45.2627 61.3042 45.2697 61.3765C45.1345 61.4015 44.998 61.4182 44.8608 61.4263C43.4546 61.4296 42.0479 61.4296 40.6408 61.4263C40.4963 61.4177 40.3524 61.4015 40.2095 61.3779C40.2656 61.0549 40.3167 60.7557 40.3685 60.4566C40.4581 59.9447 40.5393 59.4307 40.6401 58.9209C40.8158 58.0361 40.3027 57.3002 39.653 56.9722C39.303 56.796 38.9172 56.6864 38.5448 56.5572C37.7318 56.2763 36.9178 55.9983 36.1029 55.723C35.3917 55.4835 34.7028 55.5179 34.0937 55.9863C33.8956 56.1482 33.7293 56.3459 33.6037 56.5691C33.1073 57.4118 32.6292 58.258 32.1524 59.109C32.0824 59.2277 31.9998 59.2783 31.8829 59.2495C31.7356 59.2283 31.5933 59.1808 31.4629 59.109C30.2501 58.3128 29.0998 57.4247 28.022 56.4526C27.9509 56.3878 27.8916 56.3111 27.847 56.2258C27.7476 56.039 27.7728 55.9491 27.9352 55.8122L28.4771 55.3536L28.3986 55.23C28.5786 55.3354 28.6682 55.1921 28.7718 55.105C29.2674 54.6879 29.7519 54.2568 30.258 53.8537C30.9658 53.2919 31.1513 52.3411 30.8013 51.5252C30.6396 51.1474 30.4121 50.7984 30.216 50.436C29.8394 49.739 29.4632 49.0412 29.0875 48.3427C28.8138 47.8329 28.4323 47.4453 27.875 47.2557C27.5075 47.1274 27.1066 47.1333 26.743 47.2726L24.2766 48.1854C24.2332 48.2016 24.1877 48.2149 24.1128 48.2395C24.0799 48.0787 24.0358 47.9305 24.0204 47.7796C23.8804 46.392 23.7436 45.0044 23.6102 43.6169C23.6102 43.6056 23.6102 43.5951 23.6102 43.5846C23.5773 43.1415 23.6032 43.1127 24.0344 43.1106C24.6764 43.1106 25.3176 43.1043 25.9596 43.1028C26.9649 43.1028 27.6699 42.5628 27.8995 41.5741C28.0185 41.0587 28.0759 40.5285 28.1606 40.0047C28.2173 39.6536 28.2782 39.3067 28.3279 38.9563C28.3361 38.8361 28.3361 38.7155 28.3279 38.5954L28.1179 38.627L28.1067 38.5911L28.3867 38.5167V38.1445C28.3867 38.0673 28.3867 37.99 28.3867 37.9128L28.2593 37.8194C28.2628 37.7787 28.267 37.7344 28.2719 37.679L28.1095 37.8054L28.0626 37.7667C28.0927 37.7309 28.1165 37.6762 28.155 37.6628C28.2873 37.6151 28.4141 37.686 28.4743 37.8278H28.4792C28.5646 37.521 28.4981 37.2232 28.4 36.936C28.2124 36.3834 27.854 35.9887 27.2932 35.79C26.4469 35.4895 25.6047 35.1777 24.7576 34.8814C24.612 34.8308 24.5539 34.7458 24.5714 34.6131C24.5864 34.4432 24.6221 34.2758 24.6778 34.1145C25.1837 32.8107 25.7665 31.5381 26.423 30.3036C26.452 30.2464 26.4858 30.1917 26.5239 30.14C26.6933 29.9202 26.7745 29.9118 26.9803 30.0839C27.7238 30.706 28.4848 31.3071 29.2051 31.9545C30.02 32.6884 31.1429 32.5353 31.8521 31.9651C32.0187 31.831 32.1804 31.6905 32.3421 31.5473C32.497 31.4091 32.5926 31.2161 32.6087 31.0088C32.6247 30.8016 32.5602 30.5961 32.4285 30.4355C32.2968 30.275 32.1082 30.1719 31.9023 30.1478C31.6964 30.1237 31.4892 30.1806 31.3242 30.3065C31.1884 30.4097 31.0652 30.5305 30.9308 30.6365C30.8522 30.7001 30.7676 30.7559 30.6781 30.8029C30.6156 30.8393 30.5428 30.8538 30.4712 30.8442C30.3996 30.8345 30.3332 30.8012 30.2825 30.7496C29.5125 30.0979 28.7242 29.4736 27.9723 28.803C27.1756 28.0896 26.1619 28.2729 25.5053 28.8732C25.1713 29.178 24.9837 29.5755 24.7835 29.9659C24.1898 31.1189 23.6634 32.3021 23.1838 33.5078C22.9521 34.0942 22.8765 34.6904 23.0711 35.2999C23.1415 35.5459 23.2713 35.7707 23.449 35.9544C23.6267 36.1381 23.8467 36.2751 24.0897 36.3532C24.9529 36.6544 25.8084 36.9754 26.6709 37.2773C26.8298 37.3328 26.9026 37.4339 26.9012 37.5814C26.8949 37.7505 26.8766 37.919 26.8466 38.0856C26.7836 38.483 26.7122 38.8783 26.6485 39.2751C26.5512 39.8839 26.4588 40.4934 26.3621 41.1008C26.3507 41.164 26.3324 41.2257 26.3075 41.2848C26.2919 41.3501 26.2534 41.4077 26.1991 41.447C26.1447 41.4863 26.0781 41.5047 26.0114 41.499C25.2042 41.4934 24.3963 41.5229 23.5892 41.5053C22.8569 41.4892 22.4088 41.9077 22.1974 42.4596C22.105 42.7019 22.0644 42.9638 22 43.2173V43.7643C22.0308 44.041 22.0651 44.317 22.0924 44.5929C22.2121 45.772 22.3234 46.9517 22.4501 48.13C22.5055 48.6447 22.6987 49.1082 23.076 49.4726C23.5073 49.8939 24.0106 50.0133 24.5812 49.8019C25.4542 49.4803 26.3278 49.1622 27.1966 48.8308C27.2585 48.7991 27.33 48.7922 27.3968 48.8113C27.4636 48.8305 27.5206 48.8743 27.5565 48.934C27.6272 49.0345 27.6908 49.1399 27.7469 49.2493C28.2444 50.1552 28.7415 51.0615 29.238 51.9683C29.2761 52.0327 29.3084 52.1004 29.3346 52.1705C29.4103 52.3945 29.3787 52.4963 29.1988 52.6487C28.4288 53.2983 27.679 53.9696 26.8886 54.5917C26.0646 55.2399 26.0373 56.289 26.4728 57.0691C26.7017 57.4785 27.058 57.7615 27.4024 58.0585C28.403 58.9233 29.4576 59.7231 30.5598 60.4531C31.1555 60.8463 31.8052 60.984 32.5032 60.7894C32.71 60.7337 32.9035 60.6365 33.072 60.5038C33.2404 60.371 33.3803 60.2054 33.4833 60.017C33.9796 59.147 34.483 58.2811 34.9744 57.4083C35.0041 57.3422 35.0541 57.2874 35.1171 57.2519C35.1801 57.2164 35.2527 57.202 35.3245 57.211C35.4357 57.2195 35.5455 57.2416 35.6514 57.277C36.6604 57.614 37.6678 57.9532 38.6736 58.2945C38.7346 58.3131 38.7941 58.3366 38.8514 58.3647C39.0551 58.47 39.0803 58.5171 39.0418 58.7418C38.9018 59.5493 38.78 60.3611 38.6148 61.1637C38.4419 62.0064 38.906 62.5471 39.4689 62.7935C39.6723 62.8761 39.8809 62.9451 40.0933 63H45.4433C45.7513 62.9385 46.044 62.816 46.3044 62.6398C46.7944 62.2887 47.0044 61.8252 46.8903 61.2171C46.7314 60.3639 46.5865 59.5072 46.4416 58.6512C46.4374 58.6212 46.44 58.5907 46.4493 58.5619C46.4585 58.5331 46.474 58.5067 46.4948 58.4848C46.5989 58.4028 46.7148 58.3372 46.8385 58.2903C47.849 57.9438 48.8613 57.6021 49.8754 57.265C49.9659 57.2327 50.0599 57.2112 50.1555 57.2011C50.2267 57.19 50.2996 57.2019 50.3637 57.2351C50.4278 57.2683 50.4796 57.3211 50.5118 57.3858C50.9962 58.2446 51.4968 59.0936 51.9777 59.9545C52.3411 60.6062 52.9067 60.873 53.6222 60.8716C54.0803 60.8696 54.5276 60.7316 54.9075 60.4748C56.191 59.6304 57.408 58.6886 58.5479 57.6576C59.094 57.1625 59.3698 56.5425 59.297 55.7918C59.281 55.5851 59.2241 55.3836 59.1295 55.1992C59.0349 55.0149 58.9045 54.8513 58.746 54.7181C57.9302 54.0243 57.1135 53.3331 56.2958 52.6445C56.1558 52.5293 56.0753 52.4409 56.174 52.1635C56.2385 52.0107 56.3153 51.8635 56.4036 51.7232C56.5352 51.4837 56.6745 51.2485 56.8012 51.0062C56.8193 50.9632 56.8509 50.9272 56.8912 50.9037C56.9315 50.8803 56.9783 50.8707 57.0246 50.8763C58.2651 50.8805 59.5063 50.8897 60.7468 50.8714C61.0731 50.8665 61.4014 50.7864 61.722 50.712C61.8543 50.6818 61.9657 50.5716 62.0917 50.5013C62.1778 50.4578 62.2842 50.4494 62.364 50.3981C62.9143 50.0551 63.3295 49.532 63.5394 48.9172C63.6134 48.6725 63.6751 48.4243 63.7242 48.1735V36.8735C63.678 36.665 63.6451 36.4522 63.5842 36.2493ZM23.4246 34.3463C23.3833 34.3231 23.3784 34.2339 23.3581 34.1763L23.6004 34.3336C23.5493 34.3364 23.4701 34.3723 23.4218 34.3463H23.4246ZM23.7334 34.2297C23.7236 34.2353 23.7145 34.2416 23.7047 34.2466C23.6707 34.1516 23.6422 34.0548 23.6193 33.9565C23.6193 33.9439 23.6893 33.9158 23.7334 33.8941V34.2297ZM27.0937 37.667C27.094 37.6656 27.094 37.6642 27.0937 37.6628L27.1014 37.6663C27.1258 37.6633 27.1503 37.6616 27.1749 37.6614C27.4108 37.6614 27.4704 37.7401 27.3975 37.962L27.3933 37.9711V37.9774C27.4234 38.0006 27.4781 38.0216 27.4802 38.0476C27.4889 38.169 27.4889 38.2908 27.4802 38.4121C27.4802 38.4395 27.4312 38.464 27.401 38.4928C27.2806 38.3039 27.3191 38.1368 27.3933 37.9711C27.3933 37.9711 27.3933 37.9648 27.3933 37.962L27.2967 37.9528L27.3226 37.9121L27.2302 37.7351L27.0972 37.6649H27.0909C27.1097 37.7179 27.1226 37.7728 27.1294 37.8285C27.1294 37.9226 27.1168 38.0139 26.9824 37.969C26.9705 37.8475 26.9425 37.7253 27.0909 37.667H27.0937ZM28.2957 55.268V55.2771L28.2866 55.2722L28.2957 55.268ZM62.1099 34.3364C62.0637 34.3421 61.9839 34.3772 61.9376 34.3512C61.8914 34.3252 61.89 34.2381 61.8676 34.1777L62.1099 34.3364ZM35.4883 50.2064C31.1107 46.1834 30.8762 39.2723 34.9569 34.9635C39.0915 30.5979 45.6092 30.6098 49.6927 34.1658H43.0294C43.0119 34.2536 42.9979 34.3182 42.9818 34.3954C42.8964 34.361 42.8096 34.3526 42.7655 34.3048C42.622 34.1475 42.4421 34.1693 42.2622 34.1693H38.9081C37.1999 34.1693 35.8978 35.4726 35.8978 37.1832C35.8978 40.7509 35.8978 44.3188 35.8978 47.887C35.8936 48.2811 35.9679 48.6722 36.1164 49.0371C36.2648 49.402 36.4845 49.7336 36.7624 50.0122C37.0403 50.2908 37.3709 50.511 37.7348 50.6597C38.0987 50.8085 38.4886 50.8828 38.8815 50.8784C40.0478 50.8784 41.2134 50.8784 42.3819 50.8784C42.5324 50.8784 42.6619 50.8658 42.7739 50.7485C42.8425 50.687 42.9163 50.6315 42.9944 50.5828V50.8637H49.1943C45.7737 53.6135 39.8133 54.1802 35.4883 50.2064ZM50.6707 51.0814C50.6642 51.0029 50.6625 50.9241 50.6658 50.8454L50.7022 50.8602C50.7218 50.9367 50.7407 51.014 50.7659 51.1144C50.7344 51.1038 50.6728 51.0961 50.6707 51.0807V51.0814ZM62.2373 42.2756L62.1512 42.244C62.1386 42.4807 62.1155 42.7117 62.1148 42.942C62.1115 44.5805 62.1115 46.2172 62.1148 47.8519C62.1148 48.677 61.5218 49.2676 60.6957 49.2676H38.9179C38.0848 49.2676 37.5038 48.6882 37.5038 47.8512C37.5038 44.2994 37.5038 40.7474 37.5038 37.1951C37.5038 36.3602 38.0827 35.7802 38.9179 35.7802H60.695C61.5351 35.7802 62.1134 36.3672 62.1134 37.2106C62.1134 38.718 62.1134 40.2257 62.1134 41.7335C62.1134 41.895 62.0819 42.0664 62.2401 42.1865C62.2541 42.197 62.2387 42.2447 62.2373 42.2756ZM62.2457 34.236C62.1057 34.0893 62.1057 34.0113 62.2457 33.8309V34.236Z" fill="url(#paint0_linear_3340_1500)"/>
<path d="M51.3853 43.0574C51.3433 42.9563 51.365 42.9114 51.4462 42.851C51.8557 42.5479 52.1592 42.1227 52.3133 41.6362C52.4673 41.1496 52.464 40.6267 52.3039 40.1421C52.1437 39.6576 51.8349 39.2363 51.4216 38.9384C51.0082 38.6406 50.5116 38.4815 50.0027 38.4839C49.5056 38.4839 49.0083 38.4839 48.5108 38.4839C47.9031 38.4839 47.5916 38.7964 47.5916 39.4038V43.3292C47.5916 44.1339 47.5916 44.9379 47.5916 45.7427C47.5844 45.9024 47.6267 46.0605 47.7129 46.1951C47.799 46.3297 47.9247 46.4342 48.0726 46.494C48.6144 46.737 49.1885 46.3473 49.1927 45.7328C49.2004 45.0032 49.1927 44.2743 49.1927 43.5447V43.3341C49.3488 43.3341 49.4769 43.3411 49.6036 43.3341C49.717 43.3257 49.7716 43.3671 49.8136 43.4745C50.1574 44.3291 50.5081 45.1809 50.8567 46.0334C50.9884 46.3557 51.2243 46.5474 51.5729 46.565C52.182 46.5966 52.5789 46.0095 52.343 45.4253C52.0326 44.6336 51.7134 43.8444 51.3853 43.0574ZM50.8182 40.9557C50.8079 41.1529 50.7249 41.3393 50.5853 41.4787C50.4457 41.618 50.2596 41.7004 50.0629 41.7099C49.7828 41.7225 49.4993 41.7099 49.2095 41.7099V40.1018C49.5273 40.1018 49.8395 40.0744 50.1427 40.1081C50.5529 40.1573 50.8427 40.5435 50.8182 40.9557Z" fill="url(#paint1_linear_3340_1500)"/>
<path d="M45.1249 44.9536H42.7761C42.7656 44.9368 42.76 44.9326 42.76 44.9284C42.7551 44.4249 42.7488 43.9214 42.7516 43.4179C42.7516 43.3884 42.8265 43.3364 42.8678 43.3357C43.1297 43.328 43.3922 43.3245 43.654 43.3357C43.8437 43.3428 44.0327 43.3357 44.191 43.2297C44.3492 43.1237 44.5235 43.0134 44.6222 42.8596C44.7587 42.649 44.7377 42.3962 44.6089 42.1455L44.5606 42.26C44.5235 42.1588 44.5074 42.0493 44.4521 41.9756C44.3121 41.7782 44.0972 41.7164 43.8626 41.7171C43.6484 41.7171 43.4342 41.7171 43.2207 41.7171H42.7544V40.0943H42.9378C43.6654 40.0943 44.393 40.0943 45.1207 40.0943C45.6142 40.0943 45.9747 39.751 45.974 39.2861C45.9733 38.8212 45.6114 38.4856 45.1144 38.4849C44.082 38.4849 43.0494 38.4849 42.0165 38.4849C41.4649 38.4849 41.1408 38.8114 41.1401 39.3661C41.1401 39.8921 41.1359 40.4195 41.1401 40.944C41.1401 41.3344 41.1639 41.7249 41.1653 42.1153C41.1653 42.4116 41.1408 42.7087 41.1394 43.0057C41.1394 43.9066 41.1394 44.8083 41.1394 45.7099C41.1394 46.2274 41.4782 46.5645 41.9962 46.5645C43.0393 46.5645 44.0824 46.5645 45.1256 46.5645C45.6093 46.5645 45.9719 46.2239 45.974 45.7682C45.9768 45.2998 45.6163 44.9543 45.1249 44.9536ZM44.1644 42.5858C44.1476 42.4032 44.1308 42.2206 44.1133 42.0289C44.1924 42.0324 44.1924 42.0324 44.1644 42.5858ZM43.7611 41.965L43.6813 42.2129C43.6442 42.1595 43.6036 42.1005 43.5623 42.0423C43.5266 42.1005 43.4923 42.1588 43.4587 42.2108C43.4496 42.1462 43.4391 42.064 43.4279 41.9812L43.7611 41.965ZM43.2641 42.2396L43.3243 42.2284C43.3292 42.2775 43.3369 42.326 43.3383 42.3751C43.3425 42.5387 43.3425 42.7023 43.3509 42.8667C43.3509 42.8877 43.3915 42.9067 43.4167 42.9292C43.3229 42.9734 43.2683 42.9362 43.2655 42.8315C43.2606 42.6342 43.2641 42.4369 43.2641 42.2396ZM41.6035 42.1694C41.5125 42.0886 41.4173 41.9032 41.3438 42.1771C41.2913 41.9889 41.4656 42.0093 41.5405 41.9433C41.5342 41.9299 41.5279 41.9166 41.5223 41.9032C41.4796 41.9232 41.4353 41.9397 41.39 41.9524C41.3457 41.9566 41.3012 41.9566 41.257 41.9524L41.2528 41.8822C41.3508 41.8737 41.4677 41.8288 41.5426 41.8667C41.6357 41.9201 41.6595 42.0402 41.6021 42.1701L41.6035 42.1694ZM42.055 41.9959C42.0662 42.1041 42.0774 42.2136 42.0921 42.3597C41.9409 42.1504 41.9381 42.0739 42.055 41.9966V41.9959ZM42.627 42.1609C42.4506 41.9994 42.4506 41.9994 42.347 42.149C42.365 42.0984 42.391 42.0509 42.424 42.0086C42.4667 41.9788 42.514 41.9563 42.564 41.9418L42.5472 41.9011L42.2945 41.977L42.2798 41.925C42.3138 41.8837 42.3609 41.8553 42.4132 41.8445C42.4656 41.8338 42.52 41.8414 42.5675 41.866C42.591 41.8813 42.6113 41.9011 42.6271 41.9243C42.6428 41.9475 42.6538 41.9737 42.6594 42.0012C42.6649 42.0288 42.6649 42.0572 42.6593 42.0847C42.6538 42.1123 42.6428 42.1384 42.627 42.1616V42.1609Z" fill="url(#paint2_linear_3340_1500)"/>
<path d="M57.669 38.8111C57.599 38.7711 57.5024 38.7753 57.4191 38.7563C57.3848 38.7486 57.3351 38.7451 57.3211 38.7219C57.228 38.5667 57.1111 38.5464 56.9823 38.6608C56.9263 38.611 56.8752 38.5288 56.815 38.5204C56.6703 38.509 56.525 38.5079 56.3802 38.5169C56.2339 38.5169 56.082 38.5429 55.9434 38.5099C55.7662 38.4677 55.65 38.4958 55.5828 38.6981C55.4645 38.4839 55.4645 38.4839 55.2209 38.4839H54.9479C54.3661 38.4839 54.0469 38.8062 54.0469 39.3904C54.0469 41.4503 54.0469 43.5101 54.0469 45.5699C54.0469 45.6556 54.0469 45.7419 54.0518 45.8276C54.065 45.9918 54.1284 46.148 54.2334 46.2747C54.3384 46.4014 54.4799 46.4924 54.6384 46.5354C55.1656 46.6815 55.65 46.2911 55.6528 45.711C55.657 44.9871 55.6528 44.2631 55.6528 43.5384V43.3327C55.9217 43.3327 56.1716 43.3327 56.4229 43.3327C57.5717 43.3207 58.5091 42.6073 58.7955 41.5287C58.935 41.0145 58.9 40.4685 58.6961 39.9765C58.4921 39.4845 58.1308 39.0745 57.669 38.8111ZM56.3501 38.5913L56.4446 38.7009L56.3046 38.7711L56.2612 38.7205L56.3501 38.5913ZM57.2714 40.9508C57.2621 41.1504 57.1783 41.3392 57.0367 41.4798C56.8951 41.6204 56.706 41.7025 56.5069 41.7098C56.2304 41.7218 55.9532 41.7098 55.6619 41.7098V40.1053C55.9777 40.1053 56.2885 40.0779 56.593 40.1116C57.0033 40.1573 57.2896 40.5336 57.2714 40.9508Z" fill="url(#paint3_linear_3340_1500)"/>
<circle cx="42.75" cy="42.75" r="40.5" stroke="url(#paint4_linear_3340_1500)" stroke-width="3.5"/>
<defs>
<linearGradient id="paint0_linear_3340_1500" x1="22" y1="28.9623" x2="59.624" y2="29.6983" gradientUnits="userSpaceOnUse">
<stop stop-color="#42F8BF"/>
<stop offset="1" stop-color="#2FADC3"/>
</linearGradient>
<linearGradient id="paint1_linear_3340_1500" x1="47.5908" y1="39.8565" x2="51.9524" y2="39.9067" gradientUnits="userSpaceOnUse">
<stop stop-color="#42F8BF"/>
<stop offset="1" stop-color="#2FADC3"/>
</linearGradient>
<linearGradient id="paint2_linear_3340_1500" x1="41.1382" y1="39.8569" x2="45.4999" y2="39.9071" gradientUnits="userSpaceOnUse">
<stop stop-color="#42F8BF"/>
<stop offset="1" stop-color="#2FADC3"/>
</linearGradient>
<linearGradient id="paint3_linear_3340_1500" x1="54.0469" y1="39.8564" x2="58.4057" y2="39.9065" gradientUnits="userSpaceOnUse">
<stop stop-color="#42F8BF"/>
<stop offset="1" stop-color="#2FADC3"/>
</linearGradient>
<linearGradient id="paint4_linear_3340_1500" x1="42.75" y1="4" x2="42.75" y2="81.5" gradientUnits="userSpaceOnUse">
<stop stop-color="#38E4AE"/>
<stop offset="1" stop-color="#0798AD"/>
</linearGradient>
</defs>
</svg>
