<svg width="85" height="85" viewBox="0 0 85 85" fill="none" xmlns="http://www.w3.org/2000/svg">
<circle cx="42.75" cy="42.75" r="40.5" stroke="url(#paint0_linear_3351_1498)" stroke-width="3.5"/>
<path d="M26.9476 26.5768C25.4188 26.2194 25.1096 25.8195 25.1068 24.2651C25.1068 23.7886 25.1068 23.3092 25.1068 22.8327C25.1068 21.6782 25.745 21.023 26.9108 21.0088C28.5531 20.989 30.1926 21.0088 31.8349 21.0088C33.4772 21.0088 35.1933 21.0088 36.8725 21.0088C38.2113 21.0088 38.8268 21.6442 38.8325 22.9802C38.8325 23.4198 38.8325 23.8595 38.8325 24.2963C38.8325 25.794 38.4893 26.2336 36.9859 26.5797V27.1696C36.9859 31.1946 36.9859 35.2224 36.9859 39.2473C36.965 40.0748 37.2464 40.8815 37.7773 41.5165C41.4004 46.0227 45.0112 50.5375 48.6098 55.0607C50.5641 57.5086 50.3117 60.7138 48.0425 62.705C47.0859 63.5474 45.8509 64.0052 44.5763 63.9899C36.1804 63.9899 27.7816 64.0126 19.3856 63.9899C17.1703 63.9899 15.511 62.9206 14.5636 60.9038C13.6162 58.8871 13.8715 56.9328 15.267 55.1713C18.892 50.6178 22.5256 46.0729 26.1676 41.5364C26.6997 40.9078 26.9859 40.1077 26.9732 39.2842C26.9533 35.2366 26.9732 31.1918 26.9732 27.1469L26.9476 26.5768ZM31.9228 62.376C36.083 62.376 40.2431 62.376 44.4033 62.376C46.0173 62.376 47.2398 61.6697 47.9375 60.1947C48.6353 58.7197 48.4112 57.3753 47.4156 56.1272C45.1918 53.3399 42.9614 50.5564 40.7244 47.7766C40.5471 47.5723 40.2964 47.4459 40.0266 47.4249C34.6619 47.4041 29.2991 47.4041 23.9381 47.4249C23.8039 47.4308 23.6722 47.4632 23.5505 47.5202C23.4288 47.5771 23.3196 47.6575 23.229 47.7568C20.9598 50.5734 18.6907 53.407 16.4215 56.2407C15.91 56.8668 15.6207 57.6449 15.5989 58.4531C15.5809 58.9703 15.669 59.4858 15.8578 59.9676C16.0467 60.4495 16.3322 60.8876 16.6968 61.2549C17.0614 61.6222 17.4974 61.9109 17.9779 62.1032C18.4584 62.2955 18.9732 62.3874 19.4905 62.3731C23.6403 62.3845 27.7816 62.376 31.9228 62.376ZM28.5502 26.5428V27.2434C28.5502 31.2485 28.5502 35.2536 28.5502 39.2587C28.556 39.602 28.5361 39.9452 28.4907 40.2855C28.3418 41.1154 27.9646 41.8874 27.4015 42.515C26.5505 43.573 25.6996 44.6423 24.8004 45.7656H39.136C38.251 44.6565 37.4483 43.5957 36.5831 42.5859C35.7566 41.6224 35.3241 40.3825 35.372 39.114C35.406 35.143 35.372 31.1719 35.372 27.2008V26.5428H28.5502ZM26.7519 22.6313V24.8551H37.1873V22.6313H26.7519Z" fill="url(#paint1_linear_3351_1498)"/>
<path d="M51.1286 28.5086C51.4548 28.7015 51.781 28.8802 52.093 29.0759C52.7965 29.5354 53.9453 29.0759 54.1041 28.2533C54.1438 28.0491 54.1778 27.842 54.2289 27.6378C54.2554 27.4456 54.3521 27.2701 54.5003 27.1449C54.6485 27.0198 54.8377 26.9539 55.0316 26.9599C56.0613 26.9599 57.0937 26.9599 58.1234 26.9599C58.3071 26.9539 58.4868 27.0146 58.6292 27.1309C58.7716 27.2472 58.867 27.4112 58.8977 27.5924C58.9304 27.6837 58.9496 27.7792 58.9545 27.8761C58.9176 28.883 59.692 29.0787 60.4067 29.3085C60.567 29.3246 60.7278 29.2834 60.8606 29.1922C61.1102 29.0532 61.3343 28.8745 61.5782 28.7242C61.7356 28.6107 61.9291 28.5591 62.122 28.5789C62.315 28.5988 62.4939 28.6888 62.6249 28.832C63.3453 29.5411 64.0601 30.2559 64.7692 30.9763C64.9095 31.1097 64.9972 31.289 65.0165 31.4816C65.0357 31.6742 64.9852 31.8673 64.8742 32.0258C64.826 32.1081 64.7721 32.1847 64.7182 32.2641C64.2275 33.0101 64.219 33.6086 64.7551 34.3063C64.9224 34.4501 65.1309 34.5374 65.3507 34.556C66.5732 34.7914 66.664 34.8907 66.664 36.1189C66.664 36.8753 66.664 37.6383 66.664 38.4079C66.6757 38.5269 66.6636 38.647 66.6285 38.7613C66.5933 38.8756 66.5358 38.9817 66.4593 39.0736C66.3827 39.1654 66.2887 39.2411 66.1826 39.2963C66.0766 39.3515 65.9606 39.385 65.8414 39.395C65.3365 39.4999 64.7919 39.4545 64.5253 40.158C64.2785 40.8075 64.2927 41.2671 64.7182 41.8088C65.1862 42.4045 65.1266 42.725 64.6047 43.2526C63.9864 43.8738 63.3652 44.4978 62.7383 45.1105C62.2788 45.5615 61.8874 45.6551 61.4392 45.2154C60.7017 44.512 60.021 44.807 59.3431 45.1956C59.1696 45.3556 59.0607 45.5735 59.0367 45.8083C58.7843 47.0478 58.7134 47.1187 57.4767 47.1187C56.7335 47.1187 55.9875 47.1187 55.2444 47.1187C54.5579 47.1187 54.2488 46.9145 54.2232 46.2337C54.1835 45.2466 53.5311 44.9772 52.7851 44.7616C52.6252 44.7346 52.4609 44.7636 52.32 44.8439C52.0533 44.9885 51.8264 45.258 51.5484 45.3175C51.2705 45.3771 50.7712 45.4111 50.5642 45.2325C49.787 44.5602 49.0835 43.8142 48.3631 43.0682C48.2224 42.935 48.1357 42.7547 48.1195 42.5617C48.1033 42.3686 48.1587 42.1764 48.2751 42.0216C48.3262 41.9393 48.3801 41.8627 48.434 41.7833C48.9247 41.0401 48.9332 40.4445 48.3858 39.7495C48.2022 39.5963 47.9748 39.5049 47.7362 39.4886C46.5789 39.2588 46.4995 39.1737 46.4995 37.9909C46.4995 37.2279 46.4995 36.4649 46.4995 35.7019C46.4995 34.9928 46.6725 34.7035 47.3675 34.6864C48.4085 34.6609 48.6042 33.9178 48.8566 33.1859C48.8764 33.0443 48.8419 32.9005 48.7602 32.7832C48.6212 32.5336 48.4453 32.3066 48.2893 32.0655C48.1621 31.906 48.1004 31.7041 48.1167 31.5007C48.133 31.2973 48.2262 31.1078 48.3773 30.9707C49.0845 30.2502 49.8002 29.5373 50.5245 28.832C50.7124 28.7007 50.9152 28.5921 51.1286 28.5086ZM49.9714 31.6883C50.056 31.8401 50.1508 31.986 50.255 32.1251C50.689 32.6186 50.7003 33.1264 50.4082 33.705C50.1415 34.2298 49.9884 34.8141 49.7019 35.3246C49.5377 35.6101 49.2803 35.8305 48.9729 35.9487C48.122 36.2323 48.0964 36.1983 48.0964 37.0833C48.1035 37.1966 48.1035 37.3103 48.0964 37.4236C48.0482 37.8037 48.1901 37.9909 48.5872 38.0079C48.8861 38.0039 49.1769 38.1051 49.4087 38.2938C49.6405 38.4826 49.7985 38.7469 49.8551 39.0404C49.9227 39.2794 50.0179 39.5098 50.1387 39.7269C50.6237 40.6402 50.9187 41.5394 49.9799 42.2939L51.2336 43.6128C51.373 43.5367 51.5067 43.4504 51.6335 43.3547C52.1413 42.9009 52.666 42.8895 53.2617 43.1959C53.7694 43.454 54.3395 43.593 54.8302 43.8766C55.1314 44.0504 55.3645 44.3215 55.4911 44.6453C55.7748 45.4962 55.7351 45.5104 56.6399 45.5104C56.7154 45.5047 56.7913 45.5047 56.8668 45.5104C57.3065 45.5757 57.5447 45.4282 57.5646 44.9431C57.5622 44.6635 57.6572 44.3918 57.8331 44.1745C58.009 43.9571 58.255 43.8077 58.529 43.7518C58.7867 43.6795 59.0358 43.5796 59.2722 43.454C60.1855 42.9661 61.0818 42.6711 61.8108 43.5674L63.1695 42.3648C63.0782 42.2044 62.9768 42.05 62.866 41.9024C62.682 41.7073 62.5665 41.4576 62.5368 41.191C62.5071 40.9245 62.5649 40.6555 62.7015 40.4246C62.9851 39.8573 63.1581 39.2475 63.4531 38.6972C63.6066 38.4247 63.8519 38.2156 64.1452 38.1072C65.0501 37.8236 65.0586 37.8519 65.0586 36.8847C65.0515 36.8083 65.0515 36.7314 65.0586 36.6549C65.1238 36.2493 64.9565 36.0508 64.5452 36.0338C64.2457 36.0383 63.9543 35.9369 63.7223 35.7475C63.4903 35.558 63.3327 35.2928 63.2773 34.9984C63.2191 34.8173 63.147 34.6409 63.0617 34.4709C62.6277 33.5206 62.0944 32.5704 63.2092 31.6996C62.7412 31.2458 62.3356 30.8487 61.9129 30.4346C61.7833 30.5026 61.6591 30.5803 61.5413 30.6672C61.3236 30.8839 61.0383 31.0195 60.7328 31.0515C60.4273 31.0835 60.12 31.0099 59.8621 30.843C59.3601 30.5792 58.7928 30.4346 58.2907 30.1651C58.0117 30.0211 57.7905 29.7859 57.6639 29.4985C57.3434 28.5511 57.3802 28.5426 56.3619 28.5426C56.2675 28.5496 56.1727 28.5496 56.0783 28.5426C55.7578 28.5001 55.6074 28.6674 55.5989 28.9596C55.5791 29.7453 55.1394 30.1623 54.4161 30.3608C54.1583 30.4301 53.9112 30.5341 53.6815 30.67C52.8305 31.1834 52.0363 31.1806 51.2932 30.4714C51.2756 30.4597 51.2545 30.4547 51.2336 30.4573L49.9714 31.6883Z" fill="url(#paint2_linear_3351_1498)"/>
<path d="M50.0197 50.7177C50.136 50.9815 50.2211 51.129 50.2694 51.285C50.339 51.4558 50.3424 51.6464 50.2789 51.8195C50.2155 51.9926 50.0897 52.1358 49.9261 52.2211C49.5517 52.4366 49.1291 52.4083 48.9135 52.031C48.3094 50.973 47.7279 49.898 47.2116 48.7946C46.9734 48.284 47.3733 47.8047 48.0144 47.7678C49.0809 47.7054 50.1502 47.6685 51.2196 47.6458C51.3298 47.6341 51.4412 47.6451 51.547 47.6781C51.6528 47.7111 51.7507 47.7654 51.8347 47.8377C51.9186 47.91 51.9869 47.9987 52.0353 48.0984C52.0837 48.1981 52.1111 48.3066 52.1159 48.4173C52.1329 48.8598 51.8096 49.1747 51.265 49.2399L51.004 49.2711L50.9615 49.4385C51.8379 49.7221 52.6974 50.0512 53.588 50.244C55.4031 50.6582 57.2841 50.6928 59.1131 50.3457C60.9421 49.9985 62.6796 49.2771 64.2167 48.2266C65.7537 47.1762 67.057 45.8195 68.0449 44.2415C69.0328 42.6636 69.6839 40.8985 69.9573 39.057C70.5615 35.2107 69.5744 31.7219 67.2003 28.6301C67.074 28.4875 66.9636 28.3315 66.8712 28.1649C66.6954 27.7905 66.7493 27.3906 67.1095 27.2175C67.4172 27.1277 67.7433 27.1218 68.054 27.2005C68.1703 27.2175 68.2696 27.4019 68.3661 27.521C75.4573 36.2347 70.6948 49.6115 59.6836 51.8637C56.4232 52.5386 53.0319 52.1365 50.0197 50.7177Z" fill="url(#paint3_linear_3351_1498)"/>
<path d="M63.1182 23.3546C63.0132 23.1079 62.9508 22.9717 62.8969 22.8356C62.8501 22.7458 62.8223 22.6473 62.8154 22.5462C62.8084 22.4452 62.8224 22.3438 62.8565 22.2485C62.8906 22.1531 62.9441 22.0659 63.0135 21.9921C63.0829 21.9184 63.1668 21.8599 63.26 21.8201C63.3452 21.7647 63.4412 21.7279 63.5416 21.7122C63.642 21.6966 63.7446 21.7023 63.8427 21.7291C63.9407 21.7559 64.032 21.8031 64.1105 21.8677C64.189 21.9323 64.2529 22.0127 64.2981 22.1038C64.8512 23.105 65.3902 24.1148 65.8951 25.1388C65.9614 25.2525 65.9968 25.3815 65.9979 25.5131C65.9989 25.6446 65.9655 25.7742 65.901 25.8889C65.8365 26.0036 65.7431 26.0994 65.6301 26.1669C65.5171 26.2343 65.3884 26.271 65.2569 26.2734C64.1223 26.3556 62.9707 26.3897 61.8276 26.4039C61.726 26.4114 61.6239 26.3976 61.5279 26.3633C61.432 26.329 61.3443 26.2749 61.2705 26.2046C61.1968 26.1343 61.1386 26.0494 61.0997 25.9552C61.0608 25.861 61.042 25.7597 61.0447 25.6579C61.0349 25.5529 61.0469 25.4471 61.0799 25.347C61.1129 25.2469 61.1663 25.1547 61.2366 25.0761C61.3068 24.9976 61.3926 24.9344 61.4884 24.8905C61.5843 24.8466 61.6881 24.823 61.7935 24.8211C61.9183 24.8041 62.046 24.8041 62.1708 24.7956L62.2162 24.5999C61.1326 24.2935 60.0633 23.8879 58.9599 23.6979C51.256 22.3846 44.2102 27.5101 43.138 35.2451C42.619 38.9893 43.6032 42.3845 45.9036 45.394C46.0165 45.5225 46.1198 45.659 46.2128 45.8025C46.325 45.9615 46.372 46.1575 46.344 46.3501C46.3161 46.5427 46.2153 46.7173 46.0624 46.8378C45.9909 46.9101 45.9049 46.9665 45.8101 47.0032C45.7153 47.0398 45.6138 47.056 45.5122 47.0507C45.4107 47.0453 45.3114 47.0185 45.221 46.9721C45.1305 46.9256 45.0509 46.8605 44.9874 46.7811C44.6773 46.4435 44.3929 46.0832 44.1365 45.7032C37.6126 36.3797 43.3933 23.3972 54.6882 21.9846C57.5713 21.6293 60.4959 22.1046 63.1182 23.3546Z" fill="url(#paint4_linear_3351_1498)"/>
<path d="M33.8091 54.2807C33.192 54.2774 32.5898 54.0911 32.0786 53.7454C31.5674 53.3998 31.1701 52.9103 30.9371 52.3389C30.7041 51.7675 30.6457 51.1398 30.7694 50.5353C30.8931 49.9307 31.1933 49.3764 31.632 48.9424C32.0707 48.5084 32.6283 48.2143 33.2342 48.0972C33.8401 47.9801 34.4671 48.0453 35.0359 48.2846C35.6047 48.5238 36.0898 48.9264 36.4299 49.4413C36.7699 49.9563 36.9496 50.5605 36.9463 51.1776C36.947 51.5882 36.8662 51.9949 36.7084 52.3739C36.5506 52.753 36.319 53.0969 36.0271 53.3857C35.7351 53.6744 35.3887 53.9023 35.008 54.0559C34.6272 54.2096 34.2197 54.286 33.8091 54.2807ZM33.8091 52.6753C34.108 52.6791 34.4014 52.5944 34.6523 52.4319C34.9032 52.2693 35.1003 52.0361 35.2189 51.7617C35.3376 51.4873 35.3723 51.1839 35.3188 50.8898C35.2654 50.5956 35.126 50.3239 34.9184 50.1088C34.7108 49.8937 34.4442 49.7449 34.1521 49.681C33.8601 49.6172 33.5557 49.6411 33.2772 49.75C32.9988 49.8588 32.7588 50.0476 32.5874 50.2925C32.4161 50.5375 32.321 50.8277 32.3143 51.1266C32.3067 51.3272 32.3396 51.5273 32.4112 51.715C32.4827 51.9026 32.5914 52.0738 32.7307 52.2184C32.87 52.363 33.0371 52.478 33.2219 52.5565C33.4067 52.635 33.6055 52.6754 33.8063 52.6753H33.8091Z" fill="url(#paint5_linear_3351_1498)"/>
<path d="M43.7794 57.4118C43.7824 57.7264 43.7232 58.0385 43.6053 58.3302C43.4873 58.6218 43.3129 58.8873 43.092 59.1113C42.8711 59.3353 42.6082 59.5135 42.3182 59.6356C42.0283 59.7577 41.7171 59.8214 41.4025 59.8228C40.7706 59.8292 40.162 59.5843 39.7106 59.142C39.2593 58.6997 39.0021 58.0962 38.9957 57.4643C38.9893 56.8324 39.2342 56.2238 39.6765 55.7725C40.1189 55.3211 40.7223 55.064 41.3543 55.0576C41.6684 55.0516 41.9807 55.1078 42.273 55.2231C42.5653 55.3384 42.8319 55.5105 43.0574 55.7294C43.2829 55.9483 43.4628 56.2096 43.5867 56.4984C43.7106 56.7872 43.7761 57.0976 43.7794 57.4118ZM41.4082 56.663C41.299 56.6462 41.1875 56.653 41.0812 56.6828C40.9748 56.7126 40.8761 56.7649 40.7916 56.836C40.7072 56.9071 40.6389 56.9955 40.5914 57.0952C40.5438 57.1949 40.5182 57.3036 40.5162 57.4141C40.5141 57.5245 40.5357 57.6341 40.5795 57.7354C40.6233 57.8368 40.6883 57.9277 40.7701 58.0019C40.8519 58.0761 40.9486 58.1319 41.0538 58.1657C41.1589 58.1994 41.2701 58.2103 41.3798 58.1975C41.4849 58.2057 41.5905 58.1923 41.6903 58.1581C41.79 58.124 41.8817 58.0699 41.9598 57.9991C42.0379 57.9282 42.1007 57.8422 42.1443 57.7463C42.188 57.6504 42.2116 57.5465 42.2137 57.4411C42.2159 57.3357 42.1965 57.231 42.1567 57.1334C42.1169 57.0358 42.0577 56.9473 41.9825 56.8734C41.9074 56.7995 41.8179 56.7417 41.7196 56.7036C41.6213 56.6654 41.5163 56.6478 41.411 56.6517L41.4082 56.663Z" fill="url(#paint6_linear_3351_1498)"/>
<path d="M26.5876 56.0055C26.494 56.6125 26.7039 57.4379 25.7707 57.4606C24.7808 57.4861 25.0106 56.6096 24.9028 55.9969C24.2759 55.9459 23.4845 56.0962 23.4221 55.146C23.3767 54.6156 23.7455 54.4255 24.9028 54.3206C25.0332 53.7363 24.7468 52.8229 25.8246 52.8456C26.3409 52.8456 26.5054 53.1945 26.582 54.3064C27.1493 54.4454 28.1505 54.1731 28.0456 55.2566C27.9633 56.1104 27.1691 55.9289 26.5876 56.0055Z" fill="url(#paint7_linear_3351_1498)"/>
<path d="M29.5377 37.92C29.5332 37.4364 29.6724 36.9623 29.9376 36.5579C30.2029 36.1535 30.5822 35.837 31.0275 35.6484C31.4729 35.4598 31.9642 35.4077 32.4392 35.4987C32.9142 35.5896 33.3514 35.8196 33.6956 36.1594C34.0398 36.4991 34.2753 36.9334 34.3723 37.4072C34.4694 37.881 34.4236 38.3729 34.2407 38.8207C34.0579 39.2684 33.7462 39.6517 33.3452 39.9221C32.9443 40.1925 32.472 40.3378 31.9884 40.3395C31.6679 40.3444 31.3495 40.2854 31.052 40.1659C30.7545 40.0464 30.4838 39.8689 30.2557 39.6437C30.0275 39.4184 29.8465 39.15 29.7233 38.854C29.6 38.5581 29.5369 38.2406 29.5377 37.92ZM32.8082 37.8803C32.7958 37.6686 32.703 37.4697 32.5487 37.3242C32.3945 37.1787 32.1905 37.0977 31.9785 37.0977C31.7665 37.0977 31.5625 37.1787 31.4082 37.3242C31.254 37.4697 31.1612 37.6686 31.1488 37.8803C31.1422 37.9933 31.1588 38.1065 31.1975 38.2129C31.2362 38.3193 31.2962 38.4167 31.3739 38.499C31.4516 38.5814 31.5453 38.647 31.6493 38.6919C31.7532 38.7367 31.8653 38.7599 31.9785 38.7599C32.0917 38.7599 32.2037 38.7367 32.3077 38.6919C32.4117 38.647 32.5054 38.5814 32.5831 38.499C32.6608 38.4167 32.7208 38.3193 32.7595 38.2129C32.7982 38.1065 32.8148 37.9933 32.8082 37.8803Z" fill="url(#paint8_linear_3351_1498)"/>
<path d="M62.1201 37.0464C62.1173 38.1449 61.789 39.218 61.1766 40.13C60.5642 41.0419 59.6952 41.7519 58.6794 42.1702C57.6637 42.5886 56.5467 42.6964 55.4697 42.4802C54.3927 42.2639 53.4039 41.7333 52.6283 40.9554C51.8528 40.1774 51.3252 39.187 51.1122 38.1093C50.8993 37.0317 51.0106 35.915 51.432 34.9006C51.8534 33.8861 52.5661 33.0193 53.4799 32.4097C54.3938 31.8001 55.4678 31.475 56.5663 31.4756C57.2973 31.4748 58.0212 31.6185 58.6965 31.8984C59.3718 32.1783 59.9851 32.5889 60.5012 33.1066C61.0173 33.6243 61.426 34.2388 61.7038 34.915C61.9816 35.5911 62.1231 36.3154 62.1201 37.0464ZM56.6259 40.9834C57.657 40.9473 58.6332 40.5094 59.346 39.7635C60.0588 39.0175 60.4517 38.0224 60.441 36.9907C60.4303 35.959 60.0167 34.9723 59.2885 34.2413C58.5603 33.5103 57.5753 33.0929 56.5436 33.0782C56.0162 33.0707 55.4926 33.1687 55.0037 33.3666C54.5147 33.5645 54.0704 33.8582 53.6967 34.2305C53.323 34.6027 53.0275 35.046 52.8277 35.5342C52.628 36.0223 52.5279 36.5455 52.5333 37.073C52.5388 37.6004 52.6498 38.1214 52.8597 38.6053C53.0696 39.0892 53.3742 39.5262 53.7556 39.8906C54.1369 40.255 54.5873 40.5394 55.0803 40.7271C55.5732 40.9148 56.0987 41.0019 56.6259 40.9834Z" fill="url(#paint9_linear_3351_1498)"/>
<defs>
<linearGradient id="paint0_linear_3351_1498" x1="42.75" y1="4" x2="42.75" y2="81.5" gradientUnits="userSpaceOnUse">
<stop stop-color="#38E4AE"/>
<stop offset="1" stop-color="#0798AD"/>
</linearGradient>
<linearGradient id="paint1_linear_3351_1498" x1="14" y1="28.3019" x2="46.3986" y2="28.8222" gradientUnits="userSpaceOnUse">
<stop stop-color="#42F8BF"/>
<stop offset="1" stop-color="#2FADC3"/>
</linearGradient>
<linearGradient id="paint2_linear_3351_1498" x1="46.4995" y1="30.3827" x2="64.6866" y2="30.7325" gradientUnits="userSpaceOnUse">
<stop stop-color="#42F8BF"/>
<stop offset="1" stop-color="#2FADC3"/>
</linearGradient>
<linearGradient id="paint3_linear_3351_1498" x1="47.1421" y1="31.4265" x2="69.3021" y2="31.8417" gradientUnits="userSpaceOnUse">
<stop stop-color="#42F8BF"/>
<stop offset="1" stop-color="#2FADC3"/>
</linearGradient>
<linearGradient id="paint4_linear_3351_1498" x1="41.3994" y1="26.008" x2="63.5814" y2="26.4218" gradientUnits="userSpaceOnUse">
<stop stop-color="#42F8BF"/>
<stop offset="1" stop-color="#2FADC3"/>
</linearGradient>
<linearGradient id="paint5_linear_3351_1498" x1="30.7061" y1="49.1002" x2="36.3331" y2="49.2084" gradientUnits="userSpaceOnUse">
<stop stop-color="#42F8BF"/>
<stop offset="1" stop-color="#2FADC3"/>
</linearGradient>
<linearGradient id="paint6_linear_3351_1498" x1="38.9956" y1="55.8664" x2="43.3095" y2="55.9497" gradientUnits="userSpaceOnUse">
<stop stop-color="#42F8BF"/>
<stop offset="1" stop-color="#2FADC3"/>
</linearGradient>
<linearGradient id="paint7_linear_3351_1498" x1="23.4185" y1="53.629" x2="27.5978" y2="53.7097" gradientUnits="userSpaceOnUse">
<stop stop-color="#42F8BF"/>
<stop offset="1" stop-color="#2FADC3"/>
</linearGradient>
<linearGradient id="paint8_linear_3351_1498" x1="29.5376" y1="36.2846" x2="33.9421" y2="36.3692" gradientUnits="userSpaceOnUse">
<stop stop-color="#42F8BF"/>
<stop offset="1" stop-color="#2FADC3"/>
</linearGradient>
<linearGradient id="paint9_linear_3351_1498" x1="51.0068" y1="33.3628" x2="61.0282" y2="33.5554" gradientUnits="userSpaceOnUse">
<stop stop-color="#42F8BF"/>
<stop offset="1" stop-color="#2FADC3"/>
</linearGradient>
</defs>
</svg>
