<svg width="55" height="55" viewBox="0 0 55 55" fill="none" xmlns="http://www.w3.org/2000/svg">
<path d="M27.4997 26.3541C25.9802 26.3541 24.523 25.7505 23.4485 24.676C22.3741 23.6016 21.7705 22.1444 21.7705 20.6249C21.7705 19.1054 22.3741 17.6482 23.4485 16.5738C24.523 15.4994 25.9802 14.8957 27.4997 14.8957C29.0192 14.8957 30.4764 15.4994 31.5508 16.5738C32.6252 17.6482 33.2289 19.1054 33.2289 20.6249C33.2289 21.3773 33.0807 22.1223 32.7927 22.8174C32.5048 23.5125 32.0828 24.144 31.5508 24.676C31.0188 25.208 30.3872 25.6301 29.6921 25.918C28.997 26.2059 28.252 26.3541 27.4997 26.3541ZM27.4997 4.58325C23.2452 4.58325 19.1649 6.27335 16.1565 9.28175C13.1481 12.2901 11.458 16.3704 11.458 20.6249C11.458 32.6562 27.4997 50.4166 27.4997 50.4166C27.4997 50.4166 43.5414 32.6562 43.5414 20.6249C43.5414 16.3704 41.8513 12.2901 38.8429 9.28175C35.8345 6.27335 31.7542 4.58325 27.4997 4.58325Z" fill="white"/>
</svg>
