<svg width="85" height="85" viewBox="0 0 85 85" fill="none" xmlns="http://www.w3.org/2000/svg">
<circle cx="42.75" cy="42.75" r="40.5" stroke="url(#paint0_linear_3351_1502)" stroke-width="3.5"/>
<path d="M43.7159 16C43.7444 16.0203 43.7687 16.0528 43.7971 16.0568C46.4437 16.4871 47.3976 18.7805 47.1216 21.0577C46.9984 22.3937 46.3974 23.6404 45.4289 24.5689C45.3845 24.6215 45.3438 24.6771 45.3071 24.7353C46.2045 24.8886 47.0912 25.0988 47.9619 25.3645C48.7435 25.663 49.4777 26.0732 50.1416 26.5823C50.5074 26.871 50.7996 27.2421 50.9943 27.6655C51.189 28.0888 51.2808 28.5522 51.262 29.0178C51.262 31.2233 51.262 33.4261 51.262 35.6261C51.262 36.2512 50.9413 36.6125 50.4217 36.6125C49.9021 36.6125 49.5896 36.2594 49.5855 35.6302C49.5855 33.5316 49.5855 31.433 49.5855 29.3344C49.6118 28.9307 49.5169 28.5284 49.3129 28.1791C49.109 27.8297 48.8053 27.5493 48.4408 27.3738C47.3286 26.7609 46.0906 26.5904 44.8647 26.4361C42.7766 26.1673 40.6555 26.3317 38.6338 26.9192C38.2471 27.0302 37.873 27.1812 37.5176 27.3698C37.1521 27.5421 36.8464 27.8196 36.6396 28.1667C36.4327 28.5138 36.3342 28.9147 36.3566 29.3182C36.3851 31.3965 36.3566 33.4788 36.3566 35.5612C36.3566 36.2431 36.0684 36.6044 35.5448 36.6125C35.0212 36.6206 34.6883 36.2431 34.6883 35.5409C34.6883 33.4748 34.6883 31.4127 34.6883 29.3466C34.6564 28.6434 34.8283 27.946 35.1833 27.3383C35.5383 26.7305 36.0614 26.2382 36.6895 25.9206C37.818 25.2712 39.0763 25.0439 40.3428 24.8328L40.704 24.7759L40.3915 24.4309C39.6796 23.6905 39.1791 22.7728 38.9421 21.7734C38.7051 20.774 38.7402 19.7293 39.0438 18.7481C39.4497 17.3314 40.4483 16.4912 41.8852 16.138C42.0151 16.1055 42.145 16.0609 42.2912 16.0203L43.7159 16ZM42.9812 17.6805C41.731 17.6805 40.8867 18.2123 40.6147 19.2595C40.4342 19.8927 40.4059 20.5596 40.5322 21.2057C40.6585 21.8519 40.9357 22.4591 41.3413 22.9777C42.2587 24.1955 43.6794 24.1955 44.6171 22.9777C44.9619 22.5355 45.214 22.0282 45.3584 21.4863C45.5027 20.9444 45.5364 20.379 45.4573 19.8238C45.2665 18.3787 44.4547 17.6805 42.9812 17.6805Z" fill="url(#paint1_linear_3351_1502)"/>
<path d="M57.0951 58.3697C57.2128 60.6916 55.6744 62.1732 53.4419 62.1407C53.1253 64.357 52.4717 65.0998 50.365 65.6153C50.5111 67.1984 49.9591 68.4243 48.4653 69.1225C46.9715 69.8206 45.7172 69.1874 44.4792 68.3796C43.6349 69.3823 42.6079 69.91 41.3212 69.7151C40.7389 69.6354 40.1896 69.3977 39.733 69.0277C39.2765 68.6577 38.93 68.1696 38.7314 67.6165C36.7546 68.2497 35.277 67.6165 34.3312 65.9604C31.8957 67.1213 29.2329 65.5098 29.4359 62.5466C29.0665 62.4695 28.6849 62.4248 28.3237 62.3112C27.888 62.1752 27.4862 61.9483 27.1448 61.6454C26.8034 61.3426 26.5302 60.9706 26.3434 60.5543C26.1565 60.1379 26.0601 59.6866 26.0607 59.2303C26.0613 58.7739 26.1589 58.3228 26.3468 57.907C26.3573 57.8935 26.3655 57.8784 26.3712 57.8623C26.6432 57.221 27.0816 56.5918 27.1384 55.9301C27.1952 55.2685 26.8664 54.5744 26.7122 53.9006C26.6688 53.6867 26.5714 53.4876 26.4293 53.322C26.2872 53.1565 26.1051 53.03 25.9003 52.9548C24.1711 52.2079 22.45 51.4326 20.7289 50.6613C19.9739 50.3244 19.8319 49.951 20.181 49.2081C22.0346 45.2545 23.8924 41.3009 25.7542 37.3472C26.0789 36.6653 26.4686 36.5151 27.1465 36.8276C28.9082 37.6395 30.682 38.4229 32.4234 39.2632C33.2808 39.6706 34.2511 39.7751 35.1756 39.5595C36.4786 39.3159 37.7815 39.0318 39.0967 38.8897C40.4152 38.7925 41.7329 39.0877 42.8839 39.7381C42.9846 39.7841 43.0939 39.8079 43.2046 39.8079C43.3153 39.8079 43.4247 39.7841 43.5253 39.7381C44.6011 39.0882 45.814 38.6987 47.067 38.6008C48.3201 38.5028 49.5787 38.6991 50.7425 39.1739C51.6233 39.5067 52.5001 39.8517 53.3891 40.1724C53.7971 40.3306 54.2362 40.3923 54.672 40.3529C55.1078 40.3135 55.5287 40.1739 55.9017 39.9451C57.083 39.2632 58.3007 38.6502 59.5022 38.0089C60.2572 37.603 60.72 37.7734 61.0163 38.5731C62.64 42.727 64.2488 46.8809 65.8427 51.0348C66.1268 51.7654 65.9725 52.1105 65.2257 52.4311C63.6669 53.0968 62.1082 53.7544 60.5576 54.4364C60.4761 54.4754 60.4043 54.5321 60.3475 54.6023C60.2906 54.6725 60.2501 54.7545 60.2288 54.8423C60.1476 56.9449 59.1856 58.045 57.0951 58.3697ZM21.967 49.3218C22.0067 49.3628 22.0518 49.3983 22.1009 49.4273C23.6312 50.1133 25.1534 50.8074 26.6959 51.4569C27.0517 51.5989 27.3714 51.8183 27.6318 52.0991C27.8923 52.3799 28.087 52.7152 28.2019 53.0806C28.3034 53.3931 28.3927 53.7057 28.5023 54.067C28.9353 53.6305 29.4833 53.326 30.0826 53.1887C30.6819 53.0515 31.3078 53.0872 31.8876 53.2917C33.1663 53.7219 33.8239 54.7083 34.0836 56.0113C34.9067 55.8471 35.7614 56.003 36.4734 56.4473C37.1855 56.8915 37.7012 57.5907 37.9155 58.4022C38.3424 58.2543 38.7953 58.1961 39.2457 58.2314C39.6962 58.2667 40.1345 58.3947 40.5331 58.6074C40.9318 58.8201 41.2822 59.1128 41.5624 59.4673C41.8426 59.8217 42.0465 60.2302 42.1614 60.6672C42.7783 60.4587 43.4429 60.4365 44.0724 60.6033C44.7018 60.77 45.2682 61.1183 45.701 61.6049C45.8061 61.6967 45.9236 61.7733 46.0501 61.8322C47.1055 62.4167 48.1609 62.9985 49.2163 63.5776C50.1336 64.081 51.0469 63.878 51.5016 63.0824C51.9562 62.2868 51.6518 61.3573 50.7263 60.8336C49.4192 60.0922 48.1108 59.3547 46.8011 58.6214C46.4357 58.4144 46.0582 58.2155 45.7091 57.9922C45.5303 57.8785 45.403 57.6993 45.3544 57.493C45.3059 57.2867 45.34 57.0696 45.4493 56.8881C45.5477 56.7086 45.7103 56.5729 45.9045 56.5082C46.0987 56.4434 46.3102 56.4545 46.4966 56.539C46.6382 56.5998 46.7741 56.6731 46.9025 56.7582C48.8672 57.8582 50.8359 58.9624 52.8046 60.0543C53.0564 60.202 53.3306 60.3076 53.6164 60.3668C53.9655 60.4188 54.3218 60.3476 54.624 60.1654C54.9263 59.9831 55.1556 59.7013 55.2726 59.3683C55.4035 59.0201 55.4046 58.6364 55.2757 58.2875C55.1467 57.9386 54.8963 57.6478 54.5703 57.4686C53.243 56.6933 51.8953 55.9504 50.5598 55.1914C50.1539 54.9681 49.748 54.757 49.3786 54.5054C49.1859 54.4015 49.0424 54.2253 48.9796 54.0156C48.9168 53.8059 48.9399 53.5798 49.0437 53.3871C49.1476 53.1944 49.3238 53.0508 49.5335 52.988C49.7433 52.9252 49.9693 52.9483 50.162 53.0522C50.304 53.1123 50.4399 53.1856 50.568 53.2714C52.3621 54.2862 54.1576 55.2996 55.9545 56.3117C56.1781 56.4473 56.4221 56.546 56.677 56.604C57.0328 56.6716 57.401 56.6118 57.7172 56.4352C58.0333 56.2585 58.2773 55.9763 58.4062 55.6379C58.5429 55.2724 58.5398 54.8693 58.3975 54.5059C58.2551 54.1426 57.9836 53.8446 57.635 53.6692C54.895 52.0983 52.1511 50.5193 49.3868 48.9849C48.9425 48.7435 48.4431 48.6218 47.9376 48.6317C47.26 48.6619 46.5902 48.789 45.9486 49.0092C44.5238 49.4882 43.1478 50.1052 41.719 50.5558C38.4473 51.5949 35.9346 50.7791 34.039 48.1528C33.6331 47.5804 33.7142 47.1095 34.3028 46.7402C34.7778 46.4438 35.2649 46.1638 35.7398 45.8674C37.8816 44.4843 39.8494 42.8489 41.6012 40.9964C40.8609 40.6156 40.0273 40.4537 39.1982 40.5296C38.0413 40.6757 36.8926 40.9071 35.7479 41.1263C34.4733 41.3699 33.219 41.4795 31.9932 40.9071L27.7067 38.9344L27.0004 38.6177L21.967 49.3218ZM35.9306 47.7631C36.6106 48.5849 37.5651 49.1328 38.6177 49.3056C39.8355 49.476 40.9721 49.1229 42.0924 48.717C43.3101 48.2745 44.4995 47.7712 45.7172 47.3531C46.5585 47.0282 47.4643 46.9052 48.3618 46.994C49.2592 47.0828 50.1233 47.381 50.8846 47.8646C53.3201 49.3583 55.853 50.706 58.3372 52.1429C58.6707 52.3308 58.98 52.5584 59.2587 52.8208C59.3293 52.9058 59.4287 52.9618 59.538 52.9783C59.6473 52.9948 59.7588 52.9705 59.8513 52.9101C60.6631 52.5529 61.475 52.2079 62.2868 51.8588L64.0404 51.1038L59.6646 39.8193C58.5442 40.42 57.4767 40.9802 56.4172 41.5566C55.987 41.8122 55.5096 41.9781 55.0136 42.0444C54.5176 42.1106 54.0134 42.0759 53.5312 41.9422C52.3581 41.6012 51.2256 41.1304 50.0728 40.7244C49.0293 40.3111 47.8975 40.1714 46.7848 40.3185C45.1379 40.6178 43.6237 41.4188 42.4496 42.612C40.4606 44.5198 38.3904 46.3383 35.9306 47.7631ZM36.3365 59.4007C36.366 59.0332 36.2695 58.6666 36.063 58.3611C35.8564 58.0557 35.552 57.8297 35.1999 57.7203C34.8497 57.6246 34.4771 57.6532 34.1456 57.8012C33.814 57.9492 33.544 58.2075 33.3814 58.5321C32.7116 59.7498 32.0622 60.9676 31.4086 62.2219C30.9337 63.123 31.1691 64.0647 31.9647 64.4869C32.7603 64.909 33.6777 64.6046 34.1689 63.6994C34.8183 62.506 35.457 61.3059 36.0848 60.0989C36.1862 59.8729 36.2703 59.6395 36.3365 59.4007ZM38.9993 59.9365C38.74 59.935 38.4847 60.0007 38.2585 60.1273C38.0322 60.254 37.8427 60.4372 37.7085 60.6591C37.0793 61.7632 36.4907 62.8876 35.9184 64.0323C35.7581 64.3873 35.7409 64.7903 35.8701 65.1577C35.9994 65.5251 36.2653 65.8286 36.6125 66.005C36.9422 66.1968 37.333 66.2545 37.704 66.1661C38.075 66.0777 38.3978 65.85 38.6056 65.5301C39.2713 64.3854 39.9207 63.2245 40.4687 62.023C40.5615 61.7859 40.5936 61.5295 40.5622 61.2768C40.5308 61.0242 40.4369 60.7834 40.289 60.5762C40.1411 60.3691 39.9438 60.2021 39.7151 60.0904C39.4863 59.9787 39.2333 59.9258 38.979 59.9365H38.9993ZM27.7148 59.1856C27.726 59.5242 27.8389 59.8516 28.0387 60.1253C28.2385 60.3989 28.516 60.6061 28.8351 60.72C29.1795 60.8307 29.5516 60.8188 29.8883 60.6864C30.225 60.554 30.5054 60.3091 30.682 59.9934C31.2016 59.0679 31.6969 58.1262 32.188 57.1804C32.3 56.9971 32.3731 56.7928 32.4028 56.5802C32.4326 56.3675 32.4182 56.151 32.3608 55.9441C32.3033 55.7372 32.2039 55.5443 32.0688 55.3774C31.9337 55.2105 31.7657 55.0731 31.5753 54.9739C31.3848 54.8746 31.1761 54.8156 30.9619 54.8004C30.7477 54.7852 30.5326 54.8142 30.3301 54.8856C30.1276 54.957 29.9419 55.0693 29.7846 55.2154C29.6272 55.3616 29.5017 55.5386 29.4156 55.7353C28.9285 56.6202 28.4536 57.5092 27.9867 58.4103C27.8717 58.6617 27.774 58.9208 27.6945 59.1856H27.7148ZM44.8608 63.8252C44.8589 63.4776 44.7455 63.1397 44.5373 62.8613C44.329 62.5829 44.0369 62.3787 43.7039 62.2787C43.3669 62.1745 43.0043 62.1899 42.6773 62.3223C42.3504 62.4547 42.0792 62.696 41.9097 63.0053C41.4145 63.8861 40.9437 64.7792 40.4768 65.6762C40.362 65.8586 40.286 66.0627 40.2536 66.2758C40.2212 66.4889 40.2331 66.7063 40.2886 66.9146C40.344 67.1229 40.4419 67.3175 40.576 67.4862C40.7101 67.6549 40.8775 67.7942 41.0679 67.8952C41.2583 67.9963 41.4674 68.057 41.6823 68.0735C41.8972 68.0901 42.1132 68.0621 42.3168 67.9914C42.5204 67.9206 42.7072 67.8087 42.8656 67.6624C43.0239 67.5162 43.1504 67.3389 43.2371 67.1416C43.6998 66.3013 44.1545 65.457 44.5929 64.6046C44.7009 64.3516 44.7904 64.0912 44.8608 63.8252ZM45.3113 66.9468C45.7172 67.17 46.1232 67.4095 46.5291 67.5962C46.8754 67.7522 47.267 67.776 47.6297 67.6631C47.9924 67.5502 48.3012 67.3083 48.4978 66.9833C48.6928 66.6677 48.7666 66.2921 48.7053 65.9262C48.6441 65.5603 48.4521 65.2292 48.1649 64.9943C47.6764 64.6631 47.1681 64.3621 46.6427 64.0931L45.3113 66.9468Z" fill="url(#paint2_linear_3351_1502)"/>
<path d="M39.7497 33.2149C39.7497 34.0267 39.7497 34.8385 39.7497 35.6788C39.7497 36.2511 39.4493 36.584 38.9663 36.6043C38.8472 36.615 38.7272 36.5993 38.6149 36.5583C38.5026 36.5173 38.4007 36.4521 38.3166 36.3671C38.2324 36.2822 38.1681 36.1797 38.1281 36.0671C38.0881 35.9544 38.0736 35.8343 38.0854 35.7153C38.0692 34.0186 38.0692 32.3218 38.0854 30.6251C38.0854 30.4044 38.1731 30.1928 38.3292 30.0367C38.4852 29.8806 38.6969 29.793 38.9175 29.793C39.1382 29.793 39.3499 29.8806 39.506 30.0367C39.662 30.1928 39.7497 30.4044 39.7497 30.6251C39.7578 31.4978 39.7497 32.3584 39.7497 33.2149Z" fill="url(#paint3_linear_3351_1502)"/>
<path d="M46.2082 33.1664C46.2082 32.3546 46.2082 31.5224 46.2082 30.7025C46.2082 30.1017 46.5208 29.7567 47.02 29.7486C47.1393 29.7444 47.258 29.7659 47.3682 29.8116C47.4784 29.8574 47.5775 29.9262 47.6587 30.0136C47.74 30.101 47.8015 30.2049 47.839 30.3181C47.8766 30.4314 47.8894 30.5514 47.8765 30.67C47.8765 32.3505 47.8765 34.031 47.8765 35.7074C47.8896 35.8267 47.876 35.9473 47.8368 36.0607C47.7977 36.1741 47.7339 36.2774 47.6501 36.3631C47.5662 36.4489 47.4644 36.515 47.352 36.5568C47.2395 36.5985 47.1192 36.6148 46.9997 36.6045C46.5126 36.6045 46.2163 36.2554 46.2082 35.6871C46.2001 34.8469 46.2082 34.0066 46.2082 33.1664Z" fill="url(#paint4_linear_3351_1502)"/>
<defs>
<linearGradient id="paint0_linear_3351_1502" x1="42.75" y1="4" x2="42.75" y2="81.5" gradientUnits="userSpaceOnUse">
<stop stop-color="#38E4AE"/>
<stop offset="1" stop-color="#0798AD"/>
</linearGradient>
<linearGradient id="paint1_linear_3351_1502" x1="34.6846" y1="19.5003" x2="49.6372" y2="19.7314" gradientUnits="userSpaceOnUse">
<stop stop-color="#42F8BF"/>
<stop offset="1" stop-color="#2FADC3"/>
</linearGradient>
<linearGradient id="paint2_linear_3351_1502" x1="20" y1="42.2898" x2="61.4442" y2="43.3969" gradientUnits="userSpaceOnUse">
<stop stop-color="#42F8BF"/>
<stop offset="1" stop-color="#2FADC3"/>
</linearGradient>
<linearGradient id="paint3_linear_3351_1502" x1="38.0732" y1="30.9502" x2="39.5887" y2="30.9573" gradientUnits="userSpaceOnUse">
<stop stop-color="#42F8BF"/>
<stop offset="1" stop-color="#2FADC3"/>
</linearGradient>
<linearGradient id="paint4_linear_3351_1502" x1="46.2046" y1="30.9129" x2="47.7171" y2="30.92" gradientUnits="userSpaceOnUse">
<stop stop-color="#42F8BF"/>
<stop offset="1" stop-color="#2FADC3"/>
</linearGradient>
</defs>
</svg>
