<svg width="85" height="85" viewBox="0 0 85 85" fill="none" xmlns="http://www.w3.org/2000/svg">
<circle cx="42.75" cy="42.75" r="40.5" stroke="url(#paint0_linear_3351_1500)" stroke-width="3.5"/>
<path d="M36.2356 42.1182C34.4875 42.3814 32.8012 42.5438 31.1603 42.9045C29.032 43.3724 26.9362 44.0093 24.8307 44.5551C24.3303 44.6851 24.1581 44.9288 24.1613 45.4682C24.1873 49.9424 24.1613 54.4199 24.1613 58.8942C24.1696 59.0775 24.163 59.2611 24.1418 59.4433C24.1328 59.545 24.1 59.6431 24.0459 59.7298C23.9919 59.8164 23.9183 59.8891 23.8309 59.9419C23.7436 59.9947 23.645 60.0263 23.5433 60.0339C23.4415 60.0416 23.3393 60.0251 23.245 59.986C20.6456 58.9202 18.1632 57.6562 16.3598 55.4012C15.4719 54.3103 14.9978 52.9409 15.0211 51.5346C15.0439 46.105 15.1023 40.6755 15.0016 35.246C14.9529 32.6693 16.0121 30.7717 17.9097 29.2121C20.0575 27.4477 22.5529 26.3397 25.1654 25.4916C31.339 23.4771 37.7271 22.8922 44.1931 23.0157C48.9177 23.0604 53.6177 23.7023 58.1812 24.9263C61.2193 25.7711 64.1469 26.8758 66.7138 28.7669C68.0136 29.7125 69.1411 30.8107 69.7227 32.3411C69.9818 32.9857 70.1248 33.671 70.1451 34.3654C70.1776 40.1979 70.1678 46.0303 70.1613 51.8628C70.1613 53.3932 69.5115 54.6734 68.5367 55.7846C66.7431 57.7992 64.4199 58.9982 61.9667 59.9892C61.8742 60.0251 61.7747 60.0394 61.6759 60.0309C61.5771 60.0224 61.4815 59.9914 61.3965 59.9403C61.3115 59.8892 61.2394 59.8193 61.1856 59.7359C61.1317 59.6526 61.0977 59.5581 61.0861 59.4596C61.0633 59.2775 61.0567 59.0937 61.0666 58.9104C61.0666 54.4156 61.0666 49.9219 61.0666 45.4292C61.0994 45.2469 61.0602 45.0589 60.9571 44.905C60.8541 44.751 60.6953 44.6431 60.5142 44.6039C56.9489 43.3936 53.2562 42.5977 49.5089 42.2319C49.3488 42.2222 49.1882 42.2222 49.028 42.2319C48.8753 43.0995 48.7616 43.954 48.5764 44.7891C48.2787 46.1577 47.6469 47.4314 46.7373 48.4965C46.6102 48.6303 46.5193 48.7942 46.4732 48.9729C46.4271 49.1516 46.4273 49.339 46.4739 49.5176C46.5204 49.6961 46.6116 49.8599 46.739 49.9933C46.8664 50.1268 47.0258 50.2256 47.2019 50.2804C48.7778 50.9302 50.3602 51.5801 51.9134 52.2689C52.5542 52.5883 53.172 52.952 53.7622 53.3574C56.1245 54.8489 57.174 57.1168 57.4859 59.7812C57.6581 61.2337 56.5111 62.6634 55.0457 62.92C54.774 62.9656 54.4991 62.9884 54.2236 62.9883C46.486 62.9883 38.7495 62.9883 31.0141 62.9883C28.954 62.9883 27.5016 61.4644 27.7648 59.5733C27.8488 59.011 27.967 58.4543 28.1189 57.9064C28.7688 55.4792 30.3609 53.8026 32.5444 52.7076C34.2601 51.8433 36.0439 51.1122 37.8245 50.3843C38.4061 50.1439 38.7571 49.8222 38.7993 49.2114C38.8145 49.0216 38.7615 48.8326 38.6498 48.6785C37.1812 47.0311 36.5476 45.0555 36.3299 42.9143C36.3006 42.6803 36.2746 42.4626 36.2356 42.1182ZM61.0504 43.3692C61.0669 43.1236 61.0669 42.8772 61.0504 42.6316C60.9041 41.7185 61.294 41.2636 62.1616 40.9225C64.0101 40.2369 65.6979 39.1784 67.12 37.8129C69.4432 35.5092 69.4172 33.0495 67.0518 30.7717C65.6676 29.5043 64.0631 28.5011 62.3176 27.8116C57.5899 25.7841 52.5957 24.8873 47.5009 24.5104C42.6799 24.1303 37.8312 24.3091 33.0513 25.0432C29.4771 25.6021 25.9972 26.4372 22.6862 27.9124C20.8503 28.7344 19.1119 29.7092 17.7407 31.2331C16.7335 32.3606 16.1161 33.6441 16.5028 35.207C16.7985 36.4092 17.549 37.332 18.4523 38.1313C19.9175 39.3873 21.5912 40.3771 23.3977 41.0557C23.9924 41.2961 24.2393 41.6405 24.1873 42.2612C24.1581 42.5861 24.1873 42.9403 24.1873 43.2359C26.2181 42.7193 28.1709 42.1507 30.1562 41.738C32.1415 41.3254 34.1658 41.0654 36.1934 40.734C36.2421 39.9217 36.2941 39.0834 36.3364 38.245C36.3585 37.0426 36.756 35.8772 37.4732 34.9118C38.1903 33.9464 39.1914 33.2294 40.3362 32.861C44.1216 31.5613 48.8591 33.6376 48.9306 38.5537C48.9306 39.2978 49.0118 40.0387 49.0573 40.8282C53.1424 41.1912 57.169 42.0443 61.0504 43.3692ZM42.614 61.6463H53.9149C54.2083 61.6535 54.5018 61.6361 54.7922 61.5943C55.1934 61.5203 55.5532 61.3012 55.8031 60.9787C56.0531 60.6563 56.1755 60.2532 56.1472 59.8462C55.845 57.5198 54.9027 55.5864 52.8167 54.303C50.9876 53.2135 49.049 52.3194 47.033 51.6353C45.6488 51.1414 45.0834 50.3584 45.0574 48.8799C45.0618 48.5608 45.1767 48.2531 45.3823 48.0091C46.2993 47.0256 46.9453 45.8209 47.2572 44.5129C47.7887 42.1984 47.8506 39.8008 47.4391 37.462C47.331 36.7953 47.0592 36.1658 46.648 35.63C46.2369 35.0941 45.6993 34.6685 45.0834 34.3914C44.1047 33.9073 43.0046 33.7242 41.9219 33.865C39.5824 34.1282 37.9447 35.6294 37.727 37.9624C37.5803 39.6594 37.5749 41.3658 37.7108 43.0637C37.8061 44.9571 38.6017 46.7475 39.9431 48.0871C40.0695 48.2167 40.1524 48.3825 40.1802 48.5615C40.2762 49.2108 40.1376 49.873 39.7892 50.4293C39.4408 50.9855 38.9055 51.3993 38.2794 51.5963C36.2651 52.2861 34.3262 53.1788 32.4925 54.2607C30.4064 55.5279 29.4024 57.4223 29.084 59.7553C29.0305 60.1786 29.141 60.6064 29.393 60.9509C29.645 61.2953 30.0192 61.5302 30.4389 61.6073C30.7305 61.6491 31.025 61.6665 31.3195 61.6593L42.614 61.6463ZM68.8486 37.9266C67.1363 39.9152 65.0795 41.1304 62.8602 42.0987C62.7064 42.1444 62.5738 42.2435 62.4863 42.378C62.3988 42.5125 62.362 42.6738 62.3826 42.833C62.3955 47.8152 62.3955 52.7975 62.3826 57.7797C62.3826 57.9487 62.4021 58.1046 62.4151 58.3548C64.3841 57.4483 66.1647 56.4442 67.5522 54.8683C68.421 53.907 68.8864 52.648 68.8519 51.3526C68.8194 47.1286 68.8519 42.885 68.8519 38.6512L68.8486 37.9266ZM22.7999 58.3646C22.8161 58.1631 22.8356 58.0559 22.8356 57.9519C22.8356 52.8765 22.8356 47.8001 22.8356 42.7225C22.8356 42.3781 22.6731 42.2644 22.41 42.1182C21.0355 41.3579 19.6416 40.617 18.3224 39.7657C17.6173 39.3108 17.0454 38.648 16.3728 38.0403V38.6122C16.3728 42.9175 16.3728 47.2261 16.3728 51.5313C16.3533 52.6406 16.7261 53.7212 17.4256 54.5824C18.8228 56.3305 20.7203 57.3833 22.7999 58.3516V58.3646Z" fill="url(#paint1_linear_3351_1500)"/>
<path d="M49.9215 32.2926C49.941 32.2926 49.8987 32.2569 49.85 32.2471C48.5503 31.9222 48.768 31.3016 49.2196 30.4568C50.4121 28.218 52.2935 27.0255 54.8181 26.8403C55.5005 26.7916 55.7929 27.045 55.7539 27.7241C55.7214 28.218 55.9456 28.322 56.3518 28.4227C58.9512 29.0726 60.5011 31.3471 60.2509 34.0277C60.1123 35.2031 59.5753 36.2955 58.7293 37.1232C57.8833 37.9509 56.7793 38.4638 55.6012 38.5767C52.9108 38.7652 50.6136 37.134 50.0774 34.5671C49.9682 33.8139 49.9161 33.0536 49.9215 32.2926ZM58.3696 31.3536C57.528 32.1269 56.745 32.8352 55.9976 33.5468C55.8946 33.6272 55.8251 33.743 55.8027 33.8717C55.7864 34.9603 55.8027 36.052 55.8027 37.212C57.1641 36.9163 58.0934 36.2145 58.6263 35.0415C58.9015 34.4551 59.021 33.8077 58.9732 33.1617C58.9254 32.5158 58.7119 31.893 58.3534 31.3536H58.3696ZM54.412 32.4616V28.2115C53.5726 28.3304 52.7738 28.6481 52.082 29.1381C51.3902 29.6281 50.8255 30.2763 50.4349 31.0286L54.412 32.4616ZM54.4477 37.1438C54.4477 36.1137 54.4477 35.1292 54.4477 34.1414C54.4373 34.0764 54.4119 34.0147 54.3736 33.9611C54.3352 33.9075 54.285 33.8636 54.2268 33.8328C53.291 33.4753 52.3487 33.1407 51.4032 32.7962C50.8865 34.7361 52.4624 36.9911 54.4315 37.1438H54.4477ZM57.515 30.3203L55.8319 29.6087V31.8832L57.515 30.3203Z" fill="url(#paint2_linear_3351_1500)"/>
<path d="M37.4899 25.9659C37.9156 25.9496 38.2308 26.1283 38.2763 26.5572C38.3217 26.9861 38.0196 27.2493 37.5777 27.3046C35.953 27.5028 34.3284 27.6717 32.72 27.9089C31.69 28.0584 30.6697 28.3021 29.6462 28.5101C29.123 28.6173 28.7851 28.4581 28.6714 28.0487C28.5577 27.6392 28.7819 27.3208 29.3212 27.2233C32.0246 26.7425 34.7345 26.2811 37.4444 25.8164L37.4899 25.9659Z" fill="url(#paint3_linear_3351_1500)"/>
<path d="M34.9911 28.936C35.4135 29.0205 35.6962 29.2155 35.7352 29.6151C35.749 29.7023 35.7443 29.7915 35.7213 29.8767C35.6982 29.9619 35.6575 30.0414 35.6017 30.1098C35.5458 30.1782 35.4762 30.234 35.3973 30.2736C35.3184 30.3133 35.232 30.3358 35.1438 30.3397C33.7369 30.5867 32.33 30.8271 30.9198 31.0871C30.4356 31.178 29.9613 31.3275 29.4771 31.412C29.3927 31.4383 29.3036 31.446 29.2159 31.4346C29.1282 31.4233 29.0439 31.3931 28.969 31.3462C28.894 31.2994 28.8301 31.2368 28.7815 31.1629C28.7329 31.089 28.7009 31.0055 28.6875 30.9181C28.6595 30.8337 28.6504 30.7441 28.661 30.6558C28.6716 30.5674 28.7015 30.4825 28.7487 30.4071C28.7959 30.3317 28.8592 30.2676 28.934 30.2195C29.0088 30.1713 29.0933 30.1403 29.1814 30.1285C31.1148 29.7191 33.0546 29.3324 34.9911 28.936Z" fill="url(#paint4_linear_3351_1500)"/>
<path d="M34.9357 31.7529C35.3971 31.8114 35.6895 32.0064 35.735 32.4385C35.7458 32.5262 35.7387 32.6152 35.7139 32.7C35.6892 32.7848 35.6474 32.8637 35.5911 32.9318C35.5349 32.9999 35.4653 33.0559 35.3867 33.0962C35.3081 33.1365 35.2221 33.1604 35.1339 33.1664C33.2862 33.5411 31.4352 33.9126 29.5809 34.2809C29.1845 34.3588 28.8303 34.3004 28.7036 33.8487C28.6686 33.7617 28.654 33.6679 28.6608 33.5744C28.6677 33.4808 28.6959 33.3901 28.7433 33.3092C28.7907 33.2283 28.8559 33.1593 28.9341 33.1075C29.0123 33.0557 29.1012 33.0225 29.1942 33.0104C31.1048 32.575 33.0219 32.1656 34.9357 31.7529Z" fill="url(#paint5_linear_3351_1500)"/>
<defs>
<linearGradient id="paint0_linear_3351_1500" x1="42.75" y1="4" x2="42.75" y2="81.5" gradientUnits="userSpaceOnUse">
<stop stop-color="#38E4AE"/>
<stop offset="1" stop-color="#0798AD"/>
</linearGradient>
<linearGradient id="paint1_linear_3351_1500" x1="15" y1="29.7905" x2="64.7307" y2="31.1093" gradientUnits="userSpaceOnUse">
<stop stop-color="#42F8BF"/>
<stop offset="1" stop-color="#2FADC3"/>
</linearGradient>
<linearGradient id="paint2_linear_3351_1500" x1="48.8687" y1="28.8309" x2="59.1565" y2="29.0228" gradientUnits="userSpaceOnUse">
<stop stop-color="#42F8BF"/>
<stop offset="1" stop-color="#2FADC3"/>
</linearGradient>
<linearGradient id="paint3_linear_3351_1500" x1="28.6426" y1="26.2793" x2="37.297" y2="26.8675" gradientUnits="userSpaceOnUse">
<stop stop-color="#42F8BF"/>
<stop offset="1" stop-color="#2FADC3"/>
</linearGradient>
<linearGradient id="paint4_linear_3351_1500" x1="28.6567" y1="29.3612" x2="35.0302" y2="29.7079" gradientUnits="userSpaceOnUse">
<stop stop-color="#42F8BF"/>
<stop offset="1" stop-color="#2FADC3"/>
</linearGradient>
<linearGradient id="paint5_linear_3351_1500" x1="28.6592" y1="32.1871" x2="35.0285" y2="32.5262" gradientUnits="userSpaceOnUse">
<stop stop-color="#42F8BF"/>
<stop offset="1" stop-color="#2FADC3"/>
</linearGradient>
</defs>
</svg>
