<svg width="85" height="85" viewBox="0 0 85 85" fill="none" xmlns="http://www.w3.org/2000/svg">
<circle cx="42.75" cy="42.75" r="40.5" stroke="url(#paint0_linear_3346_1620)" stroke-width="3.5"/>
<path d="M36.7739 59.1469V53.2112C36.3989 53.1932 36.0562 53.1627 35.6973 53.1627C31.4817 53.1627 27.2668 53.1627 23.0524 53.1627C20.7789 53.1627 20.002 52.3714 20.002 50.0854C20.002 41.8038 20.002 33.5234 20.002 25.2442C20.002 24.9158 19.9912 24.5857 20.0199 24.2591C20.1491 22.7823 20.9943 22.0036 22.4854 22C25.6243 22 28.7633 22 31.9022 22H61.8537C63.8275 22 64.6655 22.7752 64.6691 24.7256C64.6846 33.3063 64.6894 41.8857 64.6834 50.464C64.6834 52.2584 63.7863 53.1448 61.9596 53.1555C57.6531 53.1735 53.3466 53.1555 49.0402 53.1555H47.9205V59.1416C48.6723 59.1416 49.4098 59.1254 50.1455 59.1416C51.7873 59.1828 52.7976 60.1679 52.7689 61.677C52.7402 63.1304 51.7192 64.0384 50.0953 64.0384C44.9239 64.0384 39.7525 64.0384 34.5812 64.0384C32.9519 64.0384 31.9327 63.1304 31.9022 61.686C31.8717 60.1751 32.8765 59.1918 34.5184 59.1469C35.2343 59.1308 35.9485 59.1469 36.7739 59.1469ZM21.6151 47.166H63.0649V46.2957C63.0649 39.1828 63.0649 32.0694 63.0649 24.9553C63.0649 23.64 62.9734 23.5575 61.6294 23.5575H22.9734C21.7174 23.5575 21.6079 23.6652 21.6079 24.9517C21.6079 32.0646 21.6079 39.1775 21.6079 46.2903L21.6151 47.166ZM21.6151 48.8329C21.6151 49.2259 21.6151 49.5758 21.6151 49.9275C21.5954 51.5119 21.6277 51.5424 23.1906 51.5424H61.572C61.8107 51.5424 62.096 51.6214 62.2772 51.5173C62.5733 51.3504 62.9752 51.092 63.0219 50.8175C63.1331 50.1877 63.0577 49.5238 63.0577 48.8311L21.6151 48.8329ZM38.4714 59.0913H46.2051V53.2506H38.4714V59.0913ZM42.3257 60.7583C39.7866 60.7583 37.2494 60.7583 34.7104 60.7583C34.077 60.7583 33.5117 60.8516 33.5117 61.6088C33.5117 62.366 34.05 62.506 34.696 62.506C39.7729 62.4988 44.8497 62.4988 49.9266 62.506C50.5959 62.506 51.1916 62.3786 51.1719 61.5873C51.1521 60.8462 50.5708 60.7565 49.9409 60.7601C47.4019 60.769 44.8629 60.7583 42.3239 60.7583H42.3257Z" fill="url(#paint1_linear_3346_1620)"/>
<path d="M26.2194 43.9202H58.4605C58.7297 43.9202 59.0437 43.8359 59.2572 43.9454C59.5605 44.1033 60.0342 44.4532 59.9983 44.638C59.9373 44.9574 59.5712 45.2499 59.2806 45.4795C59.1478 45.5818 58.875 45.5047 58.6651 45.5047H26.0938C24.7749 45.5047 24.6027 45.3252 24.6027 44.0082C24.6027 38.6251 24.6027 33.242 24.6027 27.8589C24.6027 27.5915 24.5309 27.2596 24.6583 27.0694C24.8521 26.7841 25.1966 26.418 25.4676 26.4234C25.7385 26.4288 26.0202 26.8487 26.1853 27.1411C26.2983 27.3511 26.2194 27.6669 26.2194 27.9361C26.2194 32.9304 26.2194 37.9241 26.2194 42.9172V43.9202Z" fill="url(#paint2_linear_3346_1620)"/>
<path d="M34.5054 35.372C34.9827 35.9229 35.3613 36.3212 35.6915 36.7554C35.8942 37.0264 35.9911 37.3763 36.1921 37.6526C36.4756 38.0402 36.7986 38.0564 37.1593 37.6903C38.4405 36.3948 39.745 35.1208 41.0172 33.8163C41.184 33.6458 41.2325 33.3479 41.3096 33.0985C41.5052 32.4633 41.8892 32.0614 42.589 32.0488C43.2888 32.0363 43.6154 32.4597 43.9438 33.025C44.3467 33.6654 44.8185 34.2598 45.3505 34.7978C45.4385 34.8929 45.8763 34.8229 46.0145 34.6883C47.8698 32.8688 49.7079 31.0308 51.5285 29.1743C51.708 28.9823 51.6721 28.557 51.8641 28.3758C52.223 28.0348 52.6644 27.5934 53.095 27.5683C53.479 27.545 54.1716 27.972 54.238 28.295C54.4049 29.1922 55.0437 29.6498 55.5802 30.2258C55.8853 30.5523 56.3123 30.8161 56.4882 31.2001C56.6407 31.5285 56.5169 31.986 56.5151 32.388C56.1383 32.3646 55.6502 32.4813 55.408 32.2893C54.7452 31.7315 54.1256 31.1245 53.5544 30.4734C53.1812 30.0732 52.8958 30.0858 52.5172 30.4734C50.7749 32.2372 49.0093 33.9778 47.2687 35.747C47.0806 35.9693 46.951 36.2352 46.8919 36.5204C46.7125 37.2381 46.237 37.6078 45.5407 37.597C44.8822 37.5809 44.5503 37.1412 44.265 36.5312C43.9671 35.8924 43.4503 35.3415 42.9569 34.8211C42.8492 34.7081 42.345 34.7906 42.1817 34.9467C40.8431 36.2279 39.535 37.5414 38.2431 38.8674C38.078 39.0361 38.0493 39.3429 37.9721 39.5852C37.7729 40.2293 37.3584 40.6026 36.6694 40.599C35.9804 40.5954 35.5748 40.2186 35.3613 39.5816C35.2712 39.2784 35.1337 38.9913 34.954 38.731C34.561 38.2179 34.1465 38.2448 33.6979 38.7185C32.7451 39.7108 31.7547 40.6654 30.7893 41.6415C30.3802 42.056 29.9208 42.4095 29.4094 41.8963C28.898 41.3831 29.23 40.9238 29.6427 40.5093C30.4717 39.6892 31.3186 38.8854 32.101 38.0241C32.5298 37.5539 32.8044 36.9474 33.2188 36.4612C33.5167 36.0987 33.9366 35.8457 34.5054 35.372Z" fill="url(#paint3_linear_3346_1620)"/>
<path d="M28.1269 29.5991C28.1185 29.0019 28.2295 28.409 28.4533 27.8552C28.6772 27.3014 29.0093 26.7979 29.4303 26.3742C29.8513 25.9506 30.3527 25.6152 30.9051 25.3879C31.4574 25.1606 32.0496 25.0458 32.6469 25.0504C35.2541 25.0504 37.2279 27.0242 37.2172 29.6243C37.2138 30.8297 36.7318 31.9845 35.877 32.8345C35.0223 33.6845 33.8649 34.1602 32.6595 34.1568C31.454 34.1535 30.2993 33.6714 29.4493 32.8167C28.5992 31.962 28.1236 30.8046 28.1269 29.5991ZM33.3647 26.8466C33.8007 28.894 33.2426 30.7314 32.1642 32.4737C33.9891 32.707 35.3761 31.6304 35.6363 29.949C35.8463 28.5638 34.8899 27.1516 33.3647 26.8466ZM31.5452 30.1034L29.7957 29.6942L29.5965 29.9239L30.648 31.9659C31.0104 31.2212 31.2401 30.7422 31.5452 30.1034ZM31.8466 28.5207V26.6026L29.9841 28.038L31.8466 28.5207Z" fill="url(#paint4_linear_3346_1620)"/>
<path d="M41.9775 50.981C41.5917 50.981 41.1754 51.0725 40.8309 50.9523C40.5653 50.859 40.1975 50.4822 40.2208 50.2687C40.2531 49.9834 40.5922 49.5384 40.8434 49.5079C41.6391 49.4127 42.4432 49.4127 43.2389 49.5079C43.4865 49.5348 43.8885 49.9816 43.8633 50.1933C43.821 50.3636 43.7403 50.5219 43.6274 50.6563C43.5145 50.7906 43.3724 50.8974 43.212 50.9685C42.8531 51.103 42.3938 51.0008 41.9775 51.0008V50.981Z" fill="url(#paint5_linear_3346_1620)"/>
<defs>
<linearGradient id="paint0_linear_3346_1620" x1="42.75" y1="4" x2="42.75" y2="81.5" gradientUnits="userSpaceOnUse">
<stop stop-color="#38E4AE"/>
<stop offset="1" stop-color="#0798AD"/>
</linearGradient>
<linearGradient id="paint1_linear_3346_1620" x1="20" y1="29.1386" x2="60.2933" y2="29.9619" gradientUnits="userSpaceOnUse">
<stop stop-color="#42F8BF"/>
<stop offset="1" stop-color="#2FADC3"/>
</linearGradient>
<linearGradient id="paint2_linear_3346_1620" x1="24.5825" y1="29.6683" x2="56.4915" y2="30.8051" gradientUnits="userSpaceOnUse">
<stop stop-color="#42F8BF"/>
<stop offset="1" stop-color="#2FADC3"/>
</linearGradient>
<linearGradient id="paint3_linear_3346_1620" x1="29.1494" y1="30.0439" x2="53.8474" y2="30.9363" gradientUnits="userSpaceOnUse">
<stop stop-color="#42F8BF"/>
<stop offset="1" stop-color="#2FADC3"/>
</linearGradient>
<linearGradient id="paint4_linear_3346_1620" x1="28.1265" y1="26.5967" x2="36.324" y2="26.754" gradientUnits="userSpaceOnUse">
<stop stop-color="#42F8BF"/>
<stop offset="1" stop-color="#2FADC3"/>
</linearGradient>
<linearGradient id="paint5_linear_3346_1620" x1="40.2197" y1="49.7085" x2="43.5013" y2="49.852" gradientUnits="userSpaceOnUse">
<stop stop-color="#42F8BF"/>
<stop offset="1" stop-color="#2FADC3"/>
</linearGradient>
</defs>
</svg>
