<svg width="85" height="85" viewBox="0 0 85 85" fill="none" xmlns="http://www.w3.org/2000/svg">
<circle cx="42.75" cy="42.75" r="40.5" stroke="white" stroke-width="3.5"/>
<path d="M53.4059 66C53.0677 65.6408 52.6544 65.3255 52.403 64.9123C51.3735 63.2188 50.3838 61.496 49.3147 59.671L46.6236 62.6421C46.4971 62.7881 46.375 62.9341 46.2441 63.0655C45.4853 63.8641 44.6633 64.686 43.4574 64.2612C42.2515 63.8363 42.4 62.6815 42.3236 61.6843C41.9314 56.5657 41.5392 51.4465 41.1471 46.3269C41.112 46.0589 41.0629 45.7928 41 45.5298C38.103 45.8583 35.4809 45.2728 33.2559 43.3559C31.7032 42.0312 30.6338 40.2352 30.2133 38.246C29.3089 34.1814 31.3427 29.9665 35.1398 28.016C38.8456 26.118 43.3971 26.9312 46.2956 30.0205C48.9177 32.8149 49.9897 37.6737 46.7647 42.1616C48.7912 43.5515 50.8231 44.9375 52.8603 46.3196C55.478 48.0988 58.0956 49.8776 60.7132 51.6558C61.4 52.1245 62.1279 52.6223 61.9809 53.5932C61.8338 54.6152 60.9971 55.0269 60.1191 55.2546C58.7721 55.6036 57.4015 55.8649 56.0412 56.1657C55.7382 56.2328 55.4382 56.3117 55.0485 56.4065L58.053 61.6274C58.7882 62.8946 58.6412 63.3794 57.35 64.14L54.1691 66H53.4059ZM42.5236 41.1878C42.5236 41.5849 42.5103 41.801 42.5236 42.0142C42.9677 48.4244 43.4187 54.8346 43.8765 61.2449C43.9059 61.6522 44.1103 62.0479 44.2338 62.4479C44.6397 62.2391 45.0588 62.0537 45.4441 61.8128C45.6221 61.7004 45.7383 61.4843 45.8736 61.312C46.7677 60.2054 47.6662 59.1046 48.55 57.9906C49.0485 57.3628 49.45 57.4168 49.8515 58.0943C50.4133 59.0433 51.0044 59.9762 51.5883 60.9135C52.2309 61.9442 52.878 62.9735 53.5559 64.0539L56.8544 62.1909C55.7324 60.1893 54.6691 58.2943 53.6074 56.3978C52.9603 55.2459 53.0765 55.024 54.3618 54.8225C55.8324 54.5918 57.3029 54.364 58.7647 54.0677C59.2838 53.9611 59.7632 53.6574 60.2618 53.4428L60.3103 53.0603L42.5236 41.1878ZM42.403 39.0913C42.9456 36.3962 42.0677 35.2341 39.5265 35.183C39.0633 35.1742 38.4971 35.2823 38.4971 34.5464C38.5074 33.853 39.0589 33.8807 39.5265 33.8705C40.3691 33.8515 41.2118 33.8705 42.0883 33.8705V32.1287L39.9633 31.7141C39.9 31.3929 39.8486 31.1301 39.803 30.8936H38.6353L38.7824 31.1549C38.4515 31.425 38.1574 31.7696 37.7839 31.9506C36.9912 32.3331 36.3912 32.85 36.2544 33.742C35.8706 36.275 36.7839 37.3467 39.35 37.4138C39.478 37.4138 39.6442 37.37 39.725 37.4313C39.928 37.5773 40.2294 37.7671 40.2427 37.9555C40.2559 38.1438 40.0118 38.4665 39.8015 38.5395C39.4883 38.6548 39.1147 38.6285 38.7721 38.6329C37.9942 38.6431 37.2162 38.6329 36.4471 38.6329V40.4257L38.5059 40.8112L38.6397 41.7236H39.5618C39.9383 41.2652 40.2133 40.9586 40.453 40.6272C40.5516 40.4842 40.611 40.3182 40.625 40.1454C40.7353 38.7541 41.0192 38.5687 42.3971 39.0913H42.403Z" fill="white"/>
<path d="M40.9282 19C42.9417 19.6104 45.0798 19.9637 46.948 20.8756C53.792 24.2174 57.3291 32.0656 55.5386 39.4985C55.1778 40.9927 54.8215 41.0932 53.5325 40.304C52.5807 39.7202 52.2537 39.1334 52.4575 37.914C53.7026 30.4811 48.8852 23.6542 41.4898 22.5428C33.3642 21.3219 27.161 27.3138 26.4498 34.1274C25.7473 40.8671 29.8139 46.8057 36.325 48.498C37.0479 48.6872 37.4292 49.0478 37.4483 49.7987C37.4571 50.149 37.5055 50.4978 37.5099 50.8481C37.5231 51.7984 37.1095 52.2137 36.2164 51.893C34.3555 51.222 32.4036 50.6544 30.7319 49.6272C24.9745 46.0697 22.0196 39.1334 23.2925 32.6745C24.6842 25.6096 29.9488 20.3938 36.8749 19.2173C37.2752 19.1493 37.6756 19.0695 38.0759 19H40.9282Z" fill="white"/>
</svg>
