<svg width="85" height="85" viewBox="0 0 85 85" fill="none" xmlns="http://www.w3.org/2000/svg">
<circle cx="42.75" cy="42.75" r="40.5" stroke="url(#paint0_linear_3346_1387)" stroke-width="3.5"/>
<path d="M63.344 47.736C62.503 49.7629 61.7067 51.6835 60.8159 53.8236C61.5316 54.5101 62.3829 55.3443 63.2685 56.1423C63.9001 56.7138 63.9241 57.2545 63.4195 57.9307C61.8425 60.0389 59.9677 61.9068 57.8536 63.4759C57.2427 63.929 56.7278 63.9119 56.2026 63.3404C55.3736 62.4393 54.5172 61.564 53.8496 60.8638C51.8295 61.643 50.0618 62.3432 48.2803 63.0022C47.8615 63.1567 47.7071 63.3592 47.7174 63.8003C47.7431 64.8301 47.7174 65.8598 47.7259 66.8896C47.7362 67.6602 47.3638 68.0069 46.6138 68.1202C44.0132 68.5166 41.3676 68.5166 38.767 68.1202C38.0119 68.0069 37.6583 67.6448 37.6703 66.8776C37.6858 65.8478 37.6463 64.8181 37.6703 63.7883C37.6841 63.3369 37.509 63.1516 37.1022 63.0005C35.319 62.3398 33.5513 61.6412 31.4797 60.8415C30.8327 61.5434 29.9934 62.4359 29.1748 63.3472C28.6513 63.9308 28.1296 63.917 27.5237 63.4674C25.4092 61.8986 23.5357 60.0286 21.963 57.9169C21.4481 57.2304 21.5151 56.7001 22.1347 56.1303C22.8675 55.4524 23.5677 54.735 24.2474 54.0021C24.4018 53.8305 24.5426 53.4872 24.4688 53.3156C23.6862 51.4895 22.8589 49.6823 21.9871 47.7446C21.0071 47.7446 19.8366 47.7446 18.6678 47.7446C17.6638 47.7446 17.4407 47.4992 17.2948 46.5243C16.9017 43.9811 16.9017 41.3925 17.2948 38.8492C17.4115 38.058 17.7547 37.6701 18.5682 37.6856C19.598 37.7044 20.6278 37.7147 21.6575 37.6701C21.8961 37.6581 22.2548 37.459 22.344 37.2548C23.082 35.4424 23.772 33.6111 24.5615 31.5585C23.8595 30.8926 23.0048 30.055 22.1175 29.2501C21.5134 28.7009 21.4979 28.1723 21.975 27.5338C23.5541 25.394 25.442 23.5004 27.5769 21.9148C28.157 21.4874 28.6633 21.508 29.1628 22.0486C29.9934 22.9497 30.8447 23.8336 31.5278 24.5561C33.5873 23.7632 35.4169 23.075 37.2275 22.337C37.4318 22.2546 37.6343 21.8993 37.6463 21.6608C37.6944 20.6052 37.6823 19.5463 37.672 18.4874C37.672 17.7545 38.0307 17.4113 38.7378 17.3031C41.366 16.899 44.0405 16.899 46.6687 17.3031C47.3775 17.4113 47.7311 17.7648 47.7225 18.5045C47.7071 19.7317 47.7225 20.9588 47.7225 22.0744L53.9011 24.6265C54.5498 23.9125 55.3822 23.02 56.1906 22.1053C56.7364 21.4891 57.2701 21.5011 57.9069 21.98C59.9552 23.4916 61.7698 25.2964 63.2925 27.3365C64.0322 28.3405 64.0254 28.5087 63.1655 29.3668C62.3589 30.1717 61.5265 30.9509 60.8709 31.5808C61.6449 33.5871 62.3211 35.3943 63.0539 37.1793C63.1295 37.308 63.2333 37.4179 63.3576 37.5006C63.4819 37.5832 63.6234 37.6365 63.7713 37.6564C64.741 37.713 65.7159 37.6735 66.689 37.6804C67.7497 37.689 67.9522 37.907 68.1187 38.9419C68.516 41.4848 68.516 44.0741 68.1187 46.617C68.0088 47.3636 67.6724 47.7498 66.8967 47.7395C65.685 47.7257 64.4939 47.736 63.344 47.736ZM23.6278 28.0418C24.8034 29.2003 25.6547 30.043 26.5129 30.8788C26.9711 31.3251 27.0277 31.8005 26.6845 32.3359C25.4303 34.2498 24.5369 36.377 24.0483 38.6123C23.8767 39.3658 23.4716 39.6507 22.7216 39.6284C21.5563 39.5941 20.3909 39.6198 19.1483 39.6198V45.7984H22.5328C23.6707 45.7984 23.8732 45.9237 24.1204 47.0324C24.5662 49.1024 25.3901 51.0725 26.5506 52.8436C27.0655 53.6263 26.9505 54.1841 26.2949 54.7779C25.4745 55.521 24.6953 56.3122 23.7582 57.2201L28.2308 61.6962C29.192 60.6801 30.0209 59.8186 30.8327 58.9398C31.2944 58.4404 31.7835 58.3683 32.3533 58.7408C34.2153 59.9712 36.2902 60.8443 38.4718 61.3152C39.3128 61.4868 39.6732 61.9244 39.6286 62.8066C39.5702 63.9359 39.6149 65.0704 39.6149 66.258H45.7934V62.9473C45.7934 61.7374 45.905 61.5434 47.048 61.2894C49.1414 60.8197 51.135 59.983 52.9365 58.818C53.623 58.3803 54.1276 58.4284 54.6528 59.0188C55.432 59.8855 56.2404 60.7351 57.1603 61.7116L61.6432 57.2167C60.6306 56.2333 59.7776 55.3975 58.9126 54.5702C58.4595 54.1343 58.3359 53.6572 58.6963 53.1165C59.9665 51.1803 60.8721 49.0282 61.3686 46.7663C61.5402 46.0489 61.9298 45.7795 62.6403 45.7949C63.8074 45.8207 64.9744 45.7949 66.2668 45.7949V39.6198H62.9098C61.7221 39.6198 61.5368 39.4962 61.269 38.3446C60.8062 36.3098 60.0006 34.3684 58.8868 32.6037C58.2844 31.6357 58.3188 31.4401 59.1409 30.618L61.6037 28.15L57.1895 23.7546C56.1992 24.7844 55.3616 25.6425 54.5395 26.5006C54.0985 26.9692 53.6196 27.0447 53.0876 26.6929C51.1741 25.4418 49.0491 24.5492 46.8163 24.0584C46.0165 23.8868 45.7539 23.4354 45.7866 22.6579C45.8277 21.52 45.7969 20.3821 45.7969 19.143H39.608V22.4279C39.608 23.6911 39.4964 23.873 38.3139 24.1442C36.2743 24.5941 34.3324 25.408 32.5816 26.547C31.8196 27.0464 31.2463 27.0069 30.6473 26.3187C29.9042 25.4606 29.1027 24.6591 28.1193 23.5984L23.6278 28.0418Z" fill="url(#paint1_linear_3346_1387)"/>
<path d="M54.6283 33.9784C54.3829 34.277 54.2095 34.6426 53.9229 34.7885C53.7743 34.8484 53.6147 34.8766 53.4545 34.8713C53.2943 34.866 53.137 34.8273 52.9927 34.7576C52.6837 34.5859 52.4692 34.2427 52.2221 33.9698C47.1179 28.3284 37.9084 28.4571 32.9312 34.2169C32.6377 34.5602 32.0851 34.9155 31.6903 34.8777C30.8477 34.8005 30.6606 33.8479 31.3093 33.1014C32.7031 31.4496 34.4397 30.1209 36.3986 29.2076C38.3574 28.2943 40.4916 27.8183 42.6528 27.8126C44.8141 27.8068 46.9507 28.2716 48.9144 29.1745C50.878 30.0774 52.6216 31.3969 54.0242 33.0413C54.2472 33.3391 54.4491 33.6523 54.6283 33.9784Z" fill="url(#paint2_linear_3346_1387)"/>
<path d="M42.711 57.6408C38.156 57.5018 34.339 55.7992 31.3356 52.3564C30.7537 51.6905 30.7366 51.143 31.2721 50.7208C31.8933 50.2334 32.3585 50.5114 32.8167 51.0211C38.3225 57.1911 47.1064 57.1997 52.583 51.0211C53.0309 50.5148 53.4977 50.2248 54.1276 50.7105C54.6665 51.1258 54.6528 51.6785 54.071 52.3444C51.0572 55.7855 47.2488 57.5035 42.711 57.6408Z" fill="url(#paint3_linear_3346_1387)"/>
<path d="M48.8758 42.6268C48.8758 41.5129 48.8672 40.3956 48.8758 39.2852C48.8843 38.4614 49.2465 38.0838 50.0772 38.0838C51.5039 38.0678 52.9313 38.0678 54.3592 38.0838C55.2019 38.0924 55.5606 38.4442 55.5606 39.2852C55.5732 41.5735 55.5732 43.8579 55.5606 46.1382C55.5606 46.9964 55.2174 47.3396 54.3592 47.3396C52.9325 47.3556 51.5022 47.3556 50.0686 47.3396C49.2413 47.331 48.8672 46.9621 48.8672 46.1382C48.8758 44.9677 48.8758 43.7973 48.8758 42.6268ZM53.4771 40.2034H50.9799V45.2303H53.4788L53.4771 40.2034Z" fill="url(#paint4_linear_3346_1387)"/>
<path d="M34.4265 45.2832V43.7386C33.3349 43.7386 32.2588 43.7386 31.1844 43.7386C30.1667 43.7386 29.8389 43.4211 29.8286 42.4239C29.8166 41.3667 29.8286 40.3095 29.8286 39.2523C29.8286 38.492 30.2044 38.08 30.9819 38.08C32.439 38.08 33.8996 38.068 35.355 38.08C36.1084 38.08 36.5684 38.5125 36.5083 39.1476C36.4431 39.8238 36.026 40.1361 35.3515 40.1327C34.2394 40.1327 33.1204 40.1327 31.9482 40.1327V41.6773C32.9779 41.6773 34.0266 41.6773 35.0735 41.6773C36.2354 41.6773 36.5152 41.9708 36.5169 43.1551C36.5169 44.1556 36.5169 45.1562 36.5169 46.1568C36.5169 46.9274 36.1393 47.329 35.3738 47.3342C33.9167 47.3445 32.4562 47.3496 31.0008 47.3342C30.2439 47.3256 29.7822 46.9017 29.8354 46.2735C29.8938 45.587 30.316 45.2781 30.9905 45.2798C32.1044 45.2832 33.2165 45.2832 34.4265 45.2832Z" fill="url(#paint5_linear_3346_1387)"/>
<path d="M41.7019 40.1348V41.6794H43.2277C44.3038 41.6794 44.7723 42.0055 44.7534 42.7315C44.7397 43.4283 44.2883 43.7321 43.2689 43.739C42.8123 43.739 42.3541 43.739 41.8959 43.7544C41.8461 43.7544 41.7963 43.7956 41.7071 43.8351V45.2836C42.6304 45.2836 43.5624 45.2836 44.4926 45.2836C45.3164 45.2836 45.7849 45.6732 45.7832 46.3134C45.7815 46.9535 45.325 47.3242 44.4788 47.3311C43.2775 47.3414 42.0761 47.3414 40.8747 47.3311C39.9633 47.3311 39.6115 46.9879 39.6064 46.1074C39.5978 43.8213 39.6064 41.5353 39.6064 39.2423C39.6064 38.4734 39.9805 38.0684 40.7511 38.065C42.0658 38.0558 43.3816 38.0558 44.6985 38.065C45.3353 38.065 45.754 38.3996 45.7729 39.0398C45.7935 39.716 45.3919 40.1005 44.7088 40.1125C43.7374 40.1451 42.7677 40.1348 41.7019 40.1348Z" fill="url(#paint6_linear_3346_1387)"/>
<defs>
<linearGradient id="paint0_linear_3346_1387" x1="42.75" y1="4" x2="42.75" y2="81.5" gradientUnits="userSpaceOnUse">
<stop stop-color="#38E4AE"/>
<stop offset="1" stop-color="#0798AD"/>
</linearGradient>
<linearGradient id="paint1_linear_3346_1387" x1="17" y1="25.7313" x2="63.3646" y2="26.6225" gradientUnits="userSpaceOnUse">
<stop stop-color="#42F8BF"/>
<stop offset="1" stop-color="#2FADC3"/>
</linearGradient>
<linearGradient id="paint2_linear_3346_1387" x1="30.9204" y1="29.0127" x2="52.2182" y2="30.3859" gradientUnits="userSpaceOnUse">
<stop stop-color="#42F8BF"/>
<stop offset="1" stop-color="#2FADC3"/>
</linearGradient>
<linearGradient id="paint3_linear_3346_1387" x1="30.8843" y1="51.6806" x2="52.1204" y2="53.0244" gradientUnits="userSpaceOnUse">
<stop stop-color="#42F8BF"/>
<stop offset="1" stop-color="#2FADC3"/>
</linearGradient>
<linearGradient id="paint4_linear_3346_1387" x1="48.8672" y1="39.6476" x2="54.9125" y2="39.7315" gradientUnits="userSpaceOnUse">
<stop stop-color="#42F8BF"/>
<stop offset="1" stop-color="#2FADC3"/>
</linearGradient>
<linearGradient id="paint5_linear_3346_1387" x1="29.8232" y1="39.6487" x2="35.8603" y2="39.7325" gradientUnits="userSpaceOnUse">
<stop stop-color="#42F8BF"/>
<stop offset="1" stop-color="#2FADC3"/>
</linearGradient>
<linearGradient id="paint6_linear_3346_1387" x1="39.6025" y1="39.6341" x2="45.1771" y2="39.7054" gradientUnits="userSpaceOnUse">
<stop stop-color="#42F8BF"/>
<stop offset="1" stop-color="#2FADC3"/>
</linearGradient>
</defs>
</svg>
