<svg width="85" height="85" viewBox="0 0 85 85" fill="none" xmlns="http://www.w3.org/2000/svg">
<circle cx="42.75" cy="42.75" r="40.5" stroke="url(#paint0_linear_3346_1435)" stroke-width="3.5"/>
<path d="M36.015 22.4746H42.0275C43.5708 22.4746 44.622 23.5204 44.6239 25.0673C44.6239 27.7517 44.6239 30.4354 44.6239 33.1186C44.6277 33.4435 44.5673 33.766 44.446 34.0675C44.3248 34.369 44.1451 34.6436 43.9174 34.8754C43.6896 35.1072 43.4183 35.2917 43.119 35.4183C42.8196 35.5448 42.4983 35.611 42.1733 35.6129C38.052 35.6214 33.9313 35.6214 29.8112 35.6129C29.1721 35.6076 28.5608 35.351 28.1093 34.8986C27.6579 34.4462 27.4027 33.8342 27.3989 33.1951C27.3807 30.4281 27.3807 27.6612 27.3989 24.8942C27.3989 23.5095 28.4921 22.4801 29.9114 22.4764C31.9539 22.4692 33.9854 22.4746 36.015 22.4746ZM34.2386 26.6324C33.8578 26.6324 33.6538 26.882 33.6519 27.2682C33.6519 28.4562 33.6519 29.6368 33.6519 30.8302C33.6519 31.3567 34.0054 31.5827 34.4864 31.3659C35.8079 30.7743 37.1264 30.1779 38.4419 29.5767C38.686 29.4674 38.8646 29.3088 38.8555 29.0155C38.8464 28.7222 38.6569 28.6056 38.4273 28.5035L34.572 26.7563C34.4463 26.698 34.3097 26.6579 34.2386 26.6324Z" fill="url(#paint1_linear_3346_1435)"/>
<path d="M57.7394 39.04H62.8409C64.7157 39.04 66.0002 40.3154 66.0002 42.1939V47.8966C66.0002 49.7004 64.6793 51.0177 62.8682 51.0177C60.9078 51.0177 58.9492 51.0177 56.9887 51.0304C56.7851 51.0399 56.5914 51.1213 56.4421 51.26C55.5074 52.2056 54.5928 53.1713 53.6782 54.1333C53.5703 54.2636 53.4258 54.3584 53.2633 54.4055C53.1009 54.4526 52.928 54.4498 52.7672 54.3974C52.6102 54.3587 52.4689 54.2724 52.3626 54.1505C52.2564 54.0286 52.1902 53.8769 52.1732 53.716C52.0366 52.8852 51.8927 52.0544 51.7688 51.2217C51.7667 51.1355 51.7369 51.0522 51.6837 50.9842C51.6305 50.9163 51.5568 50.8673 51.4736 50.8446C50.1654 50.36 49.4585 49.3196 49.4585 47.9294V42.0062C49.4599 41.2189 49.774 40.4643 50.3316 39.9085C50.8891 39.3526 51.6446 39.0409 52.432 39.0419C54.1993 39.0382 55.9739 39.0419 57.7394 39.04ZM57.7066 43.5312C59.0342 43.5312 60.363 43.5312 61.693 43.5312C62.2524 43.5312 62.5949 43.2324 62.5949 42.7514C62.5949 42.2704 62.2542 41.9388 61.7094 41.9388C59.0372 41.9388 56.365 41.9388 53.6928 41.9388C53.1589 41.9388 52.8328 42.2558 52.831 42.7314C52.8291 43.2069 53.1607 43.5294 53.711 43.5312H57.7066ZM56.4877 47.6179C57.4132 47.6179 58.3406 47.6179 59.2662 47.6179C59.8128 47.6179 60.1298 47.3245 60.1407 46.8454C60.1417 46.7349 60.1199 46.6254 60.0767 46.5237C60.0335 46.422 59.9699 46.3303 59.8897 46.2542C59.8096 46.1782 59.7146 46.1194 59.6108 46.0816C59.507 46.0438 59.3965 46.0278 59.2862 46.0346C57.4205 46.0249 55.5548 46.0249 53.6891 46.0346C53.1626 46.0346 52.8292 46.3735 52.8364 46.8435C52.8437 47.3136 53.1771 47.6197 53.7073 47.6215L56.4877 47.6179Z" fill="url(#paint2_linear_3346_1435)"/>
<path d="M54.3651 20.0001C55.286 19.9934 56.1887 20.2569 56.9614 20.7581C57.0453 20.8275 57.1503 20.8664 57.2592 20.8683C57.3681 20.8703 57.4744 20.8353 57.5608 20.769C58.224 20.3514 58.9774 20.0987 59.7582 20.032C60.539 19.9652 61.3245 20.0864 62.0488 20.3853C62.7732 20.6843 63.4155 21.1523 63.9219 21.7503C64.4284 22.3483 64.7843 23.0589 64.9599 23.8226C65.3753 25.5954 64.9107 27.1732 63.6335 28.4705C61.7751 30.3599 59.893 32.2219 58.0182 34.0931C57.508 34.6014 57.0525 34.6032 56.5387 34.0931C54.673 32.2292 52.7946 30.3799 50.9507 28.4942C49.6061 27.1186 49.0614 25.477 49.659 23.5967C50.242 21.7747 51.4991 20.5923 53.3758 20.1113C53.5261 20.0743 53.679 20.0481 53.8331 20.0329C54.0098 20.0129 54.1884 20.0092 54.3651 20.0001Z" fill="url(#paint3_linear_3346_1435)"/>
<path d="M25.4653 53.0492C27.8592 50.1334 29.7844 46.8627 31.1718 43.3545L42.1783 54.3629C38.6719 55.7544 35.4022 57.6806 32.4854 60.0729L25.4653 53.0492Z" fill="url(#paint4_linear_3346_1435)"/>
<path d="M46.7352 52.3437C46.7352 53.9725 45.1264 55.0766 43.6743 54.4408C43.4384 54.3305 43.2248 54.1779 43.0439 53.9908C39.225 50.1828 35.4098 46.3725 31.5982 42.5597C31.0097 41.973 30.7383 41.3025 30.9806 40.4954C31.0906 40.0848 31.312 39.7126 31.6204 39.42C31.9288 39.1274 32.312 38.9258 32.7278 38.8374C33.0504 38.7502 33.3906 38.7529 33.7117 38.845C34.0328 38.9372 34.3226 39.1154 34.5498 39.3603C38.4245 43.2278 42.2968 47.0982 46.1667 50.9717C46.3549 51.1458 46.5032 51.3586 46.6014 51.5954C46.6995 51.8322 46.7451 52.0875 46.7352 52.3437Z" fill="url(#paint5_linear_3346_1435)"/>
<path d="M24.4068 54.3701L31.2556 61.2244L30.4466 61.8858C30.9713 62.3886 31.425 62.8204 31.8732 63.2595C32.2631 63.6403 32.6494 64.0284 33.032 64.4165C33.4146 64.8046 33.4292 65.3275 33.0976 65.6591C33.0131 65.7378 32.9138 65.7989 32.8055 65.8388C32.6972 65.8788 32.582 65.8967 32.4666 65.8916C32.3513 65.8865 32.2381 65.8585 32.1337 65.8092C32.0293 65.7599 31.9358 65.6903 31.8586 65.6044C31.0333 64.7827 30.2188 63.9646 29.3589 63.1065C28.969 63.4709 28.5973 63.8553 28.2019 64.1997C26.881 65.3639 25.3669 65.8394 23.647 65.3311C20.4585 64.4037 18.5692 60.3644 21.3477 57.3326C22.306 56.2905 23.3865 55.3522 24.4068 54.3701Z" fill="url(#paint6_linear_3346_1435)"/>
<defs>
<linearGradient id="paint0_linear_3346_1435" x1="42.75" y1="4" x2="42.75" y2="81.5" gradientUnits="userSpaceOnUse">
<stop stop-color="#38E4AE"/>
<stop offset="1" stop-color="#0798AD"/>
</linearGradient>
<linearGradient id="paint1_linear_3346_1435" x1="27.3853" y1="24.7051" x2="42.9261" y2="25.0968" gradientUnits="userSpaceOnUse">
<stop stop-color="#42F8BF"/>
<stop offset="1" stop-color="#2FADC3"/>
</linearGradient>
<linearGradient id="paint2_linear_3346_1435" x1="49.4585" y1="41.6549" x2="64.374" y2="41.9629" gradientUnits="userSpaceOnUse">
<stop stop-color="#42F8BF"/>
<stop offset="1" stop-color="#2FADC3"/>
</linearGradient>
<linearGradient id="paint3_linear_3346_1435" x1="49.418" y1="22.458" x2="63.5653" y2="22.7528" gradientUnits="userSpaceOnUse">
<stop stop-color="#42F8BF"/>
<stop offset="1" stop-color="#2FADC3"/>
</linearGradient>
<linearGradient id="paint4_linear_3346_1435" x1="25.4653" y1="46.1935" x2="40.5361" y2="46.4831" gradientUnits="userSpaceOnUse">
<stop stop-color="#42F8BF"/>
<stop offset="1" stop-color="#2FADC3"/>
</linearGradient>
<linearGradient id="paint5_linear_3346_1435" x1="30.8921" y1="41.4653" x2="45.1797" y2="41.7399" gradientUnits="userSpaceOnUse">
<stop stop-color="#42F8BF"/>
<stop offset="1" stop-color="#2FADC3"/>
</linearGradient>
<linearGradient id="paint6_linear_3346_1435" x1="20" y1="56.3267" x2="32.0218" y2="56.5941" gradientUnits="userSpaceOnUse">
<stop stop-color="#42F8BF"/>
<stop offset="1" stop-color="#2FADC3"/>
</linearGradient>
</defs>
</svg>
