<svg width="85" height="85" viewBox="0 0 85 85" fill="none" xmlns="http://www.w3.org/2000/svg">
<circle cx="42.75" cy="42.75" r="40.5" stroke="white" stroke-width="3.5"/>
<path d="M17.0281 25.871C17.2839 24.8479 17.6957 23.8964 18.5168 23.1674C19.2946 22.4624 20.2942 22.0511 21.3429 22.0045C22.3916 21.9578 23.4237 22.2787 24.2611 22.9117C25.0985 23.5448 25.6887 24.4503 25.9297 25.472C26.1708 26.4937 26.0476 27.5675 25.5815 28.5081C25.5226 28.6283 25.4612 28.746 25.3973 28.8739C25.4415 28.9346 25.4902 28.9919 25.5431 29.0452C26.8552 30.2167 28.17 31.3856 29.5 32.5699C34.0043 29.5466 38.7081 29.2243 43.6268 31.603L45.3687 29.4852C44.4862 28.3495 44.0898 27.0834 44.366 25.6485C44.5549 24.6588 45.0765 23.7634 45.8444 23.1111C46.6024 22.453 47.5586 22.0671 48.561 22.0147C49.5634 21.9624 50.5546 22.2465 51.377 22.8221C53.2851 24.1726 53.7251 26.2572 52.6431 28.9276L60.9534 36.3248C60.9534 35.9257 60.9381 35.6648 60.9534 35.4065C60.9534 35.203 61.0343 35.0078 61.1782 34.8639C61.3221 34.72 61.5173 34.6392 61.7208 34.6392C61.9167 34.6503 62.1008 34.736 62.2355 34.8787C62.3701 35.0214 62.445 35.2103 62.4446 35.4065C62.4651 35.7365 62.4446 36.0715 62.4446 36.4757C63.7926 35.8951 65.069 35.8413 66.3453 36.4117C67.235 36.8049 67.9697 37.4811 68.435 38.3352C68.9041 39.1815 69.0883 40.1564 68.9605 41.1155C68.8326 42.0746 68.3995 42.9672 67.7251 43.661C67.0507 44.3549 66.1709 44.8134 65.2158 44.9685C64.2607 45.1237 63.281 44.9673 62.4216 44.5226C60.4342 43.5122 59.7462 41.709 60.2603 38.7777C59.8868 38.7777 59.5211 38.7777 59.1553 38.7777C58.6309 38.7649 58.324 38.481 58.3214 38.0257C58.3189 37.5704 58.6233 37.2891 59.1476 37.2584C59.2781 37.2584 59.4034 37.2584 59.6822 37.2584L51.6072 30.0453C50.0137 31.1733 48.3383 31.3242 46.5376 30.4392L44.9083 32.4215C48.0032 34.7466 49.8858 37.793 50.3308 41.6297C50.7759 45.4664 49.653 48.8785 47.1847 51.7867L49.8423 54.452C49.9953 54.2198 50.1664 54 50.3539 53.7946C50.7268 53.4134 51.2359 53.1958 51.7691 53.1896C52.3024 53.1834 52.8164 53.389 53.1981 53.7614C54.8633 55.3753 56.4926 57.0277 58.1245 58.6724C58.2035 58.743 58.2671 58.8292 58.3112 58.9256C58.3552 59.022 58.3788 59.1265 58.3805 59.2324C58.3822 59.3384 58.3619 59.4436 58.3209 59.5413C58.28 59.6391 58.2192 59.7273 58.1424 59.8004C57.8201 60.0971 57.3878 60.074 57.0144 59.7032C55.536 58.2375 54.0678 56.7617 52.5945 55.2909C51.8272 54.5236 51.7581 54.5236 50.9805 55.3088C50.382 55.9074 49.7809 56.5033 49.1901 57.0993C48.7808 57.5137 48.7757 57.7695 49.1901 58.1762C52.0343 61.0256 54.8829 63.8733 57.7357 66.7192C58.1271 67.1106 58.3956 67.1157 58.7767 66.7397C59.4895 66.0389 60.1963 65.3329 60.8972 64.6218C61.2885 64.2228 61.2885 63.9798 60.8972 63.5834C60.5058 63.1869 60.1042 62.7956 59.7155 62.394C59.3267 61.9924 59.2781 61.5704 59.6029 61.2302C59.9278 60.89 60.3703 60.9181 60.7642 61.2967C61.2143 61.7315 61.6645 62.1689 62.0917 62.6267C62.2886 62.8209 62.4445 63.0526 62.5501 63.3082C62.6557 63.5637 62.7089 63.8379 62.7065 64.1144C62.7041 64.3909 62.6462 64.6641 62.5362 64.9178C62.4262 65.1715 62.2663 65.4005 62.0661 65.5912C61.3158 66.3705 60.5485 67.1379 59.7641 67.8933C59.5693 68.1018 59.3334 68.2679 59.0714 68.3809C58.8093 68.4939 58.5267 68.5515 58.2414 68.5501C57.956 68.5486 57.674 68.4882 57.4131 68.3725C57.1522 68.2568 56.9181 68.0885 56.7254 67.8779C53.8265 64.991 50.9277 62.0922 48.0288 59.1814C47.1106 58.2606 47.1131 57.0379 48.0109 56.112C48.1874 55.9304 48.3895 55.7744 48.5378 55.6439L45.9161 53.0324C42.7341 55.7079 38.9793 56.777 34.7691 55.9995C31.6997 55.4316 29.1726 53.8688 27.1545 51.4849C23.1464 46.7479 22.8574 38.5961 28.2748 33.5393L24.3358 30.0325C23.1746 30.8792 21.911 31.227 20.5298 30.892C18.7393 30.4623 17.6241 29.3189 17.1253 27.5668C17.0895 27.4415 17.0435 27.311 17 27.1934L17.0281 25.871ZM37.2911 54.7231C39.584 54.7317 41.8279 54.0597 43.7386 52.7921C45.6493 51.5246 47.1408 49.7185 48.0244 47.6027C48.9079 45.4869 49.1437 43.1564 48.7018 40.9065C48.26 38.6566 47.1603 36.5884 45.5423 34.9638C43.9242 33.3393 41.8604 32.2314 39.6122 31.7806C37.3641 31.3298 35.0327 31.5563 32.9133 32.4314C30.794 33.3065 28.982 34.7909 27.7069 36.6965C26.4317 38.6021 25.7508 40.8433 25.7503 43.1362C25.7496 46.2015 26.9638 49.1421 29.127 51.3139C31.2901 53.4857 34.2259 54.7116 37.2911 54.7231ZM21.5401 23.5178C20.7478 23.5178 19.9879 23.8326 19.4276 24.3928C18.8673 24.9531 18.5526 25.713 18.5526 26.5053C18.5526 27.2977 18.8673 28.0576 19.4276 28.6178C19.9879 29.1781 20.7478 29.4929 21.5401 29.4929C22.3325 29.4929 23.0923 29.1781 23.6526 28.6178C24.2129 28.0576 24.5276 27.2977 24.5276 26.5053C24.5276 25.713 24.2129 24.9531 23.6526 24.3928C23.0923 23.8326 22.3325 23.5178 21.5401 23.5178ZM48.7834 23.5178C48.1932 23.5163 47.6157 23.6897 47.1239 24.016C46.6321 24.3423 46.248 24.807 46.0201 25.3515C45.7921 25.8959 45.7305 26.4956 45.8431 27.075C45.9556 27.6544 46.2373 28.1875 46.6525 28.607C47.0677 29.0264 47.5978 29.3135 48.176 29.432C48.7543 29.5505 49.3546 29.4951 49.9013 29.2727C50.4481 29.0503 50.9167 28.671 51.248 28.1826C51.5794 27.6942 51.7587 27.1185 51.7632 26.5283C51.7646 25.7355 51.4518 24.9744 50.8933 24.4116C50.3349 23.8488 49.5762 23.5302 48.7834 23.5255V23.5178ZM64.4986 37.5372C63.9087 37.5387 63.3326 37.7149 62.8428 38.0436C62.3531 38.3723 61.9717 38.8387 61.7468 39.384C61.5219 39.9292 61.4636 40.5289 61.5792 41.1073C61.6948 41.6857 61.9792 42.2168 62.3965 42.6337C62.8137 43.0506 63.3451 43.3345 63.9236 43.4497C64.5021 43.5648 65.1017 43.506 65.6468 43.2806C66.1918 43.0552 66.6579 42.6734 66.9862 42.1834C67.3145 41.6934 67.4902 41.1171 67.4912 40.5273C67.4915 40.1343 67.4143 39.7451 67.264 39.382C67.1137 39.0189 66.8933 38.689 66.6153 38.4113C66.3373 38.1335 66.0072 37.9133 65.644 37.7634C65.2808 37.6134 64.8915 37.5365 64.4986 37.5372Z" fill="white"/>
<path d="M41.9775 35.9947L40.6986 37.5472C41.5938 38.6983 41.9928 39.9823 41.6935 41.4326C41.4984 42.4032 40.9822 43.2799 40.2279 43.9213C39.4633 44.5901 38.4943 44.9796 37.4795 45.026C36.4647 45.0725 35.4642 44.7732 34.6417 44.1771C32.7642 42.8342 32.3396 40.7701 33.4088 38.1074L31.7769 36.6469C30.5023 37.6993 29.5773 39.1139 29.1245 40.7036C27.7228 45.5046 30.544 50.3031 35.4269 51.4822C35.7461 51.5582 36.0221 51.7579 36.1943 52.0373C36.4679 52.6409 35.9027 53.132 35.1711 52.9709C33.7229 52.6744 32.3642 52.0428 31.204 51.1267C27.8993 48.4614 26.6332 44.9879 27.5488 40.8775C28.4466 36.8515 31.0889 34.3295 35.0842 33.3473C40.9134 31.915 46.735 36.12 47.3284 42.1155C47.5861 44.5494 46.9433 46.9935 45.5214 48.9856C44.0995 50.9778 41.9971 52.3801 39.6115 52.9274C39.4813 52.9635 39.3489 52.9908 39.215 53.0092C38.7546 53.0578 38.4068 52.8353 38.3428 52.4337C38.3167 52.339 38.3105 52.24 38.3246 52.1427C38.3387 52.0455 38.3727 51.9523 38.4246 51.8689C38.4765 51.7855 38.5452 51.7138 38.6262 51.6582C38.7072 51.6027 38.7988 51.5645 38.8953 51.5462C39.2534 51.4413 39.6217 51.3773 39.9696 51.2494C43.1873 50.0882 45.1926 47.8297 45.7247 44.4533C46.2567 41.077 45.0059 38.3555 42.3535 36.2479C42.2563 36.166 42.1386 36.0995 41.9775 35.9947ZM37.3299 37.5293C36.9379 37.5258 36.5491 37.5995 36.1856 37.7463C35.8221 37.893 35.491 38.1099 35.2114 38.3846C34.9317 38.6593 34.7089 38.9864 34.5556 39.3472C34.4023 39.708 34.3216 40.0955 34.3181 40.4875C34.3146 40.8794 34.3883 41.2683 34.535 41.6318C34.6818 41.9953 34.8987 42.3263 35.1734 42.606C35.4481 42.8857 35.7752 43.1085 36.136 43.2618C36.4968 43.415 36.8842 43.4958 37.2762 43.4993C38.0679 43.5064 38.8299 43.1987 39.3948 42.644C39.9596 42.0892 40.2809 41.3328 40.288 40.5412C40.2952 39.7495 39.9875 38.9874 39.4327 38.4226C38.878 37.8578 38.1216 37.5365 37.3299 37.5293ZM40.5937 35.2708C38.018 34.1044 34.6059 34.6032 33.1249 35.7824L34.4601 36.959C36.0766 35.7977 37.7571 35.6954 39.522 36.5574L40.5937 35.2708Z" fill="white"/>
</svg>
